<svg xmlns="http://www.w3.org/2000/svg" xmlns:xlink="http://www.w3.org/1999/xlink" width="501" height="501" viewBox="0 0 501 501"><defs><linearGradient id="a" x1="344.4589" y1="154.16797" x2="325.71057" y2="154.75847" gradientUnits="userSpaceOnUse"><stop offset="0" stop-color="#536269"/><stop offset="0.31136" stop-color="#515f66"/><stop offset="0.58488" stop-color="#4b545b"/><stop offset="0.84333" stop-color="#414249"/><stop offset="1" stop-color="#39333a"/></linearGradient><linearGradient id="b" x1="131.98462" y1="162.31002" x2="147.18996" y2="162.1624" xlink:href="#a"/><linearGradient id="c" x1="453.65862" y1="564.95177" x2="94.9307" y2="54.76095" gradientUnits="userSpaceOnUse"><stop offset="0" stop-color="blue"/><stop offset="0.01863" stop-color="#0a0fff"/><stop offset="0.08189" stop-color="#2a3efe"/><stop offset="0.15089" stop-color="#4768fe"/><stop offset="0.22413" stop-color="#608dfe"/><stop offset="0.30268" stop-color="#75abfe"/><stop offset="0.38832" stop-color="#87c4fd"/><stop offset="0.48383" stop-color="#94d7fd"/><stop offset="0.59465" stop-color="#9de5fd"/><stop offset="0.73468" stop-color="#a2edfd"/><stop offset="1" stop-color="#a4effd"/></linearGradient><linearGradient id="d" x1="73.92842" y1="61.20334" x2="444.17107" y2="504.96306" gradientUnits="userSpaceOnUse"><stop offset="0" stop-color="#536269"/><stop offset="0.18509" stop-color="#55626c"/><stop offset="0.34777" stop-color="#596177"/><stop offset="0.50205" stop-color="#615f89"/><stop offset="0.65112" stop-color="#6c5da3"/><stop offset="0.79653" stop-color="#7b5ac3"/><stop offset="0.93724" stop-color="#8c56eb"/><stop offset="1" stop-color="#9554ff"/></linearGradient><linearGradient id="e" x1="241.42772" y1="72.24059" x2="241.62455" y2="85.03473" gradientTransform="translate(483.15452 163.92186) rotate(180)" gradientUnits="userSpaceOnUse"><stop offset="0" stop-color="#536269"/><stop offset="0.37963" stop-color="#515f65"/><stop offset="0.73105" stop-color="#49545a"/><stop offset="1" stop-color="#40474c"/></linearGradient><linearGradient id="f" x1="210.16782" y1="78.31687" x2="210.26623" y2="84.91077" gradientUnits="userSpaceOnUse"><stop offset="0" stop-color="#536269"/><stop offset="1" stop-color="#40474c"/></linearGradient><linearGradient id="g" x1="67.93729" y1="194.22986" x2="148.98323" y2="285.01902" gradientUnits="userSpaceOnUse"><stop offset="0" stop-color="#00c568"/><stop offset="0.10929" stop-color="#26d053"/><stop offset="0.26127" stop-color="#53dd3a"/><stop offset="0.41406" stop-color="#79e825"/><stop offset="0.56529" stop-color="#96f015"/><stop offset="0.71435" stop-color="#abf609"/><stop offset="0.86043" stop-color="#b8fa02"/><stop offset="1" stop-color="#bcfb00"/></linearGradient><linearGradient id="h" x1="387.81596" y1="68.75183" x2="403.31655" y2="86.02391" gradientUnits="userSpaceOnUse"><stop offset="0" stop-color="#ff1df0"/><stop offset="0.24098" stop-color="#d849f3"/><stop offset="0.78324" stop-color="#78b8fc"/><stop offset="1" stop-color="#50e6ff"/></linearGradient><linearGradient id="i" x1="448.62175" y1="441.87742" x2="462.79371" y2="455.75413" xlink:href="#h"/><linearGradient id="j" x1="71.1251" y1="467.23402" x2="83.82082" y2="481.20916" xlink:href="#h"/><linearGradient id="k" x1="35.8955" y1="66.19735" x2="50.51034" y2="82.28844" xlink:href="#h"/><linearGradient id="l" x1="190.09473" y1="200.52093" x2="296.86746" y2="320.10638" gradientUnits="userSpaceOnUse"><stop offset="0" stop-color="#fd9009"/><stop offset="0.38209" stop-color="#fda932"/><stop offset="1" stop-color="#fdcf72"/></linearGradient><linearGradient id="m" x1="446.77661" y1="194.49318" x2="470.98706" y2="216.63688" gradientUnits="userSpaceOnUse"><stop offset="0" stop-color="#13b9f0"/><stop offset="0.23208" stop-color="#10c4e8"/><stop offset="0.63315" stop-color="#08e0d2"/><stop offset="1" stop-color="#00ffba"/></linearGradient><linearGradient id="n" x1="30.66323" y1="358.32921" x2="51.92118" y2="379.58717" xlink:href="#m"/><linearGradient id="o" x1="348.97887" y1="474.5451" x2="374.07506" y2="495.80305" xlink:href="#m"/><linearGradient id="p" x1="129.38782" y1="-1.05592" x2="153.30302" y2="26.40227" xlink:href="#m"/><linearGradient id="q" x1="313.72042" y1="125.00459" x2="388.12324" y2="225.53698" xlink:href="#g"/><linearGradient id="r" x1="286.27446" y1="321.65604" x2="417.36515" y2="412.00233" xlink:href="#g"/><linearGradient id="s" x1="209.779" y1="226.08112" x2="265.06354" y2="280.41657" gradientUnits="userSpaceOnUse"><stop offset="0" stop-color="#bd0020"/><stop offset="0.4602" stop-color="#df360f"/><stop offset="0.81062" stop-color="#f55805"/><stop offset="1" stop-color="#fd6501"/></linearGradient><linearGradient id="t" x1="287.61778" y1="232.97001" x2="264.88358" y2="199.90208" gradientUnits="userSpaceOnUse"><stop offset="0" stop-color="#ff54a2"/><stop offset="0.22548" stop-color="#fa509b"/><stop offset="0.54364" stop-color="#eb4689"/><stop offset="0.91534" stop-color="#d2356b"/><stop offset="1" stop-color="#cc3163"/></linearGradient><linearGradient id="u" x1="281.2563" y1="223.0692" x2="271.90673" y2="208.79882" gradientUnits="userSpaceOnUse"><stop offset="0" stop-color="#fff"/><stop offset="0.40022" stop-color="#f9f9f9"/><stop offset="0.91392" stop-color="#e9e9e9"/><stop offset="1" stop-color="#e6e6e6"/></linearGradient></defs><title>app</title><g opacity="0"><rect x="0.5" y="0.5" width="500" height="500" fill="none" stroke="#fff" stroke-miterlimit="10"/></g><path d="M310.055,122.42339h26.16391a2.18733,2.18733,0,0,1,2.18308,2.32378l-1.87225,29.95591a2.1911,2.1911,0,0,0,0,.27289l1.87225,29.95592a2.18733,2.18733,0,0,1-2.18308,2.32377H310.055a2.18733,2.18733,0,0,1-2.18733-2.18733v-60.4576A2.18733,2.18733,0,0,1,310.055,122.42339Z" fill="url(#a)"/><path d="M136.5655,138.72807h26.16392a2.18733,2.18733,0,0,1,2.18307,2.32377l-1.87224,11.94459a2.18709,2.18709,0,0,0,0,.27288l1.87224,29.95592a2.18733,2.18733,0,0,1-2.18307,2.32377H136.5655a2.18733,2.18733,0,0,1-2.18733-2.18733V140.9154A2.18733,2.18733,0,0,1,136.5655,138.72807Z" fill="url(#b)"/><rect x="147.77006" y="77.43878" width="177.03004" height="356.71901" rx="29.03057" fill="url(#c)"/><path d="M305.25133,68.2478H167.31905a29.326,29.326,0,0,0-29.326,29.32592v316.4491a29.326,29.326,0,0,0,29.326,29.326H305.25133a29.32592,29.32592,0,0,0,29.3258-29.326V97.57372A29.32591,29.32591,0,0,0,305.25133,68.2478Zm19.54885,336.87939a29.03057,29.03057,0,0,1-29.03053,29.03059H176.80072a29.03049,29.03049,0,0,1-29.03052-29.03059V106.46934a29.03049,29.03049,0,0,1,29.03052-29.03058h14.53671a16.75246,16.75246,0,0,0,16.72413,15.92817h56.44725a16.75236,16.75236,0,0,0,16.724-15.92817h14.53681a29.03056,29.03056,0,0,1,29.03053,29.03058Z" fill="url(#d)"/><rect x="217.79815" y="78.93816" width="47.55822" height="6.04554" rx="3.02277" transform="translate(483.15452 163.92186) rotate(-180)" fill="url(#e)"/><circle cx="210.2222" cy="81.96093" r="3.00841" fill="url(#f)"/><path d="M164.95057,214.79269H41.34866a5.61366,5.61366,0,0,0-5.61369,5.61362v26.538a5.61365,5.61365,0,0,0,5.61369,5.61362H147.05315l10.997,9.88876a.94887.94887,0,0,0,1.58332-.70557v-9.18319h5.31706a5.61354,5.61354,0,0,0,5.61355-5.61362v-26.538A5.61354,5.61354,0,0,0,164.95057,214.79269Z" fill="url(#g)"/><rect x="51.09972" y="228.02812" width="11.29441" height="11.29441" rx="5.6472" fill="#fff"/><rect x="97.50241" y="228.02812" width="11.29441" height="11.29441" rx="5.6472" fill="#fff"/><rect x="143.9051" y="228.02812" width="11.29441" height="11.29441" rx="5.6472" fill="#fff"/><rect x="390.45668" y="72.28352" width="10.31053" height="10.31053" rx="5.15526" fill="url(#h)"/><rect x="450.23411" y="443.34879" width="10.31053" height="10.31053" rx="5.15526" fill="url(#i)"/><rect x="71.76094" y="468.45346" width="10.31053" height="10.31053" rx="5.15526" fill="url(#j)"/><rect x="37.29856" y="68.26287" width="10.31053" height="10.31053" rx="5.15526" fill="url(#k)"/><rect x="192.70667" y="208.56902" width="85.37854" height="85.37854" rx="19.57883" fill="url(#l)"/><path d="M473.27456,204.74074l-10.62774-3.22295a.54055.54055,0,0,1-.36041-.36041l-3.22295-10.62774a.54054.54054,0,0,0-1.03457,0L454.806,201.15738a.54056.54056,0,0,1-.36042.36041l-10.62774,3.22295a.54055.54055,0,0,0,0,1.03457l10.62774,3.22294a.54056.54056,0,0,1,.36042.36042l3.22294,10.62774a.54055.54055,0,0,0,1.03457,0l3.22295-10.62774a.54054.54054,0,0,1,.36041-.36042l10.62774-3.22294A.54055.54055,0,0,0,473.27456,204.74074Z" fill="url(#m)"/><path d="M57.18221,369.60253l-10.62774-3.223a.54056.54056,0,0,1-.36042-.36041l-3.22294-10.62775a.54055.54055,0,0,0-1.03457,0l-3.22295,10.62775a.54055.54055,0,0,1-.36041.36041l-10.62774,3.223a.54055.54055,0,0,0,0,1.03457L38.35318,373.86a.54054.54054,0,0,1,.36041.36042l3.22295,10.62774a.54055.54055,0,0,0,1.03457,0l3.22294-10.62774a.54056.54056,0,0,1,.36042-.36042l10.62774-3.22294A.54055.54055,0,0,0,57.18221,369.60253Z" fill="url(#n)"/><path d="M376.50782,484.87065l-10.62774-3.223a.54055.54055,0,0,1-.36041-.36041l-3.223-10.62774a.54055.54055,0,0,0-1.03457,0l-3.22294,10.62774a.54056.54056,0,0,1-.36042.36041l-10.62774,3.223a.54055.54055,0,0,0,0,1.03457l10.62774,3.223a.54056.54056,0,0,1,.36042.36041l3.22294,10.62774a.54055.54055,0,0,0,1.03457,0l3.223-10.62774a.54055.54055,0,0,1,.36041-.36041l10.62774-3.223A.54054.54054,0,0,0,376.50782,484.87065Z" fill="url(#o)"/><path d="M158.63349,15.09478l-10.62774-3.223a.54054.54054,0,0,1-.36042-.36041L144.42239.88368a.54055.54055,0,0,0-1.03458,0l-3.22294,10.62774a.54054.54054,0,0,1-.36042.36041l-10.62774,3.223a.54055.54055,0,0,0,0,1.03457l10.62774,3.223a.54054.54054,0,0,1,.36042.36041l3.22294,10.62774a.54055.54055,0,0,0,1.03458,0l3.22294-10.62774a.54054.54054,0,0,1,.36042-.36041l10.62774-3.223A.54055.54055,0,0,0,158.63349,15.09478Z" fill="url(#p)"/><path d="M396.51917,144.30593H296.81558a4.6271,4.6271,0,0,0-4.62714,4.62709v38.2882a4.6271,4.6271,0,0,0,4.62714,4.62709h4.9397v12.36844a1.03916,1.03916,0,0,0,1.774.73481l13.10344-13.10325h79.88649a4.6271,4.6271,0,0,0,4.62713-4.62709V148.933A4.6271,4.6271,0,0,0,396.51917,144.30593Z" fill="url(#q)"/><rect x="302.87807" y="152.88502" width="87.57861" height="4.86742" rx="2.43371" fill="#fff"/><rect x="302.87807" y="165.46886" width="67.70314" height="4.86742" rx="2.43371" fill="#fff"/><rect x="302.87807" y="178.0527" width="46.84184" height="4.86742" rx="2.43371" fill="#fff"/><path d="M391.72835,328.11878H319.12846l-10.34292-14.10395a.99666.99666,0,0,0-1.80036.5894v13.51455h-5.37893A6.98926,6.98926,0,0,0,294.617,335.108v56.34023a6.98932,6.98932,0,0,0,6.98925,6.98932h90.1221a6.98934,6.98934,0,0,0,6.98939-6.98932V335.108A6.98928,6.98928,0,0,0,391.72835,328.11878Z" fill="url(#r)"/><path d="M305.6739,387.90469l21.03142-23.74835a3.37452,3.37452,0,0,1,4.509-.49331l15.92389,11.563a3.37452,3.37452,0,0,0,4.48646-.46807l29.70989-32.87706" fill="none" stroke="#fff" stroke-linecap="round" stroke-miterlimit="10" stroke-width="4.0971"/><polygon points="380.482 337.496 387.208 335.306 385.742 342.226 384.276 349.146 379.016 344.416 373.756 339.687 380.482 337.496" fill="#fff"/><polygon points="209.106 236.08 209.106 266.437 235.396 281.615 261.686 266.437 261.686 236.08 235.396 220.901 209.106 236.08" fill="url(#s)"/><circle cx="275.10232" cy="214.7657" r="13.41657" fill="url(#t)"/><path d="M277.48224,208.67335V220.912h-3.297v-9.46515h-1.81421v-2.77354Z" fill="url(#u)"/></svg>