<?xml version="1.0" encoding="utf-8"?>
<!-- Generator: Adobe Illustrator 21.0.0, SVG Export Plug-In . SVG Version: 6.00 Build 0)  -->
<svg version="1.1" xmlns="http://www.w3.org/2000/svg" xmlns:xlink="http://www.w3.org/1999/xlink" x="0px" y="0px"
	 viewBox="0 0 1920 3748" style="enable-background:new 0 0 1920 3748;" xml:space="preserve">
<style type="text/css">
	.st0{display:none;}
	.st1{display:inline;}
	.st2{fill:#FF9F9F;}
	.st3{fill:#33FFA2;}
	.st4{opacity:0.1;}
	.st5{fill:none;stroke:#142B1B;stroke-width:3.989;stroke-linecap:round;stroke-miterlimit:10;}
	.st6{fill:none;stroke:#142B1B;stroke-width:3.989;stroke-linecap:round;stroke-miterlimit:10;stroke-dasharray:0,79.5436;}
</style>
<g id="Camada_1" class="st0">
	<g class="st1">
		<rect class="st2" width="1920" height="937"/>
	</g>
	<g class="st1">
		<rect y="937" class="st3" width="1920" height="937"/>
	</g>
	<g class="st1">
		<rect y="1874" class="st2" width="1920" height="937"/>
	</g>
	<g class="st1">
		<rect y="2811" class="st3" width="1920" height="937"/>
	</g>
</g>
<g id="Bolinhas">
	<g class="st4">
		<g>
			<g>
				<line class="st5" x1="5.8" y1="5.7" x2="5.8" y2="5.7"/>
				<line class="st6" x1="85.3" y1="5.7" x2="1875" y2="5.7"/>
				<line class="st5" x1="1914.8" y1="5.7" x2="1914.8" y2="5.7"/>
			</g>
		</g>
		<g>
			<g>
				<line class="st5" x1="5.8" y1="85.7" x2="5.8" y2="85.7"/>
				<line class="st6" x1="85.3" y1="85.7" x2="1875" y2="85.7"/>
				<line class="st5" x1="1914.8" y1="85.7" x2="1914.8" y2="85.7"/>
			</g>
		</g>
		<g>
			<g>
				<line class="st5" x1="5.8" y1="165.7" x2="5.8" y2="165.7"/>
				<line class="st6" x1="85.3" y1="165.7" x2="1875" y2="165.7"/>
				<line class="st5" x1="1914.8" y1="165.7" x2="1914.8" y2="165.7"/>
			</g>
		</g>
		<g>
			<g>
				<line class="st5" x1="5.8" y1="245.7" x2="5.8" y2="245.7"/>
				<line class="st6" x1="85.3" y1="245.7" x2="1875" y2="245.7"/>
				<line class="st5" x1="1914.8" y1="245.7" x2="1914.8" y2="245.7"/>
			</g>
		</g>
		<g>
			<g>
				<line class="st5" x1="5.8" y1="325.7" x2="5.8" y2="325.7"/>
				<line class="st6" x1="85.3" y1="325.7" x2="1875" y2="325.7"/>
				<line class="st5" x1="1914.8" y1="325.7" x2="1914.8" y2="325.7"/>
			</g>
		</g>
		<g>
			<g>
				<line class="st5" x1="5.8" y1="405.7" x2="5.8" y2="405.7"/>
				<line class="st6" x1="85.3" y1="405.7" x2="1875" y2="405.7"/>
				<line class="st5" x1="1914.8" y1="405.7" x2="1914.8" y2="405.7"/>
			</g>
		</g>
		<g>
			<g>
				<line class="st5" x1="5.8" y1="485.7" x2="5.8" y2="485.7"/>
				<line class="st6" x1="85.3" y1="485.7" x2="1875" y2="485.7"/>
				<line class="st5" x1="1914.8" y1="485.7" x2="1914.8" y2="485.7"/>
			</g>
		</g>
		<g>
			<g>
				<line class="st5" x1="5.8" y1="565.7" x2="5.8" y2="565.7"/>
				<line class="st6" x1="85.3" y1="565.7" x2="1875" y2="565.7"/>
				<line class="st5" x1="1914.8" y1="565.7" x2="1914.8" y2="565.7"/>
			</g>
		</g>
		<g>
			<g>
				<line class="st5" x1="5.8" y1="645.7" x2="5.8" y2="645.7"/>
				<line class="st6" x1="85.3" y1="645.7" x2="1875" y2="645.7"/>
				<line class="st5" x1="1914.8" y1="645.7" x2="1914.8" y2="645.7"/>
			</g>
		</g>
		<g>
			<g>
				<line class="st5" x1="5.8" y1="725.7" x2="5.8" y2="725.7"/>
				<line class="st6" x1="85.3" y1="725.7" x2="1875" y2="725.7"/>
				<line class="st5" x1="1914.8" y1="725.7" x2="1914.8" y2="725.7"/>
			</g>
		</g>
		<g>
			<g>
				<line class="st5" x1="5.8" y1="805.7" x2="5.8" y2="805.7"/>
				<line class="st6" x1="85.3" y1="805.7" x2="1875" y2="805.7"/>
				<line class="st5" x1="1914.8" y1="805.7" x2="1914.8" y2="805.7"/>
			</g>
		</g>
		<g>
			<g>
				<line class="st5" x1="5.8" y1="885.7" x2="5.8" y2="885.7"/>
				<line class="st6" x1="85.3" y1="885.7" x2="1875" y2="885.7"/>
				<line class="st5" x1="1914.8" y1="885.7" x2="1914.8" y2="885.7"/>
			</g>
		</g>
		<g>
			<g>
				<line class="st5" x1="5.8" y1="965.7" x2="5.8" y2="965.7"/>
				<line class="st6" x1="85.3" y1="965.7" x2="1875" y2="965.7"/>
				<line class="st5" x1="1914.8" y1="965.7" x2="1914.8" y2="965.7"/>
			</g>
		</g>
		<g>
			<g>
				<line class="st5" x1="5.8" y1="1045.7" x2="5.8" y2="1045.7"/>
				<line class="st6" x1="85.3" y1="1045.7" x2="1875" y2="1045.7"/>
				<line class="st5" x1="1914.8" y1="1045.7" x2="1914.8" y2="1045.7"/>
			</g>
		</g>
		<g>
			<g>
				<line class="st5" x1="5.8" y1="1125.7" x2="5.8" y2="1125.7"/>
				<line class="st6" x1="85.3" y1="1125.7" x2="1875" y2="1125.7"/>
				<line class="st5" x1="1914.8" y1="1125.7" x2="1914.8" y2="1125.7"/>
			</g>
		</g>
		<g>
			<g>
				<line class="st5" x1="5.8" y1="1205.7" x2="5.8" y2="1205.7"/>
				<line class="st6" x1="85.3" y1="1205.7" x2="1875" y2="1205.7"/>
				<line class="st5" x1="1914.8" y1="1205.7" x2="1914.8" y2="1205.7"/>
			</g>
		</g>
		<g>
			<g>
				<line class="st5" x1="5.8" y1="1285.7" x2="5.8" y2="1285.7"/>
				<line class="st6" x1="85.3" y1="1285.7" x2="1875" y2="1285.7"/>
				<line class="st5" x1="1914.8" y1="1285.7" x2="1914.8" y2="1285.7"/>
			</g>
		</g>
		<g>
			<g>
				<line class="st5" x1="5.8" y1="1365.7" x2="5.8" y2="1365.7"/>
				<line class="st6" x1="85.3" y1="1365.7" x2="1875" y2="1365.7"/>
				<line class="st5" x1="1914.8" y1="1365.7" x2="1914.8" y2="1365.7"/>
			</g>
		</g>
		<g>
			<g>
				<line class="st5" x1="5.8" y1="1445.7" x2="5.8" y2="1445.7"/>
				<line class="st6" x1="85.3" y1="1445.7" x2="1875" y2="1445.7"/>
				<line class="st5" x1="1914.8" y1="1445.7" x2="1914.8" y2="1445.7"/>
			</g>
		</g>
		<g>
			<g>
				<line class="st5" x1="5.8" y1="1525.7" x2="5.8" y2="1525.7"/>
				<line class="st6" x1="85.3" y1="1525.7" x2="1875" y2="1525.7"/>
				<line class="st5" x1="1914.8" y1="1525.7" x2="1914.8" y2="1525.7"/>
			</g>
		</g>
		<g>
			<g>
				<line class="st5" x1="5.8" y1="1605.7" x2="5.8" y2="1605.7"/>
				<line class="st6" x1="85.3" y1="1605.7" x2="1875" y2="1605.7"/>
				<line class="st5" x1="1914.8" y1="1605.7" x2="1914.8" y2="1605.7"/>
			</g>
		</g>
		<g>
			<g>
				<line class="st5" x1="5.8" y1="1685.7" x2="5.8" y2="1685.7"/>
				<line class="st6" x1="85.3" y1="1685.7" x2="1875" y2="1685.7"/>
				<line class="st5" x1="1914.8" y1="1685.7" x2="1914.8" y2="1685.7"/>
			</g>
		</g>
		<g>
			<g>
				<line class="st5" x1="5.8" y1="1765.7" x2="5.8" y2="1765.7"/>
				<line class="st6" x1="85.3" y1="1765.7" x2="1875" y2="1765.7"/>
				<line class="st5" x1="1914.8" y1="1765.7" x2="1914.8" y2="1765.7"/>
			</g>
		</g>
		<g>
			<g>
				<line class="st5" x1="5.8" y1="1845.7" x2="5.8" y2="1845.7"/>
				<line class="st6" x1="85.3" y1="1845.7" x2="1875" y2="1845.7"/>
				<line class="st5" x1="1914.8" y1="1845.7" x2="1914.8" y2="1845.7"/>
			</g>
		</g>
		<g>
			<g>
				<line class="st5" x1="5.8" y1="1925.7" x2="5.8" y2="1925.7"/>
				<line class="st6" x1="85.3" y1="1925.7" x2="1875" y2="1925.7"/>
				<line class="st5" x1="1914.8" y1="1925.7" x2="1914.8" y2="1925.7"/>
			</g>
		</g>
		<g>
			<g>
				<line class="st5" x1="5.8" y1="2005.7" x2="5.8" y2="2005.7"/>
				<line class="st6" x1="85.3" y1="2005.7" x2="1875" y2="2005.7"/>
				<line class="st5" x1="1914.8" y1="2005.7" x2="1914.8" y2="2005.7"/>
			</g>
		</g>
		<g>
			<g>
				<line class="st5" x1="5.8" y1="2085.7" x2="5.8" y2="2085.7"/>
				<line class="st6" x1="85.3" y1="2085.7" x2="1875" y2="2085.7"/>
				<line class="st5" x1="1914.8" y1="2085.7" x2="1914.8" y2="2085.7"/>
			</g>
		</g>
		<g>
			<g>
				<line class="st5" x1="5.8" y1="2165.7" x2="5.8" y2="2165.7"/>
				<line class="st6" x1="85.3" y1="2165.7" x2="1875" y2="2165.7"/>
				<line class="st5" x1="1914.8" y1="2165.7" x2="1914.8" y2="2165.7"/>
			</g>
		</g>
		<g>
			<g>
				<line class="st5" x1="5.8" y1="2245.7" x2="5.8" y2="2245.7"/>
				<line class="st6" x1="85.3" y1="2245.7" x2="1875" y2="2245.7"/>
				<line class="st5" x1="1914.8" y1="2245.7" x2="1914.8" y2="2245.7"/>
			</g>
		</g>
		<g>
			<g>
				<line class="st5" x1="5.8" y1="2325.7" x2="5.8" y2="2325.7"/>
				<line class="st6" x1="85.3" y1="2325.7" x2="1875" y2="2325.7"/>
				<line class="st5" x1="1914.8" y1="2325.7" x2="1914.8" y2="2325.7"/>
			</g>
		</g>
		<g>
			<g>
				<line class="st5" x1="5.8" y1="2405.7" x2="5.8" y2="2405.7"/>
				<line class="st6" x1="85.3" y1="2405.7" x2="1875" y2="2405.7"/>
				<line class="st5" x1="1914.8" y1="2405.7" x2="1914.8" y2="2405.7"/>
			</g>
		</g>
		<g>
			<g>
				<line class="st5" x1="5.8" y1="2485.7" x2="5.8" y2="2485.7"/>
				<line class="st6" x1="85.3" y1="2485.7" x2="1875" y2="2485.7"/>
				<line class="st5" x1="1914.8" y1="2485.7" x2="1914.8" y2="2485.7"/>
			</g>
		</g>
		<g>
			<g>
				<line class="st5" x1="5.8" y1="2565.7" x2="5.8" y2="2565.7"/>
				<line class="st6" x1="85.3" y1="2565.7" x2="1875" y2="2565.7"/>
				<line class="st5" x1="1914.8" y1="2565.7" x2="1914.8" y2="2565.7"/>
			</g>
		</g>
		<g>
			<g>
				<line class="st5" x1="5.8" y1="2645.7" x2="5.8" y2="2645.7"/>
				<line class="st6" x1="85.3" y1="2645.7" x2="1875" y2="2645.7"/>
				<line class="st5" x1="1914.8" y1="2645.7" x2="1914.8" y2="2645.7"/>
			</g>
		</g>
		<g>
			<g>
				<line class="st5" x1="5.8" y1="2725.7" x2="5.8" y2="2725.7"/>
				<line class="st6" x1="85.3" y1="2725.7" x2="1875" y2="2725.7"/>
				<line class="st5" x1="1914.8" y1="2725.7" x2="1914.8" y2="2725.7"/>
			</g>
		</g>
		<g>
			<g>
				<line class="st5" x1="5.8" y1="2805.7" x2="5.8" y2="2805.7"/>
				<line class="st6" x1="85.3" y1="2805.7" x2="1875" y2="2805.7"/>
				<line class="st5" x1="1914.8" y1="2805.7" x2="1914.8" y2="2805.7"/>
			</g>
		</g>
		<g>
			<g>
				<line class="st5" x1="5.8" y1="2885.7" x2="5.8" y2="2885.7"/>
				<line class="st6" x1="85.3" y1="2885.7" x2="1875" y2="2885.7"/>
				<line class="st5" x1="1914.8" y1="2885.7" x2="1914.8" y2="2885.7"/>
			</g>
		</g>
		<g>
			<g>
				<line class="st5" x1="5.8" y1="2965.7" x2="5.8" y2="2965.7"/>
				<line class="st6" x1="85.3" y1="2965.7" x2="1875" y2="2965.7"/>
				<line class="st5" x1="1914.8" y1="2965.7" x2="1914.8" y2="2965.7"/>
			</g>
		</g>
		<g>
			<g>
				<line class="st5" x1="5.8" y1="3045.7" x2="5.8" y2="3045.7"/>
				<line class="st6" x1="85.3" y1="3045.7" x2="1875" y2="3045.7"/>
				<line class="st5" x1="1914.8" y1="3045.7" x2="1914.8" y2="3045.7"/>
			</g>
		</g>
		<g>
			<g>
				<line class="st5" x1="5.8" y1="3125.7" x2="5.8" y2="3125.7"/>
				<line class="st6" x1="85.3" y1="3125.7" x2="1875" y2="3125.7"/>
				<line class="st5" x1="1914.8" y1="3125.7" x2="1914.8" y2="3125.7"/>
			</g>
		</g>
		<g>
			<g>
				<line class="st5" x1="5.8" y1="3205.7" x2="5.8" y2="3205.7"/>
				<line class="st6" x1="85.3" y1="3205.7" x2="1875" y2="3205.7"/>
				<line class="st5" x1="1914.8" y1="3205.7" x2="1914.8" y2="3205.7"/>
			</g>
		</g>
		<g>
			<g>
				<line class="st5" x1="5.8" y1="3285.7" x2="5.8" y2="3285.7"/>
				<line class="st6" x1="85.3" y1="3285.7" x2="1875" y2="3285.7"/>
				<line class="st5" x1="1914.8" y1="3285.7" x2="1914.8" y2="3285.7"/>
			</g>
		</g>
		<g>
			<g>
				<line class="st5" x1="5.8" y1="3365.7" x2="5.8" y2="3365.7"/>
				<line class="st6" x1="85.3" y1="3365.7" x2="1875" y2="3365.7"/>
				<line class="st5" x1="1914.8" y1="3365.7" x2="1914.8" y2="3365.7"/>
			</g>
		</g>
		<g>
			<g>
				<line class="st5" x1="5.8" y1="3445.7" x2="5.8" y2="3445.7"/>
				<line class="st6" x1="85.3" y1="3445.7" x2="1875" y2="3445.7"/>
				<line class="st5" x1="1914.8" y1="3445.7" x2="1914.8" y2="3445.7"/>
			</g>
		</g>
		<g>
			<g>
				<line class="st5" x1="5.8" y1="3525.7" x2="5.8" y2="3525.7"/>
				<line class="st6" x1="85.3" y1="3525.7" x2="1875" y2="3525.7"/>
				<line class="st5" x1="1914.8" y1="3525.7" x2="1914.8" y2="3525.7"/>
			</g>
		</g>
		<g>
			<g>
				<line class="st5" x1="5.8" y1="3605.7" x2="5.8" y2="3605.7"/>
				<line class="st6" x1="85.3" y1="3605.7" x2="1875" y2="3605.7"/>
				<line class="st5" x1="1914.8" y1="3605.7" x2="1914.8" y2="3605.7"/>
			</g>
		</g>
		<g>
			<g>
				<line class="st5" x1="5.8" y1="3685.7" x2="5.8" y2="3685.7"/>
				<line class="st6" x1="85.3" y1="3685.7" x2="1875" y2="3685.7"/>
				<line class="st5" x1="1914.8" y1="3685.7" x2="1914.8" y2="3685.7"/>
			</g>
		</g>
		<g>
			<g>
				<line class="st5" x1="5.8" y1="3765.7" x2="5.8" y2="3765.7"/>
				<line class="st6" x1="85.3" y1="3765.7" x2="1875" y2="3765.7"/>
				<line class="st5" x1="1914.8" y1="3765.7" x2="1914.8" y2="3765.7"/>
			</g>
		</g>
	</g>
</g>
</svg>
