<svg xmlns="http://www.w3.org/2000/svg" xmlns:xlink="http://www.w3.org/1999/xlink" viewBox="0 0 1920 3748"><defs><style>.cls-1{isolation:isolate;}.cls-2{opacity:0;}.cls-3{fill:#ff9f9f;}.cls-4{fill:#33ffa2;}.cls-5{fill:url(#linear-gradient);}.cls-6{fill:url(#linear-gradient-2);}.cls-7{fill:url(#linear-gradient-3);}.cls-8{fill:url(#linear-gradient-4);}.cls-9{fill:url(#linear-gradient-5);}.cls-10{fill:url(#linear-gradient-6);}.cls-11{fill:url(#linear-gradient-7);}.cls-12{fill:url(#linear-gradient-8);}.cls-13{fill:url(#linear-gradient-9);}.cls-14{fill:url(#linear-gradient-10);}.cls-15{fill:url(#linear-gradient-11);}.cls-16{fill:url(#linear-gradient-12);}.cls-17{fill:url(#linear-gradient-13);}.cls-18{fill:url(#linear-gradient-14);}.cls-19{fill:url(#linear-gradient-15);}.cls-20{fill:url(#linear-gradient-16);}.cls-21{fill:url(#linear-gradient-17);}.cls-22{fill:url(#linear-gradient-18);}.cls-23,.cls-24,.cls-25,.cls-26,.cls-27,.cls-28,.cls-29,.cls-30,.cls-31,.cls-32,.cls-33,.cls-34,.cls-35,.cls-36,.cls-37,.cls-38,.cls-39,.cls-40{opacity:0.3;mix-blend-mode:hard-light;}.cls-23{fill:url(#linear-gradient-19);}.cls-24{fill:url(#linear-gradient-20);}.cls-25{fill:url(#linear-gradient-21);}.cls-26{fill:url(#linear-gradient-22);}.cls-27{fill:url(#linear-gradient-23);}.cls-28{fill:url(#linear-gradient-24);}.cls-29{fill:url(#linear-gradient-25);}.cls-30{fill:url(#linear-gradient-26);}.cls-31{fill:url(#linear-gradient-27);}.cls-32{fill:url(#linear-gradient-28);}.cls-33{fill:url(#linear-gradient-29);}.cls-34{fill:url(#linear-gradient-30);}.cls-35{fill:url(#linear-gradient-31);}.cls-36{fill:url(#linear-gradient-32);}.cls-37{fill:url(#linear-gradient-33);}.cls-38{fill:url(#linear-gradient-34);}.cls-39{fill:url(#linear-gradient-35);}.cls-40{fill:url(#linear-gradient-36);}</style><linearGradient id="linear-gradient" x1="313.41" y1="3927.72" x2="105.07" y2="73.42" gradientUnits="userSpaceOnUse"><stop offset="0" stop-color="#81217e"/><stop offset="0.5" stop-color="#da4154"/><stop offset="1" stop-color="#e66e26"/></linearGradient><linearGradient id="linear-gradient-2" x1="382.38" y1="3923.99" x2="174.04" y2="69.69" xlink:href="#linear-gradient"/><linearGradient id="linear-gradient-3" x1="622.47" y1="3911.01" x2="414.13" y2="56.71" xlink:href="#linear-gradient"/><linearGradient id="linear-gradient-4" x1="209.65" y1="3933.32" x2="1.31" y2="79.03" xlink:href="#linear-gradient"/><linearGradient id="linear-gradient-5" x1="232.6" y1="3992.08" x2="24.26" y2="137.79" xlink:href="#linear-gradient"/><linearGradient id="linear-gradient-6" x1="356" y1="3965.95" x2="147.66" y2="111.66" xlink:href="#linear-gradient"/><linearGradient id="linear-gradient-7" x1="503.55" y1="3917.44" x2="295.21" y2="63.14" xlink:href="#linear-gradient"/><linearGradient id="linear-gradient-8" x1="214.33" y1="3933.07" x2="5.99" y2="78.77" xlink:href="#linear-gradient"/><linearGradient id="linear-gradient-9" x1="344.05" y1="3995.52" x2="135.7" y2="141.22" xlink:href="#linear-gradient"/><linearGradient id="linear-gradient-10" x1="216.02" y1="3932.98" x2="7.68" y2="78.68" xlink:href="#linear-gradient"/><linearGradient id="linear-gradient-11" x1="600.65" y1="3912.19" x2="392.31" y2="57.89" xlink:href="#linear-gradient"/><linearGradient id="linear-gradient-12" x1="390.31" y1="3923.56" x2="181.97" y2="69.26" xlink:href="#linear-gradient"/><linearGradient id="linear-gradient-13" x1="173.62" y1="3935.27" x2="-34.72" y2="80.97" xlink:href="#linear-gradient"/><linearGradient id="linear-gradient-14" x1="164" y1="3935.79" x2="-44.34" y2="81.49" xlink:href="#linear-gradient"/><linearGradient id="linear-gradient-15" x1="443.04" y1="3920.71" x2="234.7" y2="66.41" xlink:href="#linear-gradient"/><linearGradient id="linear-gradient-16" x1="292.43" y1="3928.85" x2="84.09" y2="74.55" xlink:href="#linear-gradient"/><linearGradient id="linear-gradient-17" x1="304.04" y1="3928.22" x2="95.7" y2="73.92" xlink:href="#linear-gradient"/><linearGradient id="linear-gradient-18" x1="488.07" y1="3918.27" x2="279.73" y2="63.98" xlink:href="#linear-gradient"/><linearGradient id="linear-gradient-19" x1="-10.36" y1="281.04" x2="243.93" y2="303.25" gradientUnits="userSpaceOnUse"><stop offset="0" stop-color="#4a4a93"/><stop offset="1" stop-color="#fcee6b"/></linearGradient><linearGradient id="linear-gradient-20" x1="138.68" y1="632.73" x2="270.43" y2="668.48" xlink:href="#linear-gradient-19"/><linearGradient id="linear-gradient-21" x1="379.71" y1="203.91" x2="470.61" y2="226.04" xlink:href="#linear-gradient-19"/><linearGradient id="linear-gradient-22" x1="116.45" y1="2709.52" x2="173.13" y2="2698.79" xlink:href="#linear-gradient-19"/><linearGradient id="linear-gradient-23" x1="-7.54" y1="1920.47" x2="243.18" y2="1876.55" xlink:href="#linear-gradient-19"/><linearGradient id="linear-gradient-24" x1="211.28" y1="2166.98" x2="304.38" y2="2139.07" xlink:href="#linear-gradient-19"/><linearGradient id="linear-gradient-25" x1="334.54" y1="1688.73" x2="426.97" y2="1652.47" xlink:href="#linear-gradient-19"/><linearGradient id="linear-gradient-26" x1="135.46" y1="3753.94" x2="262.44" y2="3687.55" xlink:href="#linear-gradient-19"/><linearGradient id="linear-gradient-27" x1="260.63" y1="3375.71" x2="359.95" y2="3355.54" xlink:href="#linear-gradient-19"/><linearGradient id="linear-gradient-28" x1="31.7" y1="645.26" x2="44.59" y2="650.62" xlink:href="#linear-gradient-19"/><linearGradient id="linear-gradient-29" x1="487.4" y1="1979.85" x2="505.1" y2="1975.76" xlink:href="#linear-gradient-19"/><linearGradient id="linear-gradient-30" x1="361.72" y1="3519.93" x2="375.16" y2="3516.52" xlink:href="#linear-gradient-19"/><linearGradient id="linear-gradient-31" x1="115.52" y1="3130.92" x2="144.11" y2="3125.17" xlink:href="#linear-gradient-19"/><linearGradient id="linear-gradient-32" x1="63.56" y1="2185.03" x2="75.95" y2="2182.54" xlink:href="#linear-gradient-19"/><linearGradient id="linear-gradient-33" x1="375.95" y1="2792.37" x2="389.87" y2="2790.07" xlink:href="#linear-gradient-19"/><linearGradient id="linear-gradient-34" x1="204.38" y1="2537.34" x2="229.14" y2="2532.36" xlink:href="#linear-gradient-19"/><linearGradient id="linear-gradient-35" x1="165.89" y1="1539.65" x2="185.81" y2="1548.58" xlink:href="#linear-gradient-19"/><linearGradient id="linear-gradient-36" x1="269.69" y1="109.74" x2="295.65" y2="107.95" xlink:href="#linear-gradient-19"/></defs><title>Prancheta 1</title><g class="cls-1"><g id="Export"><g class="cls-2"><rect class="cls-3" width="1920" height="937"/></g><g class="cls-2"><rect class="cls-4" y="937" width="1920" height="937"/></g><g class="cls-2"><rect class="cls-3" y="1874" width="1920" height="937"/></g><g class="cls-2"><rect class="cls-4" y="2811" width="1920" height="937"/></g></g><g id="L"><g id="Left"><polyline class="cls-5" points="0.01 466.44 175.55 437.45 241.29 256.76 117.37 107.7 0 127.28"/><polygon class="cls-6" points="184.65 591.66 143.79 639.27 164.59 698.46 226.26 710.04 267.12 662.43 246.31 603.24 184.65 591.66"/><polygon class="cls-7" points="449.27 183.34 409.1 175.79 382.47 206.82 396.03 245.38 436.21 252.93 462.83 221.9 449.27 183.34"/><polygon class="cls-8" points="153.74 2731.07 171.54 2708.66 161.02 2682.03 132.71 2677.83 114.91 2700.25 125.43 2726.87 153.74 2731.07"/><polyline class="cls-9" points="0.01 2092.66 180.57 2062.85 248.18 1876.99 120.72 1723.67 0 1743.81"/><polygon class="cls-10" points="270.44 2108.67 225.85 2120.05 213.42 2164.35 245.56 2197.27 290.14 2185.89 302.58 2141.6 270.44 2108.67"/><polygon class="cls-11" points="384.83 1624.17 343.69 1644.74 340.93 1690.65 379.32 1716 420.46 1695.43 423.22 1649.52 384.83 1624.17"/><polyline class="cls-12" points="255.42 3749.18 258.71 3694.38 206.68 3660.02 150.91 3687.9 147.17 3750.14"/><polygon class="cls-13" points="313.12 3313.79 266.62 3337.04 263.5 3388.93 306.88 3417.57 353.38 3394.33 356.5 3342.44 313.12 3313.79"/><circle class="cls-14" cx="38.45" cy="648.07" r="4.92"/><circle class="cls-15" cx="496.09" cy="1977.84" r="7.37"/><circle class="cls-16" cx="368.4" cy="3518.24" r="5.21"/><circle class="cls-17" cx="129.98" cy="3128.01" r="13.25"/><circle class="cls-18" cx="69.31" cy="2183.88" r="5.21"/><circle class="cls-19" cx="382" cy="2791.37" r="5.21"/><circle class="cls-20" cx="217.07" cy="2534.78" r="11.43"/><circle class="cls-21" cx="175.15" cy="1543.8" r="7.37"/><circle class="cls-22" cx="282.16" cy="108.88" r="11.38"/></g><g id="Luz_Left" data-name="Luz Left"><polyline class="cls-23" points="0.01 466.44 175.55 437.45 241.29 256.76 117.37 107.7 0 127.28"/><polygon class="cls-24" points="184.65 591.66 143.79 639.27 164.59 698.46 226.26 710.04 267.12 662.43 246.31 603.24 184.65 591.66"/><polygon class="cls-25" points="449.27 183.34 409.1 175.79 382.47 206.82 396.03 245.38 436.21 252.93 462.83 221.9 449.27 183.34"/><polygon class="cls-26" points="153.74 2731.07 171.54 2708.66 161.02 2682.03 132.71 2677.83 114.91 2700.25 125.43 2726.87 153.74 2731.07"/><polyline class="cls-27" points="0.01 2092.66 180.57 2062.85 248.18 1876.99 120.72 1723.67 0 1743.81"/><polygon class="cls-28" points="270.44 2108.67 225.85 2120.05 213.42 2164.35 245.56 2197.27 290.14 2185.89 302.58 2141.6 270.44 2108.67"/><polygon class="cls-29" points="384.83 1624.17 343.69 1644.74 340.93 1690.65 379.32 1716 420.46 1695.43 423.22 1649.52 384.83 1624.17"/><polyline class="cls-30" points="255.42 3749.18 258.71 3694.38 206.68 3660.02 150.91 3687.9 147.17 3750.14"/><polygon class="cls-31" points="313.12 3313.79 266.62 3337.04 263.5 3388.93 306.88 3417.57 353.38 3394.33 356.5 3342.44 313.12 3313.79"/><circle class="cls-32" cx="38.45" cy="648.07" r="4.92"/><circle class="cls-33" cx="496.09" cy="1977.84" r="7.37"/><circle class="cls-34" cx="368.4" cy="3518.24" r="5.21"/><circle class="cls-35" cx="129.98" cy="3128.01" r="13.25"/><circle class="cls-36" cx="69.31" cy="2183.88" r="5.21"/><circle class="cls-37" cx="382" cy="2791.37" r="5.21"/><circle class="cls-38" cx="217.07" cy="2534.78" r="11.43"/><circle class="cls-39" cx="175.15" cy="1543.8" r="7.37"/><circle class="cls-40" cx="282.16" cy="108.88" r="11.38"/></g></g></g></svg>