<svg xmlns="http://www.w3.org/2000/svg" xmlns:xlink="http://www.w3.org/1999/xlink" viewBox="0 0 1500 3748"><defs><style>.cls-1{isolation:isolate;}.cls-2{opacity:0;}.cls-3{fill:#ff9f9f;}.cls-4{fill:#33ffa2;}.cls-5{fill:url(#linear-gradient);}.cls-6{fill:url(#linear-gradient-2);}.cls-7{fill:url(#linear-gradient-3);}.cls-8{fill:url(#linear-gradient-4);}.cls-9{fill:url(#linear-gradient-5);}.cls-10{fill:url(#linear-gradient-6);}.cls-11{fill:url(#linear-gradient-7);}.cls-12{fill:url(#linear-gradient-8);}.cls-13{fill:url(#linear-gradient-9);}.cls-14{fill:url(#linear-gradient-10);}.cls-15{fill:url(#linear-gradient-11);}.cls-16{fill:url(#linear-gradient-12);}.cls-17{fill:url(#linear-gradient-13);}.cls-18{fill:url(#linear-gradient-14);}.cls-19{fill:url(#linear-gradient-15);}.cls-20{fill:url(#linear-gradient-16);}.cls-21,.cls-22,.cls-23,.cls-24,.cls-25,.cls-26,.cls-27,.cls-28,.cls-29,.cls-30,.cls-31,.cls-32,.cls-33,.cls-34,.cls-35,.cls-36{opacity:0.3;mix-blend-mode:hard-light;}.cls-21{fill:url(#linear-gradient-17);}.cls-22{fill:url(#linear-gradient-18);}.cls-23{fill:url(#linear-gradient-19);}.cls-24{fill:url(#linear-gradient-20);}.cls-25{fill:url(#linear-gradient-21);}.cls-26{fill:url(#linear-gradient-22);}.cls-27{fill:url(#linear-gradient-23);}.cls-28{fill:url(#linear-gradient-24);}.cls-29{fill:url(#linear-gradient-25);}.cls-30{fill:url(#linear-gradient-26);}.cls-31{fill:url(#linear-gradient-27);}.cls-32{fill:url(#linear-gradient-28);}.cls-33{fill:url(#linear-gradient-29);}.cls-34{fill:url(#linear-gradient-30);}.cls-35{fill:url(#linear-gradient-31);}.cls-36{fill:url(#linear-gradient-32);}</style><linearGradient id="linear-gradient" x1="109.36" y1="3828.3" x2="41.96" y2="29.15" gradientUnits="userSpaceOnUse"><stop offset="0" stop-color="#81217e"/><stop offset="0.5" stop-color="#da4154"/><stop offset="1" stop-color="#e66e26"/></linearGradient><linearGradient id="linear-gradient-2" x1="144.82" y1="3827.67" x2="77.41" y2="28.52" xlink:href="#linear-gradient"/><linearGradient id="linear-gradient-3" x1="369.69" y1="3823.68" x2="302.28" y2="24.53" xlink:href="#linear-gradient"/><linearGradient id="linear-gradient-4" x1="50.18" y1="3829.35" x2="-17.22" y2="30.2" xlink:href="#linear-gradient"/><linearGradient id="linear-gradient-5" x1="116.88" y1="4067.09" x2="41.54" y2="-178.94" xlink:href="#linear-gradient"/><linearGradient id="linear-gradient-6" x1="155.23" y1="3848.02" x2="87.83" y2="48.87" xlink:href="#linear-gradient"/><linearGradient id="linear-gradient-7" x1="303.3" y1="3824.86" x2="235.9" y2="25.71" xlink:href="#linear-gradient"/><linearGradient id="linear-gradient-8" x1="37.47" y1="3829.57" x2="-29.93" y2="30.42" xlink:href="#linear-gradient"/><linearGradient id="linear-gradient-9" x1="145.17" y1="3827.66" x2="77.76" y2="28.51" xlink:href="#linear-gradient"/><linearGradient id="linear-gradient-10" x1="411.83" y1="3822.93" x2="344.43" y2="23.78" xlink:href="#linear-gradient"/><linearGradient id="linear-gradient-11" x1="256.85" y1="3825.68" x2="189.45" y2="26.53" xlink:href="#linear-gradient"/><linearGradient id="linear-gradient-12" x1="27.43" y1="3829.75" x2="-39.97" y2="30.6" xlink:href="#linear-gradient"/><linearGradient id="linear-gradient-13" x1="283.34" y1="3825.21" x2="215.94" y2="26.06" xlink:href="#linear-gradient"/><linearGradient id="linear-gradient-14" x1="123.02" y1="3828.05" x2="55.61" y2="28.91" xlink:href="#linear-gradient"/><linearGradient id="linear-gradient-15" x1="98.69" y1="3828.49" x2="31.28" y2="29.34" xlink:href="#linear-gradient"/><linearGradient id="linear-gradient-16" x1="231.11" y1="3826.14" x2="163.71" y2="26.99" xlink:href="#linear-gradient"/><linearGradient id="linear-gradient-17" x1="-16.18" y1="279.27" x2="92.59" y2="285.4" gradientUnits="userSpaceOnUse"><stop offset="0" stop-color="#4a4a93"/><stop offset="1" stop-color="#fcee6b"/></linearGradient><linearGradient id="linear-gradient-18" x1="44.95" y1="653.93" x2="136.18" y2="647.47" xlink:href="#linear-gradient-17"/><linearGradient id="linear-gradient-19" x1="262.37" y1="208.56" x2="348.15" y2="220.05" xlink:href="#linear-gradient-17"/><linearGradient id="linear-gradient-20" x1="-4.92" y1="2701.87" x2="64.53" y2="2706.97" xlink:href="#linear-gradient-17"/><linearGradient id="linear-gradient-21" x1="-4.53" y1="1842.7" x2="142.57" y2="1836.06" xlink:href="#linear-gradient-17"/><linearGradient id="linear-gradient-22" x1="85.58" y1="2154.22" x2="161.5" y2="2134.48" xlink:href="#linear-gradient-17"/><linearGradient id="linear-gradient-23" x1="211.12" y1="1672.48" x2="314.78" y2="1667.88" xlink:href="#linear-gradient-17"/><linearGradient id="linear-gradient-24" x1="-3.26" y1="3478.04" x2="66.18" y2="3465.45" xlink:href="#linear-gradient-17"/><linearGradient id="linear-gradient-25" x1="101.96" y1="3257.88" x2="168.69" y2="3251.42" xlink:href="#linear-gradient-17"/><linearGradient id="linear-gradient-26" x1="369.84" y1="1978.2" x2="387.54" y2="1977.51" xlink:href="#linear-gradient-17"/><linearGradient id="linear-gradient-27" x1="245.19" y1="3518.6" x2="258.21" y2="3517.83" xlink:href="#linear-gradient-17"/><linearGradient id="linear-gradient-28" x1="-0.84" y1="3127.52" x2="32.18" y2="3128.54" xlink:href="#linear-gradient-17"/><linearGradient id="linear-gradient-29" x1="259.23" y1="2791.16" x2="270.89" y2="2791.59" xlink:href="#linear-gradient-17"/><linearGradient id="linear-gradient-30" x1="87.26" y1="2534.34" x2="113.05" y2="2535.23" xlink:href="#linear-gradient-17"/><linearGradient id="linear-gradient-31" x1="49.56" y1="1543.62" x2="67.56" y2="1544" xlink:href="#linear-gradient-17"/><linearGradient id="linear-gradient-32" x1="152.22" y1="104.57" x2="177.88" y2="113.12" xlink:href="#linear-gradient-17"/></defs><title> </title><g class="cls-1"><g id="Export"><g class="cls-2"><rect class="cls-3" width="1500" height="937"/></g><g class="cls-2"><rect class="cls-4" y="937" width="1500" height="937"/></g><g class="cls-2"><rect class="cls-3" y="1874" width="1500" height="937"/></g><g class="cls-2"><rect class="cls-4" y="2811" width="1500" height="937"/></g></g><g id="L"><g id="Left"><polyline class="cls-5" points="0.38 408.67 44.69 401.36 94.45 264.58 0.65 151.75"/><polygon class="cls-6" points="74.58 611.39 47.34 643.13 61.22 682.59 102.32 690.31 129.56 658.57 115.69 619.11 74.58 611.39"/><polygon class="cls-7" points="332.27 183.34 292.1 175.79 265.47 206.82 279.03 245.38 319.21 252.93 345.83 221.9 332.27 183.34"/><polygon class="cls-8" points="40.74 2731.07 58.54 2708.66 48.02 2682.03 19.71 2677.83 1.91 2700.25 12.43 2726.87 40.74 2731.07"/><polyline class="cls-9" points="0 2038 90.57 2022.85 158.18 1836.99 0 1647"/><polygon class="cls-10" points="135.3 2107.3 98.39 2116.72 88.09 2153.39 114.7 2180.64 151.61 2171.22 161.91 2134.55 135.3 2107.3"/><polygon class="cls-11" points="267.83 1624.17 226.69 1644.74 223.93 1690.65 262.32 1716 303.46 1695.43 306.22 1649.52 267.83 1624.17"/><polyline class="cls-12" points="0 3584.61 14.55 3582.21 63.81 3446.8 0 3370.05"/><polygon class="cls-13" points="136.97 3221.88 107.58 3236.57 105.61 3269.38 133.03 3287.48 162.42 3272.79 164.39 3239.99 136.97 3221.88"/><circle class="cls-14" cx="379.09" cy="1977.84" r="7.37"/><circle class="cls-15" cx="251.4" cy="3518.24" r="5.21"/><circle class="cls-16" cx="14.98" cy="3128.01" r="13.25"/><circle class="cls-17" cx="265" cy="2791.37" r="5.21"/><circle class="cls-18" cx="100.07" cy="2534.78" r="11.43"/><circle class="cls-19" cx="58.15" cy="1543.8" r="7.37"/><circle class="cls-20" cx="165.16" cy="108.88" r="11.38"/></g><g id="Luz_Left" data-name="Luz Left"><polyline class="cls-21" points="0.38 408.67 44.69 401.36 94.45 264.58 0.65 151.75"/><polygon class="cls-22" points="74.58 611.39 47.34 643.13 61.22 682.59 102.32 690.31 129.56 658.57 115.69 619.11 74.58 611.39"/><polygon class="cls-23" points="332.27 183.34 292.1 175.79 265.47 206.82 279.03 245.38 319.21 252.93 345.83 221.9 332.27 183.34"/><polygon class="cls-24" points="40.74 2731.07 58.54 2708.66 48.02 2682.03 19.71 2677.83 1.91 2700.25 12.43 2726.87 40.74 2731.07"/><polyline class="cls-25" points="0 2038 90.57 2022.85 158.18 1836.99 0 1647"/><polygon class="cls-26" points="135.3 2107.3 98.39 2116.72 88.09 2153.39 114.7 2180.64 151.61 2171.22 161.91 2134.55 135.3 2107.3"/><polygon class="cls-27" points="267.83 1624.17 226.69 1644.74 223.93 1690.65 262.32 1716 303.46 1695.43 306.22 1649.52 267.83 1624.17"/><polyline class="cls-28" points="0 3584.61 14.55 3582.21 63.81 3446.8 0 3370.05"/><polygon class="cls-29" points="136.97 3221.88 107.58 3236.57 105.61 3269.38 133.03 3287.48 162.42 3272.79 164.39 3239.99 136.97 3221.88"/><circle class="cls-30" cx="379.09" cy="1977.84" r="7.37"/><circle class="cls-31" cx="251.4" cy="3518.24" r="5.21"/><circle class="cls-32" cx="14.98" cy="3128.01" r="13.25"/><circle class="cls-33" cx="265" cy="2791.37" r="5.21"/><circle class="cls-34" cx="100.07" cy="2534.78" r="11.43"/><circle class="cls-35" cx="58.15" cy="1543.8" r="7.37"/><circle class="cls-36" cx="165.16" cy="108.88" r="11.38"/></g></g></g></svg>