<svg xmlns="http://www.w3.org/2000/svg" xmlns:xlink="http://www.w3.org/1999/xlink" viewBox="0 0 1070 3748"><defs><style>.cls-1{isolation:isolate;}.cls-2{opacity:0;}.cls-3{fill:#ff9f9f;}.cls-4{fill:#33ffa2;}.cls-5{fill:url(#linear-gradient);}.cls-6{fill:url(#linear-gradient-2);}.cls-7{fill:url(#linear-gradient-3);}.cls-8{fill:url(#linear-gradient-4);}.cls-9{fill:url(#linear-gradient-5);}.cls-10{fill:url(#linear-gradient-6);}.cls-11{fill:url(#linear-gradient-7);}.cls-12{fill:url(#linear-gradient-8);}.cls-13{fill:url(#linear-gradient-9);}.cls-14{fill:url(#linear-gradient-10);}.cls-15{fill:url(#linear-gradient-11);}.cls-16{fill:url(#linear-gradient-12);}.cls-17,.cls-18,.cls-19,.cls-20,.cls-21,.cls-22,.cls-23,.cls-24,.cls-25,.cls-26,.cls-27,.cls-28{opacity:0.3;mix-blend-mode:hard-light;}.cls-17{fill:url(#linear-gradient-13);}.cls-18{fill:url(#linear-gradient-14);}.cls-19{fill:url(#linear-gradient-15);}.cls-20{fill:url(#linear-gradient-16);}.cls-21{fill:url(#linear-gradient-17);}.cls-22{fill:url(#linear-gradient-18);}.cls-23{fill:url(#linear-gradient-19);}.cls-24{fill:url(#linear-gradient-20);}.cls-25{fill:url(#linear-gradient-21);}.cls-26{fill:url(#linear-gradient-22);}.cls-27{fill:url(#linear-gradient-23);}.cls-28{fill:url(#linear-gradient-24);}</style><linearGradient id="linear-gradient" x1="116.57" y1="3893.92" x2="68.58" y2="60.69" gradientUnits="userSpaceOnUse"><stop offset="0" stop-color="#81217e"/><stop offset="0.5" stop-color="#da4154"/><stop offset="1" stop-color="#e66e26"/></linearGradient><linearGradient id="linear-gradient-2" x1="122.6" y1="3853.47" x2="74.61" y2="20.24" xlink:href="#linear-gradient"/><linearGradient id="linear-gradient-3" x1="208.64" y1="3852.39" x2="160.65" y2="19.16" xlink:href="#linear-gradient"/><linearGradient id="linear-gradient-4" x1="118.61" y1="3853.26" x2="70.62" y2="20.03" xlink:href="#linear-gradient"/><linearGradient id="linear-gradient-5" x1="115.25" y1="3853.3" x2="67.26" y2="20.07" xlink:href="#linear-gradient"/><linearGradient id="linear-gradient-6" x1="202.7" y1="3852.21" x2="154.71" y2="18.97" xlink:href="#linear-gradient"/><linearGradient id="linear-gradient-7" x1="46.3" y1="3854.16" x2="-1.69" y2="20.93" xlink:href="#linear-gradient"/><linearGradient id="linear-gradient-8" x1="173.56" y1="3850.57" x2="125.57" y2="17.33" xlink:href="#linear-gradient"/><linearGradient id="linear-gradient-9" x1="59.82" y1="3853.99" x2="11.83" y2="20.76" xlink:href="#linear-gradient"/><linearGradient id="linear-gradient-10" x1="51.22" y1="3854.1" x2="3.23" y2="20.87" xlink:href="#linear-gradient"/><linearGradient id="linear-gradient-11" x1="196.26" y1="3850.28" x2="148.27" y2="17.05" xlink:href="#linear-gradient"/><linearGradient id="linear-gradient-12" x1="165.06" y1="3852.68" x2="117.07" y2="19.44" xlink:href="#linear-gradient"/><linearGradient id="linear-gradient-13" x1="13.88" y1="315.08" x2="131.33" y2="310.48" gradientUnits="userSpaceOnUse"><stop offset="0" stop-color="#4a4a93"/><stop offset="1" stop-color="#fcee6b"/></linearGradient><linearGradient id="linear-gradient-14" x1="40.04" y1="643.5" x2="126.17" y2="650.31" xlink:href="#linear-gradient-13"/><linearGradient id="linear-gradient-15" x1="135.81" y1="173.97" x2="190.45" y2="184.95" xlink:href="#linear-gradient-13"/><linearGradient id="linear-gradient-16" x1="73.12" y1="2700.08" x2="136.1" y2="2708.93" xlink:href="#linear-gradient-13"/><linearGradient id="linear-gradient-17" x1="5.26" y1="1849.44" x2="177.6" y2="1833.36" xlink:href="#linear-gradient-13"/><linearGradient id="linear-gradient-18" x1="151.52" y1="2043.24" x2="208.37" y2="2034.73" xlink:href="#linear-gradient-13"/><linearGradient id="linear-gradient-19" x1="-23.74" y1="3469.47" x2="106.99" y2="3448.37" xlink:href="#linear-gradient-13"/><linearGradient id="linear-gradient-20" x1="162.57" y1="3520.04" x2="174.82" y2="3516.8" xlink:href="#linear-gradient-13"/><linearGradient id="linear-gradient-21" x1="43.99" y1="3148.23" x2="57.18" y2="3147.81" xlink:href="#linear-gradient-13"/><linearGradient id="linear-gradient-22" x1="23.72" y1="2185.34" x2="37.5" y2="2182.28" xlink:href="#linear-gradient-13"/><linearGradient id="linear-gradient-23" x1="176.68" y1="2791.44" x2="188.68" y2="2791.31" xlink:href="#linear-gradient-13"/><linearGradient id="linear-gradient-24" x1="127.35" y1="1544.89" x2="145.23" y2="1542.68" xlink:href="#linear-gradient-13"/></defs><title>Prancheta 1</title><g class="cls-1"><g id="Export"><g class="cls-2"><rect class="cls-3" width="1070" height="937"/></g><g class="cls-2"><rect class="cls-4" y="937" width="1070" height="937"/></g><g class="cls-2"><rect class="cls-3" y="1874" width="1070" height="937"/></g><g class="cls-2"><rect class="cls-4" y="2811" width="1070" height="937"/></g></g><g id="L"><g id="Left"><polyline class="cls-5" points="22.07 445.43 72.41 437.12 122.89 298.34 27.72 183.87 22.07 184.81"/><polygon class="cls-6" points="69.58 610.23 44.3 639.69 57.17 676.31 95.33 683.47 120.6 654.01 107.73 617.39 69.58 610.23"/><polygon class="cls-7" points="178.08 161.38 154.79 157.01 139.36 174.99 147.22 197.34 170.51 201.72 185.94 183.73 178.08 161.38"/><polygon class="cls-8" points="114.74 2731.07 132.54 2708.66 122.02 2682.03 93.71 2677.83 75.91 2700.25 86.43 2726.87 114.74 2731.07"/><polyline class="cls-9" points="10.54 1992.56 116.43 1975.07 171.27 1824.33 67.9 1699.99 10.54 1709.56"/><polygon class="cls-10" points="187.18 2013.39 161.44 2019.96 154.26 2045.54 172.82 2064.55 198.56 2057.98 205.74 2032.4 187.18 2013.39"/><polyline class="cls-11" points="-19.46 3588.53 57.3 3575.86 103.67 3448.4 16.26 3343.26 -19.47 3349.22"/><circle class="cls-12" cx="169.4" cy="3518.24" r="5.21"/><circle class="cls-13" cx="50.98" cy="3148.01" r="5.99"/><circle class="cls-14" cx="30.31" cy="2183.88" r="5.21"/><circle class="cls-15" cx="183" cy="2791.37" r="5.21"/><circle class="cls-16" cx="136.15" cy="1543.8" r="7.37"/></g><g id="Luz_Left" data-name="Luz Left"><polyline class="cls-17" points="22.07 445.43 72.41 437.12 122.89 298.34 27.72 183.87 22.07 184.81"/><polygon class="cls-18" points="69.58 610.23 44.3 639.69 57.17 676.31 95.33 683.47 120.6 654.01 107.73 617.39 69.58 610.23"/><polygon class="cls-19" points="178.08 161.38 154.79 157.01 139.36 174.99 147.22 197.34 170.51 201.72 185.94 183.73 178.08 161.38"/><polygon class="cls-20" points="114.74 2731.07 132.54 2708.66 122.02 2682.03 93.71 2677.83 75.91 2700.25 86.43 2726.87 114.74 2731.07"/><polyline class="cls-21" points="10.54 1992.56 116.43 1975.07 171.27 1824.33 67.9 1699.99 10.54 1709.56"/><polygon class="cls-22" points="187.18 2013.39 161.44 2019.96 154.26 2045.54 172.82 2064.55 198.56 2057.98 205.74 2032.4 187.18 2013.39"/><polyline class="cls-23" points="-19.46 3588.53 57.3 3575.86 103.67 3448.4 16.26 3343.26 -19.47 3349.22"/><circle class="cls-24" cx="169.4" cy="3518.24" r="5.21"/><circle class="cls-25" cx="50.98" cy="3148.01" r="5.99"/><circle class="cls-26" cx="30.31" cy="2183.88" r="5.21"/><circle class="cls-27" cx="183" cy="2791.37" r="5.21"/><circle class="cls-28" cx="136.15" cy="1543.8" r="7.37"/></g></g></g></svg>