<svg xmlns="http://www.w3.org/2000/svg" xmlns:xlink="http://www.w3.org/1999/xlink" viewBox="0 0 1300 3748"><defs><style>.cls-1{isolation:isolate;}.cls-2{opacity:0;}.cls-3{fill:#ff9f9f;}.cls-4{fill:#33ffa2;}.cls-5{fill:url(#linear-gradient);}.cls-6{fill:url(#linear-gradient-2);}.cls-7{fill:url(#linear-gradient-3);}.cls-8{fill:url(#linear-gradient-4);}.cls-9{fill:url(#linear-gradient-5);}.cls-10{fill:url(#linear-gradient-6);}.cls-11{fill:url(#linear-gradient-7);}.cls-12{fill:url(#linear-gradient-8);}.cls-13{fill:url(#linear-gradient-9);}.cls-14{fill:url(#linear-gradient-10);}.cls-15{fill:url(#linear-gradient-11);}.cls-16{fill:url(#linear-gradient-12);}.cls-17{fill:url(#linear-gradient-13);}.cls-18{fill:url(#linear-gradient-14);}.cls-19{fill:url(#linear-gradient-15);}.cls-20{fill:url(#linear-gradient-16);}.cls-21,.cls-22,.cls-23,.cls-24,.cls-25,.cls-26,.cls-27,.cls-28,.cls-29,.cls-30,.cls-31,.cls-32,.cls-33,.cls-34,.cls-35,.cls-36{opacity:0.3;mix-blend-mode:hard-light;}.cls-21{fill:url(#linear-gradient-17);}.cls-22{fill:url(#linear-gradient-18);}.cls-23{fill:url(#linear-gradient-19);}.cls-24{fill:url(#linear-gradient-20);}.cls-25{fill:url(#linear-gradient-21);}.cls-26{fill:url(#linear-gradient-22);}.cls-27{fill:url(#linear-gradient-23);}.cls-28{fill:url(#linear-gradient-24);}.cls-29{fill:url(#linear-gradient-25);}.cls-30{fill:url(#linear-gradient-26);}.cls-31{fill:url(#linear-gradient-27);}.cls-32{fill:url(#linear-gradient-28);}.cls-33{fill:url(#linear-gradient-29);}.cls-34{fill:url(#linear-gradient-30);}.cls-35{fill:url(#linear-gradient-31);}.cls-36{fill:url(#linear-gradient-32);}</style><linearGradient id="linear-gradient" x1="147.58" y1="3810.29" x2="55.67" y2="29.53" gradientUnits="userSpaceOnUse"><stop offset="0" stop-color="#81217e"/><stop offset="0.5" stop-color="#da4154"/><stop offset="1" stop-color="#e66e26"/></linearGradient><linearGradient id="linear-gradient-2" x1="170.13" y1="3809.74" x2="78.21" y2="28.98" xlink:href="#linear-gradient"/><linearGradient id="linear-gradient-3" x1="302.55" y1="3799.87" x2="210.63" y2="19.11" xlink:href="#linear-gradient"/><linearGradient id="linear-gradient-4" x1="119.97" y1="3804.31" x2="28.05" y2="23.54" xlink:href="#linear-gradient"/><linearGradient id="linear-gradient-5" x1="138.36" y1="3803.86" x2="46.45" y2="23.1" xlink:href="#linear-gradient"/><linearGradient id="linear-gradient-6" x1="186.49" y1="3802.69" x2="94.58" y2="21.93" xlink:href="#linear-gradient"/><linearGradient id="linear-gradient-7" x1="358.82" y1="3798.5" x2="266.9" y2="17.74" xlink:href="#linear-gradient"/><linearGradient id="linear-gradient-8" x1="67.1" y1="3853.25" x2="-24.82" y2="72.49" xlink:href="#linear-gradient"/><linearGradient id="linear-gradient-9" x1="123.59" y1="3804.22" x2="31.67" y2="23.46" xlink:href="#linear-gradient"/><linearGradient id="linear-gradient-10" x1="490.28" y1="3795.31" x2="398.36" y2="14.54" xlink:href="#linear-gradient"/><linearGradient id="linear-gradient-11" x1="297.25" y1="3800" x2="205.33" y2="19.23" xlink:href="#linear-gradient"/><linearGradient id="linear-gradient-12" x1="58.24" y1="3805.81" x2="-33.67" y2="25.05" xlink:href="#linear-gradient"/><linearGradient id="linear-gradient-13" x1="58.74" y1="3805.8" x2="-33.18" y2="25.03" xlink:href="#linear-gradient"/><linearGradient id="linear-gradient-14" x1="356.48" y1="3798.56" x2="264.57" y2="17.79" xlink:href="#linear-gradient"/><linearGradient id="linear-gradient-15" x1="180.07" y1="3802.85" x2="88.16" y2="22.08" xlink:href="#linear-gradient"/><linearGradient id="linear-gradient-16" x1="155.54" y1="3803.45" x2="63.62" y2="22.68" xlink:href="#linear-gradient"/><linearGradient id="linear-gradient-17" x1="21.69" y1="280.93" x2="133.52" y2="269.44" gradientUnits="userSpaceOnUse"><stop offset="0" stop-color="#4a4a93"/><stop offset="1" stop-color="#fcee6b"/></linearGradient><linearGradient id="linear-gradient-18" x1="27.09" y1="648.93" x2="159.35" y2="662.72" xlink:href="#linear-gradient-17"/><linearGradient id="linear-gradient-19" x1="179.96" y1="179.13" x2="252.72" y2="190.1" xlink:href="#linear-gradient-17"/><linearGradient id="linear-gradient-20" x1="119.97" y1="3804.31" x2="28.05" y2="23.54" xlink:href="#linear-gradient-17"/><linearGradient id="linear-gradient-21" x1="-8.98" y1="1852.83" x2="190.17" y2="1817.09" xlink:href="#linear-gradient-17"/><linearGradient id="linear-gradient-22" x1="112.15" y1="2106.59" x2="178.53" y2="2085.14" xlink:href="#linear-gradient-17"/><linearGradient id="linear-gradient-23" x1="278.94" y1="1677.93" x2="332.05" y2="1663.12" xlink:href="#linear-gradient-17"/><linearGradient id="linear-gradient-24" x1="-7.78" y1="3516.11" x2="130.6" y2="3497.73" xlink:href="#linear-gradient-17"/><linearGradient id="linear-gradient-25" x1="84.29" y1="3331.95" x2="140.71" y2="3323.26" xlink:href="#linear-gradient-17"/><linearGradient id="linear-gradient-26" x1="437.35" y1="1981.65" x2="453.18" y2="1974.75" xlink:href="#linear-gradient-17"/><linearGradient id="linear-gradient-27" x1="283.97" y1="3521.08" x2="297.07" y2="3515.29" xlink:href="#linear-gradient-17"/><linearGradient id="linear-gradient-28" x1="32.73" y1="3137.18" x2="53.03" y2="3136.8" xlink:href="#linear-gradient-17"/><linearGradient id="linear-gradient-29" x1="13.19" y1="2184.56" x2="25.45" y2="2183.2" xlink:href="#linear-gradient-17"/><linearGradient id="linear-gradient-30" x1="324.44" y1="2789.42" x2="339.59" y2="2793.33" xlink:href="#linear-gradient-17"/><linearGradient id="linear-gradient-31" x1="115.59" y1="1545.08" x2="134.74" y2="1542.52" xlink:href="#linear-gradient-17"/><linearGradient id="linear-gradient-32" x1="51.58" y1="86.75" x2="79.53" y2="84.96" xlink:href="#linear-gradient-17"/></defs><title>Prancheta 1</title><g class="cls-1"><g id="Export"><g class="cls-2"><rect class="cls-3" x="-2" width="1303" height="937"/></g><g class="cls-2"><rect class="cls-4" x="-2" y="937" width="1303" height="937"/></g><g class="cls-2"><rect class="cls-3" x="-2" y="1874" width="1303" height="937"/></g><g class="cls-2"><rect class="cls-4" x="-2" y="2811" width="1303" height="937"/></g></g><g id="L"><g id="Left"><polyline class="cls-5" points="-2 453.27 63.55 442.45 129.29 261.76 5.37 112.7 -2 113.93"/><polygon class="cls-6" points="72.65 596.66 31.79 644.27 52.59 703.46 114.26 715.04 155.12 667.43 134.31 608.24 72.65 596.66"/><polygon class="cls-7" points="235.56 160 204.01 154.07 183.1 178.44 193.75 208.72 225.3 214.65 246.2 190.28 235.56 160"/><polygon class="cls-8" points="103.74 2731.07 121.54 2708.66 111.02 2682.03 82.71 2677.83 64.91 2700.25 75.43 2726.87 103.74 2731.07"/><polyline class="cls-9" points="0.04 2013.09 121.83 1992.98 184.91 1819.6 66.01 1676.58 0.04 1687.59"/><polygon class="cls-10" points="153.54 2065.56 122.93 2073.37 114.39 2103.78 136.46 2126.39 167.07 2118.58 175.61 2088.16 153.54 2065.56"/><polygon class="cls-11" points="308.74 1642.38 283.91 1654.79 282.25 1682.5 305.41 1697.79 330.24 1685.38 331.9 1657.67 308.74 1642.38"/><polyline class="cls-12" points="-1.47 3635.53 75.3 3622.86 121.67 3495.4 34.26 3390.26 -1.47 3396.22"/><polygon class="cls-13" points="113.57 3301.58 90.18 3313.27 88.61 3339.37 110.43 3353.78 133.82 3342.09 135.39 3315.99 113.57 3301.58"/><circle class="cls-14" cx="446.09" cy="1977.84" r="7.37"/><circle class="cls-15" cx="290.4" cy="3518.24" r="5.21"/><circle class="cls-16" cx="41.98" cy="3137.01" r="8.99"/><circle class="cls-17" cx="19.31" cy="2183.88" r="5.21"/><circle class="cls-18" cx="332" cy="2791.37" r="5.21"/><circle class="cls-19" cx="125.15" cy="1543.8" r="7.37"/><circle class="cls-20" cx="65.16" cy="85.88" r="11.38"/></g><g id="Luz_left" data-name="Luz left"><polyline class="cls-21" points="-2 453.27 63.55 442.45 129.29 261.76 5.37 112.7 -2 113.93"/><polygon class="cls-22" points="72.65 596.66 31.79 644.27 52.59 703.46 114.26 715.04 155.12 667.43 134.31 608.24 72.65 596.66"/><polygon class="cls-23" points="235.56 160 204.01 154.07 183.1 178.44 193.75 208.72 225.3 214.65 246.2 190.28 235.56 160"/><polygon class="cls-24" points="103.74 2731.07 121.54 2708.66 111.02 2682.03 82.71 2677.83 64.91 2700.25 75.43 2726.87 103.74 2731.07"/><polyline class="cls-25" points="0.04 2013.09 121.83 1992.98 184.91 1819.6 66.01 1676.58 0.04 1687.59"/><polygon class="cls-26" points="153.54 2065.56 122.93 2073.37 114.39 2103.78 136.46 2126.39 167.07 2118.58 175.61 2088.16 153.54 2065.56"/><polygon class="cls-27" points="308.74 1642.38 283.91 1654.79 282.25 1682.5 305.41 1697.79 330.24 1685.38 331.9 1657.67 308.74 1642.38"/><polyline class="cls-28" points="-1.47 3635.53 75.3 3622.86 121.67 3495.4 34.26 3390.26 -1.47 3396.22"/><polygon class="cls-29" points="113.57 3301.58 90.18 3313.27 88.61 3339.37 110.43 3353.78 133.82 3342.09 135.39 3315.99 113.57 3301.58"/><circle class="cls-30" cx="446.09" cy="1977.84" r="7.37"/><circle class="cls-31" cx="290.4" cy="3518.24" r="5.21"/><circle class="cls-32" cx="41.98" cy="3137.01" r="8.99"/><circle class="cls-33" cx="19.31" cy="2183.88" r="5.21"/><circle class="cls-34" cx="332" cy="2791.37" r="5.21"/><circle class="cls-35" cx="125.15" cy="1543.8" r="7.37"/><circle class="cls-36" cx="65.16" cy="85.88" r="11.38"/></g></g></g></svg>