<svg xmlns="http://www.w3.org/2000/svg" xmlns:xlink="http://www.w3.org/1999/xlink" viewBox="0 0 1500 3748"><defs><style>.cls-1{isolation:isolate;}.cls-2{opacity:0;}.cls-3{fill:#ff9f9f;}.cls-4{fill:#33ffa2;}.cls-5{fill:url(#linear-gradient);}.cls-6{fill:url(#linear-gradient-2);}.cls-7{fill:url(#linear-gradient-3);}.cls-8{fill:url(#linear-gradient-4);}.cls-9{fill:url(#linear-gradient-5);}.cls-10{fill:url(#linear-gradient-6);}.cls-11{fill:url(#linear-gradient-7);}.cls-12{fill:url(#linear-gradient-8);}.cls-13{fill:url(#linear-gradient-9);}.cls-14,.cls-15,.cls-16,.cls-17,.cls-18,.cls-19,.cls-20,.cls-21,.cls-22{opacity:0.3;mix-blend-mode:hard-light;}.cls-14{fill:url(#linear-gradient-10);}.cls-15{fill:url(#linear-gradient-11);}.cls-16{fill:url(#linear-gradient-12);}.cls-17{fill:url(#linear-gradient-13);}.cls-18{fill:url(#linear-gradient-14);}.cls-19{fill:url(#linear-gradient-15);}.cls-20{fill:url(#linear-gradient-16);}.cls-21{fill:url(#linear-gradient-17);}.cls-22{fill:url(#linear-gradient-18);}</style><linearGradient id="linear-gradient" x1="1550.2" y1="3808.06" x2="1482.8" y2="8.91" gradientUnits="userSpaceOnUse"><stop offset="0" stop-color="#81217e"/><stop offset="0.5" stop-color="#da4154"/><stop offset="1" stop-color="#e66e26"/></linearGradient><linearGradient id="linear-gradient-2" x1="1337.28" y1="3811.83" x2="1269.88" y2="12.68" xlink:href="#linear-gradient"/><linearGradient id="linear-gradient-3" x1="1455.9" y1="3809.73" x2="1388.49" y2="10.58" xlink:href="#linear-gradient"/><linearGradient id="linear-gradient-4" x1="1373.44" y1="3952.19" x2="1306.04" y2="153.04" xlink:href="#linear-gradient"/><linearGradient id="linear-gradient-5" x1="1509.41" y1="3949.78" x2="1442.01" y2="150.63" xlink:href="#linear-gradient"/><linearGradient id="linear-gradient-6" x1="1307.21" y1="3812.37" x2="1239.81" y2="13.22" xlink:href="#linear-gradient"/><linearGradient id="linear-gradient-7" x1="1549.96" y1="3808.06" x2="1482.55" y2="8.91" xlink:href="#linear-gradient"/><linearGradient id="linear-gradient-8" x1="1309.18" y1="3953.33" x2="1241.78" y2="154.18" xlink:href="#linear-gradient"/><linearGradient id="linear-gradient-9" x1="1407.44" y1="3810.59" x2="1340.04" y2="11.44" xlink:href="#linear-gradient"/><linearGradient id="linear-gradient-10" x1="1640.67" y1="902.87" x2="1365.69" y2="935.8" gradientUnits="userSpaceOnUse"><stop offset="0" stop-color="#4a4a93"/><stop offset="1" stop-color="#fcee6b"/></linearGradient><linearGradient id="linear-gradient-11" x1="1364.41" y1="1103.53" x2="1220.41" y2="1120.55" xlink:href="#linear-gradient-10"/><linearGradient id="linear-gradient-12" x1="1424.32" y1="678.55" x2="1380.66" y2="692.33" xlink:href="#linear-gradient-10"/><linearGradient id="linear-gradient-13" x1="1514.11" y1="2824.85" x2="1195.47" y2="2888.68" xlink:href="#linear-gradient-10"/><linearGradient id="linear-gradient-14" x1="1519.38" y1="2537.3" x2="1454.01" y2="2542.41" xlink:href="#linear-gradient-10"/><linearGradient id="linear-gradient-15" x1="1265.24" y1="840.38" x2="1246.01" y2="840.89" xlink:href="#linear-gradient-10"/><linearGradient id="linear-gradient-16" x1="1514.56" y1="1257.49" x2="1495.41" y2="1258.64" xlink:href="#linear-gradient-10"/><linearGradient id="linear-gradient-17" x1="1307.68" y1="3161.14" x2="1286.41" y2="3159.43" xlink:href="#linear-gradient-10"/><linearGradient id="linear-gradient-18" x1="1454.4" y1="3760.74" x2="1357.04" y2="3681.42" xlink:href="#linear-gradient-10"/></defs><title> </title><g class="cls-1"><g id="Export"><g class="cls-2"><rect class="cls-3" width="1500" height="937"/></g><g class="cls-2"><rect class="cls-4" y="937" width="1500" height="937"/></g><g class="cls-2"><rect class="cls-3" y="1874" width="1500" height="937"/></g><g class="cls-2"><rect class="cls-4" y="2811" width="1500" height="937"/></g></g><g id="R"><g id="Right"><polyline class="cls-5" points="1632.3 711.07 1435.92 743.5 1362.38 945.65 1501.01 1112.4 1632.31 1090.49"/><polygon class="cls-6" points="1314.38 1175.65 1356.67 1122.38 1331.68 1059.13 1264.4 1049.14 1222.11 1102.41 1247.1 1165.67 1314.38 1175.65"/><polygon class="cls-7" points="1399.57 701.21 1413.13 694.43 1414.04 679.3 1401.39 670.94 1387.82 677.72 1386.91 692.86 1399.57 701.21"/><polygon class="cls-8" points="1201.51 2888.12 1304.78 3004.59 1457.28 2973.39 1506.51 2825.72 1403.24 2709.25 1250.74 2740.45 1201.51 2888.12"/><polygon class="cls-9" points="1494.92 2566.66 1512.72 2544.24 1502.2 2517.62 1473.89 2513.41 1456.09 2535.83 1466.61 2562.45 1494.92 2566.66"/><circle class="cls-10" cx="1254.49" cy="840.66" r="7.37"/><circle class="cls-11" cx="1504.71" cy="1258.08" r="7.37"/><circle class="cls-12" cx="1295.11" cy="3160.13" r="8.57"/><polyline class="cls-13" points="1459 3748 1461.71 3694.38 1409.68 3660.02 1353.9 3687.9 1350 3748"/></g><g id="Luz_R" data-name="Luz R"><polyline class="cls-14" points="1632.3 711.07 1435.92 743.5 1362.38 945.65 1501.01 1112.4 1632.31 1090.49"/><polygon class="cls-15" points="1314.38 1175.65 1356.67 1122.38 1331.68 1059.13 1264.4 1049.14 1222.11 1102.41 1247.1 1165.67 1314.38 1175.65"/><polygon class="cls-16" points="1399.57 701.21 1413.13 694.43 1414.04 679.3 1401.39 670.94 1387.82 677.72 1386.91 692.86 1399.57 701.21"/><polygon class="cls-17" points="1201.51 2888.12 1304.78 3004.59 1457.28 2973.39 1506.51 2825.72 1403.24 2709.25 1250.74 2740.45 1201.51 2888.12"/><polygon class="cls-18" points="1494.92 2566.66 1512.72 2544.24 1502.2 2517.62 1473.89 2513.41 1456.09 2535.83 1466.61 2562.45 1494.92 2566.66"/><circle class="cls-19" cx="1254.49" cy="840.66" r="7.37"/><circle class="cls-20" cx="1504.71" cy="1258.08" r="7.37"/><circle class="cls-21" cx="1295.11" cy="3160.13" r="8.57"/><polyline class="cls-22" points="1459 3748 1461.71 3694.38 1409.68 3660.02 1353.9 3687.9 1350 3748"/></g></g></g></svg>