<svg xmlns="http://www.w3.org/2000/svg" xmlns:xlink="http://www.w3.org/1999/xlink" viewBox="0 0 1300 3748"><defs><style>.cls-1{isolation:isolate;}.cls-2{opacity:0;}.cls-3{fill:#ff9f9f;}.cls-4{fill:#33ffa2;}.cls-5{fill:url(#linear-gradient);}.cls-6{fill:url(#linear-gradient-2);}.cls-7{fill:url(#linear-gradient-3);}.cls-8{fill:url(#linear-gradient-4);}.cls-9{fill:url(#linear-gradient-5);}.cls-10{fill:url(#linear-gradient-6);}.cls-11{fill:url(#linear-gradient-7);}.cls-12{fill:url(#linear-gradient-8);}.cls-13{fill:url(#linear-gradient-9);}.cls-14{fill:url(#linear-gradient-10);}.cls-15{fill:url(#linear-gradient-11);}.cls-16,.cls-17,.cls-18,.cls-19,.cls-20,.cls-21,.cls-22,.cls-23,.cls-24,.cls-25,.cls-26{opacity:0.3;mix-blend-mode:hard-light;}.cls-16{fill:url(#linear-gradient-12);}.cls-17{fill:url(#linear-gradient-13);}.cls-18{fill:url(#linear-gradient-14);}.cls-19{fill:url(#linear-gradient-15);}.cls-20{fill:url(#linear-gradient-16);}.cls-21{fill:url(#linear-gradient-17);}.cls-22{fill:url(#linear-gradient-18);}.cls-23{fill:url(#linear-gradient-19);}.cls-24{fill:url(#linear-gradient-20);}.cls-25{fill:url(#linear-gradient-21);}.cls-26{fill:url(#linear-gradient-22);}</style><linearGradient id="linear-gradient" x1="1277.87" y1="3783.67" x2="1185.96" y2="2.91" gradientUnits="userSpaceOnUse"><stop offset="0" stop-color="#81217e"/><stop offset="0.5" stop-color="#da4154"/><stop offset="1" stop-color="#e66e26"/></linearGradient><linearGradient id="linear-gradient-2" x1="1177.12" y1="3786.12" x2="1085.21" y2="5.36" xlink:href="#linear-gradient"/><linearGradient id="linear-gradient-3" x1="1238.41" y1="3784.63" x2="1146.5" y2="3.87" xlink:href="#linear-gradient"/><linearGradient id="linear-gradient-4" x1="1146.13" y1="3786.88" x2="1054.21" y2="6.11" xlink:href="#linear-gradient"/><linearGradient id="linear-gradient-5" x1="1284.14" y1="3783.52" x2="1192.23" y2="2.75" xlink:href="#linear-gradient"/><linearGradient id="linear-gradient-6" x1="1305.2" y1="3783.01" x2="1213.29" y2="2.24" xlink:href="#linear-gradient"/><linearGradient id="linear-gradient-7" x1="1075.16" y1="3788.6" x2="983.24" y2="7.84" xlink:href="#linear-gradient"/><linearGradient id="linear-gradient-8" x1="1315.09" y1="3782.77" x2="1223.18" y2="2" xlink:href="#linear-gradient"/><linearGradient id="linear-gradient-9" x1="906.66" y1="3792.7" x2="814.74" y2="11.93" xlink:href="#linear-gradient"/><linearGradient id="linear-gradient-10" x1="1079.89" y1="3788.49" x2="987.98" y2="7.72" xlink:href="#linear-gradient"/><linearGradient id="linear-gradient-11" x1="1227.26" y1="3784.9" x2="1135.34" y2="4.14" xlink:href="#linear-gradient"/><linearGradient id="linear-gradient-12" x1="1310.7" y1="917.38" x2="1110.01" y2="922.99" gradientUnits="userSpaceOnUse"><stop offset="0" stop-color="#4a4a93"/><stop offset="1" stop-color="#fcee6b"/></linearGradient><linearGradient id="linear-gradient-13" x1="1154.3" y1="1083.98" x2="1071.07" y2="1080.91" xlink:href="#linear-gradient-12"/><linearGradient id="linear-gradient-14" x1="1192.21" y1="662.44" x2="1136.55" y2="659.89" xlink:href="#linear-gradient-12"/><linearGradient id="linear-gradient-15" x1="1265.78" y1="2849.16" x2="984.93" y2="2823.12" xlink:href="#linear-gradient-12"/><linearGradient id="linear-gradient-16" x1="1286.87" y1="2524.44" x2="1219.47" y2="2513.55" xlink:href="#linear-gradient-12"/><linearGradient id="linear-gradient-17" x1="1307.68" y1="3113.21" x2="1278.07" y2="3108.36" xlink:href="#linear-gradient-12"/><linearGradient id="linear-gradient-18" x1="1015.06" y1="842.36" x2="997.7" y2="839.81" xlink:href="#linear-gradient-12"/><linearGradient id="linear-gradient-19" x1="1263.28" y1="1259.51" x2="1246.17" y2="1256.96" xlink:href="#linear-gradient-12"/><linearGradient id="linear-gradient-20" x1="887.62" y1="2733.25" x2="875.96" y2="2731.8" xlink:href="#linear-gradient-12"/><linearGradient id="linear-gradient-21" x1="1078.84" y1="3142.55" x2="1055.35" y2="3137.1" xlink:href="#linear-gradient-12"/><linearGradient id="linear-gradient-22" x1="1281.88" y1="3760.71" x2="1177.2" y2="3693.31" xlink:href="#linear-gradient-12"/></defs><title>Prancheta 1</title><g class="cls-1"><g id="Export"><g class="cls-2"><rect class="cls-3" x="-2" width="1303" height="937"/></g><g class="cls-2"><rect class="cls-4" x="-2" y="937" width="1303" height="937"/></g><g class="cls-2"><rect class="cls-3" x="-2" y="1874" width="1303" height="937"/></g><g class="cls-2"><rect class="cls-4" x="-2" y="2811" width="1303" height="937"/></g></g><g id="R"><g id="Right"><polyline class="cls-5" points="1301 724.33 1184.92 743.5 1111.38 945.65 1250.01 1112.4 1301 1103.89"/><polygon class="cls-6" points="1125.66 1118.53 1149.82 1088.1 1135.55 1051.97 1097.12 1046.26 1072.96 1076.69 1087.24 1112.82 1125.66 1118.53"/><polygon class="cls-7" points="1160.95 686.43 1183.67 675.08 1185.2 649.72 1164 635.72 1141.28 647.08 1139.76 672.44 1160.95 686.43"/><polygon class="cls-8" points="970.51 2867.12 1073.78 2983.59 1226.28 2952.39 1275.51 2804.72 1172.24 2688.25 1019.74 2719.45 970.51 2867.12"/><polygon class="cls-9" points="1263.92 2545.66 1281.72 2523.24 1271.2 2496.62 1242.89 2492.41 1225.09 2514.83 1235.61 2541.45 1263.92 2545.66"/><polyline class="cls-10" points="1301 3077.11 1300.64 3077.06 1275.84 3108.3 1290.49 3145.39 1301 3146.95"/><circle class="cls-11" cx="1003.49" cy="840.66" r="7.37"/><circle class="cls-12" cx="1253.71" cy="1258.08" r="7.37"/><circle class="cls-13" cx="880.88" cy="2732.41" r="5.12"/><circle class="cls-14" cx="1064.11" cy="3139.13" r="8.57"/><polyline class="cls-15" points="1273.3 3749.35 1276.28 3699.75 1229.18 3668.65 1178.7 3693.89 1175.32 3750.22"/></g><g id="Luz_right" data-name="Luz right"><polyline class="cls-16" points="1301 724.33 1184.92 743.5 1111.38 945.65 1250.01 1112.4 1301 1103.89"/><polygon class="cls-17" points="1125.66 1118.53 1149.82 1088.1 1135.55 1051.97 1097.12 1046.26 1072.96 1076.69 1087.24 1112.82 1125.66 1118.53"/><polygon class="cls-18" points="1160.95 686.43 1183.67 675.08 1185.2 649.72 1164 635.72 1141.28 647.08 1139.76 672.44 1160.95 686.43"/><polygon class="cls-19" points="970.51 2867.12 1073.78 2983.59 1226.28 2952.39 1275.51 2804.72 1172.24 2688.25 1019.74 2719.45 970.51 2867.12"/><polygon class="cls-20" points="1263.92 2545.66 1281.72 2523.24 1271.2 2496.62 1242.89 2492.41 1225.09 2514.83 1235.61 2541.45 1263.92 2545.66"/><polyline class="cls-21" points="1301 3077.11 1300.64 3077.06 1275.84 3108.3 1290.49 3145.39 1301 3146.95"/><circle class="cls-22" cx="1003.49" cy="840.66" r="7.37"/><circle class="cls-23" cx="1253.71" cy="1258.08" r="7.37"/><circle class="cls-24" cx="880.88" cy="2732.41" r="5.12"/><circle class="cls-25" cx="1064.11" cy="3139.13" r="8.57"/><polyline class="cls-26" points="1273.3 3749.35 1276.28 3699.75 1229.18 3668.65 1178.7 3693.89 1175.32 3750.22"/></g></g></g></svg>