<svg xmlns="http://www.w3.org/2000/svg" xmlns:xlink="http://www.w3.org/1999/xlink" viewBox="0 0 1070 3748"><defs><style>.cls-1{isolation:isolate;}.cls-2{opacity:0;}.cls-3{fill:#ff9f9f;}.cls-4{fill:#33ffa2;}.cls-5{fill:url(#linear-gradient);}.cls-6{fill:url(#linear-gradient-2);}.cls-7{fill:url(#linear-gradient-3);}.cls-8{fill:url(#linear-gradient-4);}.cls-9{fill:url(#linear-gradient-5);}.cls-10{fill:url(#linear-gradient-6);}.cls-11{fill:url(#linear-gradient-7);}.cls-12{fill:url(#linear-gradient-8);}.cls-13{fill:url(#linear-gradient-9);}.cls-14{fill:url(#linear-gradient-10);}.cls-15,.cls-16,.cls-17,.cls-18,.cls-19,.cls-20,.cls-21,.cls-22,.cls-23,.cls-24{opacity:0.3;mix-blend-mode:hard-light;}.cls-15{fill:url(#linear-gradient-11);}.cls-16{fill:url(#linear-gradient-12);}.cls-17{fill:url(#linear-gradient-13);}.cls-18{fill:url(#linear-gradient-14);}.cls-19{fill:url(#linear-gradient-15);}.cls-20{fill:url(#linear-gradient-16);}.cls-21{fill:url(#linear-gradient-17);}.cls-22{fill:url(#linear-gradient-18);}.cls-23{fill:url(#linear-gradient-19);}.cls-24{fill:url(#linear-gradient-20);}</style><linearGradient id="linear-gradient" x1="1049.87" y1="3844.53" x2="1001.88" y2="11.3" gradientUnits="userSpaceOnUse"><stop offset="0" stop-color="#81217e"/><stop offset="0.5" stop-color="#da4154"/><stop offset="1" stop-color="#e66e26"/></linearGradient><linearGradient id="linear-gradient-2" x1="951.99" y1="3845.75" x2="904" y2="12.52" xlink:href="#linear-gradient"/><linearGradient id="linear-gradient-3" x1="929.92" y1="3846.03" x2="881.92" y2="12.8" xlink:href="#linear-gradient"/><linearGradient id="linear-gradient-4" x1="972.27" y1="3905.5" x2="924.28" y2="72.27" xlink:href="#linear-gradient"/><linearGradient id="linear-gradient-5" x1="1036.63" y1="3904.7" x2="988.64" y2="71.46" xlink:href="#linear-gradient"/><linearGradient id="linear-gradient-6" x1="897.13" y1="3847.07" x2="849.14" y2="13.83" xlink:href="#linear-gradient"/><linearGradient id="linear-gradient-7" x1="811.74" y1="3849.14" x2="763.75" y2="15.9" xlink:href="#linear-gradient"/><linearGradient id="linear-gradient-8" x1="943.06" y1="3905.87" x2="895.07" y2="72.63" xlink:href="#linear-gradient"/><linearGradient id="linear-gradient-9" x1="878.57" y1="3833.79" x2="830.58" y2="0.55" xlink:href="#linear-gradient"/><linearGradient id="linear-gradient-10" x1="844.52" y1="3848.73" x2="796.53" y2="15.49" xlink:href="#linear-gradient"/><linearGradient id="linear-gradient-11" x1="1124.5" y1="917.53" x2="914.12" y2="921.61" gradientUnits="userSpaceOnUse"><stop offset="0" stop-color="#4a4a93"/><stop offset="1" stop-color="#fcee6b"/></linearGradient><linearGradient id="linear-gradient-12" x1="960.17" y1="1090.43" x2="876.77" y2="1074.77" xlink:href="#linear-gradient-11"/><linearGradient id="linear-gradient-13" x1="919.19" y1="615.81" x2="862.51" y2="616.32" xlink:href="#linear-gradient-11"/><linearGradient id="linear-gradient-14" x1="1074.04" y1="2839.7" x2="857.01" y2="2851.44" xlink:href="#linear-gradient-11"/><linearGradient id="linear-gradient-15" x1="1051.61" y1="2533.22" x2="991.36" y2="2525.39" xlink:href="#linear-gradient-11"/><linearGradient id="linear-gradient-16" x1="869.27" y1="840.48" x2="850.55" y2="840.82" xlink:href="#linear-gradient-11"/><linearGradient id="linear-gradient-17" x1="804.25" y1="2665.5" x2="790.85" y2="2659.88" xlink:href="#linear-gradient-11"/><linearGradient id="linear-gradient-18" x1="942.97" y1="3033.26" x2="923.44" y2="3029.43" xlink:href="#linear-gradient-11"/><linearGradient id="linear-gradient-19" x1="896.67" y1="3773.74" x2="859.4" y2="3712.72" xlink:href="#linear-gradient-11"/><linearGradient id="linear-gradient-20" x1="831.6" y1="1981.29" x2="814.5" y2="1975.67" xlink:href="#linear-gradient-11"/></defs><title>Prancheta 1</title><g class="cls-1"><g id="Export"><g class="cls-2"><rect class="cls-3" width="1070" height="937"/></g><g class="cls-2"><rect class="cls-4" y="937" width="1070" height="937"/></g><g class="cls-2"><rect class="cls-3" y="1874" width="1070" height="937"/></g><g class="cls-2"><rect class="cls-4" y="2811" width="1070" height="937"/></g></g><g id="R"><g id="Right"><polyline class="cls-5" points="1107 724.33 990.92 743.5 917.38 945.65 1056.01 1112.4 1107 1103.89"/><polygon class="cls-6" points="931.66 1118.53 955.82 1088.1 941.54 1051.97 903.12 1046.26 878.96 1076.69 893.24 1112.82 931.66 1118.53"/><polygon class="cls-7" points="887.96 641.43 910.67 630.08 912.2 604.72 891 590.72 868.28 602.08 866.76 627.44 887.96 641.43"/><polygon class="cls-8" points="856.26 2866.94 925.84 2945.41 1028.59 2924.39 1061.76 2824.9 992.18 2746.43 889.43 2767.45 856.26 2866.94"/><polygon class="cls-9" points="1029.92 2555.66 1047.72 2533.24 1037.2 2506.62 1008.89 2502.41 991.09 2524.83 1001.61 2551.45 1029.92 2555.66"/><circle class="cls-10" cx="859.49" cy="840.66" r="7.37"/><circle class="cls-11" cx="796.88" cy="2662.41" r="5.12"/><circle class="cls-12" cx="932.11" cy="3031.13" r="8.57"/><polyline class="cls-13" points="911.05 3759.47 913.16 3724.36 879.82 3702.34 844.08 3720.2 841.68 3760.09"/><circle class="cls-14" cx="821.09" cy="1977.84" r="7.37"/></g><g id="Luz_Right" data-name="Luz Right"><polyline class="cls-15" points="1107 724.33 990.92 743.5 917.38 945.65 1056.01 1112.4 1107 1103.89"/><polygon class="cls-16" points="931.66 1118.53 955.82 1088.1 941.54 1051.97 903.12 1046.26 878.96 1076.69 893.24 1112.82 931.66 1118.53"/><polygon class="cls-17" points="887.96 641.43 910.67 630.08 912.2 604.72 891 590.72 868.28 602.08 866.76 627.44 887.96 641.43"/><polygon class="cls-18" points="856.26 2866.94 925.84 2945.41 1028.59 2924.39 1061.76 2824.9 992.18 2746.43 889.43 2767.45 856.26 2866.94"/><polygon class="cls-19" points="1029.92 2555.66 1047.72 2533.24 1037.2 2506.62 1008.89 2502.41 991.09 2524.83 1001.61 2551.45 1029.92 2555.66"/><circle class="cls-20" cx="859.49" cy="840.66" r="7.37"/><circle class="cls-21" cx="796.88" cy="2662.41" r="5.12"/><circle class="cls-22" cx="932.11" cy="3031.13" r="8.57"/><polyline class="cls-23" points="911.05 3759.47 913.16 3724.36 879.82 3702.34 844.08 3720.2 841.68 3760.09"/><circle class="cls-24" cx="821.09" cy="1977.84" r="7.37"/></g></g></g></svg>