<svg xmlns="http://www.w3.org/2000/svg" xmlns:xlink="http://www.w3.org/1999/xlink" viewBox="0 0 1920 3748"><defs><style>.cls-1{isolation:isolate;}.cls-2{opacity:0;}.cls-3{fill:#ff9f9f;}.cls-4{fill:#33ffa2;}.cls-5{fill:url(#linear-gradient);}.cls-6{fill:url(#linear-gradient-2);}.cls-7{fill:url(#linear-gradient-3);}.cls-8{fill:url(#linear-gradient-4);}.cls-9{fill:url(#linear-gradient-5);}.cls-10{fill:url(#linear-gradient-6);}.cls-11{fill:url(#linear-gradient-7);}.cls-12{fill:url(#linear-gradient-8);}.cls-13{fill:url(#linear-gradient-9);}.cls-14{fill:url(#linear-gradient-10);}.cls-15{fill:url(#linear-gradient-11);}.cls-16{fill:url(#linear-gradient-12);}.cls-17{fill:url(#linear-gradient-13);}.cls-18,.cls-19,.cls-20,.cls-21,.cls-22,.cls-23,.cls-24,.cls-25,.cls-26,.cls-27,.cls-28,.cls-29,.cls-30{opacity:0.3;mix-blend-mode:hard-light;}.cls-18{fill:url(#linear-gradient-14);}.cls-19{fill:url(#linear-gradient-15);}.cls-20{fill:url(#linear-gradient-16);}.cls-21{fill:url(#linear-gradient-17);}.cls-22{fill:url(#linear-gradient-18);}.cls-23{fill:url(#linear-gradient-19);}.cls-24{fill:url(#linear-gradient-20);}.cls-25{fill:url(#linear-gradient-21);}.cls-26{fill:url(#linear-gradient-22);}.cls-27{fill:url(#linear-gradient-23);}.cls-28{fill:url(#linear-gradient-24);}.cls-29{fill:url(#linear-gradient-25);}.cls-30{fill:url(#linear-gradient-26);}</style><linearGradient id="linear-gradient" x1="1947.93" y1="3839.08" x2="1739.61" y2="-14.89" gradientUnits="userSpaceOnUse"><stop offset="0" stop-color="#81217e"/><stop offset="0.5" stop-color="#da4154"/><stop offset="1" stop-color="#e66e26"/></linearGradient><linearGradient id="linear-gradient-2" x1="1726.44" y1="3851.34" x2="1518.1" y2="-2.96" xlink:href="#linear-gradient"/><linearGradient id="linear-gradient-3" x1="1798.15" y1="3847.46" x2="1589.81" y2="-6.84" xlink:href="#linear-gradient"/><linearGradient id="linear-gradient-4" x1="1704.45" y1="3992.53" x2="1496.11" y2="138.23" xlink:href="#linear-gradient"/><linearGradient id="linear-gradient-5" x1="1851.54" y1="3984.57" x2="1643.2" y2="130.28" xlink:href="#linear-gradient"/><linearGradient id="linear-gradient-6" x1="1901.12" y1="3981.89" x2="1692.78" y2="127.6" xlink:href="#linear-gradient"/><linearGradient id="linear-gradient-7" x1="2020.26" y1="3835.45" x2="1811.92" y2="-18.84" xlink:href="#linear-gradient"/><linearGradient id="linear-gradient-8" x1="1706.29" y1="3852.43" x2="1497.95" y2="-1.87" xlink:href="#linear-gradient"/><linearGradient id="linear-gradient-9" x1="1933.29" y1="3840.16" x2="1724.95" y2="-14.14" xlink:href="#linear-gradient"/><linearGradient id="linear-gradient-10" x1="1573.14" y1="3999.62" x2="1364.8" y2="145.33" xlink:href="#linear-gradient"/><linearGradient id="linear-gradient-11" x1="1933.43" y1="3980.15" x2="1725.09" y2="125.85" xlink:href="#linear-gradient"/><linearGradient id="linear-gradient-12" x1="1629.38" y1="3996.58" x2="1421.03" y2="142.29" xlink:href="#linear-gradient"/><linearGradient id="linear-gradient-13" x1="1716.41" y1="3742.56" x2="1508.07" y2="-111.74" gradientTransform="translate(3523.67 6877.45) rotate(180)" xlink:href="#linear-gradient"/><linearGradient id="linear-gradient-14" x1="1947.29" y1="911.27" x2="1653.93" y2="912.8" gradientUnits="userSpaceOnUse"><stop offset="0" stop-color="#4a4a93"/><stop offset="1" stop-color="#fcee6b"/></linearGradient><linearGradient id="linear-gradient-15" x1="1645.63" y1="1101.77" x2="1514.23" y2="1122.54" xlink:href="#linear-gradient-14"/><linearGradient id="linear-gradient-16" x1="1649.65" y1="616.91" x2="1601.39" y2="615.38" xlink:href="#linear-gradient-14"/><linearGradient id="linear-gradient-17" x1="1802.33" y1="2818.35" x2="1477.56" y2="2894.94" xlink:href="#linear-gradient-14"/><linearGradient id="linear-gradient-18" x1="1798.7" y1="2528.58" x2="1747.63" y2="2549.69" xlink:href="#linear-gradient-14"/><linearGradient id="linear-gradient-19" x1="1895.34" y1="3125.86" x2="1818.06" y2="3141.86" xlink:href="#linear-gradient-14"/><linearGradient id="linear-gradient-20" x1="1853.45" y1="621.26" x2="1840.26" y2="618.29" xlink:href="#linear-gradient-14"/><linearGradient id="linear-gradient-21" x1="1554.08" y1="838.58" x2="1533.31" y2="842.66" xlink:href="#linear-gradient-14"/><linearGradient id="linear-gradient-22" x1="1805.3" y1="1253.96" x2="1784.49" y2="1261.37" xlink:href="#linear-gradient-14"/><linearGradient id="linear-gradient-23" x1="1507.37" y1="2608.72" x2="1487.62" y2="2606" xlink:href="#linear-gradient-14"/><linearGradient id="linear-gradient-24" x1="1888.4" y1="2910.74" x2="1863.55" y2="2920.27" xlink:href="#linear-gradient-14"/><linearGradient id="linear-gradient-25" x1="1594.09" y1="3158.19" x2="1573.79" y2="3160.1" xlink:href="#linear-gradient-14"/><linearGradient id="linear-gradient-26" x1="1590.09" y1="3286.98" x2="1782.43" y2="3245.79" gradientTransform="translate(3523.67 6877.45) rotate(180)" xlink:href="#linear-gradient-14"/></defs><title>Prancheta 1</title><g class="cls-1"><g id="Export"><g class="cls-2"><rect class="cls-3" width="1920" height="937"/></g><g class="cls-2"><rect class="cls-4" y="937" width="1920" height="937"/></g><g class="cls-2"><rect class="cls-3" y="1874" width="1920" height="937"/></g><g class="cls-2"><rect class="cls-4" y="2811" width="1920" height="937"/></g></g><g id="R"><g id="Right"><polyline class="cls-5" points="1920 711.12 1723.92 743.5 1650.38 945.65 1789.01 1112.4 1920 1090.54"/><polygon class="cls-6" points="1603.38 1175.65 1645.67 1122.38 1620.68 1059.13 1553.4 1049.14 1511.11 1102.41 1536.1 1165.67 1603.38 1175.65"/><polygon class="cls-7" points="1621.95 641.43 1644.67 630.08 1646.2 604.72 1625 590.72 1602.28 602.08 1600.76 627.44 1621.95 641.43"/><polygon class="cls-8" points="1490.51 2887.12 1593.78 3003.59 1746.28 2972.39 1795.51 2824.72 1692.24 2708.25 1539.74 2739.45 1490.51 2887.12"/><polygon class="cls-9" points="1783.92 2565.66 1801.72 2543.24 1791.2 2516.62 1762.89 2512.41 1745.09 2534.83 1755.61 2561.45 1783.92 2565.66"/><polygon class="cls-10" points="1840.64 3097.06 1815.84 3128.3 1830.49 3165.39 1869.95 3171.25 1894.75 3140.01 1880.09 3102.91 1840.64 3097.06"/><circle class="cls-11" cx="1846.43" cy="619.68" r="4.92"/><circle class="cls-12" cx="1543.49" cy="840.66" r="7.37"/><circle class="cls-13" cx="1793.71" cy="1258.08" r="7.37"/><circle class="cls-14" cx="1497.88" cy="2607.41" r="7.37"/><circle class="cls-15" cx="1875.88" cy="2915.54" r="12.12"/><circle class="cls-16" cx="1584.11" cy="3159.13" r="8.57"/><polyline class="cls-17" points="1919.99 3469.52 1788.45 3491.24 1739.19 3626.65 1832.05 3738.35 1920 3723.67"/></g><g id="Luz_Right" data-name="Luz Right"><polyline class="cls-18" points="1920 711.12 1723.92 743.5 1650.38 945.65 1789.01 1112.4 1920 1090.54"/><polygon class="cls-19" points="1603.38 1175.65 1645.67 1122.38 1620.68 1059.13 1553.4 1049.14 1511.11 1102.41 1536.1 1165.67 1603.38 1175.65"/><polygon class="cls-20" points="1621.95 641.43 1644.67 630.08 1646.2 604.72 1625 590.72 1602.28 602.08 1600.76 627.44 1621.95 641.43"/><polygon class="cls-21" points="1490.51 2887.12 1593.78 3003.59 1746.28 2972.39 1795.51 2824.72 1692.24 2708.25 1539.74 2739.45 1490.51 2887.12"/><polygon class="cls-22" points="1783.92 2565.66 1801.72 2543.24 1791.2 2516.62 1762.89 2512.41 1745.09 2534.83 1755.61 2561.45 1783.92 2565.66"/><polygon class="cls-23" points="1840.64 3097.06 1815.84 3128.3 1830.49 3165.39 1869.95 3171.25 1894.75 3140.01 1880.09 3102.91 1840.64 3097.06"/><circle class="cls-24" cx="1846.43" cy="619.68" r="4.92"/><circle class="cls-25" cx="1543.49" cy="840.66" r="7.37"/><circle class="cls-26" cx="1793.71" cy="1258.08" r="7.37"/><circle class="cls-27" cx="1497.88" cy="2607.41" r="7.37"/><circle class="cls-28" cx="1875.88" cy="2915.54" r="12.12"/><circle class="cls-29" cx="1584.11" cy="3159.13" r="8.57"/><polyline class="cls-30" points="1919.99 3469.52 1788.45 3491.24 1739.19 3626.65 1832.05 3738.35 1920 3723.67"/></g></g></g></svg>