<svg xmlns="http://www.w3.org/2000/svg" xmlns:xlink="http://www.w3.org/1999/xlink" width="501" height="501" viewBox="0 0 501 501"><defs><linearGradient id="a" x1="45.34435" y1="193.34335" x2="470.51638" y2="299.06592" gradientUnits="userSpaceOnUse"><stop offset="0" stop-color="#e6e6e6"/><stop offset="1" stop-color="#f2f2f2"/></linearGradient><linearGradient id="b" x1="53.46478" y1="62.163" x2="442.38183" y2="221.88773" gradientUnits="userSpaceOnUse"><stop offset="0" stop-color="#5a546b"/><stop offset="0.27667" stop-color="#5a546e"/><stop offset="0.51628" stop-color="#5a5479"/><stop offset="0.74202" stop-color="#5a538b"/><stop offset="0.95823" stop-color="#5a52a4"/><stop offset="0.99659" stop-color="#5a52a9"/></linearGradient><linearGradient id="c" x1="82.2942" y1="140.1952" x2="97.88462" y2="140.1952" gradientTransform="translate(-0.17099 0.11003) rotate(-0.06991)" gradientUnits="userSpaceOnUse"><stop offset="0" stop-color="#fff"/><stop offset="0.41501" stop-color="#fcfcfc"/><stop offset="0.77382" stop-color="#f1f1f1"/><stop offset="1" stop-color="#e6e6e6"/></linearGradient><linearGradient id="d" x1="55.52104" y1="140.17107" x2="70.57615" y2="140.17107" gradientTransform="translate(-0.17092 0.077) rotate(-0.06988)" gradientUnits="userSpaceOnUse"><stop offset="0" stop-color="#e68201"/><stop offset="0.3118" stop-color="#e68e01"/><stop offset="0.87976" stop-color="#e6af01"/><stop offset="1" stop-color="#e6b701"/></linearGradient><linearGradient id="e" x1="108.72656" y1="140.22745" x2="124.31698" y2="140.22745" gradientTransform="translate(-0.17101 0.14228) rotate(-0.06991)" xlink:href="#c"/><linearGradient id="f" x1="135.15893" y1="140.25971" x2="150.74935" y2="140.25971" gradientTransform="translate(-0.17103 0.17453) rotate(-0.06991)" xlink:href="#c"/><linearGradient id="g" x1="398.59179" y1="140.35622" x2="407.53448" y2="140.35622" gradientTransform="matrix(1, 0, 0, 1, 0, 0)" xlink:href="#c"/><linearGradient id="h" x1="413.82094" y1="140.35622" x2="422.76363" y2="140.35622" gradientTransform="matrix(1, 0, 0, 1, 0, 0)" xlink:href="#c"/><linearGradient id="i" x1="429.05009" y1="140.35622" x2="437.99277" y2="140.35622" gradientTransform="matrix(1, 0, 0, 1, 0, 0)" xlink:href="#c"/><linearGradient id="j" x1="354.06505" y1="231.7555" x2="443.81514" y2="346.98549" xlink:href="#b"/><linearGradient id="k" x1="381.61496" y1="240.9381" x2="427.27157" y2="240.9381" gradientUnits="userSpaceOnUse"><stop offset="0" stop-color="#5cff5c"/><stop offset="0.28167" stop-color="#5fff5c"/><stop offset="0.5256" stop-color="#6aff5c"/><stop offset="0.7555" stop-color="#7cff5c"/><stop offset="0.97557" stop-color="#95ff5c"/><stop offset="1" stop-color="#98ff5c"/></linearGradient><linearGradient id="l" x1="368.19982" y1="230.87942" x2="389.22581" y2="230.87942" gradientTransform="matrix(1, 0, 0, 1, 0, 0)" xlink:href="#c"/><linearGradient id="m" x1="368.38739" y1="240.96442" x2="377.93206" y2="240.96442" xlink:href="#k"/><linearGradient id="n" x1="381.62706" y1="257.46754" x2="427.28367" y2="257.46754" gradientUnits="userSpaceOnUse"><stop offset="0" stop-color="#39ffcb"/><stop offset="0.22667" stop-color="#3cffca"/><stop offset="0.423" stop-color="#47ffc6"/><stop offset="0.60803" stop-color="#59ffc0"/><stop offset="0.78617" stop-color="#72ffb7"/><stop offset="0.95791" stop-color="#92ffac"/><stop offset="1" stop-color="#9bffa9"/></linearGradient><linearGradient id="o" x1="368.39949" y1="257.49386" x2="377.94416" y2="257.49386" xlink:href="#n"/><linearGradient id="p" x1="381.66624" y1="304.69452" x2="427.32285" y2="304.69452" gradientUnits="userSpaceOnUse"><stop offset="0" stop-color="#ed54b2"/><stop offset="0.25134" stop-color="#ed57b5"/><stop offset="0.46904" stop-color="#ed5fc0"/><stop offset="0.67422" stop-color="#ed6dd2"/><stop offset="0.87056" stop-color="#ed81eb"/><stop offset="0.99659" stop-color="#ed91ff"/></linearGradient><linearGradient id="q" x1="368.43867" y1="304.72083" x2="377.98334" y2="304.72083" xlink:href="#p"/><linearGradient id="r" x1="422.86134" y1="336.54922" x2="427.82068" y2="336.54922" gradientTransform="matrix(1, 0, 0, 1, 0, 0)" xlink:href="#c"/><linearGradient id="s" x1="414.11178" y1="336.55164" x2="419.07112" y2="336.55164" gradientTransform="matrix(1, 0, 0, 1, 0, 0)" xlink:href="#c"/><linearGradient id="t" x1="405.36222" y1="336.55405" x2="410.32156" y2="336.55405" gradientTransform="matrix(1, 0, 0, 1, 0, 0)" xlink:href="#c"/><linearGradient id="u" x1="368.41255" y1="273.23618" x2="377.95722" y2="273.23618" gradientUnits="userSpaceOnUse"><stop offset="0" stop-color="#52caff"/><stop offset="0.24991" stop-color="#4fccff"/><stop offset="0.46637" stop-color="#44d4ff"/><stop offset="0.6704" stop-color="#32e0ff"/><stop offset="0.86559" stop-color="#19f1ff"/><stop offset="0.99659" stop-color="#04ffff"/></linearGradient><linearGradient id="v" x1="381.64012" y1="273.20987" x2="427.29673" y2="273.20987" xlink:href="#u"/><linearGradient id="w" x1="394.66808" y1="288.94711" x2="427.29426" y2="288.94711" gradientUnits="userSpaceOnUse"><stop offset="0" stop-color="#4d8dff"/><stop offset="0.25134" stop-color="#4a90ff"/><stop offset="0.46904" stop-color="#3f9bff"/><stop offset="0.67422" stop-color="#2dacff"/><stop offset="0.87056" stop-color="#14c5ff"/><stop offset="0.99659" stop-color="#00d9ff"/></linearGradient><linearGradient id="x" x1="382.73395" y1="288.99222" x2="391.92238" y2="288.99222" xlink:href="#w"/><linearGradient id="y" x1="34.8736" y1="175.29096" x2="133.75082" y2="318.66293" gradientTransform="translate(-0.29706 0.10014) rotate(-0.06991)" xlink:href="#b"/><linearGradient id="z" x1="63.93856" y1="301.10102" x2="70.88476" y2="301.10102" gradientTransform="translate(-0.36734 0.08248) rotate(-0.06991)" xlink:href="#c"/><linearGradient id="aa" x1="78.90359" y1="301.11928" x2="85.84978" y2="301.11928" gradientTransform="translate(-0.36735 0.10074) rotate(-0.06991)" xlink:href="#c"/><linearGradient id="ab" x1="93.86861" y1="301.13754" x2="100.81481" y2="301.13754" gradientTransform="translate(-0.36736 0.119) rotate(-0.06991)" xlink:href="#c"/><linearGradient id="ac" x1="86.37555" y1="191.40515" x2="96.03095" y2="191.40515" gradientTransform="translate(-0.23347 0.11142) rotate(-0.06991)" xlink:href="#c"/><linearGradient id="ad" x1="67.13652" y1="206.34672" x2="76.79191" y2="206.34672" gradientTransform="translate(-0.25172 0.08796) rotate(-0.06991)" xlink:href="#c"/><linearGradient id="ae" x1="86.3573" y1="206.37017" x2="96.01269" y2="206.37017" gradientTransform="translate(-0.25173 0.11141) rotate(-0.06991)" xlink:href="#c"/><linearGradient id="af" x1="67.11826" y1="221.31174" x2="76.77365" y2="221.31174" gradientTransform="translate(-0.26998 0.08795) rotate(-0.06991)" xlink:href="#c"/><linearGradient id="ag" x1="86.33904" y1="221.3352" x2="95.99443" y2="221.3352" gradientTransform="translate(-0.26999 0.1114) rotate(-0.06991)" xlink:href="#c"/><linearGradient id="ah" x1="67.1" y1="236.27677" x2="76.7554" y2="236.27677" gradientTransform="translate(-0.28824 0.08794) rotate(-0.06991)" xlink:href="#c"/><linearGradient id="ai" x1="86.32078" y1="236.30022" x2="95.97617" y2="236.30022" gradientTransform="translate(-0.28825 0.11139) rotate(-0.06991)" xlink:href="#c"/><linearGradient id="aj" x1="67.08174" y1="251.24179" x2="76.73714" y2="251.24179" gradientTransform="translate(-0.3065 0.08793) rotate(-0.06991)" xlink:href="#c"/><linearGradient id="ak" x1="86.30252" y1="251.26524" x2="95.95791" y2="251.26524" gradientTransform="translate(-0.30651 0.11138) rotate(-0.06991)" xlink:href="#c"/><linearGradient id="al" x1="66.25358" y1="184.74823" x2="75.88777" y2="195.90361" gradientTransform="translate(-0.23346 0.08797) rotate(-0.06991)" xlink:href="#u"/><linearGradient id="am" x1="89.39585" y1="265.36335" x2="95.18306" y2="265.36335" gradientTransform="matrix(1, 0, 0, 1, 0, 0)" xlink:href="#c"/><linearGradient id="an" x1="63.90525" y1="267.92471" x2="89.42741" y2="274.34751" gradientTransform="translate(-0.33079 0.09382) rotate(-0.06991)" gradientUnits="userSpaceOnUse"><stop offset="0" stop-color="#f07062"/><stop offset="1" stop-color="#f09b58"/></linearGradient><linearGradient id="ao" x1="525.5331" y1="549.86759" x2="581.18343" y2="643.19424" gradientTransform="translate(-223.73387 -360.27905) rotate(0.06991)" xlink:href="#an"/><linearGradient id="ap" x1="517.26114" y1="564.0401" x2="450.89552" y2="641.46665" gradientTransform="translate(-223.73387 -360.27905) rotate(0.06991)" gradientUnits="userSpaceOnUse"><stop offset="0" stop-color="#ca5752"/><stop offset="0.23399" stop-color="#d36356"/><stop offset="1" stop-color="#f08762"/></linearGradient><linearGradient id="aq" x1="452.29945" y1="335.88331" x2="475.11727" y2="160.94669" gradientUnits="userSpaceOnUse"><stop offset="0" stop-color="#d0f"/><stop offset="0.01304" stop-color="#da02fd"/><stop offset="0.21564" stop-color="#b51fe4"/><stop offset="0.41796" stop-color="#9836d1"/><stop offset="0.61748" stop-color="#8347c3"/><stop offset="0.81306" stop-color="#7651bb"/><stop offset="1" stop-color="#7254b8"/></linearGradient><linearGradient id="ar" x1="281.28307" y1="424.86402" x2="174.6931" y2="323.80853" xlink:href="#aq"/><linearGradient id="as" x1="59.48335" y1="265.7568" x2="3.95999" y2="181.33087" xlink:href="#aq"/><linearGradient id="at" x1="-3.47796" y1="393.54072" x2="17.14259" y2="406.89337" gradientTransform="translate(-259.60152 100.57188) rotate(-40.80157)" gradientUnits="userSpaceOnUse"><stop offset="0" stop-color="#00c568"/><stop offset="0.10929" stop-color="#26d053"/><stop offset="0.26127" stop-color="#53dd3a"/><stop offset="0.41406" stop-color="#79e825"/><stop offset="0.56529" stop-color="#96f015"/><stop offset="0.71435" stop-color="#abf609"/><stop offset="0.86043" stop-color="#b8fa02"/><stop offset="1" stop-color="#bcfb00"/></linearGradient><linearGradient id="au" x1="175.70347" y1="87.87732" x2="196.32401" y2="101.22997" gradientTransform="translate(-16.32321 143.37325) rotate(-40.80158)" xlink:href="#at"/><linearGradient id="av" x1="77.04909" y1="437.02365" x2="105.69813" y2="461.86972" gradientUnits="userSpaceOnUse"><stop offset="0" stop-color="#13b9f0"/><stop offset="0.23208" stop-color="#10c4e8"/><stop offset="0.63315" stop-color="#08e0d2"/><stop offset="1" stop-color="#00ffba"/></linearGradient><linearGradient id="aw" x1="327.32422" y1="397.10899" x2="347.94477" y2="410.46164" gradientTransform="translate(-181.54066 317.59884) rotate(-40.80157)" xlink:href="#at"/><linearGradient id="ax" x1="486.70528" y1="120.50013" x2="507.32583" y2="133.85278" gradientTransform="translate(37.94023 354.52273) rotate(-40.80157)" xlink:href="#at"/><linearGradient id="ay" x1="445.31741" y1="429.14351" x2="473.96645" y2="453.98958" xlink:href="#av"/><linearGradient id="az" x1="358.36152" y1="38.5816" x2="387.01056" y2="63.42767" xlink:href="#av"/><linearGradient id="ba" x1="26.65009" y1="45.94633" x2="55.29913" y2="70.7924" xlink:href="#av"/></defs><title>design</title><g opacity="0"><rect x="0.5" y="0.5" width="500" height="500" fill="none" stroke="#fff" stroke-miterlimit="10"/></g><path d="M46.04789,133.245l-.18031,219.85754a6.99638,6.99638,0,0,0,7.00013,7.00211l387.73989-.20776a6.99637,6.99637,0,0,0,6.99262-6.99755l-.03656-219.17689a6.99638,6.99638,0,0,0-6.98784-6.99521l-387.523-.47288A6.99638,6.99638,0,0,0,46.04789,133.245Z" fill="url(#a)"/><path d="M447.53366,154.08775H46.025l.02-20.84551a6.99639,6.99639,0,0,1,7.00491-6.98784l387.51593.47287a6.99637,6.99637,0,0,1,6.98783,7.00491Z" fill="url(#b)"/><path d="M84.48439,138.005h11.21a2.1902,2.1902,0,0,1,2.1902,2.1902v0a2.1902,2.1902,0,0,1-2.1902,2.1902h-11.21a2.19019,2.19019,0,0,1-2.19019-2.19019v0a2.1902,2.1902,0,0,1,2.1902-2.1902Z" transform="translate(0.17112 -0.10982) rotate(0.06991)" fill="url(#c)"/><path d="M63.0486,132.64352h0a7.52754,7.52754,0,0,1,7.52754,7.52754v0a7.52755,7.52755,0,0,1-7.52755,7.52755h0a7.52754,7.52754,0,0,1-7.52754-7.52754v0a7.52755,7.52755,0,0,1,7.52755-7.52755Z" transform="translate(0.17101 -0.07679) rotate(0.06988)" fill="url(#d)"/><path d="M110.91675,138.03726h11.21a2.19019,2.19019,0,0,1,2.19019,2.19019v0a2.1902,2.1902,0,0,1-2.1902,2.1902h-11.21a2.19019,2.19019,0,0,1-2.19019-2.19019v0A2.1902,2.1902,0,0,1,110.91675,138.03726Z" transform="translate(0.17118 -0.14207) rotate(0.06991)" fill="url(#e)"/><path d="M137.34912,138.06951h11.21a2.19019,2.19019,0,0,1,2.19019,2.19019v0a2.1902,2.1902,0,0,1-2.1902,2.1902h-11.21a2.19019,2.19019,0,0,1-2.19019-2.19019v0a2.1902,2.1902,0,0,1,2.1902-2.1902Z" transform="matrix(1, 0.00122, -0.00122, 1, 0.17124, -0.17432)" fill="url(#f)"/><circle cx="403.06314" cy="140.35622" r="4.47134" fill="url(#g)"/><circle cx="418.29228" cy="140.35622" r="4.47134" fill="url(#h)"/><circle cx="433.52143" cy="140.35622" r="4.47134" fill="url(#i)"/><path d="M428.83326,235.603l-36.83994-.045.00925-7.58277a2.51563,2.51563,0,0,0-2.51278-2.51882l-20.99693-.02562a2.51611,2.51611,0,0,0-2.51892,2.51268l-.01232,10.09852-.03972,32.55078-.08435,69.13226a2.51611,2.51611,0,0,0,2.51278,2.51882l60.35272.07364a2.51562,2.51562,0,0,0,2.51892-2.51269l.12407-101.683A2.51561,2.51561,0,0,0,428.83326,235.603Z" fill="url(#j)"/><path d="M384.08516,238.46789h40.71621a2.47021,2.47021,0,0,1,2.47021,2.47021v0a2.4702,2.4702,0,0,1-2.4702,2.4702H384.08516a2.4702,2.4702,0,0,1-2.4702-2.4702v0A2.4702,2.4702,0,0,1,384.08516,238.46789Z" fill="url(#k)"/><rect x="368.19982" y="229.24932" width="21.026" height="3.2602" rx="1.6301" fill="url(#l)"/><rect x="368.38739" y="238.49421" width="9.54467" height="4.94041" rx="2.4702" fill="url(#m)"/><path d="M384.09727,254.99733h40.71621a2.4702,2.4702,0,0,1,2.4702,2.4702v0a2.4702,2.4702,0,0,1-2.4702,2.4702H384.09726a2.4702,2.4702,0,0,1-2.4702-2.4702v0a2.47021,2.47021,0,0,1,2.47021-2.47021Z" fill="url(#n)"/><rect x="368.39949" y="255.02365" width="9.54467" height="4.94041" rx="2.4702" fill="url(#o)"/><path d="M384.13643,302.22431h40.71623a2.4702,2.4702,0,0,1,2.4702,2.4702v0a2.47021,2.47021,0,0,1-2.47021,2.47021h-40.7162a2.47021,2.47021,0,0,1-2.47021-2.47021v0a2.4702,2.4702,0,0,1,2.4702-2.4702Z" fill="url(#p)"/><path d="M370.90887,302.25062h4.60426a2.47021,2.47021,0,0,1,2.47021,2.47021v0a2.4702,2.4702,0,0,1-2.4702,2.4702h-4.60426a2.4702,2.4702,0,0,1-2.4702-2.4702v0a2.4702,2.4702,0,0,1,2.4702-2.4702Z" fill="url(#q)"/><rect x="422.86312" y="334.07901" width="4.95578" height="4.94042" rx="0.32844" fill="url(#r)"/><rect x="414.11356" y="334.08143" width="4.95578" height="4.94042" rx="0.32844" fill="url(#s)"/><rect x="405.364" y="334.08385" width="4.95578" height="4.94042" rx="0.32844" fill="url(#t)"/><rect x="365.88168" y="268.32315" width="65.38431" height="9.78378" fill="#48435b"/><path d="M370.88276,270.766H375.487a2.47021,2.47021,0,0,1,2.47021,2.47021v0a2.4702,2.4702,0,0,1-2.4702,2.4702h-4.60426a2.4702,2.4702,0,0,1-2.4702-2.4702v0a2.47021,2.47021,0,0,1,2.47021-2.47021Z" fill="url(#u)"/><rect x="381.64012" y="270.73966" width="45.65662" height="4.94041" rx="2.4702" fill="url(#v)"/><rect x="394.66807" y="286.4769" width="32.62619" height="4.94042" rx="2.47021" fill="url(#w)"/><rect x="382.73395" y="286.52201" width="9.18843" height="4.94041" rx="2.4702" fill="url(#x)"/><rect x="59.84441" y="175.63996" width="44.15858" height="135.74729" rx="1.28337" transform="translate(0.29718 -0.09978) rotate(0.06991)" fill="url(#y)"/><path d="M76.61033,270.4029l-.02549,20.88737,20.88746.02549.02549-20.88737Zm15.06828,15.105-9.28592-.01133.01133-9.28583,9.28592.01133Z" fill="#fff"/><rect x="63.94105" y="297.63041" width="6.94123" height="6.94123" rx="1.43282" transform="translate(0.36744 -0.08203) rotate(0.06991)" fill="url(#z)"/><rect x="78.90607" y="297.64867" width="6.94123" height="6.94123" rx="1.43282" transform="translate(0.36747 -0.10029) rotate(0.06991)" fill="url(#aa)"/><rect x="93.87109" y="297.66693" width="6.94123" height="6.94123" rx="1.43282" transform="translate(0.3675 -0.11855) rotate(0.06991)" fill="url(#ab)"/><rect x="86.37942" y="186.58131" width="9.64767" height="9.64767" rx="1.65638" transform="translate(0.23361 -0.11114) rotate(0.06991)" fill="url(#ac)"/><rect x="67.14038" y="201.52288" width="9.64767" height="9.64767" rx="1.65638" transform="translate(0.25183 -0.08765) rotate(0.06991)" fill="url(#ad)"/><rect x="86.36116" y="201.54634" width="9.64767" height="9.64767" rx="1.65638" transform="translate(0.25187 -0.11111) rotate(0.06991)" fill="url(#ae)"/><rect x="67.12212" y="216.48791" width="9.64767" height="9.64767" rx="1.65638" transform="translate(0.27009 -0.08762) rotate(0.06991)" fill="url(#af)"/><rect x="86.3429" y="216.51136" width="9.64767" height="9.64767" rx="1.65638" transform="translate(0.27013 -0.11107) rotate(0.06991)" fill="url(#ag)"/><rect x="67.10386" y="231.45293" width="9.64767" height="9.64767" rx="1.65638" transform="translate(0.28835 -0.08759) rotate(0.06991)" fill="url(#ah)"/><rect x="86.32464" y="231.47638" width="9.64767" height="9.64767" rx="1.65638" transform="translate(0.28839 -0.11104) rotate(0.06991)" fill="url(#ai)"/><rect x="67.0856" y="246.41796" width="9.64767" height="9.64767" rx="1.65638" transform="matrix(1, 0.00122, -0.00122, 1, 0.3066, -0.08755)" fill="url(#aj)"/><rect x="86.30638" y="246.44141" width="9.64767" height="9.64767" rx="1.65638" transform="translate(0.30665 -0.111) rotate(0.06991)" fill="url(#ak)"/><rect x="64.06004" y="183.45926" width="15.84488" height="15.84488" rx="1.38416" transform="translate(0.23357 -0.08769) rotate(0.06991)" fill="#48435b"/><rect x="67.15864" y="186.55786" width="9.64767" height="9.64767" rx="1.65638" transform="matrix(1, 0.00122, -0.00122, 1, 0.23357, -0.08769)" fill="url(#al)"/><path d="M90.1406,263.28629l3.68154.00449a.61692.61692,0,0,1,.61617.61768L94.434,267.4404" fill="none" stroke-linecap="round" stroke-miterlimit="10" stroke-width="1.4895" stroke="url(#am)"/><line x1="77.00489" y1="290.91386" x2="97.13791" y2="270.78813" fill="none" stroke="#ff1e00" stroke-linecap="round" stroke-linejoin="bevel" stroke-width="0.74825"/><rect x="66.28306" y="260.70763" width="20.88737" height="20.88737" rx="1.31184" transform="translate(0.3309 -0.09342) rotate(0.06991)" fill="url(#an)"/><polygon points="224.611 276.122 223.918 219.182 174.26 191.313 125.296 220.383 125.989 277.322 175.646 305.192 224.611 276.122" fill="none" stroke="#3a3c4f" stroke-miterlimit="10" stroke-width="1.7278"/><polyline points="174.634 222.049 197.979 234.592 198.306 261.42 219.309 273.207 218.689 222.276 174.341 197.945" fill="none" stroke="#3a3c4f" stroke-miterlimit="10" stroke-width="1.7278"/><polygon points="174.634 222.049 174.634 222.049 151.601 235.157 151.928 261.984 131.218 274.28 130.598 223.349 174.341 197.945 174.634 222.049" fill="none" stroke="#3a3c4f" stroke-miterlimit="10" stroke-width="1.7278"/><polygon points="247.715 217.847 247.646 274.276 296.481 302.551 345.384 274.396 345.453 217.966 296.618 189.692 247.715 217.847" fill="#2e303d"/><polyline points="296.583 219.233 320.015 232.23 319.981 259.357 341.056 271.559 341.119 220.059 296.612 194.86" fill="url(#ao)"/><polygon points="296.582 219.233 296.582 219.233 273.119 232.173 273.086 259.3 251.981 271.45 252.044 219.95 296.612 194.86 296.582 219.233" fill="url(#ap)"/><path d="M490.68324,313.34483V236.07555a5.06289,5.06289,0,0,0-5.06286-5.0629H444.80905a5.06293,5.06293,0,0,0-5.0629,5.0629v3.89634h-9.78954a.722.722,0,0,0-.42692,1.30415l10.21646,7.492v64.57677a5.06293,5.06293,0,0,0,5.0629,5.0629h40.81133A5.06289,5.06289,0,0,0,490.68324,313.34483Z" fill="url(#aq)"/><circle cx="464.83778" cy="255.20276" r="12.70058" fill="#ffabef"/><circle cx="464.83778" cy="294.21762" r="12.70058" fill="#ffabef"/><path d="M472.97041,264.95651a12.70059,12.70059,0,1,0-16.26526,0,12.69542,12.69542,0,0,1,16.26526,0Z" fill="#fff"/><path d="M472.97041,284.46393a12.69724,12.69724,0,0,0,0-19.50742,12.69552,12.69552,0,0,1-16.26526,0,12.69726,12.69726,0,0,0,0,19.50742,12.69542,12.69542,0,0,1,16.26526,0Z" fill="#fff"/><path d="M477.53485,294.52033a12.67338,12.67338,0,0,0-4.56444-10.0564,12.69552,12.69552,0,0,1-16.26526,0,12.70031,12.70031,0,1,0,20.8297,10.0564Z" fill="#fff"/><path d="M276.68954,412.56989H194.78442a6.14,6.14,0,0,1-6.14005-6.14V356.93579a6.14008,6.14008,0,0,1,6.14005-6.14h4.72531v-11.8723a.87555.87555,0,0,1,1.58161-.51775l9.086,12.39005h66.51222a6.14008,6.14008,0,0,1,6.14,6.14v49.49409A6.14,6.14,0,0,1,276.68954,412.56989Z" fill="url(#ar)"/><path d="M201.40859,390.92q.46582-.95655.97095-1.87061" fill="none" stroke="#fff" stroke-linecap="round" stroke-miterlimit="10" stroke-width="2.52663"/><path d="M210.329,379.01958c15.88477-14.22486,41.66772-12.66138,55.37622,4.69067" fill="none" stroke="#fff" stroke-linecap="round" stroke-miterlimit="10" stroke-width="2.52663" stroke-dasharray="4.2847 12.85411"/><path d="M269.24794,389.04936q.505.91407.97095,1.87061" fill="none" stroke="#fff" stroke-linecap="round" stroke-miterlimit="10" stroke-width="2.52663"/><rect x="232.92319" y="364.0301" width="5.78121" height="5.78121" fill="#fff"/><rect x="197.14123" y="396.852" width="4.83823" height="4.83823" fill="none" stroke="#fff" stroke-miterlimit="10" stroke-width="1.68442"/><rect x="269.64812" y="396.852" width="4.83823" height="4.83823" fill="none" stroke="#fff" stroke-miterlimit="10" stroke-width="1.68442"/><line x1="200.55584" y1="366.92071" x2="271.07675" y2="366.92071" fill="none" stroke="#fff" stroke-miterlimit="10" stroke-width="1.26332"/><circle cx="272.01775" cy="366.92071" r="1.79624" fill="#fff"/><circle cx="199.60984" cy="366.92071" r="1.79624" fill="#fff"/><path d="M.5,253.59731V186.06082a5.06289,5.06289,0,0,1,5.06286-5.06289H46.37419a5.06292,5.06292,0,0,1,5.0629,5.06289v3.89635h9.78954a.722.722,0,0,1,.42692,1.30415l-10.21646,7.492v54.844a5.06292,5.06292,0,0,1-5.0629,5.06289H5.56286A5.06289,5.06289,0,0,1,.5,253.59731Z" fill="url(#as)"/><path d="M14.51662,220.59027a.67861.67861,0,0,1-.27825-1.21561l12.21376-8.91917,12.93937-9.44884a.28589.28589,0,0,1,.45147.27236l-2.32446,15.85254-2.194,14.9638a.67862.67862,0,0,1-1.20509.32075l-5.78282-7.36174-7.45093,12.35083a2.69257,2.69257,0,0,1-3.6964.91466h0a2.69259,2.69259,0,0,1-.91467-3.6964l7.45094-12.35083Z" fill="#fff"/><rect x="0.50008" y="394.3867" width="9.81659" height="9.81659" rx="4.90829" transform="matrix(0.75698, 0.65344, -0.65344, 0.75698, 262.23024, 93.50377)" fill="url(#at)"/><rect x="179.68151" y="88.7233" width="9.81659" height="9.81659" rx="4.90829" transform="translate(106.04231 -97.864) rotate(40.80158)" fill="url(#au)"/><path d="M105.71275,449.22852,95.59414,446.16a.51468.51468,0,0,1-.34315-.34315l-3.06855-10.11861a.51465.51465,0,0,0-.985,0l-3.06854,10.11861a.51468.51468,0,0,1-.34315.34315l-10.11861,3.06854a.51465.51465,0,0,0,0,.985l10.11861,3.06855a.51464.51464,0,0,1,.34315.34315l3.06854,10.1186a.51465.51465,0,0,0,.985,0l3.06855-10.1186a.51464.51464,0,0,1,.34315-.34315l10.11861-3.06855A.51465.51465,0,0,0,105.71275,449.22852Z" fill="url(#av)"/><rect x="331.30226" y="397.95497" width="9.81659" height="9.81659" rx="4.90829" transform="translate(344.95434 -121.7889) rotate(40.80157)" fill="url(#aw)"/><rect x="490.68333" y="121.3461" width="9.81659" height="9.81659" rx="4.90829" transform="translate(202.93991 -293.15734) rotate(40.80157)" fill="url(#ax)"/><path d="M473.98107,441.34838l-10.11861-3.06855a.51464.51464,0,0,1-.34315-.34315l-3.06854-10.11861a.51465.51465,0,0,0-.985,0l-3.06855,10.11861a.51464.51464,0,0,1-.34315.34315l-10.11861,3.06855a.51465.51465,0,0,0,0,.985l10.11861,3.06854a.51466.51466,0,0,1,.34315.34315l3.06855,10.11861a.51465.51465,0,0,0,.985,0l3.06854-10.11861a.51466.51466,0,0,1,.34315-.34315l10.11861-3.06854A.51465.51465,0,0,0,473.98107,441.34838Z" fill="url(#ay)"/><path d="M387.02518,50.78647l-10.11861-3.06855a.51464.51464,0,0,1-.34315-.34315l-3.06855-10.1186a.51465.51465,0,0,0-.985,0l-3.06854,10.1186a.51464.51464,0,0,1-.34315.34315l-10.11861,3.06855a.51465.51465,0,0,0,0,.985L369.09817,54.84a.51468.51468,0,0,1,.34315.34315l3.06854,10.11861a.51465.51465,0,0,0,.985,0l3.06855-10.11861a.51468.51468,0,0,1,.34315-.34315l10.11861-3.06854A.51465.51465,0,0,0,387.02518,50.78647Z" fill="url(#az)"/><path d="M55.31375,58.1512,45.19514,55.08265a.51464.51464,0,0,1-.34315-.34315L41.78344,44.62089a.51465.51465,0,0,0-.985,0L37.72989,54.7395a.51468.51468,0,0,1-.34315.34315L27.26813,58.1512a.51465.51465,0,0,0,0,.985l10.11861,3.06854a.5147.5147,0,0,1,.34315.34315l3.06854,10.11861a.51465.51465,0,0,0,.985,0L44.852,62.5479a.51466.51466,0,0,1,.34315-.34315l10.11861-3.06854A.51465.51465,0,0,0,55.31375,58.1512Z" fill="url(#ba)"/></svg>