<svg xmlns="http://www.w3.org/2000/svg" xmlns:xlink="http://www.w3.org/1999/xlink" width="501" height="501" viewBox="0 0 501 501"><defs><linearGradient id="a" x1="271.94607" y1="314.36752" x2="-13.5315" y2="84.14367" gradientUnits="userSpaceOnUse"><stop offset="0" stop-color="#2aa5e0"/><stop offset="1" stop-color="#0571ba"/></linearGradient><linearGradient id="b" x1="72.77873" y1="197.0764" x2="326.35863" y2="418.0913" gradientUnits="userSpaceOnUse"><stop offset="0" stop-color="#536269"/><stop offset="0.25102" stop-color="#53626c"/><stop offset="0.47162" stop-color="#536277"/><stop offset="0.68071" stop-color="#536289"/><stop offset="0.88155" stop-color="#5362a2"/><stop offset="1" stop-color="#5362b5"/></linearGradient><linearGradient id="c" x1="180.00565" y1="260.74894" x2="289.14358" y2="194.36757" gradientUnits="userSpaceOnUse"><stop offset="0" stop-color="#fff"/><stop offset="0.41501" stop-color="#fcfcfc"/><stop offset="0.77382" stop-color="#f1f1f1"/><stop offset="1" stop-color="#e6e6e6"/></linearGradient><linearGradient id="d" x1="69.18039" y1="227.55826" x2="122.14919" y2="227.55826" xlink:href="#c"/><linearGradient id="e" x1="70.40312" y1="243.94716" x2="78.55588" y2="239.7887" xlink:href="#c"/><linearGradient id="f" x1="83.83534" y1="241.97684" x2="133.55968" y2="241.97684" gradientUnits="userSpaceOnUse"><stop offset="0" stop-color="#5cff5c"/><stop offset="0.28167" stop-color="#5fff5c"/><stop offset="0.5256" stop-color="#6aff5c"/><stop offset="0.7555" stop-color="#7cff5c"/><stop offset="0.97557" stop-color="#95ff5c"/><stop offset="1" stop-color="#98ff5c"/></linearGradient><linearGradient id="g" x1="83.83534" y1="252.81616" x2="119.6768" y2="252.81616" xlink:href="#f"/><linearGradient id="h" x1="83.83534" y1="274.49483" x2="119.6768" y2="274.49483" xlink:href="#f"/><linearGradient id="i" x1="160.13771" y1="241.97684" x2="222.15834" y2="241.97684" xlink:href="#f"/><linearGradient id="j" x1="139.76268" y1="246.50979" x2="153.93471" y2="237.44386" gradientUnits="userSpaceOnUse"><stop offset="0" stop-color="#7254b8"/><stop offset="1" stop-color="#d0f"/></linearGradient><linearGradient id="k" x1="150.46289" y1="350.37017" x2="169.60058" y2="350.37017" xlink:href="#j"/><linearGradient id="l" x1="210.82955" y1="339.53082" x2="256.58146" y2="339.53082" xlink:href="#f"/><linearGradient id="m" x1="171.51452" y1="311.5458" x2="185.68654" y2="302.47987" xlink:href="#j"/><linearGradient id="n" x1="125.11139" y1="352.74368" x2="166.42049" y2="326.31801" gradientUnits="userSpaceOnUse"><stop offset="0" stop-color="#f07062"/><stop offset="1" stop-color="#f09b58"/></linearGradient><linearGradient id="o" x1="227.48861" y1="246.50979" x2="241.66063" y2="237.44386" xlink:href="#n"/><linearGradient id="p" x1="83.83534" y1="296.1735" x2="114.72979" y2="296.1735" xlink:href="#f"/><linearGradient id="q" x1="83.83534" y1="317.85217" x2="114.72979" y2="317.85217" xlink:href="#f"/><linearGradient id="r" x1="83.83534" y1="339.53083" x2="114.72979" y2="339.53083" xlink:href="#f"/><linearGradient id="s" x1="181.03888" y1="346.52219" x2="202.89692" y2="332.53947" xlink:href="#j"/><linearGradient id="t" x1="83.83534" y1="361.20951" x2="114.72979" y2="361.20951" xlink:href="#f"/><linearGradient id="u" x1="173.57287" y1="350.37018" x2="199.88332" y2="350.37018" xlink:href="#f"/><linearGradient id="v" x1="193.08904" y1="307.01283" x2="223.98349" y2="307.01283" xlink:href="#f"/><linearGradient id="w" x1="103.63907" y1="307.01283" x2="165.6597" y2="307.01283" xlink:href="#f"/><linearGradient id="x" x1="118.10824" y1="296.17349" x2="148.02819" y2="296.17349" gradientUnits="userSpaceOnUse"><stop offset="0" stop-color="#52caff"/><stop offset="0.24991" stop-color="#4fccff"/><stop offset="0.46637" stop-color="#44d4ff"/><stop offset="0.6704" stop-color="#32e0ff"/><stop offset="0.86559" stop-color="#19f1ff"/><stop offset="0.99659" stop-color="#04ffff"/></linearGradient><linearGradient id="y" x1="119.6768" y1="317.85216" x2="136.75002" y2="317.85216" xlink:href="#x"/><linearGradient id="z" x1="103.63907" y1="350.37018" x2="146.53327" y2="350.37018" xlink:href="#x"/><linearGradient id="aa" x1="154.05377" y1="300.70646" x2="168.22579" y2="291.64053" xlink:href="#n"/><linearGradient id="ab" x1="149.45912" y1="266.60162" x2="158.66999" y2="260.70937" xlink:href="#n"/><linearGradient id="ac" x1="117.07599" y1="361.20951" x2="129.22231" y2="361.20951" xlink:href="#n"/><linearGradient id="ad" x1="109.13617" y1="272.90042" x2="138.03981" y2="254.41059" xlink:href="#x"/><linearGradient id="ae" x1="68.80187" y1="254.85003" x2="78.65084" y2="251.18403" xlink:href="#c"/><linearGradient id="af" x1="68.85719" y1="265.80637" x2="78.21372" y2="262.08564" xlink:href="#c"/><linearGradient id="ag" x1="68.5779" y1="276.90504" x2="78.26273" y2="272.8013" xlink:href="#c"/><linearGradient id="ah" x1="69.19088" y1="287.55052" x2="77.83609" y2="283.77508" xlink:href="#c"/><linearGradient id="ai" x1="69.12997" y1="298.00389" x2="79.41668" y2="294.33789" xlink:href="#c"/><linearGradient id="aj" x1="69.20782" y1="308.95592" x2="78.18133" y2="305.50878" xlink:href="#c"/><linearGradient id="ak" x1="69.46109" y1="319.70928" x2="78.37989" y2="316.26214" xlink:href="#c"/><linearGradient id="al" x1="68.66201" y1="330.793" x2="77.84585" y2="327.34906" xlink:href="#c"/><linearGradient id="am" x1="69.10316" y1="341.26174" x2="78.56912" y2="338.08818" xlink:href="#c"/><linearGradient id="an" x1="68.9406" y1="352.43162" x2="79.11788" y2="348.49203" xlink:href="#c"/><linearGradient id="ao" x1="68.69727" y1="363.25778" x2="78.21795" y2="359.75592" xlink:href="#c"/><linearGradient id="ap" x1="68.67401" y1="373.88278" x2="78.85128" y2="370.54507" xlink:href="#c"/><linearGradient id="aq" x1="15.16079" y1="300.71436" x2="17.77445" y2="300.71436" gradientUnits="userSpaceOnUse"><stop offset="0" stop-color="#536269"/><stop offset="1" stop-color="#53628c"/></linearGradient><linearGradient id="ar" x1="41.24431" y1="348.14364" x2="52.93968" y2="348.14364" xlink:href="#aq"/><linearGradient id="as" x1="296.50619" y1="203.72352" x2="299.11984" y2="203.72352" xlink:href="#aq"/><linearGradient id="at" x1="267.89794" y1="152.97711" x2="279.5933" y2="152.97711" xlink:href="#aq"/><linearGradient id="au" x1="287.93052" y1="154.72894" x2="298.6138" y2="151.22528" xlink:href="#aq"/><linearGradient id="av" x1="295.22668" y1="158.36617" x2="300.39936" y2="156.66975" xlink:href="#aq"/><linearGradient id="aw" x1="322.71946" y1="252.25183" x2="333.40274" y2="248.74817" xlink:href="#aq"/><linearGradient id="ax" x1="340.43578" y1="252.25183" x2="351.11906" y2="248.74817" xlink:href="#aq"/><linearGradient id="ay" x1="358.1521" y1="252.25183" x2="368.83538" y2="248.74817" xlink:href="#aq"/><linearGradient id="az" x1="306.01851" y1="196.39319" x2="278.65857" y2="168.09902" gradientUnits="userSpaceOnUse"><stop offset="0" stop-color="#74e0fd"/><stop offset="1" stop-color="#92f2ff"/></linearGradient><linearGradient id="ba" x1="290.38507" y1="175.96734" x2="319.74695" y2="200.92494" gradientUnits="userSpaceOnUse"><stop offset="0" stop-color="#4ac6fd"/><stop offset="1" stop-color="#4ae8fd"/></linearGradient><linearGradient id="bb" x1="16.68347" y1="311.22447" x2="16.39757" y2="340.10014" gradientUnits="userSpaceOnUse"><stop offset="0" stop-color="#666"/><stop offset="0.03252" stop-color="#7b7b7b"/><stop offset="0.09219" stop-color="#9c9c9c"/><stop offset="0.15668" stop-color="#b7b7b7"/><stop offset="0.22658" stop-color="#ccc"/><stop offset="0.30462" stop-color="#dbdbdb"/><stop offset="0.3973" stop-color="#e3e3e3"/><stop offset="0.54223" stop-color="#e6e6e6"/><stop offset="0.59667" stop-color="#d9d9d9"/><stop offset="0.76807" stop-color="#b6b6b6"/><stop offset="0.90865" stop-color="#a1a1a1"/><stop offset="1" stop-color="#999"/></linearGradient><linearGradient id="bc" x1="-2.8002" y1="330.72183" x2="35.63718" y2="364.17659" gradientUnits="userSpaceOnUse"><stop offset="0" stop-color="#ecad15"/><stop offset="1" stop-color="#ece115"/></linearGradient><linearGradient id="bd" x1="16.34933" y1="352.73766" x2="16.51348" y2="343.92829" gradientUnits="userSpaceOnUse"><stop offset="0" stop-color="#482e00"/><stop offset="0.00815" stop-color="#492f00"/><stop offset="0.18823" stop-color="#5b4406"/><stop offset="0.3893" stop-color="#68530a"/><stop offset="0.62846" stop-color="#705b0c"/><stop offset="1" stop-color="#725e0d"/></linearGradient><linearGradient id="be" x1="372.05534" y1="187.06012" x2="380.8639" y2="187.1491" gradientUnits="userSpaceOnUse"><stop offset="0" stop-color="#536269"/><stop offset="0.31136" stop-color="#515f66"/><stop offset="0.58488" stop-color="#4b545b"/><stop offset="0.84333" stop-color="#414249"/><stop offset="1" stop-color="#39333a"/></linearGradient><linearGradient id="bf" x1="552.91995" y1="458.13848" x2="356.72919" y2="100.99122" gradientUnits="userSpaceOnUse"><stop offset="0" stop-color="blue"/><stop offset="0.01863" stop-color="#0a0fff"/><stop offset="0.08189" stop-color="#2a3efe"/><stop offset="0.15089" stop-color="#4768fe"/><stop offset="0.22413" stop-color="#608dfe"/><stop offset="0.30268" stop-color="#75abfe"/><stop offset="0.38832" stop-color="#87c4fd"/><stop offset="0.48383" stop-color="#94d7fd"/><stop offset="0.59465" stop-color="#9de5fd"/><stop offset="0.73468" stop-color="#a2edfd"/><stop offset="1" stop-color="#a4effd"/></linearGradient><linearGradient id="bg" x1="356.13592" y1="123.57318" x2="596.90335" y2="492.99905" gradientUnits="userSpaceOnUse"><stop offset="0" stop-color="#536269"/><stop offset="0.18509" stop-color="#55626c"/><stop offset="0.34777" stop-color="#596177"/><stop offset="0.50205" stop-color="#615f89"/><stop offset="0.65112" stop-color="#6c5da3"/><stop offset="0.79653" stop-color="#7b5ac3"/><stop offset="0.93724" stop-color="#8c56eb"/><stop offset="1" stop-color="#9554ff"/></linearGradient><linearGradient id="bh" x1="442.20324" y1="138.78596" x2="442.15875" y2="143.41268" gradientTransform="translate(884.35463 282.96397) rotate(-180)" gradientUnits="userSpaceOnUse"><stop offset="0" stop-color="#536269"/><stop offset="1" stop-color="#40474c"/></linearGradient><linearGradient id="bi" x1="422.39568" y1="138.38311" x2="422.57363" y2="143.05432" gradientTransform="matrix(1, 0, 0, 1, 0, 0)" xlink:href="#bh"/><linearGradient id="bj" x1="413.88522" y1="223.69413" x2="472.50006" y2="279.02216" gradientUnits="userSpaceOnUse"><stop offset="0" stop-color="#fd9009"/><stop offset="0.38209" stop-color="#fda932"/><stop offset="1" stop-color="#fdcf72"/></linearGradient><linearGradient id="bk" x1="421.10035" y1="233.45514" x2="458.07701" y2="262.21476" gradientUnits="userSpaceOnUse"><stop offset="0" stop-color="#bd0020"/><stop offset="0.4602" stop-color="#df360f"/><stop offset="0.81062" stop-color="#f55805"/><stop offset="1" stop-color="#fd6501"/></linearGradient></defs><title>img_2</title><g opacity="0"><rect x="0.5" y="0.5" width="500" height="500" fill="none" stroke="#fff" stroke-miterlimit="10"/></g><rect x="7.87026" y="119.04605" width="254.24877" height="169.75354" rx="3.97154" fill="url(#a)"/><path d="M15.654,126.26419s-1.99717,116.7931,0,158.124C15.654,284.38817,17.4847,129.73065,15.654,126.26419Z" fill="#f0f0f0" opacity="0.8"/><path d="M255.26964,126.26419s-1.99717,116.7931,0,158.124C255.26964,284.38817,257.10039,129.73065,255.26964,126.26419Z" fill="#f0f0f0" opacity="0.8"/><path d="M12.02785,129.91723s182.21265,1.99717,246.69429,0C258.72214,129.91723,17.436,128.08648,12.02785,129.91723Z" fill="#f0f0f0" opacity="0.8"/><path d="M12.02785,280.70418s182.21265,1.99717,246.69429,0C258.72214,280.70418,17.436,278.87344,12.02785,280.70418Z" fill="#f0f0f0" opacity="0.8"/><line x1="20.79804" y1="119.04605" x2="20.79804" y2="288.79959" fill="none" stroke="#f0f0f0" stroke-miterlimit="10" stroke-width="0.27659" opacity="0.5"/><line x1="41.63811" y1="119.04605" x2="41.63811" y2="288.79959" fill="none" stroke="#f0f0f0" stroke-miterlimit="10" stroke-width="0.27659" opacity="0.5"/><line x1="62.47817" y1="119.04605" x2="62.47817" y2="288.79959" fill="none" stroke="#f0f0f0" stroke-miterlimit="10" stroke-width="0.27659" opacity="0.5"/><line x1="83.31823" y1="119.04605" x2="83.31823" y2="288.79959" fill="none" stroke="#f0f0f0" stroke-miterlimit="10" stroke-width="0.27659" opacity="0.5"/><line x1="104.1583" y1="119.04605" x2="104.1583" y2="288.79959" fill="none" stroke="#f0f0f0" stroke-miterlimit="10" stroke-width="0.27659" opacity="0.5"/><line x1="124.99836" y1="119.04605" x2="124.99836" y2="288.79959" fill="none" stroke="#f0f0f0" stroke-miterlimit="10" stroke-width="0.27659" opacity="0.5"/><line x1="145.83842" y1="119.04605" x2="145.83842" y2="288.79959" fill="none" stroke="#f0f0f0" stroke-miterlimit="10" stroke-width="0.27659" opacity="0.5"/><line x1="166.67849" y1="119.04605" x2="166.67849" y2="288.79959" fill="none" stroke="#f0f0f0" stroke-miterlimit="10" stroke-width="0.27659" opacity="0.5"/><line x1="187.51855" y1="119.04605" x2="187.51855" y2="288.79959" fill="none" stroke="#f0f0f0" stroke-miterlimit="10" stroke-width="0.27659" opacity="0.5"/><line x1="208.35862" y1="119.04605" x2="208.35862" y2="288.79959" fill="none" stroke="#f0f0f0" stroke-miterlimit="10" stroke-width="0.27659" opacity="0.5"/><line x1="229.19868" y1="119.04605" x2="229.19868" y2="288.79959" fill="none" stroke="#f0f0f0" stroke-miterlimit="10" stroke-width="0.27659" opacity="0.5"/><line x1="250.03874" y1="119.04605" x2="250.03874" y2="288.79959" fill="none" stroke="#f0f0f0" stroke-miterlimit="10" stroke-width="0.27659" opacity="0.5"/><line x1="7.8703" y1="278.25221" x2="262.11899" y2="278.25221" fill="none" stroke="#f0f0f0" stroke-miterlimit="10" stroke-width="0.3385" opacity="0.5"/><line x1="7.8703" y1="257.41215" x2="262.11899" y2="257.41215" fill="none" stroke="#f0f0f0" stroke-miterlimit="10" stroke-width="0.3385" opacity="0.5"/><line x1="7.8703" y1="236.57208" x2="262.11899" y2="236.57208" fill="none" stroke="#f0f0f0" stroke-miterlimit="10" stroke-width="0.3385" opacity="0.5"/><line x1="7.8703" y1="215.73202" x2="262.11899" y2="215.73202" fill="none" stroke="#f0f0f0" stroke-miterlimit="10" stroke-width="0.3385" opacity="0.5"/><line x1="7.8703" y1="194.89196" x2="262.11899" y2="194.89196" fill="none" stroke="#f0f0f0" stroke-miterlimit="10" stroke-width="0.3385" opacity="0.5"/><line x1="7.8703" y1="174.05189" x2="262.11899" y2="174.05189" fill="none" stroke="#f0f0f0" stroke-miterlimit="10" stroke-width="0.3385" opacity="0.5"/><line x1="7.8703" y1="153.21183" x2="262.11899" y2="153.21183" fill="none" stroke="#f0f0f0" stroke-miterlimit="10" stroke-width="0.3385" opacity="0.5"/><line x1="7.8703" y1="132.37177" x2="262.11899" y2="132.37177" fill="none" stroke="#f0f0f0" stroke-miterlimit="10" stroke-width="0.3385" opacity="0.5"/><rect x="23.54594" y="140.98249" width="67.38287" height="8.33603" rx="4.16801" fill="#fff"/><rect x="136.42962" y="251.37737" width="66.6882" height="2.45941" rx="1.22971" fill="#fff"/><rect x="136.42962" y="257.10839" width="48.10581" height="2.45941" rx="1.22971" fill="#fff"/><rect x="136.42962" y="262.83941" width="53.92366" height="2.45941" rx="1.22971" fill="#fff"/><line x1="51.76686" y1="223.30074" x2="51.76686" y2="189.95664" fill="none" stroke="#fff" stroke-linecap="round" stroke-miterlimit="10" stroke-width="1.38314"/><polygon points="47.393 222.677 51.854 227.137 56.314 222.677 47.393 222.677 47.393 222.677" fill="#fff"/><line x1="123.57825" y1="258.42493" x2="90.23415" y2="258.42493" fill="none" stroke="#fff" stroke-miterlimit="10" stroke-width="1.38294"/><polygon points="122.934 262.839 127.435 258.338 122.934 253.837 122.934 262.839 122.934 262.839" fill="#fff"/><polyline points="205.202 180.263 233.768 179.537 233.768 259.329 216.019 259.329" fill="none" stroke="#fff" stroke-miterlimit="10" stroke-width="1.24181"/><polygon points="205.817 176.122 201.374 180.565 205.817 185.007 205.817 176.122 205.817 176.122" fill="#fff"/><circle cx="50.76828" cy="255.12525" r="17.67064" fill="none" stroke="#fff" stroke-miterlimit="10" stroke-width="1.82956"/><circle cx="36.45477" cy="242.45456" r="7.15675" fill="none" stroke="#fff" stroke-miterlimit="10" stroke-width="1.82956"/><circle cx="68.43891" cy="256.13787" r="4.59516" fill="none" stroke="#fff" stroke-miterlimit="10" stroke-width="1.82956"/><path d="M167.72321,209.43635H151.88309a.94222.94222,0,0,1-.95533-.92853h0a.94222.94222,0,0,1,.95533-.92853" fill="none" stroke="#fff" stroke-miterlimit="10" stroke-width="1.82956"/><path d="M152.59931,209.43635h15.84013a.94222.94222,0,0,0,.95533-.92853h0a.94222.94222,0,0,0-.95533-.92853" fill="none" stroke="#fff" stroke-miterlimit="10" stroke-width="1.82956"/><path d="M167.72321,213.33324H151.88309a.94222.94222,0,0,1-.95533-.92853h0a.94221.94221,0,0,1,.95533-.92853" fill="none" stroke="#fff" stroke-miterlimit="10" stroke-width="1.82956"/><path d="M152.59931,213.33324h15.84013a.94222.94222,0,0,0,.95533-.92853h0a.94221.94221,0,0,0-.95533-.92853" fill="none" stroke="#fff" stroke-miterlimit="10" stroke-width="1.82956"/><path d="M177.11614,171.36382a17.19305,17.19305,0,1,0-34.3861,0,33.28976,33.28976,0,0,0,4.02971,14.43989A39.05027,39.05027,0,0,1,151.36,203.99822h0a.39041.39041,0,0,0,.39042.39042h16.3453a.39042.39042,0,0,0,.39042-.39042h0a39.05015,39.05015,0,0,1,4.60027-18.19451A33.28976,33.28976,0,0,0,177.11614,171.36382Z" fill="none" stroke="#fff" stroke-miterlimit="10" stroke-width="1.82956"/><path d="M152.04294,205.8949v8.51467a2.87387,2.87387,0,0,0,2.87387,2.87387h10.01256a2.87387,2.87387,0,0,0,2.87387-2.87387V205.8949a1.50625,1.50625,0,0,0-1.50624-1.50625H153.54918A1.50625,1.50625,0,0,0,152.04294,205.8949Z" fill="none" stroke="#fff" stroke-miterlimit="10" stroke-width="1.82956"/><path d="M157.92093,217.07651v1.78158a.66652.66652,0,0,0,.73019.57448h2.54394a.66651.66651,0,0,0,.73018-.57448v-1.78158" fill="none" stroke="#fff" stroke-miterlimit="10" stroke-width="1.55913"/><path d="M156.79708,204.38865l-.64522-18.86648s-.53779-4.04974-2.6218-3.16737-.76471,4.73037.92855,4.99087c1.27148.19561,5.4467.09745,9.00513.03641a3.17264,3.17264,0,0,0,2.90052-1.99271c.57359-1.44962.20291-3.18153-1.63046-2.80116-2.35429.48844-1.82438,5.14821-1.75173,7.41335.0333,1.03792.03953,2.07654-.00265,3.11414l.06968,11.273" fill="none" stroke="#fff" stroke-miterlimit="10" stroke-width="1.82956"/><line x1="183.05926" y1="185.00712" x2="192.95829" y2="185.00712" fill="none" stroke="#fff" stroke-linecap="round" stroke-miterlimit="10" stroke-width="1.82956"/><line x1="125.18467" y1="185.00712" x2="135.0837" y2="185.00712" fill="none" stroke="#fff" stroke-linecap="round" stroke-miterlimit="10" stroke-width="1.82956"/><line x1="184.53543" y1="169.10254" x2="198.08147" y2="165.62217" fill="none" stroke="#fff" stroke-linecap="round" stroke-miterlimit="10" stroke-width="1.82956"/><line x1="136.42962" y1="170.33224" x2="120.27857" y2="165.62217" fill="none" stroke="#fff" stroke-linecap="round" stroke-miterlimit="10" stroke-width="1.82956"/><line x1="136.42962" y1="145.1505" x2="144.82747" y2="154.17077" fill="none" stroke="#fff" stroke-linecap="round" stroke-miterlimit="10" stroke-width="1.38294"/><line x1="178.63075" y1="156.41079" x2="190.35328" y2="146.71351" fill="none" stroke="#fff" stroke-linecap="round" stroke-miterlimit="10" stroke-width="1.82956"/><line x1="160.99922" y1="135.57955" x2="160.99922" y2="149.66063" fill="none" stroke="#fff" stroke-linecap="round" stroke-miterlimit="10" stroke-width="1.82956"/><rect x="28.28192" y="159.4401" width="53.92366" height="4.45308" rx="2.22654" fill="#fff"/><rect x="28.28192" y="167.26204" width="60.62802" height="4.45308" rx="2.22654" fill="#fff"/><rect x="28.28192" y="175.08398" width="51.06969" height="4.45308" rx="2.22654" fill="#fff"/><rect x="61.7822" y="214.65998" width="254.22611" height="167.24227" rx="3.8248" fill="url(#b)"/><rect x="160.51563" y="223.46916" width="148.11796" height="8.1782" rx="4.0891" fill="url(#c)"/><rect x="69.18039" y="223.46916" width="52.9688" height="8.1782" rx="4.0891" fill="url(#d)"/><rect x="69.18039" y="239.75029" width="10.17122" height="4.45308" rx="2.22654" fill="url(#e)"/><rect x="83.83534" y="239.7503" width="49.72434" height="4.45308" rx="2.22654" fill="url(#f)"/><rect x="83.83534" y="250.58962" width="35.84146" height="4.45308" rx="2.22654" fill="url(#g)"/><rect x="83.83534" y="272.26829" width="35.84146" height="4.45308" rx="2.22654" fill="url(#h)"/><rect x="160.13771" y="239.7503" width="62.02063" height="4.45308" rx="2.22654" fill="url(#i)"/><rect x="137.27985" y="239.75029" width="19.13769" height="4.45308" rx="2.22654" fill="url(#j)"/><rect x="150.46289" y="348.14364" width="19.13769" height="4.45308" rx="2.22654" fill="url(#k)"/><rect x="210.82955" y="337.30429" width="45.75191" height="4.45308" rx="2.22654" fill="url(#l)"/><rect x="169.03169" y="304.7863" width="19.13769" height="4.45308" rx="2.22654" fill="url(#m)"/><rect x="117.07599" y="337.30431" width="57.37989" height="4.45308" rx="2.22654" fill="url(#n)"/><rect x="225.00577" y="239.75029" width="19.13769" height="4.45308" rx="2.22654" fill="url(#o)"/><rect x="83.83534" y="293.94696" width="30.89445" height="4.45308" rx="2.22654" fill="url(#p)"/><rect x="83.83534" y="315.62563" width="30.89445" height="4.45308" rx="2.22654" fill="url(#q)"/><rect x="83.83534" y="337.30429" width="30.89445" height="4.45308" rx="2.22654" fill="url(#r)"/><rect x="176.9834" y="337.30429" width="29.969" height="4.45308" rx="2.22654" fill="url(#s)"/><rect x="83.83534" y="358.98297" width="30.89445" height="4.45308" rx="2.22654" fill="url(#t)"/><rect x="173.57287" y="348.14364" width="26.31045" height="4.45308" rx="2.22654" fill="url(#u)"/><rect x="193.08904" y="304.7863" width="30.89445" height="4.45308" rx="2.22654" fill="url(#v)"/><rect x="103.63907" y="304.7863" width="62.02063" height="4.45308" rx="2.22654" fill="url(#w)"/><rect x="118.10824" y="293.94695" width="29.91996" height="4.45308" rx="2.22654" fill="url(#x)"/><rect x="119.6768" y="315.62562" width="17.07322" height="4.45308" rx="2.22654" fill="url(#y)"/><rect x="103.63907" y="348.14364" width="42.89419" height="4.45308" rx="2.22654" fill="url(#z)"/><rect x="151.57094" y="293.94695" width="19.13769" height="4.45308" rx="2.22654" fill="url(#aa)"/><rect x="147.9914" y="261.42896" width="12.14632" height="4.45308" rx="2.22654" fill="url(#ab)"/><rect x="117.07599" y="358.98297" width="12.14632" height="4.45308" rx="2.22654" fill="url(#ac)"/><rect x="103.63907" y="261.42896" width="39.89783" height="4.45308" rx="2.22654" fill="url(#ad)"/><rect x="69.18039" y="250.58962" width="10.17122" height="4.45308" rx="2.22654" fill="url(#ae)"/><rect x="69.18039" y="261.42896" width="10.17122" height="4.45308" rx="2.22654" fill="url(#af)"/><rect x="69.18039" y="272.26829" width="10.17122" height="4.45308" rx="2.22654" fill="url(#ag)"/><rect x="69.18039" y="283.10763" width="10.17122" height="4.45308" rx="2.22654" fill="url(#ah)"/><rect x="69.18039" y="293.94696" width="10.17122" height="4.45308" rx="2.22654" fill="url(#ai)"/><rect x="69.18039" y="304.7863" width="10.17122" height="4.45308" rx="2.22654" fill="url(#aj)"/><rect x="69.18039" y="315.62563" width="10.17122" height="4.45308" rx="2.22654" fill="url(#ak)"/><rect x="69.18039" y="326.46497" width="10.17122" height="4.45308" rx="2.22654" fill="url(#al)"/><rect x="69.18039" y="337.3043" width="10.17122" height="4.45308" rx="2.22654" fill="url(#am)"/><rect x="69.18039" y="348.14364" width="10.17122" height="4.45308" rx="2.22654" fill="url(#an)"/><rect x="69.18039" y="358.98297" width="10.17122" height="4.45308" rx="2.22654" fill="url(#ao)"/><rect x="69.18039" y="369.82231" width="10.17122" height="4.45308" rx="2.22654" fill="url(#ap)"/><line x1="16.46762" y1="296.1735" x2="16.46762" y2="305.25522" fill="none" stroke-linecap="round" stroke-miterlimit="10" stroke-width="2.61365" stroke="url(#aq)"/><line x1="42.55114" y1="348.14364" x2="51.63285" y2="348.14364" fill="none" stroke-linecap="round" stroke-miterlimit="10" stroke-width="2.61365" stroke="url(#ar)"/><line x1="297.81302" y1="208.26437" x2="297.81302" y2="199.18266" fill="none" stroke-linecap="round" stroke-miterlimit="10" stroke-width="2.61365" stroke="url(#as)"/><line x1="278.28647" y1="152.97711" x2="269.20476" y2="152.97711" fill="none" stroke-linecap="round" stroke-miterlimit="10" stroke-width="2.61365" stroke="url(#at)"/><line x1="297.81302" y1="152.97711" x2="288.73131" y2="152.97711" fill="none" stroke-linecap="round" stroke-miterlimit="10" stroke-width="2.61365" stroke="url(#au)"/><line x1="297.81302" y1="152.97711" x2="297.81302" y2="162.05882" fill="none" stroke-linecap="round" stroke-miterlimit="10" stroke-width="2.61365" stroke="url(#av)"/><line x1="323.52025" y1="250.5" x2="332.60196" y2="250.5" fill="none" stroke-linecap="round" stroke-miterlimit="10" stroke-width="2.61365" stroke="url(#aw)"/><line x1="341.23657" y1="250.5" x2="350.31828" y2="250.5" fill="none" stroke-linecap="round" stroke-miterlimit="10" stroke-width="2.61365" stroke="url(#ax)"/><line x1="358.95289" y1="250.5" x2="368.0346" y2="250.5" fill="none" stroke-linecap="round" stroke-miterlimit="10" stroke-width="2.61365" stroke="url(#ay)"/><path d="M309.39068,189.07211A6.82329,6.82329,0,1,0,307.40859,175.62a8.6975,8.6975,0,0,0-11.13477-4.21286,9.76816,9.76816,0,0,0-18.66585,4.03125c0,.08836.00429.17558.00663.26333a6.8238,6.8238,0,1,0-1.87623,13.38455Z" fill="url(#az)"/><path d="M286.23535,194.1295a6.82329,6.82329,0,1,1,1.98209-13.45213,8.69751,8.69751,0,0,1,11.13478-4.21286,9.76816,9.76816,0,0,1,18.66585,4.03125c0,.08836-.00429.17557-.00664.26333a6.8238,6.8238,0,1,1,1.87623,13.38455Z" fill="url(#ba)"/><path d="M6.86905,340.44981l-.0057-13.59819a9.59557,9.59557,0,0,1,19.19114-.00805l.0057,13.59819,3.15942-.00132-.0057-13.59819A12.75495,12.75495,0,1,0,3.704,326.853l.0057,13.59818Z" fill="url(#bb)"/><rect x="0.50495" y="334.47416" width="31.92535" height="26.03563" rx="1.21696" fill="url(#bc)"/><path d="M19.22511,346.41232a2.75818,2.75818,0,1,0-4.45694,2.17079l.00087,2.07369a.67237.67237,0,0,0,.67266.67209l2.05506-.00086a.67237.67237,0,0,0,.6721-.67266l-.00087-2.07368A2.75077,2.75077,0,0,0,19.22511,346.41232Z" fill="url(#bd)"/><path d="M392.7298,207.5151H376.32172a1.37174,1.37174,0,0,1-1.36907-1.4573l1.17414-18.78615a1.37238,1.37238,0,0,0,0-.17113l-1.17414-18.78615a1.37174,1.37174,0,0,1,1.36907-1.4573H392.7298a1.37173,1.37173,0,0,1,1.37174,1.37173v37.91457A1.37174,1.37174,0,0,1,392.7298,207.5151Z" fill="url(#be)"/><rect x="383.34834" y="138.64603" width="111.02022" height="223.70793" rx="18.20584" fill="url(#bf)"/><path d="M482.109,132.88212H395.608a18.39108,18.39108,0,0,0-18.39113,18.39106V349.72679A18.39109,18.39109,0,0,0,395.608,368.11788h86.501A18.39107,18.39107,0,0,0,500.5,349.72679V151.27318A18.39106,18.39106,0,0,0,482.109,132.88212Zm12.2596,211.266A18.20583,18.20583,0,0,1,476.1628,362.354H401.55424a18.20579,18.20579,0,0,1-18.20582-18.20585V156.85186A18.20579,18.20579,0,0,1,401.55424,138.646h9.11635a10.50591,10.50591,0,0,0,10.48815,9.989H456.5583a10.50585,10.50585,0,0,0,10.48808-9.989h9.11642a18.20583,18.20583,0,0,1,18.20581,18.20585Z" fill="url(#bg)"/><rect x="427.26481" y="139.58633" width="29.82502" height="3.79132" rx="1.89566" transform="translate(884.35463 282.96397) rotate(180)" fill="url(#bh)"/><circle cx="422.51373" cy="141.48199" r="1.88666" fill="url(#bi)"/><rect x="414.68129" y="223.08983" width="48.35432" height="48.35432" rx="11.08851" fill="url(#bj)"/><polygon points="423.969 238.671 423.969 255.863 438.858 264.46 453.748 255.863 453.748 238.671 438.858 230.074 423.969 238.671" fill="url(#bk)"/></svg>