<svg xmlns="http://www.w3.org/2000/svg" xmlns:xlink="http://www.w3.org/1999/xlink" width="501" height="501" viewBox="0 0 501 501"><defs><linearGradient id="a" x1="445.28108" y1="327.18238" x2="463.32895" y2="338.86912" gradientTransform="translate(-106.98183 376.78412) rotate(-40.80158)" gradientUnits="userSpaceOnUse"><stop offset="0" stop-color="#13b9f0"/><stop offset="0.23208" stop-color="#10c4e8"/><stop offset="0.63315" stop-color="#08e0d2"/><stop offset="1" stop-color="#00ffba"/></linearGradient><linearGradient id="b" x1="362.45573" y1="57.59078" x2="380.5036" y2="69.27752" gradientTransform="translate(49.05196 257.14553) rotate(-40.80155)" xlink:href="#a"/><linearGradient id="c" x1="172.72588" y1="462.52354" x2="190.77375" y2="474.21028" gradientTransform="translate(-261.65645 231.57614) rotate(-40.80156)" xlink:href="#a"/><linearGradient id="d" x1="475.8806" y1="253.6189" x2="490.67394" y2="271.51884" gradientUnits="userSpaceOnUse"><stop offset="0" stop-color="#ff1df0"/><stop offset="0.24098" stop-color="#d849f3"/><stop offset="0.78324" stop-color="#78b8fc"/><stop offset="1" stop-color="#50e6ff"/></linearGradient><linearGradient id="e" x1="279.38363" y1="30.6239" x2="304.45834" y2="52.37011" xlink:href="#d"/><linearGradient id="f" x1="70.55889" y1="121.84286" x2="88.60676" y2="133.5296" gradientTransform="translate(-63.87054 82.02286) rotate(-40.80156)" xlink:href="#a"/><linearGradient id="g" x1="13.43661" y1="167.09416" x2="38.51132" y2="188.84037" xlink:href="#d"/><linearGradient id="h" x1="70.00508" y1="430.28932" x2="95.07979" y2="452.03553" xlink:href="#d"/><linearGradient id="i" x1="473.36769" y1="432.48129" x2="394.81506" y2="389.43267" gradientUnits="userSpaceOnUse"><stop offset="0" stop-color="#da922a"/><stop offset="1" stop-color="#c71119"/></linearGradient><linearGradient id="j" x1="343.01729" y1="399.05286" x2="367.31535" y2="420.57717" gradientUnits="userSpaceOnUse"><stop offset="0" stop-color="#f1bd40"/><stop offset="1" stop-color="#f043c2"/></linearGradient><linearGradient id="k" x1="280.73638" y1="397.16335" x2="304.47969" y2="420.01906" xlink:href="#j"/><linearGradient id="l" x1="281.40044" y1="212.76916" x2="306.69705" y2="236.8823" xlink:href="#j"/><linearGradient id="m" x1="278.33732" y1="151.07853" x2="310.43886" y2="179.92554" xlink:href="#j"/><linearGradient id="n" x1="213.8527" y1="150.61988" x2="244.14207" y2="176.91504" xlink:href="#j"/><linearGradient id="o" x1="388.91952" y1="359.02887" x2="203.64813" y2="3.87956" gradientUnits="userSpaceOnUse"><stop offset="0" stop-color="#485559"/><stop offset="0.62073" stop-color="#787b80"/><stop offset="1" stop-color="#918f94"/></linearGradient><linearGradient id="p" x1="188.14574" y1="371.35048" x2="130.2923" y2="279.04499" gradientUnits="userSpaceOnUse"><stop offset="0" stop-color="#a7aab5"/><stop offset="1" stop-color="#bbc7b5"/></linearGradient><linearGradient id="q" x1="286.35909" y1="249.55843" x2="351.10416" y2="249.55843" xlink:href="#p"/><linearGradient id="r" x1="395.31058" y1="440.76627" x2="128.58668" y2="232.18018" gradientUnits="userSpaceOnUse"><stop offset="0" stop-color="#5e58ff"/><stop offset="0.13797" stop-color="#7f7bf4"/><stop offset="0.29356" stop-color="#9e9cea"/><stop offset="0.4548" stop-color="#b6b5e3"/><stop offset="0.62183" stop-color="#c7c7dd"/><stop offset="0.79832" stop-color="#d1d2da"/><stop offset="1" stop-color="#d4d5d9"/></linearGradient><linearGradient id="s" x1="262.64214" y1="239.87078" x2="434.25234" y2="371.01608" gradientUnits="userSpaceOnUse"><stop offset="0" stop-color="#827396"/><stop offset="0.53657" stop-color="#6c5c96"/><stop offset="1" stop-color="#554596"/></linearGradient><linearGradient id="t" x1="301.38755" y1="302.51262" x2="330.38249" y2="325.14643" gradientUnits="userSpaceOnUse"><stop offset="0" stop-color="#d6d0f6"/><stop offset="0.18675" stop-color="#c5d3f7"/><stop offset="0.55836" stop-color="#98dbfb"/><stop offset="0.99659" stop-color="#5be5ff"/></linearGradient><linearGradient id="u" x1="319.98056" y1="267.21743" x2="349.56724" y2="295.47271" xlink:href="#t"/><linearGradient id="v" x1="338.7931" y1="313.63953" x2="369.52627" y2="334.72004" gradientUnits="userSpaceOnUse"><stop offset="0" stop-color="#d23cf3"/><stop offset="1" stop-color="#ff8aff"/></linearGradient><linearGradient id="w" x1="353.58011" y1="280.85803" x2="384.42422" y2="296.05819" xlink:href="#v"/><linearGradient id="x" x1="229.96076" y1="353.1101" x2="244.7541" y2="359.69313" gradientTransform="translate(453.35224 -11.81547) rotate(64.14309)" gradientUnits="userSpaceOnUse"><stop offset="0" stop-color="#3a3d3e"/><stop offset="0.15216" stop-color="#3a3b46"/><stop offset="0.38215" stop-color="#3c355a"/><stop offset="0.66134" stop-color="#3e2b7c"/><stop offset="0.97661" stop-color="#411dab"/><stop offset="1" stop-color="#411caf"/></linearGradient><linearGradient id="y" x1="260.34824" y1="339.69994" x2="274.54984" y2="345.83918" gradientTransform="translate(458.76856 -47.05523) rotate(64.14309)" xlink:href="#x"/><linearGradient id="z" x1="157.11743" y1="357.38346" x2="205.19579" y2="388.44948" gradientTransform="matrix(1, 0, 0, 1, 0, 0)" xlink:href="#x"/><linearGradient id="aa" x1="7.43534" y1="256.00058" x2="112.61598" y2="315.91361" gradientTransform="translate(38.68376 -13.3282) rotate(-1.79298)" gradientUnits="userSpaceOnUse"><stop offset="0" stop-color="#fd5d24"/><stop offset="0.63074" stop-color="#fda30f"/><stop offset="1" stop-color="#fdc704"/></linearGradient><linearGradient id="ab" x1="431.82007" y1="199.31551" x2="360.25729" y2="123.42568" gradientUnits="userSpaceOnUse"><stop offset="0" stop-color="#00e8fd"/><stop offset="0.67815" stop-color="#0091f2"/><stop offset="1" stop-color="#006ded"/></linearGradient><linearGradient id="ac" x1="224.49667" y1="208.90038" x2="102.89542" y2="115.70234" gradientUnits="userSpaceOnUse"><stop offset="0" stop-color="#ffff89"/><stop offset="0.15735" stop-color="#fff56b"/><stop offset="0.42667" stop-color="#fee53d"/><stop offset="0.66668" stop-color="#fdd91c"/><stop offset="0.86596" stop-color="#fdd308"/><stop offset="1" stop-color="#fdd001"/></linearGradient><linearGradient id="ad" x1="443.374" y1="434.8837" x2="389.23038" y2="395.53342" gradientUnits="userSpaceOnUse"><stop offset="0" stop-color="#e5a22b"/><stop offset="0.4077" stop-color="#e66121"/><stop offset="0.80839" stop-color="#e82718"/><stop offset="1" stop-color="#e81115"/></linearGradient><linearGradient id="ae" x1="401.77363" y1="384.79925" x2="433.06154" y2="389.792" gradientUnits="userSpaceOnUse"><stop offset="0" stop-color="#9b6126"/><stop offset="1" stop-color="#db8e16"/></linearGradient><linearGradient id="af" x1="-470.93083" y1="482.6403" x2="-623.37619" y2="342.5104" gradientTransform="matrix(0.93617, -0.35154, 0.35154, 0.93617, 372.19653, -268.17167)" gradientUnits="userSpaceOnUse"><stop offset="0" stop-color="#00c568"/><stop offset="0.10929" stop-color="#26d053"/><stop offset="0.26127" stop-color="#53dd3a"/><stop offset="0.41406" stop-color="#79e825"/><stop offset="0.56529" stop-color="#96f015"/><stop offset="0.71435" stop-color="#abf609"/><stop offset="0.86043" stop-color="#b8fa02"/><stop offset="1" stop-color="#bcfb00"/></linearGradient><linearGradient id="ag" x1="412.0228" y1="544.97292" x2="259.57744" y2="404.84302" gradientTransform="matrix(-0.99672, 0.0809, 0.0809, 0.99672, 791.49785, -360.59318)" xlink:href="#af"/></defs><title>games</title><g opacity="0"><rect x="0.5" y="0.5" width="500" height="500" fill="none" stroke="#fff" stroke-miterlimit="10"/></g><rect x="448.76281" y="327.92281" width="8.59185" height="8.59185" rx="4.29592" transform="translate(327.18915 -215.31058) rotate(40.80158)" fill="url(#a)"/><rect x="365.93746" y="58.33121" width="8.59185" height="8.59185" rx="4.29592" transform="translate(130.89825 -226.70591) rotate(40.80155)" fill="url(#b)"/><rect x="176.20761" y="463.26397" width="8.59185" height="8.59185" rx="4.29592" transform="translate(349.38937 -4.32076) rotate(40.80156)" fill="url(#c)"/><path d="M495.2762,261.80584l-8.85618-2.6857a.45047.45047,0,0,1-.30034-.30034l-2.6857-8.85619a.45045.45045,0,0,0-.86212,0l-2.68571,8.85619a.45044.45044,0,0,1-.30033.30034l-8.85619,2.6857a.45045.45045,0,0,0,0,.86212l8.85619,2.68571a.4504.4504,0,0,1,.30033.30033l2.68571,8.85619a.45045.45045,0,0,0,.86212,0l2.6857-8.85619a.45044.45044,0,0,1,.30034-.30033l8.85618-2.68571A.45044.45044,0,0,0,495.2762,261.80584Z" fill="url(#d)"/><path d="M304.47113,41.30606,295.615,38.62035a.45047.45047,0,0,1-.30034-.30034l-2.6857-8.85618a.45044.45044,0,0,0-.86212,0L289.08108,38.32a.45044.45044,0,0,1-.30033.30034l-8.85619,2.68571a.45044.45044,0,0,0,0,.86211l8.85619,2.68571a.45044.45044,0,0,1,.30033.30034l2.68571,8.85618a.45044.45044,0,0,0,.86212,0l2.6857-8.85618a.45047.45047,0,0,1,.30034-.30034l8.85618-2.68571A.45044.45044,0,0,0,304.47113,41.30606Z" fill="url(#e)"/><rect x="74.04062" y="122.58329" width="8.59185" height="8.59185" rx="4.29592" transform="translate(101.94566 -20.3538) rotate(40.80156)" fill="url(#f)"/><path d="M38.52411,177.77632l-8.85618-2.68571a.45045.45045,0,0,1-.30034-.30034l-2.6857-8.85618a.45044.45044,0,0,0-.86212,0l-2.68571,8.85618a.45042.45042,0,0,1-.30033.30034l-8.85619,2.68571a.45044.45044,0,0,0,0,.86211l8.85619,2.68571a.45044.45044,0,0,1,.30033.30034l2.68571,8.85618a.45044.45044,0,0,0,.86212,0l2.6857-8.85618a.45047.45047,0,0,1,.30034-.30034l8.85618-2.68571A.45044.45044,0,0,0,38.52411,177.77632Z" fill="url(#g)"/><path d="M95.09258,440.97148l-8.85618-2.68571a.45044.45044,0,0,1-.30034-.30033l-2.68571-8.85619a.45044.45044,0,0,0-.86211,0l-2.68571,8.85619a.45042.45042,0,0,1-.30034.30033L70.546,440.97148a.45044.45044,0,0,0,0,.86212l8.85618,2.6857a.45045.45045,0,0,1,.30034.30034l2.68571,8.85618a.45044.45044,0,0,0,.86211,0l2.68571-8.85618a.45047.45047,0,0,1,.30034-.30034l8.85618-2.6857A.45044.45044,0,0,0,95.09258,440.97148Z" fill="url(#h)"/><circle cx="431.10657" cy="409.32123" r="21.95217" fill="url(#i)"/><polygon points="360.088 401.17 360.088 411.433 351.2 416.564 342.312 411.433 342.312 401.17 351.2 396.038 360.088 401.17" fill="url(#j)"/><polygon points="299.117 401.17 299.117 411.433 290.229 416.564 281.341 411.433 281.341 401.17 290.229 396.038 299.117 401.17" fill="url(#k)"/><polygon points="299.117 216.053 299.117 226.316 290.229 231.448 281.341 226.316 281.341 216.053 290.229 210.922 299.117 216.053" fill="url(#l)"/><polygon points="299.117 156.633 299.117 166.896 290.229 172.028 281.341 166.896 281.341 156.633 290.229 151.502 299.117 156.633" fill="url(#m)"/><polygon points="235.578 156.633 235.578 166.896 226.691 172.028 217.803 166.896 217.803 156.633 226.691 151.502 235.578 156.633" fill="url(#n)"/><path d="M367.48233,304.68771c-15.49123.0007-33.90953-6.5267-55.02711-19.53138-7.25391-4.46667-11.85831-10.829-17.19028-18.19576-6.20882-8.57762-13.24545-18.29985-26.4965-27.65374-13.21321-9.32761-33.325-7.84445-43.03493,3.17626-8.84011,10.03239-5.74831,24.70844,8.48124,40.26555a2.03065,2.03065,0,0,1-2.99717,2.74063c-22.42972-24.522-13.4382-40.12221-8.531-45.69109,10.99336-12.47688,33.62145-14.25794,48.42436-3.80885,13.80269,9.74326,21.04959,19.756,27.44346,28.59018,5.07823,7.01595,9.46394,13.07548,16.03024,17.11879,29.04018,17.88384,52.48835,23.13625,69.69124,15.60793C398.886,290.91411,408.76914,275.07,413.6511,250.214c9.76815-49.72809-4.52309-95.88495-39.20855-126.63539C327.80346,82.2301,253.42721,73.98578,170.38888,100.95892c-17.315,5.6239-28.65957,5.85766-34.67985.71284-4.35557-3.72193-5.74972-10.08146-4.26235-19.44166a2.03464,2.03464,0,0,1,2.52312-1.6452,2.0995,2.0995,0,0,1,1.47306,2.37439c-1.225,7.79682-.27437,12.90825,2.90447,15.62523,4.79015,4.09237,15.14637,3.59261,30.78689-1.48807C212.68432,82.95066,253.58071,78.28422,290.69,83.22893c34.15416,4.55007,64.04666,17.45207,86.44694,37.31078,35.79012,31.73034,50.55168,79.28,40.49966,130.45721-5.15392,26.23961-15.83047,43.07207-31.73314,50.02984A45.48986,45.48986,0,0,1,367.48233,304.68771Z" fill="url(#o)"/><path d="M181.4564,298.83081l4.7872,11.09783a3.88815,3.88815,0,0,1-2.03012,5.11018l-52.17963,22.50839a3.88815,3.88815,0,0,1-5.11018-2.03012l-1.73908-4.03158a3.87168,3.87168,0,0,1,.459-3.87492,64.91156,64.91156,0,0,1,26.0537-20.3558l24.6708-10.46345A3.88814,3.88814,0,0,1,181.4564,298.83081Z" fill="url(#p)"/><path d="M286.67805,253.442l4.7872,11.09783a3.88814,3.88814,0,0,0,5.11018,2.03011l52.17963-22.50839a3.88814,3.88814,0,0,0,2.03012-5.11017l-1.73908-4.03159a3.87169,3.87169,0,0,0-3.13353-2.32523,64.91157,64.91157,0,0,0-32.68536,4.98209l-24.54086,10.76467A3.88814,3.88814,0,0,0,286.67805,253.442Z" fill="url(#q)"/><path d="M315.43154,240.034a65.21243,65.21243,0,1,1,8.39932,122.71637l-87.39664,37.69972a65.2114,65.2114,0,1,1-83.49739-90.3218Z" fill="url(#r)"/><circle cx="341.22869" cy="299.92699" r="57.31235" fill="url(#s)"/><circle cx="314.23716" cy="312.54318" r="12.82668" fill="url(#t)"/><circle cx="332.11975" cy="278.81035" r="12.82668" fill="url(#u)"/><circle cx="351.61889" cy="322.43701" r="12.82668" fill="url(#v)"/><circle cx="369.50148" cy="288.70417" r="12.82668" fill="url(#w)"/><path d="M229.40916,351.00069h13.39021a4.84326,4.84326,0,0,1,4.84326,4.84326v0a4.84326,4.84326,0,0,1-4.84326,4.84326H229.40915a4.84325,4.84325,0,0,1-4.84325-4.84325v0a4.84326,4.84326,0,0,1,4.84326-4.84326Z" transform="translate(-187.08575 413.11836) rotate(-64.14309)" fill="url(#x)"/><path d="M260.23683,337.70276H273.627a4.84326,4.84326,0,0,1,4.84326,4.84326v0a4.84325,4.84325,0,0,1-4.84325,4.84325H260.23682a4.84326,4.84326,0,0,1-4.84326-4.84326v0a4.84326,4.84326,0,0,1,4.84326-4.84326Z" transform="translate(-157.73618 433.36138) rotate(-64.14309)" fill="url(#y)"/><path d="M196.86934,352.00659l-12.33881,5.32251a1.61083,1.61083,0,0,1-2.11711-.84106l-5.32254-12.33888a1.61082,1.61082,0,0,0-2.11711-.84106l-15.02465,6.48108a1.61084,1.61084,0,0,0-.84106,2.11711l5.32254,12.33888a1.61082,1.61082,0,0,1-.84106,2.11711l-12.33888,5.32254a1.61084,1.61084,0,0,0-.84106,2.11711l6.48109,15.02465a1.61082,1.61082,0,0,0,2.11711.84106l12.33887-5.32254a1.61083,1.61083,0,0,1,2.11711.84106l5.32255,12.33888a1.61082,1.61082,0,0,0,2.11711.84106l15.02464-6.48108a1.61083,1.61083,0,0,0,.84107-2.11711L191.4466,377.429a1.61083,1.61083,0,0,1,.84107-2.11711l12.3388-5.32251a1.61082,1.61082,0,0,0,.84106-2.11711l-6.48108-15.02465A1.61084,1.61084,0,0,0,196.86934,352.00659Z" fill="url(#z)"/><path d="M79.41945,221.191c-18.4027,9.33849-25.55238,32.01539-16.45364,50.53781l18.05144,36.74756a2.55755,2.55755,0,0,0,4.43383.27549l5.716-8.71093a2.55755,2.55755,0,0,1,2.58177-1.11568l10.68392,1.8811a2.55756,2.55756,0,0,0,2.641-1.21033l5.39726-9.06424a2.55756,2.55756,0,0,1,2.52261-1.22832l10.33279,1.32428a2.55757,2.55757,0,0,0,2.57161-1.31436l5.34479-9.82214a2.55755,2.55755,0,0,1,2.45837-1.32632l10.19984.84794a2.55755,2.55755,0,0,0,2.50743-3.67639L130.12424,238.115A37.54963,37.54963,0,0,0,79.41945,221.191Z" fill="url(#aa)"/><circle cx="87.87841" cy="253.80329" r="9.53972" fill="#fff"/><circle cx="91.77058" cy="251.30635" r="3.52331" fill="#3a3d3e"/><circle cx="112.42523" cy="241.74519" r="9.53972" fill="#fff"/><circle cx="116.3174" cy="239.24825" r="3.52331" fill="#3a3d3e"/><path d="M398.44928,105.73692c20.29793,3.723,33.5979,23.43269,30.13876,43.77725l-6.86275,40.36261a2.55755,2.55755,0,0,1-4.17268,1.5243l-7.95611-6.7271a2.55754,2.55754,0,0,0-2.79239-.33588l-9.70868,4.84006a2.55756,2.55756,0,0,1-2.87605-.4098l-7.75089-7.15645a2.55755,2.55755,0,0,0-2.76768-.4607l-9.53029,4.20641a2.55756,2.55756,0,0,1-2.83912-.52926l-7.916-7.898a2.55755,2.55755,0,0,0-2.73395-.57291l-9.53821,3.71193a2.55755,2.55755,0,0,1-3.4489-2.81213l6.95126-40.88315A37.54964,37.54964,0,0,1,398.44928,105.73692Z" fill="url(#ab)"/><circle cx="399.60812" cy="139.4085" r="9.53972" fill="#fff"/><circle cx="395.16679" cy="138.12074" r="3.52331" fill="#3a3d3e"/><circle cx="372.64649" cy="134.82427" r="9.53972" fill="#fff"/><circle cx="368.20517" cy="133.53652" r="3.52331" fill="#3a3d3e"/><path d="M197.767,184.12219a46.87551,46.87551,0,1,1,1.97461-48.14518L147.91312,160.2078a.33489.33489,0,0,0,0,.60674Z" fill="url(#ac)"/><circle cx="162.78029" cy="137.24958" r="6.20377" fill="#3a3d3e"/><circle cx="418.54999" cy="416.84221" r="21.95217" fill="url(#ad)"/><path d="M410.0293,375.7657a17.67,17.67,0,0,0-7.74477,1.20049,2.54384,2.54384,0,0,0-1.05838,3.45605,3.17134,3.17134,0,0,0,2.26888,1.956c.89162.1091,2.34315-.78551,3.315-1.47845a.27.27,0,0,1,.34795.024c3.30954,3.18429,6.93807,8.955,6.8778,15.55152-.00709.77583.91265.99444,1.68748.95446l2.43534-.0984a4.45713,4.45713,0,0,0,1.41568-.26631c.5841-.22351.97212-.55088.76091-1.13951a137.92285,137.92285,0,0,0-6.38015-14.33082,1.35334,1.35334,0,0,1,1.41188-1.97765c3.98918.62505,11.02464,2.62734,14.594,9.03985a1.31271,1.31271,0,0,0,1.11211.6624l1.41.04135c.59206.01736.854-.39912.565-.91616C431.06684,384.89932,424.62665,376.95592,410.0293,375.7657Z" fill="url(#ae)"/><path d="M21.56359,357.942.784,302.60431a4.43123,4.43123,0,0,1,2.59063-5.70614l33.43975-12.55679a4.43126,4.43126,0,0,1,5.70616,2.59066l1.19882,3.19256,8.0213-3.012a.63188.63188,0,0,1,.75107.93723l-6.066,9.28216,16.87434,44.93773a4.43126,4.43126,0,0,1-2.59066,5.70615L27.26971,360.53263A4.43122,4.43122,0,0,1,21.56359,357.942Z" fill="url(#af)"/><path d="M500.48524,189.976l-4.7818-58.91672a4.43123,4.43123,0,0,0-4.77515-4.05824l-35.60253,2.88957a4.43127,4.43127,0,0,0-4.05825,4.77518l.27587,3.399-8.54008.69313a.63189.63189,0,0,0-.2801,1.16793l9.443,5.81245,3.88313,47.84416a4.43127,4.43127,0,0,0,4.77519,4.05825l35.60253-2.88958A4.43123,4.43123,0,0,0,500.48524,189.976Z" fill="url(#ag)"/><path d="M491.42586,158.11826c-.65929-6.60332-8.15392-11.26144-16.73974-10.40422s-15.01154,6.90519-14.35226,13.5085c.24913,2.49519.26052,5.8597,2.15168,7.60679a11.4068,11.4068,0,0,0,5.46771,2.4975,5.64922,5.64922,0,0,0-.00046,1.13324c.23507,2.35441,1.85423,4.1204,3.61651,3.94445,1.397-.13948,2.46376-1.45794,2.72917-3.17125a3.30094,3.30094,0,0,0,3.14339,2.18513,3.23394,3.23394,0,0,0,2.59669-2.56118,3.36873,3.36873,0,0,0,3.22827,2.3794c1.76228-.176,3.00033-2.22721,2.76526-4.58162a5.71516,5.71516,0,0,0-.12577-.74774,10.82674,10.82674,0,0,0,3.92615-2.18407C492.35563,165.29438,491.7505,161.36985,491.42586,158.11826Zm-17.786,4.59725c-.21965,2.80739-2.79116,5.05557-4.98409,4.884s-3.42047-1.75076-3.20083-4.55814,2.419-5.89131,4.612-5.71974S473.85949,159.90813,473.63985,162.71551Zm5.05754,6.5402a1.26894,1.26894,0,0,1-1.43007-.50446,1.25311,1.25311,0,0,1-1.25016.79318c-.64033-.12143-1.01816-.96466-.84392-1.8834a2.14262,2.14262,0,0,1,1.80184-1.67288,2.2995,2.2995,0,0,1,2.09425,1.23751C479.457,168.07663,479.29049,168.98551,478.69739,169.25571Zm6.28067-3.28584c-2.11573.60175-5.081-1.09364-5.85133-3.80218s.32027-5.39206,2.436-5.99382,4.88142,1.98645,5.65178,4.695S487.09378,165.36812,484.97806,165.96987Z" fill="#fff"/><path d="M46.19723,315.08689c-2.17007-6.2713-10.53948-9.06785-18.69361-6.24626s-13.00516,10.19283-10.83508,16.46414c.82,2.36973,1.61,5.6402,3.85422,6.902a11.4068,11.4068,0,0,0,5.89736,1.16386,5.64985,5.64985,0,0,0,.2619,1.10256c.77374,2.236,2.75775,3.57921,4.43142,3.00006,1.32681-.45912,2.05931-1.9887,1.92087-3.71692a3.30094,3.30094,0,0,0,3.56386,1.39807,3.23394,3.23394,0,0,0,1.93322-3.09275,3.36876,3.36876,0,0,0,3.69143,1.5674c1.67367-.57914,2.40321-2.86129,1.62947-5.09733a5.7169,5.7169,0,0,0-.29546-.6983,10.82673,10.82673,0,0,0,3.31386-3.03366C48.763,321.85281,47.26581,318.175,46.19723,315.08689Zm-16.23855,8.5899c.43624,2.782-1.54495,5.56439-3.718,5.90516s-3.73285-.91134-4.1691-3.6933.98945-6.29129,3.16252-6.632S29.52243,320.89482,29.95868,323.67679Zm6.43423,5.19168a1.269,1.269,0,0,1-1.508-.15968,1.25311,1.25311,0,0,1-1.03257,1.061c-.651.0301-1.21382-.70276-1.257-1.63687a2.14263,2.14263,0,0,1,1.36561-2.04457,2.2995,2.2995,0,0,1,2.32385.71907A1.50818,1.50818,0,0,1,36.39291,328.86847Zm5.34936-4.65058c-1.91894,1.0752-5.19612.11234-6.57259-2.34428s-.93672-5.31972.98221-6.39493,5.20868.80242,6.58515,3.259S43.66121,323.14269,41.74227,324.21789Z" fill="#fff"/></svg>