<svg id="Layer_58" data-name="Layer 58" xmlns="http://www.w3.org/2000/svg" viewBox="0 0 215.73181 72.23123"><title>logo_hokup</title><g id="hokup"><path d="M425.80728-108.45373a9.35674,9.35674,0,0,1,3.80639,3.8724,12.75641,12.75641,0,0,1,1.37239,6.12968v10.887a2.1893,2.1893,0,0,1-.64219,1.6151,2.18779,2.18779,0,0,1-1.61441.6415,2.18658,2.18658,0,0,1-1.61579-.6415,2.1893,2.1893,0,0,1-.64219-1.6151v-10.887a7.14632,7.14632,0,0,0-1.9252-5.42149,7.09789,7.09789,0,0,0-5.11139-1.8365,7.55847,7.55847,0,0,0-3.38559.75221,6.01746,6.01746,0,0,0-2.39,2.03589,5.04407,5.04407,0,0,0-.86221,2.87679v12.48008a2.23267,2.23267,0,0,1-.62019,1.6151,2.16871,2.16871,0,0,1-1.63779.6415,2.18563,2.18563,0,0,1-1.61441-.6415,2.1893,2.1893,0,0,1-.64219-1.6151v-30.09424a2.17329,2.17329,0,0,1,.64219-1.6371,2.23168,2.23168,0,0,1,1.61441-.6195,2.21438,2.21438,0,0,1,1.63779.6195,2.21641,2.21641,0,0,1,.62019,1.6371v10.843a9.81893,9.81893,0,0,1,3.36359-2.1906,11.1624,11.1624,0,0,1,4.1598-.77489A11.27108,11.27108,0,0,1,425.80728-108.45373Z" transform="translate(-332.69238 138.57128)" fill="#2e303d" stroke="#2e303d" stroke-miterlimit="10" stroke-width="0.59103"/><path d="M455.74682-108.16563a11.30682,11.30682,0,0,1,4.33719,4.35919,12.76375,12.76375,0,0,1,1.57041,6.37239A12.809,12.809,0,0,1,460.106-91.105a11.13918,11.13918,0,0,1-4.31519,4.35851,12.53939,12.53939,0,0,1-6.30639,1.57109,12.6592,12.6592,0,0,1-6.32839-1.57109,11.09472,11.09472,0,0,1-4.33719-4.35851,12.809,12.809,0,0,1-1.5484-6.32908,12.89841,12.89841,0,0,1,1.5484-6.37239,11.09629,11.09629,0,0,1,4.33719-4.35919,12.66629,12.66629,0,0,1,6.32839-1.5711A12.45683,12.45683,0,0,1,455.74682-108.16563Zm-10.31217,3.4736a7.45354,7.45354,0,0,0-2.80941,2.96549,8.948,8.948,0,0,0-1.019,4.29249,8.8233,8.8233,0,0,0,1.019,4.27119,7.48774,7.48774,0,0,0,2.80941,2.94279,7.79248,7.79248,0,0,0,4.04978,1.0623,7.79251,7.79251,0,0,0,4.04979-1.0623,7.341,7.341,0,0,0,2.78741-2.94279,8.98565,8.98565,0,0,0,.9956-4.27119,9.113,9.113,0,0,0-.9956-4.29249,7.3093,7.3093,0,0,0-2.78741-2.96549,7.79861,7.79861,0,0,0-4.04979-1.06161A7.79857,7.79857,0,0,0,445.43465-104.692Z" transform="translate(-332.69238 138.57128)" fill="#2e303d" stroke="#2e303d" stroke-miterlimit="10" stroke-width="0.59103"/><path d="M487.14537-87.21057a2.0512,2.0512,0,0,1-.7962,1.6371,2.22912,2.22912,0,0,1-1.4164.53149,1.93357,1.93357,0,0,1-1.59378-.79689l-8.4076-10.40018-2.2126,1.9472v6.77118a2.12256,2.12256,0,0,1-.59819,1.5711,2.12644,2.12644,0,0,1-1.57041.5975,2.12534,2.12534,0,0,1-1.57178-.5975,2.127,2.127,0,0,1-.59681-1.5711v-30.22625a2.127,2.127,0,0,1,.59681-1.57109,2.1253,2.1253,0,0,1,1.57178-.5975,2.1264,2.1264,0,0,1,1.57041.5975,2.12255,2.12255,0,0,1,.59819,1.57109v18.01158l10.75359-9.60329a1.87478,1.87478,0,0,1,1.37238-.57549,1.84783,1.84783,0,0,1,1.50441.70819,1.8779,1.8779,0,0,1,.57481,1.37239,1.846,1.846,0,0,1-.7082,1.5044l-8.1422,7.258,8.585,10.53288A1.88956,1.88956,0,0,1,487.14537-87.21057Z" transform="translate(-332.69238 138.57128)" fill="#2e303d" stroke="#2e303d" stroke-miterlimit="10" stroke-width="0.59103"/><path d="M515.15834-108.98453a2.217,2.217,0,0,1,.62018,1.63779v19.73738a2.2343,2.2343,0,0,1-.62018,1.61578,2.17024,2.17024,0,0,1-1.63642.64151,2.18925,2.18925,0,0,1-1.61579-.64151,2.19084,2.19084,0,0,1-.64219-1.61578v-.4868a9.82508,9.82508,0,0,1-3.36359,2.19059,11.13492,11.13492,0,0,1-4.1598.77489,11.26731,11.26731,0,0,1-5.4868-1.32769,9.34058,9.34058,0,0,1-3.80639-3.87239,12.75458,12.75458,0,0,1-1.37239-6.12969v-10.88629a2.1931,2.1931,0,0,1,.64219-1.61579,2.191,2.191,0,0,1,1.61442-.6415,2.19411,2.19411,0,0,1,1.61579.6415,2.1931,2.1931,0,0,1,.64219,1.61579v10.88629a7.1453,7.1453,0,0,0,1.92519,5.42149,7.095,7.095,0,0,0,5.11139,1.8365,7.54947,7.54947,0,0,0,3.3856-.7522,6.00662,6.00662,0,0,0,2.39-2.0359,5.04178,5.04178,0,0,0,.86221-2.8761v-12.48008a2.1738,2.1738,0,0,1,.64219-1.63779,2.2327,2.2327,0,0,1,1.61579-.6195A2.21334,2.21334,0,0,1,515.15834-108.98453Z" transform="translate(-332.69238 138.57128)" fill="#2e303d" stroke="#2e303d" stroke-miterlimit="10" stroke-width="0.59103"/><path d="M542.13169-108.12163a11.64264,11.64264,0,0,1,4.4032,4.42589,12.46354,12.46354,0,0,1,1.59379,6.26169,13.2226,13.2226,0,0,1-1.4824,6.26239,11.17776,11.17776,0,0,1-4.07179,4.40319,10.798,10.798,0,0,1-5.77559,1.5931,10.89908,10.89908,0,0,1-4.78-1.06161,10.83213,10.83213,0,0,1-3.761-2.96548v11.94927a2.21641,2.21641,0,0,1-.62019,1.6371,2.21167,2.21167,0,0,1-1.63779.6195,2.22884,2.22884,0,0,1-1.61441-.6195,2.17329,2.17329,0,0,1-.64219-1.6371V-97.434a12.326,12.326,0,0,1,1.61579-6.26169,11.90152,11.90152,0,0,1,4.38119-4.42589,12.01462,12.01462,0,0,1,6.173-1.6151A12.25956,12.25956,0,0,1,542.13169-108.12163Zm-2.2126,17.87956a7.82086,7.82086,0,0,0,2.83279-2.96549,8.601,8.601,0,0,0,1.03961-4.22649,8.73162,8.73162,0,0,0-1.03961-4.24849,7.79233,7.79233,0,0,0-2.83279-2.9868,7.59026,7.59026,0,0,0-4.00578-1.0843,7.58544,7.58544,0,0,0-4.0044,1.0843,7.62877,7.62877,0,0,0-2.81079,2.9868,8.85712,8.85712,0,0,0-1.0176,4.24849,8.72437,8.72437,0,0,0,1.0176,4.22649,7.65486,7.65486,0,0,0,2.81079,2.96549,7.57924,7.57924,0,0,0,4.0044,1.0843A7.58406,7.58406,0,0,0,539.91909-90.24207Z" transform="translate(-332.69238 138.57128)" fill="#2e303d" stroke="#2e303d" stroke-miterlimit="10" stroke-width="0.59103"/></g><g id="Logo"><polygon id="back" points="62.554 54.173 62.554 18.058 31.277 0 0 18.058 0 54.173 31.277 72.231 62.554 54.173" fill="#2e303d"/><polygon id="right" points="31.277 4.207 31.277 19.495 31.277 19.495 45.985 27.63 45.985 44.647 59.214 52.284 59.214 19.98 31.277 4.207" fill="#f07062"/><polygon id="left" points="31.277 4.207 31.277 19.495 31.277 19.495 16.569 27.63 16.569 44.647 3.34 52.284 3.34 19.98 31.277 4.207" fill="#ca5752"/></g></svg>