<svg xmlns="http://www.w3.org/2000/svg" xmlns:xlink="http://www.w3.org/1999/xlink" width="501" height="501" viewBox="0 0 501 501"><defs><linearGradient id="a" x1="751.14743" y1="378.72905" x2="751.03338" y2="371.31562" gradientTransform="matrix(-1, 0, 0, 1, 1008.35679, 0)" gradientUnits="userSpaceOnUse"><stop offset="0" stop-color="#d9d9d9"/><stop offset="0.22889" stop-color="silver"/><stop offset="0.50743" stop-color="#aaa"/><stop offset="0.77053" stop-color="#9c9c9c"/><stop offset="1" stop-color="#979797"/></linearGradient><linearGradient id="b" x1="751.19546" y1="311.02098" x2="750.99663" y2="391.1503" gradientTransform="matrix(-1, 0, 0, 1, 1008.35679, 0)" gradientUnits="userSpaceOnUse"><stop offset="0.01206" stop-color="#989898"/><stop offset="0.06661" stop-color="#b8b8b8"/><stop offset="0.11495" stop-color="#cecece"/><stop offset="0.14621" stop-color="#d6d6d6"/><stop offset="0.23165" stop-color="#d2d2d2"/><stop offset="0.32012" stop-color="#c5c5c5"/><stop offset="0.40965" stop-color="#b1b1b1"/><stop offset="0.49165" stop-color="#979797"/><stop offset="0.59302" stop-color="#acacac"/><stop offset="0.74645" stop-color="#c5c5c5"/><stop offset="0.88653" stop-color="#d4d4d4"/><stop offset="1" stop-color="#d9d9d9"/></linearGradient><linearGradient id="c" x1="62.24297" y1="58.64013" x2="519.48757" y2="395.76792" gradientTransform="translate(514.61893 404.92646) rotate(180)" gradientUnits="userSpaceOnUse"><stop offset="0" stop-color="#404147"/><stop offset="1" stop-color="#4d527e"/></linearGradient><radialGradient id="d" cx="257.30973" cy="202.46323" r="184.31501" gradientTransform="translate(514.61946 397.29271) rotate(180) scale(1 0.9623)" gradientUnits="userSpaceOnUse"><stop offset="0" stop-color="#fff"/><stop offset="0.58508" stop-color="#fdfdfd"/><stop offset="0.79553" stop-color="#f6f6f6"/><stop offset="0.94528" stop-color="#ebebeb"/><stop offset="1" stop-color="#e4e4e4"/></radialGradient><linearGradient id="e" x1="402.04172" y1="262.89563" x2="227.07159" y2="151.18701" gradientUnits="userSpaceOnUse"><stop offset="0" stop-color="#e052de"/><stop offset="0.24064" stop-color="#c552de"/><stop offset="0.52404" stop-color="#ad53de"/><stop offset="0.78489" stop-color="#9e53de"/><stop offset="1" stop-color="#9953de"/></linearGradient><linearGradient id="f" x1="197.16681" y1="252.12521" x2="122.6944" y2="161.3703" xlink:href="#e"/><linearGradient id="g" x1="510.63893" y1="197.54138" x2="603.29466" y2="239.29611" gradientTransform="matrix(-1, 0, 0, 1, 1008.35679, 0)" gradientUnits="userSpaceOnUse"><stop offset="0" stop-color="#fd3982"/><stop offset="0.12226" stop-color="#fd407e"/><stop offset="0.30645" stop-color="#fd5572"/><stop offset="0.52982" stop-color="#fd7760"/><stop offset="0.78144" stop-color="#fda646"/><stop offset="1" stop-color="#fdd42c"/></linearGradient><linearGradient id="h" x1="490.4658" y1="349.93814" x2="425.60273" y2="315.10427" gradientUnits="userSpaceOnUse"><stop offset="0" stop-color="#fdf731"/><stop offset="0.08963" stop-color="#fde931"/><stop offset="0.2869" stop-color="#fcd231"/><stop offset="0.49594" stop-color="#fcc031"/><stop offset="0.72282" stop-color="#fcb631"/><stop offset="1" stop-color="#fcb331"/></linearGradient><linearGradient id="i" x1="564.71837" y1="340.48054" x2="566.45106" y2="377.66661" gradientTransform="matrix(1, 0, 0, -1, -123.22373, 726.96986)" gradientUnits="userSpaceOnUse"><stop offset="0" stop-color="#fd3982"/><stop offset="0.09059" stop-color="#fd5871"/><stop offset="0.22051" stop-color="#fd7e5c"/><stop offset="0.35608" stop-color="#fd9d4a"/><stop offset="0.49684" stop-color="#fdb53d"/><stop offset="0.64496" stop-color="#fdc733"/><stop offset="0.80527" stop-color="#fdd12e"/><stop offset="1" stop-color="#fdd42c"/></linearGradient><linearGradient id="j" x1="587.63539" y1="368.14778" x2="586.45213" y2="385.63369" gradientTransform="matrix(1, 0, 0, -1, -166.19258, 746.95646)" gradientUnits="userSpaceOnUse"><stop offset="0" stop-color="#545780"/><stop offset="0.30397" stop-color="#51536f"/><stop offset="0.68505" stop-color="#4e5060"/><stop offset="1" stop-color="#4d4f5b"/></linearGradient><linearGradient id="k" x1="359.11485" y1="315.32056" x2="392.21402" y2="400.576" gradientUnits="userSpaceOnUse"><stop offset="0" stop-color="#fd3982"/><stop offset="0.05173" stop-color="#fd5970"/><stop offset="0.11673" stop-color="#fd7a5e"/><stop offset="0.18954" stop-color="#fd964e"/><stop offset="0.27079" stop-color="#fdad42"/><stop offset="0.3642" stop-color="#fdbf38"/><stop offset="0.47727" stop-color="#fdcb31"/><stop offset="0.63045" stop-color="#fdd22d"/><stop offset="1" stop-color="#fdd42c"/></linearGradient><linearGradient id="l" x1="364.82653" y1="375.98176" x2="364.82653" y2="411.10876" gradientUnits="userSpaceOnUse"><stop offset="0" stop-color="#413d49"/><stop offset="0.4448" stop-color="#403b47"/><stop offset="0.65797" stop-color="#3a333f"/><stop offset="0.82175" stop-color="#312732"/><stop offset="0.95959" stop-color="#251520"/><stop offset="1" stop-color="#200e19"/></linearGradient><linearGradient id="m" x1="427.56919" y1="375.98176" x2="427.56919" y2="411.10876" xlink:href="#l"/><linearGradient id="n" x1="457.94868" y1="375.98176" x2="457.94868" y2="411.10876" xlink:href="#l"/><linearGradient id="o" x1="427.51334" y1="385.24543" x2="427.61276" y2="398.86543" gradientUnits="userSpaceOnUse"><stop offset="0" stop-color="#4d4f5b"/><stop offset="0.52005" stop-color="#4d4f68"/><stop offset="1" stop-color="#4d4f6d"/></linearGradient><linearGradient id="p" x1="364.77403" y1="385.70338" x2="364.87344" y2="399.32338" xlink:href="#o"/><linearGradient id="q" x1="457.89122" y1="385.0237" x2="457.99063" y2="398.64369" xlink:href="#o"/><linearGradient id="r" x1="379.85783" y1="354.01705" x2="347.08289" y2="322.84444" gradientUnits="userSpaceOnUse"><stop offset="0" stop-color="blue"/><stop offset="0.01863" stop-color="#0a0fff"/><stop offset="0.08189" stop-color="#2a3efe"/><stop offset="0.15089" stop-color="#4768fe"/><stop offset="0.22413" stop-color="#608dfe"/><stop offset="0.30268" stop-color="#75abfe"/><stop offset="0.38832" stop-color="#87c4fd"/><stop offset="0.48383" stop-color="#94d7fd"/><stop offset="0.59465" stop-color="#9de5fd"/><stop offset="0.73468" stop-color="#a2edfd"/><stop offset="1" stop-color="#a4effd"/></linearGradient><linearGradient id="s" x1="990.91325" y1="284.24859" x2="930.72115" y2="284.24859" gradientTransform="matrix(-1, 0, 0, 1, 1008.35679, 0)" xlink:href="#j"/><linearGradient id="t" x1="951.46335" y1="271.22839" x2="931.00029" y2="270.777" gradientTransform="matrix(-1, 0, 0, 1, 1008.35679, 0)" xlink:href="#j"/><linearGradient id="u" x1="984.99885" y1="271.02318" x2="977.7743" y2="271.02318" gradientTransform="matrix(-1, 0, 0, 1, 1008.35679, 0)" xlink:href="#j"/><linearGradient id="v" x1="56.05472" y1="416.04299" x2="56.25433" y2="393.08765" gradientUnits="userSpaceOnUse"><stop offset="0" stop-color="#fd3982"/><stop offset="0.0386" stop-color="#fd4c77"/><stop offset="0.12208" stop-color="#fd7063"/><stop offset="0.21323" stop-color="#fd8f52"/><stop offset="0.31231" stop-color="#fda944"/><stop offset="0.42234" stop-color="#fdbc39"/><stop offset="0.54923" stop-color="#fdca32"/><stop offset="0.70811" stop-color="#fdd22d"/><stop offset="1" stop-color="#fdd42c"/></linearGradient><linearGradient id="w" x1="870.88552" y1="135.70916" x2="870.88552" y2="148.44847" gradientTransform="matrix(-1, 0, 0, 1, 1008.35679, 0)" xlink:href="#j"/><linearGradient id="x" x1="604.63981" y1="-7109.14101" x2="604.63981" y2="-7096.40169" gradientTransform="matrix(1, 0, 0, -1, -581.05246, -6959.84443)" xlink:href="#j"/><linearGradient id="y" x1="930.88804" y1="133.07447" x2="931.08675" y2="161.7885" gradientTransform="matrix(-1, 0, 0, 1, 1008.35679, 0)" gradientUnits="userSpaceOnUse"><stop offset="0" stop-color="#fdf731"/><stop offset="0.12404" stop-color="#fddf31"/><stop offset="0.26812" stop-color="#fccb31"/><stop offset="0.43401" stop-color="#fcbe31"/><stop offset="0.63893" stop-color="#fcb531"/><stop offset="1" stop-color="#fcb331"/></linearGradient><linearGradient id="z" x1="983.4171" y1="132.6782" x2="983.61594" y2="161.40943" xlink:href="#y"/><linearGradient id="aa" x1="990.51072" y1="95.40271" x2="939.72278" y2="192.67908" gradientTransform="matrix(-1, 0, 0, 1, 1008.35679, 0)" gradientUnits="userSpaceOnUse"><stop offset="0" stop-color="#fd3982"/><stop offset="0.03549" stop-color="#fd4a78"/><stop offset="0.12177" stop-color="#fd6f64"/><stop offset="0.21564" stop-color="#fd8e53"/><stop offset="0.31718" stop-color="#fda844"/><stop offset="0.42939" stop-color="#fdbc3a"/><stop offset="0.55801" stop-color="#fdc932"/><stop offset="0.7173" stop-color="#fdd22d"/><stop offset="1" stop-color="#fdd42c"/></linearGradient><linearGradient id="ab" x1="47.76917" y1="157.55609" x2="47.37211" y2="170.79137" xlink:href="#v"/><linearGradient id="ac" x1="56.59173" y1="149.64278" x2="68.39071" y2="114.39151" xlink:href="#r"/></defs><title>img_1</title><g opacity="0"><rect x="0.5" y="0.5" width="500" height="500" fill="none" stroke="#fff" stroke-miterlimit="10"/></g><path d="M316.1263,370.67957v3.20779a2.04854,2.04854,0,0,1-1.97621,2.1139H200.46885a2.04854,2.04854,0,0,1-1.97622-2.1139v-3.34863" fill="url(#a)"/><path d="M201.0282,373.31306H313.59073a2.57616,2.57616,0,0,0,1.90128-4.31447L304.7608,357.26132a20.74424,20.74424,0,0,1-5.26913-11.38434l-3.95007-31.10687H219.07734L215.12726,345.877a20.74417,20.74417,0,0,1-5.26913,11.38434l-10.73121,11.73727A2.57616,2.57616,0,0,0,201.0282,373.31306Z" fill="url(#b)"/><rect x="73.61603" y="90.15635" width="367.38687" height="224.61376" rx="8.96066" transform="translate(514.61893 404.92646) rotate(-180)" fill="url(#c)"/><rect x="89.1481" y="105.68815" width="336.32326" height="193.55016" rx="4.48183" transform="translate(514.61946 404.92646) rotate(-180)" fill="url(#d)"/><line x1="292.31701" y1="242.05613" x2="316.04604" y2="169.82149" fill="none" stroke="#a1a1a1" stroke-linecap="round" stroke-linejoin="round" stroke-width="1.33869"/><rect x="243.34373" y="175.38574" width="146.57125" height="65.95777" rx="12.97289" fill="url(#e)"/><polygon points="199.332 186.382 199.332 230.347 161.257 252.329 123.183 230.347 123.183 186.382 161.257 164.4 199.332 186.382" fill="url(#f)"/><polyline points="292.317 242.056 343.874 242.056 316.98 169.721" fill="none" stroke="#a1a1a1" stroke-linecap="round" stroke-linejoin="round" stroke-width="1.33869"/><path d="M314.991,163.25838l.66423,9.34511v.192a.97412.97412,0,0,0,.97412.97411h0a.97411.97411,0,0,0,.97411-.97411v-.192l.66415-9.34511" fill="#ba1b1b"/><path d="M314.96292,167.72423,473.39028,324.54148a4.97207,4.97207,0,0,0,7.03158,0l6.97108-6.97108a4.97209,4.97209,0,0,0-.245-7.26058L321.74953,160.46364a4.9721,4.9721,0,0,0-6.78661.229h0A4.97208,4.97208,0,0,0,314.96292,167.72423Z" fill="url(#g)"/><path d="M499.134,317.27608l-41.41113,42.84035-42.3255-.26631,62.836-62.836a4.8509,4.8509,0,0,1,6.8596.05278l13.95984,13.37825A4.85166,4.85166,0,0,1,499.134,317.27608Z" fill="url(#h)"/><rect x="410.51516" y="353.40993" width="64.10275" height="20.15001" rx="3.37868" transform="translate(885.13306 726.96986) rotate(-180)" fill="url(#i)"/><rect x="362.42475" y="368.52243" width="117.3147" height="9.91159" rx="2.17461" transform="translate(842.16421 746.95646) rotate(-180)" fill="url(#j)"/><path d="M350.84643,378.5441H400.4138V328.89378A5.25582,5.25582,0,0,0,395.158,323.638H368.01112a5.2558,5.2558,0,0,0-4.26831,2.189l-17.1647,23.88963a5.25584,5.25584,0,0,0-.9875,3.06678v20.50487A5.25582,5.25582,0,0,0,350.84643,378.5441Z" fill="url(#k)"/><circle cx="364.82653" cy="392.89681" r="13.85731" fill="url(#l)"/><circle cx="427.56919" cy="392.89681" r="13.85731" fill="url(#m)"/><circle cx="457.94868" cy="392.89681" r="13.85731" fill="url(#n)"/><circle cx="427.56919" cy="392.89681" r="6.48709" fill="url(#o)"/><circle cx="364.82653" cy="392.89681" r="6.48709" fill="url(#p)"/><circle cx="457.94868" cy="392.89681" r="6.48709" fill="url(#q)"/><path d="M361.02006,329.61649l-11.61357,16.16363,16.78848-.09945c10.31259,0,11.0474-4.84408,11.27361-10.91547l.09094-2.441a2.61048,2.61048,0,0,0-2.60867-2.70768Z" fill="url(#r)"/><polyline points="161.257 148.584 199.332 186.058 199.332 230.801 161.257 252.783 123.183 230.801 123.183 186.058 161.257 148.584" fill="none" stroke="#a1a1a1" stroke-linecap="round" stroke-linejoin="round" stroke-width="1.33869"/><line x1="161.25739" y1="142.22154" x2="161.25739" y2="252.78327" fill="none" stroke="#a1a1a1" stroke-linejoin="bevel" stroke-width="0.77876"/><path d="M27.39444,165.55932v1.29559l18.4639,19.08226-18.4639,19.08226.72977.76223-.51071.53336,18.24506,18.85651L27.39444,244.25379v1.29559l18.4639,19.08226-18.4639,19.08225.72977.76223-.51071.53336,18.24506,18.85629-18.46412,19.082v1.29559l18.4639,19.08225-18.4639,19.08226.72977.76223-.51071.53336,18.24506,18.8564L27.39444,401.64227l1.24048,1.29559,18.47077-19.08917L65.576,402.93786l1.24047-1.29559L48.35283,382.5599l18.24548-18.8564-.51114-.5338.72934-.76179-18.4639-19.08226,18.4639-19.08225v-1.29559l-18.46368-19.082,18.24548-18.85629-.51114-.5338.72934-.76179-18.4639-19.08225,18.4639-19.08226v-1.29559L48.35283,225.17153,66.59831,206.315l-.51114-.53381.72934-.76178-18.4639-19.08226,18.4639-19.08226v-1.29559m-19.711,179.05512L64.84026,362.943,47.10569,381.27112,29.37113,362.9425Zm.00021-39.45977L64.94893,323.5956,47.10548,342.03676,29.262,323.5956Zm-.00021-39.23425,17.73478,18.32851-17.73457,18.328-17.73456-18.3284Zm.00021-39.46,17.84324,18.44115L47.10548,263.34274,29.262,244.90158ZM47.10548,187.226l17.73478,18.3285L47.10569,223.88263,29.37113,205.554Zm17.84345-21.01884L47.10548,184.64828,29.262,166.20712" fill="url(#s)"/><rect x="64.1543" y="135.40986" width="4.08395" height="271.22664" rx="1.06815" fill="url(#t)"/><rect x="25.97271" y="135.40986" width="4.08395" height="271.22664" rx="1.06815" fill="url(#u)"/><rect x="15.9919" y="394.14176" width="80.36129" height="16.70189" rx="3.57898" fill="url(#v)"/><path d="M159.619,143.93428l.66423,6.23007v.19195a.97412.97412,0,0,0,.97412.97412h0a.97412.97412,0,0,0,.97412-.97412v-.19195l.66414-6.23007" fill="#ba1b1b"/><path d="M73.95613,147.29453H200.98642c3.15789,0,5.71787-2.27806,5.71787-5.08817s-2.56-5.08817-5.71787-5.08817H73.95613c-3.15789,0-5.71788,2.27806-5.71788,5.08817S70.79824,147.29453,73.95613,147.29453Z" fill="url(#w)"/><path d="M46.03485,137.7112H4.19291c-1.12276,0-3.66372,2.15607-3.69265,4.95384-.02968,2.87149,2.4528,5.22251,3.59805,5.22251H46.03485c.35337,0,.63983-.71407.63983-1.59492v-6.98651C46.67468,138.42527,46.38822,137.7112,46.03485,137.7112Z" fill="url(#x)"/><path d="M62.51339,148.73767l-6.28368-11.76954a1.33835,1.33835,0,0,1-.03425-1.27054,1.804,1.804,0,0,1,1.57689-.927H95.53954a3.22406,3.22406,0,0,1,3.22406,3.22406v9.66816a3.22407,3.22407,0,0,1-3.22253,3.22406l-31.082.01475a1.80461,1.80461,0,0,1-1.79276-1.59211A1.58591,1.58591,0,0,0,62.51339,148.73767Z" fill="url(#y)"/><path d="M42.965,136.66639l-.63783,12.52289a1.80406,1.80406,0,0,1-1.80173,1.7123H8.662a1.80407,1.80407,0,0,1-1.80407-1.80407V136.59A1.80406,1.80406,0,0,1,8.66115,134.786l32.50129-.01543A1.80406,1.80406,0,0,1,42.965,136.66639Z" fill="url(#z)"/><path d="M17.73968,163.94646H78.80532a2.745,2.745,0,0,0,2.745-2.745V146.50021a4.14431,4.14431,0,0,0-1.29331-3.00784L57.14522,121.58588a4.1443,4.1443,0,0,0-2.851-1.13645H17.36015a2.3655,2.3655,0,0,0-2.3655,2.3655v38.3865A2.745,2.745,0,0,0,17.73968,163.94646Z" fill="url(#aa)"/><rect x="11.28621" y="161.30942" width="72.5737" height="5.5673" rx="0.68979" fill="url(#ab)"/><path d="M60.447,124.78915H52.77923a5.23285,5.23285,0,0,0-5.23285,5.23285v6.00584a3.60888,3.60888,0,0,0,3.60889,3.60888H75.69994a.195.195,0,0,0,.13418-.3366L60.58117,124.84264A.195.195,0,0,0,60.447,124.78915Z" fill="url(#ac)"/></svg>