<svg xmlns="http://www.w3.org/2000/svg" xmlns:xlink="http://www.w3.org/1999/xlink" width="501" height="501" viewBox="0 0 501 501"><defs><linearGradient id="a" x1="143.57604" y1="425.92232" x2="115.6476" y2="405.97343" gradientUnits="userSpaceOnUse"><stop offset="0" stop-color="#5a5f66"/><stop offset="1" stop-color="#888d99"/></linearGradient><linearGradient id="b" x1="142.32767" y1="463.78887" x2="109.96614" y2="458.02586" gradientTransform="translate(567.25757 289.67151) rotate(83.92229)" gradientUnits="userSpaceOnUse"><stop offset="0" stop-color="#5862b5"/><stop offset="1" stop-color="#586268"/></linearGradient><linearGradient id="c" x1="133.38224" y1="461.07068" x2="93.04117" y2="459.96241" gradientTransform="translate(562.48523 295.67607) rotate(83.92229)" gradientUnits="userSpaceOnUse"><stop offset="0.11885" stop-color="#b29fe0"/><stop offset="0.12516" stop-color="#b19fde"/><stop offset="0.20215" stop-color="#ab9fc8"/><stop offset="0.29236" stop-color="#a6a0b7"/><stop offset="0.40471" stop-color="#a3a0ac"/><stop offset="0.56234" stop-color="#a1a0a5"/><stop offset="1" stop-color="#a0a0a3"/></linearGradient><linearGradient id="d" x1="120.63146" y1="456.08531" x2="106.00228" y2="464.72982" gradientTransform="translate(559.21166 298.6196) rotate(83.92229)" gradientUnits="userSpaceOnUse"><stop offset="0" stop-color="#27252b"/><stop offset="0.51208" stop-color="#26222e"/><stop offset="0.88253" stop-color="#231a37"/><stop offset="1" stop-color="#22163c"/></linearGradient><linearGradient id="e" x1="159.52244" y1="469.5417" x2="61.3704" y2="360.50238" gradientUnits="userSpaceOnUse"><stop offset="0.16809" stop-color="#f9faff"/><stop offset="0.21075" stop-color="#f1f1f8"/><stop offset="0.27901" stop-color="#dbdae4"/><stop offset="0.36382" stop-color="#b7b4c5"/><stop offset="0.43537" stop-color="#948fa6"/><stop offset="0.65928" stop-color="#e8e9ed"/><stop offset="0.69525" stop-color="#e0e1e5"/><stop offset="0.75091" stop-color="#cbcbd0"/><stop offset="0.81931" stop-color="#a8a8ad"/><stop offset="0.89783" stop-color="#77767d"/><stop offset="0.98384" stop-color="#39383f"/><stop offset="1" stop-color="#2d2b33"/></linearGradient><linearGradient id="f" x1="159.52244" y1="469.5417" x2="61.3704" y2="360.50238" gradientUnits="userSpaceOnUse"><stop offset="0" stop-color="#5f2bd9"/><stop offset="0.06686" stop-color="#6b3dd9" stop-opacity="0.89464"/><stop offset="0.2529" stop-color="#8b6bd9" stop-opacity="0.62557"/><stop offset="0.4327" stop-color="#a591d9" stop-opacity="0.40171"/><stop offset="0.60171" stop-color="#b9aed9" stop-opacity="0.22738"/><stop offset="0.75735" stop-color="#c8c4d9" stop-opacity="0.10244"/><stop offset="0.89496" stop-color="#d1d0d9" stop-opacity="0.02664"/><stop offset="1" stop-color="#d4d5d9" stop-opacity="0"/></linearGradient><linearGradient id="g" x1="48.30298" y1="452.9749" x2="14.16822" y2="445.88196" gradientTransform="translate(471.12231 373.50833) rotate(83.92229)" gradientUnits="userSpaceOnUse"><stop offset="0" stop-color="#8d6ed5"/><stop offset="0.12538" stop-color="#947dca"/><stop offset="0.36375" stop-color="#a5a2af"/><stop offset="0.39524" stop-color="#a8a8ab"/><stop offset="0.51278" stop-color="#bfbfc2"/><stop offset="0.6803" stop-color="#dddde0"/></linearGradient><linearGradient id="h" x1="55.5518" y1="413.25587" x2="39.26021" y2="395.96683" gradientUnits="userSpaceOnUse"><stop offset="0" stop-color="#6f7780"/><stop offset="1" stop-color="#aeb3c4"/></linearGradient><linearGradient id="i" x1="33.36646" y1="453.09597" x2="12.53095" y2="441.12663" gradientTransform="translate(465.3926 376.86233) rotate(83.92229)" gradientUnits="userSpaceOnUse"><stop offset="0" stop-color="#5862a1"/><stop offset="1" stop-color="#586268"/></linearGradient><linearGradient id="j" x1="178.965" y1="402.00071" x2="83.54284" y2="370.41497" gradientUnits="userSpaceOnUse"><stop offset="0" stop-color="#8d6ed5"/><stop offset="0.18039" stop-color="#9480c3"/><stop offset="0.43083" stop-color="#9b92b1"/><stop offset="0.69641" stop-color="#9f9da6"/><stop offset="1" stop-color="#a0a0a3"/></linearGradient><radialGradient id="k" cx="260.74343" cy="249.37902" r="224.47218" gradientUnits="userSpaceOnUse"><stop offset="0.11913" stop-color="#1d111f"/><stop offset="0.22339" stop-color="#201223"/><stop offset="0.32335" stop-color="#28152e"/><stop offset="0.42158" stop-color="#361942"/><stop offset="0.51818" stop-color="#4a205d"/><stop offset="0.5464" stop-color="#512266"/><stop offset="0.58874" stop-color="#4c2a6c"/><stop offset="0.83172" stop-color="#31568c"/><stop offset="0.99423" stop-color="#447ac7"/></radialGradient><radialGradient id="l" cx="109.54187" cy="132.48168" r="398.94188" gradientUnits="userSpaceOnUse"><stop offset="0" stop-color="#3f2e52"/><stop offset="0.21129" stop-color="#422c56"/><stop offset="0.41353" stop-color="#4d2561"/><stop offset="0.47002" stop-color="#512266"/><stop offset="0.85538" stop-color="#31568c"/><stop offset="0.88866" stop-color="#335a93"/><stop offset="0.93611" stop-color="#3966a5"/><stop offset="0.99182" stop-color="#4378c4"/><stop offset="0.99657" stop-color="#447ac7"/></radialGradient><linearGradient id="m" x1="352.65424" y1="192.69464" x2="415.71359" y2="158.52054" gradientTransform="translate(-105.18516 42.92171) rotate(4.45445)" gradientUnits="userSpaceOnUse"><stop offset="0" stop-color="#dc3c80"/><stop offset="0.08302" stop-color="#e05875"/><stop offset="0.21403" stop-color="#e67e65"/><stop offset="0.35076" stop-color="#eb9d58"/><stop offset="0.49267" stop-color="#eeb54f"/><stop offset="0.64201" stop-color="#f1c747"/><stop offset="0.80366" stop-color="#f3d143"/><stop offset="1" stop-color="#f3d442"/></linearGradient><linearGradient id="n" x1="634.29232" y1="-487.91372" x2="688.48547" y2="-487.91372" gradientTransform="translate(-515.43527 507.41394) rotate(18.0004)" gradientUnits="userSpaceOnUse"><stop offset="0" stop-color="#f7931e"/><stop offset="1" stop-color="#f9d200"/></linearGradient><linearGradient id="o" x1="570.54786" y1="-482.81684" x2="539.29873" y2="-451.56771" gradientTransform="translate(-515.43527 507.41394) rotate(18.0004)" gradientUnits="userSpaceOnUse"><stop offset="0" stop-color="#00efde"/><stop offset="0.02304" stop-color="#00e9db"/><stop offset="0.27133" stop-color="#00b0ba"/><stop offset="0.50075" stop-color="#0083a1"/><stop offset="0.70429" stop-color="#00638e"/><stop offset="0.87428" stop-color="#004f83"/><stop offset="0.99" stop-color="#00487f"/></linearGradient><linearGradient id="p" x1="563.06657" y1="-475.33556" x2="543.82928" y2="-456.09827" gradientTransform="translate(-515.43527 507.41394) rotate(18.0004)" gradientUnits="userSpaceOnUse"><stop offset="0" stop-color="#00efde"/><stop offset="0.02304" stop-color="#00e9dd"/><stop offset="0.27133" stop-color="#00b0d4"/><stop offset="0.50075" stop-color="#0083cd"/><stop offset="0.70429" stop-color="#0063c8"/><stop offset="0.87428" stop-color="#004fc5"/><stop offset="0.99" stop-color="#0048c4"/></linearGradient><linearGradient id="r" x1="-739.8818" y1="-4075.10785" x2="-760.88137" y2="-4051.63775" gradientTransform="translate(-3710.96316 925.74749) rotate(90.82615)" gradientUnits="userSpaceOnUse"><stop offset="0" stop-color="#c8ff3f"/><stop offset="0.60799" stop-color="#4cca18"/><stop offset="1" stop-color="#00aa01"/></linearGradient><linearGradient id="s" x1="734.04009" y1="-528.11948" x2="755.68204" y2="-535.33346" gradientTransform="translate(-515.43527 507.41394) rotate(18.0004)" xlink:href="#r"/><linearGradient id="u" x1="182.42035" y1="412.46459" x2="294.13411" y2="151.79916" gradientUnits="userSpaceOnUse"><stop offset="0.00577" stop-color="#447ac7"/><stop offset="0.16828" stop-color="#31568c"/><stop offset="0.27173" stop-color="#3c447f" stop-opacity="0.69414"/><stop offset="0.4536" stop-color="#512266" stop-opacity="0.1"/><stop offset="0.61516" stop-color="#30173a" stop-opacity="0.03736"/><stop offset="0.88087" stop-color="#1d111f" stop-opacity="0"/></linearGradient><linearGradient id="v" x1="341.27888" y1="421.99667" x2="364.89672" y2="437.29018" gradientTransform="translate(-194.64459 333.81269) rotate(-40.80154)" gradientUnits="userSpaceOnUse"><stop offset="0" stop-color="#00c568"/><stop offset="0.10929" stop-color="#26d053"/><stop offset="0.26127" stop-color="#53dd3a"/><stop offset="0.41406" stop-color="#79e825"/><stop offset="0.56529" stop-color="#96f015"/><stop offset="0.71435" stop-color="#abf609"/><stop offset="0.86043" stop-color="#b8fa02"/><stop offset="1" stop-color="#bcfb00"/></linearGradient><linearGradient id="w" x1="484.53805" y1="193.9766" x2="508.15589" y2="209.27012" gradientTransform="translate(-10.83161 372.01048) rotate(-40.80158)" xlink:href="#v"/><linearGradient id="x" x1="236.70705" y1="419.31862" x2="269.52035" y2="447.77618" gradientUnits="userSpaceOnUse"><stop offset="0" stop-color="#13b9f0"/><stop offset="0.23208" stop-color="#10c4e8"/><stop offset="0.63315" stop-color="#08e0d2"/><stop offset="1" stop-color="#00ffba"/></linearGradient><linearGradient id="y" x1="12.95867" y1="272.92058" x2="36.57651" y2="288.21409" gradientTransform="translate(-177.02151 83.04613) rotate(-40.80158)" xlink:href="#v"/><linearGradient id="z" x1="0.37263" y1="327.45073" x2="33.18593" y2="355.90829" xlink:href="#x"/><linearGradient id="aa" x1="101.34596" y1="66.69164" x2="124.9638" y2="81.98516" gradientTransform="matrix(0.75698, -0.65344, 0.65344, 0.75698, -20.78282, 90.68366)" xlink:href="#v"/><linearGradient id="ab" x1="179.04537" y1="25.78036" x2="211.85868" y2="54.23792" xlink:href="#x"/><linearGradient id="ac" x1="429.43368" y1="132.66541" x2="462.24698" y2="161.12297" xlink:href="#x"/><linearGradient id="ad" x1="165.11045" y1="244.34578" x2="23.54973" y2="119.62268" gradientUnits="userSpaceOnUse"><stop offset="0" stop-color="#ffcf00"/><stop offset="0.11366" stop-color="#ffac2b"/><stop offset="0.29741" stop-color="#ff786b"/><stop offset="0.47322" stop-color="#ff4da0"/><stop offset="0.63603" stop-color="#ff2cc9"/><stop offset="0.78308" stop-color="#ff14e7"/><stop offset="0.90926" stop-color="#ff05f9"/><stop offset="1" stop-color="#f0f"/></linearGradient><linearGradient id="ae" x1="489.64134" y1="371.02104" x2="324.99404" y2="234.25053" xlink:href="#ad"/></defs><title>vr</title><g style="isolation:isolate"><g opacity="0"><rect x="0.5" y="0.5" width="500" height="500" fill="none" stroke="#fff" stroke-miterlimit="10"/></g><path d="M162.22724,392.7506s-36.92764,36.39122-49.79881,49.29948c-1.06571,1.06878-3.26139,2.73694-.1856,6.03441l-7.965,8.29031s-2.76271-5.6207-3.35662-7.097c-1.21732-3.02588-1.96515-7.29148,2.9523-12.70784s56.58213-57.1134,56.58213-57.1134Z" fill="url(#a)"/><ellipse cx="122.55285" cy="460.26733" rx="13.48615" ry="9.53033" transform="translate(-348.10296 533.39953) rotate(-83.92229)" fill="url(#b)"/><ellipse cx="116.82776" cy="460.61588" rx="16.56606" ry="13.96883" transform="translate(-353.56849 528.01827) rotate(-83.92229)" fill="url(#c)"/><ellipse cx="113.55419" cy="460.26733" rx="13.48615" ry="9.53033" transform="translate(-356.14887 524.45145) rotate(-83.92229)" fill="url(#d)"/><path d="M44.45225,402.55424a2.8091,2.8091,0,0,0-.84248,2.40945c.5978,4.27293,3.18766,16.95023,13.29823,22.773,12.26428,7.06307,30.017,5.04441,32.58157,4.39331,6.94625-1.76354,19.41654-11.036,23.91063-12.69885,8.82-3.26353,13.64814,1.25119,12.78992,5.29437-.75339,3.54934-1.78218,8.80973-.79015,13.29819a15.95555,15.95555,0,0,0,3.3412,6.579,2.88066,2.88066,0,0,0,4.15884.19546c2.7096-2.34718,12.23495-8.97286,15.474-11.74476,3.67513-3.14506,11.86342-9.90629,17.34457-14.00644,3.63584-2.71978,5.81208-9.33114,4.24824-11.6879L79.84444,371.05094a2.8316,2.8316,0,0,0-3.22431.49746Z" fill="url(#e)"/><path d="M44.45225,402.55424a2.8091,2.8091,0,0,0-.84248,2.40945c.5978,4.27293,3.18766,16.95023,13.29823,22.773,12.26428,7.06307,30.017,5.04441,32.58157,4.39331,6.94625-1.76354,19.41654-11.036,23.91063-12.69885,8.82-3.26353,13.64814,1.25119,12.78992,5.29437-.75339,3.54934-1.78218,8.80973-.79015,13.29819a15.95555,15.95555,0,0,0,3.3412,6.579,2.88066,2.88066,0,0,0,4.15884.19546c2.7096-2.34718,12.23495-8.97286,15.474-11.74476,3.67513-3.14506,11.86342-9.90629,17.34457-14.00644,3.63584-2.71978,5.81208-9.33114,4.24824-11.6879L79.84444,371.05094a2.8316,2.8316,0,0,0-3.22431.49746Z" fill="url(#f)"/><ellipse cx="27.86658" cy="448.72837" rx="18.15077" ry="15.30509" transform="translate(-421.29002 428.92822) rotate(-83.92229)" fill="url(#g)"/><path d="M77.609,374.37109S37.14883,414.2435,23.04641,428.38656c-1.16766,1.171-3.57338,2.99876-.20336,6.61167l-8.72689,9.08335s-3.027-6.15837-3.67771-7.77585c-1.33378-3.31533-2.15314-7.989,3.23471-13.92348s61.99478-62.57687,61.99478-62.57687Z" fill="url(#h)"/><ellipse cx="23.13668" cy="447.21929" rx="14.77623" ry="10.442" transform="translate(-424.01853 422.87561) rotate(-83.92229)" fill="url(#i)"/><path d="M152.85544,411.98367c-5.53726-3.24077-15.91532-7.64809-26.00146-8.56423-9.39992-.85381-21.72825-1.17208-21.72825-1.17208C91.6704,401.975,86.171,402.88377,79.63,387.51917c-1.36455-3.20529-4.36244-17.18491-4.87437-20.63075-1.42483-9.5905,5.73627-11.71365,10.49811-11.8119,26.25722-.54177,48.69794,1.84762,65.81575,10.34529,9.20485,4.5695,11.70386,7.23285,14.47873,16.43532,2.13917,7.09422,4.262,19.70353,4.856,24.86655C171.63456,417.41685,164.00861,418.51124,152.85544,411.98367Z" fill="url(#j)"/><rect x="279.80004" y="111.63015" width="63.85039" height="15.26594" rx="7.63296" transform="translate(36.60587 -69.69627) rotate(13.54595)" fill="#31568c"/><path d="M459.45733,255.5819,407.6106,240.43224a7.40474,7.40474,0,0,1-5.75527-7.64269,7.28045,7.28045,0,0,1,8.96466-6.55206l35.715,8.42438a7.40484,7.40484,0,0,0,8.6045-4.183,7.28043,7.28043,0,0,0-4.99729-9.91575l-15.27442-3.49974-25.71755-6.196a7.40493,7.40493,0,0,1-5.75536-7.64269,7.28049,7.28049,0,0,1,8.96474-6.5519l5.61225,1.14039a7.40478,7.40478,0,0,0,8.60442-4.183,7.28037,7.28037,0,0,0-4.99721-9.91575l-67.4757-16.04507a7.2803,7.2803,0,0,0,8.96466-6.5519,7.40493,7.40493,0,0,0-5.75536-7.64277L235.948,124.23461a7.405,7.405,0,0,0-8.60458,4.18305,7.28044,7.28044,0,0,0,4.99721,9.91575L124.74351,112.41034a7.40491,7.40491,0,0,0-8.60442,4.18288,7.28045,7.28045,0,0,0,4.99713,9.91592L163.815,136.79163a7.40489,7.40489,0,0,1,5.75535,7.64261,7.28049,7.28049,0,0,1-8.96474,6.55206L95.83419,135.381,84.1669,132.61483a7.40507,7.40507,0,0,0-8.6045,4.183,7.28043,7.28043,0,0,0,4.9972,9.91584l52.51632,12.60783a7.40489,7.40489,0,0,1,5.75536,7.6426,7.28049,7.28049,0,0,1-8.96475,6.55206l-8.96352-2.4018a7.40505,7.40505,0,0,0-8.6045,4.18289,7.28052,7.28052,0,0,0,4.99721,9.91591l14.47527,4.34711a7.40483,7.40483,0,0,1,5.75536,7.6426,7.28048,7.28048,0,0,1-8.96474,6.55206l-81.86535-20.341a7.40493,7.40493,0,0,0-8.6045,4.183,7.28033,7.28033,0,0,0,4.99712,9.91575c-.64223-.15471,1.14478.54418,1.63465.66229l33.63257,8.10293a7.27574,7.27574,0,1,1-3.40826,14.1467l-23.70821-5.71193h-.00008a7.27192,7.27192,0,0,0-1.49422,14.33956l70.02468,16.901a7.27575,7.27575,0,1,1-3.40842,14.14669L24.21334,238.13693a7.27487,7.27487,0,0,0-7.04713,6.70337,7.39838,7.39838,0,0,0,5.742,7.68173l42.251,10.1794,34.60908,8.33834a7.40483,7.40483,0,0,1,5.75544,7.64261,7.28053,7.28053,0,0,1-8.96475,6.55206l-26.18672-6.30911a7.41051,7.41051,0,0,0-8.72813,4.49491q-.09813.26835-.17452.53776a6.98124,6.98124,0,0,0,5.19105,8.57276l48.249,11.62443a7.405,7.405,0,0,1,5.75535,7.64261,7.28039,7.28039,0,0,1-8.96474,6.55206l-3.42571-.82528a7.405,7.405,0,0,0-8.6045,4.18289,7.28049,7.28049,0,0,0,4.99713,9.91584l15.74424,3.79317a7.405,7.405,0,0,1,5.75536,7.64261,7.28043,7.28043,0,0,1-8.96475,6.55206L87.98491,342.5719a7.405,7.405,0,0,0-8.60449,4.18288c-.8196,1.97119-.66343,5.42515,2.03217,7.11447,7.35091,4.6068,9.66271,1.10341,7.77757,1.1345-4.52576.07476-14.06042,2.5972-12.67465,11.4246.49791,3.17164,3.5229,16.94212,4.80752,19.90528,6.45408,14.88731,10.02826,13.47426,24.28178,13.63295,0,0,11.71891.33338,20.65622,1.14973,9.58968.87593,20.67269,4.822,25.90668,7.89026,11.01239,6.45587,17.62062,6.109,15.498-4.70734-.92188-4.69744-2.64078-16.35839-4.69736-22.8917-.412-1.30882-.87592-2.43915-1.24242-3.5107-.63663-1.86136,1.49551-2.23042,1.49551-2.23042l17.73865,4.27369a7.40494,7.40494,0,0,0,8.6045-4.18313,7.28037,7.28037,0,0,0-4.9972-9.91568l-1.37287-.33077a7.405,7.405,0,0,1-5.75543-7.64269,7.28056,7.28056,0,0,1,8.96474-6.552l1.5719.37875,123.97766,29.86959a7.40489,7.40489,0,0,0,8.6045-4.183,7.28025,7.28025,0,0,0-4.99713-9.91567L265.348,355.3678a7.40488,7.40488,0,0,1-5.75535-7.64268,7.28041,7.28041,0,0,1,8.96466-6.552l109.47543,26.37561a7.27146,7.27146,0,0,0,6.38071-6.36463,7.41047,7.41047,0,0,0-5.72337-7.97663l-14.96289-3.605a7.40494,7.40494,0,0,1-5.75535-7.64269,7.28056,7.28056,0,0,1,8.96474-6.552l37.25627,8.9761,15.04316,3.58627a7.405,7.405,0,0,0,8.6045-4.183,7.2805,7.2805,0,0,0-4.99721-9.91584l-29.39522-7.044a7.4049,7.4049,0,0,1-5.75536-7.64269,7.28046,7.28046,0,0,1,8.96475-6.552l56.59319,13.63482a7.40485,7.40485,0,0,0,8.6045-4.183,7.2804,7.2804,0,0,0-4.99721-9.91575l-77.701-18.72034a7.40468,7.40468,0,0,1-5.75536-7.64261,7.28043,7.28043,0,0,1,8.96466-6.55206l66.667,18.72026a7.40483,7.40483,0,0,0,8.6045-4.183,7.28037,7.28037,0,0,0-4.99712-9.91575l-26.95259-6.49353a7.40509,7.40509,0,0,1-5.75535-7.64278,7.28052,7.28052,0,0,1,8.96474-6.552l26.9525,6.49361a7.40479,7.40479,0,0,0,8.6045-4.183A7.28037,7.28037,0,0,0,459.45733,255.5819Z" fill="url(#k)"/><path d="M459.54045,255.62906,407.69372,240.4794a7.40475,7.40475,0,0,1-5.75527-7.64269,7.28045,7.28045,0,0,1,8.96466-6.55206l35.715,8.42438a7.40484,7.40484,0,0,0,8.6045-4.183,7.28043,7.28043,0,0,0-4.99729-9.91575L434.951,217.11057l-25.71755-6.196a7.40494,7.40494,0,0,1-5.75536-7.64269,7.28049,7.28049,0,0,1,8.96474-6.5519l5.61225,1.14039a7.40478,7.40478,0,0,0,8.60442-4.183,7.28037,7.28037,0,0,0-4.99721-9.91575l-67.4757-16.04507a7.2803,7.2803,0,0,0,8.96466-6.5519,7.40493,7.40493,0,0,0-5.75536-7.64277l-121.36473-29.2401a7.405,7.405,0,0,0-8.60458,4.18305,7.28044,7.28044,0,0,0,4.99721,9.91575L124.82663,112.45749a7.40493,7.40493,0,0,0-8.60442,4.18289,7.28045,7.28045,0,0,0,4.99713,9.91592l42.67881,10.28249a7.40488,7.40488,0,0,1,5.75535,7.64261,7.28049,7.28049,0,0,1-8.96474,6.55206L95.91731,135.42818,84.25,132.662a7.40507,7.40507,0,0,0-8.6045,4.183,7.28042,7.28042,0,0,0,4.9972,9.91583L133.159,159.36863a7.40489,7.40489,0,0,1,5.75536,7.6426,7.28049,7.28049,0,0,1-8.96475,6.55206l-8.96352-2.4018a7.40506,7.40506,0,0,0-8.6045,4.18288,7.28053,7.28053,0,0,0,4.99721,9.91592l14.47527,4.34711a7.40483,7.40483,0,0,1,5.75536,7.6426,7.28048,7.28048,0,0,1-8.96474,6.55206L46.77938,183.461a7.40493,7.40493,0,0,0-8.6045,4.183,7.28034,7.28034,0,0,0,4.99712,9.91576c-.64223-.15471,1.14478.54418,1.63465.66228L78.43922,206.325A7.27573,7.27573,0,1,1,75.031,220.47166l-23.70821-5.71192h-.00008a7.27192,7.27192,0,0,0-1.49422,14.33956l70.02468,16.901a7.27575,7.27575,0,1,1-3.40842,14.14669L24.29646,238.18409a7.27487,7.27487,0,0,0-7.04713,6.70337,7.39838,7.39838,0,0,0,5.742,7.68173l42.251,10.1794,34.60908,8.33834a7.40482,7.40482,0,0,1,5.75544,7.64261,7.28053,7.28053,0,0,1-8.96475,6.55206l-26.18672-6.30912a7.41053,7.41053,0,0,0-8.72813,4.49492q-.09813.26835-.17452.53776a6.98124,6.98124,0,0,0,5.191,8.57276l48.249,11.62443a7.405,7.405,0,0,1,5.75535,7.64261,7.28039,7.28039,0,0,1-8.96474,6.55206l-3.42571-.82528a7.405,7.405,0,0,0-8.6045,4.18289,7.28048,7.28048,0,0,0,4.99713,9.91583l15.74424,3.79318a7.405,7.405,0,0,1,5.75536,7.64261,7.28044,7.28044,0,0,1-8.96475,6.55206L88.068,342.61906a7.405,7.405,0,0,0-8.60449,4.18288c-.8196,1.97119-.66342,5.42515,2.03217,7.11447,7.35091,4.6068,9.66271,1.10341,7.77757,1.1345-4.52576.07476-14.70185,2.53184-12.568,12.33476.68286,3.137,3.39982,16.03912,4.70085,18.99512,6.59262,14.97868,10.13909,13.59334,24.28178,13.63295,0,0,11.71891.33338,20.65622,1.14972,9.58968.87593,20.6505,4.67318,25.82356,7.84311,10.62552,6.51107,17.56607,5.92923,15.58109-4.66018-.882-4.70509-2.64078-16.35839-4.69736-22.8917-.412-1.30882-.87592-2.43915-1.24242-3.5107-.63663-1.86136,1.49551-2.23042,1.49551-2.23042l17.73865,4.27369a7.40494,7.40494,0,0,0,8.6045-4.18313,7.28037,7.28037,0,0,0-4.9972-9.91568l-1.37287-.33077a7.405,7.405,0,0,1-5.75543-7.64269,7.28056,7.28056,0,0,1,8.96474-6.552l1.5719.37875,123.97766,29.86959a7.40489,7.40489,0,0,0,8.6045-4.18305,7.28025,7.28025,0,0,0-4.99713-9.91567L265.43112,355.415a7.40489,7.40489,0,0,1-5.75535-7.64269,7.28041,7.28041,0,0,1,8.96466-6.552l109.47543,26.37561a7.27146,7.27146,0,0,0,6.38071-6.36463,7.41047,7.41047,0,0,0-5.72337-7.97663l-14.96289-3.605a7.40492,7.40492,0,0,1-5.75535-7.64268,7.28056,7.28056,0,0,1,8.96474-6.552l37.25627,8.9761,15.04316,3.58627a7.405,7.405,0,0,0,8.6045-4.18305,7.2805,7.2805,0,0,0-4.99721-9.91583l-29.39522-7.044a7.40488,7.40488,0,0,1-5.75535-7.64269,7.28045,7.28045,0,0,1,8.96474-6.552l56.59319,13.63482a7.40485,7.40485,0,0,0,8.6045-4.183,7.28039,7.28039,0,0,0-4.99721-9.91575l-77.701-18.72035a7.40466,7.40466,0,0,1-5.75536-7.6426,7.28044,7.28044,0,0,1,8.96467-6.55206l66.667,18.72026a7.40483,7.40483,0,0,0,8.6045-4.183,7.28037,7.28037,0,0,0-4.99712-9.91575l-26.95259-6.49354a7.40508,7.40508,0,0,1-5.75535-7.64277,7.28053,7.28053,0,0,1,8.96474-6.552l26.9525,6.49362a7.40479,7.40479,0,0,0,8.6045-4.183A7.28037,7.28037,0,0,0,459.54045,255.62906Z" fill="url(#l)"/><circle cx="191.59179" cy="291.62593" r="1.17119" fill="#fff"/><circle cx="349.18017" cy="324.65335" r="1.17119" fill="#fff"/><circle cx="160.02355" cy="211.59852" r="1.17119" fill="#fff"/><circle cx="345.22992" cy="173.22666" r="1.17119" fill="#cffffe"/><circle cx="381.47108" cy="257.29673" r="1.17119" fill="#cffffe"/><circle cx="257.37103" cy="319.85261" r="1.17119" fill="#cffffe"/><circle cx="244.92806" cy="171.81695" r="1.17119" fill="#cffffe"/><circle cx="245.58595" cy="146.41298" r="1.17119" fill="#fff"/><circle cx="193.03479" cy="317.99081" r="1.17119" fill="#fff"/><circle cx="335.2669" cy="342.82602" r="1.17119" fill="#fff"/><circle cx="264.35841" cy="247.76634" r="58.20244" fill="#f9d200" opacity="0.2" style="mix-blend-mode:hard-light"/><circle cx="264.35841" cy="247.76634" r="37.63936" fill="#ffc800" opacity="0.3" style="mix-blend-mode:hard-light"/><circle cx="264.35841" cy="247.76634" r="27.08961" fill="url(#m)"/><circle cx="264.35841" cy="247.76634" r="27.08961" fill="url(#n)" style="mix-blend-mode:hard-light"/><path d="M326.68925,228.974q2.78028-.04358,5.41089-.05579" fill="none" stroke="#fff" stroke-linecap="round" stroke-miterlimit="10" stroke-width="1.92351"/><path d="M355.76567,229.73106c7.26172.71142,11.43262,1.88513,11.57886,3.51355.48852,5.43628-44.06055,13.88147-99.50318,18.86316-55.44238,4.98144-100.78344,4.61279-101.272-.82349-.13013-1.44824,2.93653-3.11011,8.55371-4.863" fill="none" stroke="#fff" stroke-linecap="round" stroke-miterlimit="10" stroke-width="1.92351" stroke-dasharray="10.49555 23.68604"/><path d="M186.58672,243.4691q2.51293-.55482,5.29321-1.11158" fill="none" stroke="#fff" stroke-linecap="round" stroke-miterlimit="10" stroke-width="1.92351"/><path d="M345.43974,216.52769q5.21669.28839,10.04151.70459" fill="none" stroke="#fff" stroke-linecap="round" stroke-miterlimit="10" stroke-width="1.67026"/><path d="M376.44829,220.00791c14.59424,2.81385,23.33716,6.99329,23.81347,12.293C401.53764,246.5023,342.97,263.37,269.44682,269.97618c-73.523,6.6062-134.15942.449-135.43554-13.75245-.37867-4.21582,4.51635-8.6665,13.51074-13.01416" fill="none" stroke="#fff" stroke-linecap="round" stroke-miterlimit="10" stroke-width="1.67026" stroke-dasharray="21.15418 21.15418"/><path d="M157.27446,239.11692q4.41212-1.63329,9.53882-3.21948" fill="none" stroke="#fff" stroke-linecap="round" stroke-miterlimit="10" stroke-width="1.67026"/><circle cx="151.86399" cy="237.0374" r="18.76273" opacity="0.3" fill="url(#o)"/><circle cx="151.86399" cy="237.0374" r="11.55053" fill="url(#p)"/><circle cx="151.86399" cy="237.0374" r="11.55053" fill="url(#p)" style="mix-blend-mode:hard-light"/><circle cx="360.45815" cy="231.86883" r="13.1618" opacity="0.3" fill="url(#r)"/><circle cx="360.45815" cy="231.86883" r="7.87154" fill="url(#s)"/><circle cx="360.45815" cy="231.86883" r="7.87154" fill="url(#s)" style="mix-blend-mode:hard-light"/><path d="M369.29494,194.7868l-2.97391-.90186a.15125.15125,0,0,1-.10085-.10085l-.90186-2.97391a.15126.15126,0,0,0-.2895,0l-.90186,2.97391a.15126.15126,0,0,1-.10086.10085l-2.9739.90186a.15126.15126,0,0,0,0,.2895l2.9739.90186a.15126.15126,0,0,1,.10086.10085l.90186,2.97391a.15126.15126,0,0,0,.2895,0l.90186-2.97391a.15125.15125,0,0,1,.10085-.10085l2.97391-.90186A.15126.15126,0,0,0,369.29494,194.7868Z" fill="#fff"/><path d="M298.38139,163.79578l-2.9739-.90186a.15126.15126,0,0,1-.10086-.10085l-.90186-2.97391a.15126.15126,0,0,0-.2895,0l-.90186,2.97391a.15125.15125,0,0,1-.10085.10085l-2.97391.90186a.15126.15126,0,0,0,0,.2895l2.97391.90186a.15128.15128,0,0,1,.10085.10086l.90186,2.9739a.15126.15126,0,0,0,.2895,0l.90186-2.9739a.15129.15129,0,0,1,.10086-.10086l2.9739-.90186A.15126.15126,0,0,0,298.38139,163.79578Z" fill="#fff"/><path d="M191.96987,177.70117l-1.99435-.6048a.10144.10144,0,0,1-.06763-.06763l-.6048-1.99435a.10144.10144,0,0,0-.19415,0l-.6048,1.99435a.10142.10142,0,0,1-.06763.06763l-1.99435.6048a.10143.10143,0,0,0,0,.19414l1.99435.60481a.1014.1014,0,0,1,.06763.06763l.6048,1.99435a.10144.10144,0,0,0,.19415,0l.6048-1.99435a.10142.10142,0,0,1,.06763-.06763l1.99435-.60481A.10143.10143,0,0,0,191.96987,177.70117Z" fill="#fff"/><path d="M309.40225,334.55835l-2.9739-.90186a.15128.15128,0,0,1-.10086-.10085l-.90186-2.97391a.15126.15126,0,0,0-.2895,0l-.90186,2.97391a.15125.15125,0,0,1-.10085.10085l-2.97391.90186a.15126.15126,0,0,0,0,.2895l2.97391.90186a.15125.15125,0,0,1,.10085.10085l.90186,2.97391a.15126.15126,0,0,0,.2895,0l.90186-2.97391a.15128.15128,0,0,1,.10086-.10085l2.9739-.90186A.15126.15126,0,0,0,309.40225,334.55835Z" fill="#fff"/><path d="M161.85527,306.23045l-2.9739-.90186a.15126.15126,0,0,1-.10086-.10085l-.90186-2.97391a.15126.15126,0,0,0-.2895,0l-.90186,2.97391a.15125.15125,0,0,1-.10085.10085l-2.97391.90186a.15126.15126,0,0,0,0,.2895l2.97391.90186a.15125.15125,0,0,1,.10085.10085l.90186,2.97391a.15126.15126,0,0,0,.2895,0l.90186-2.97391a.15126.15126,0,0,1,.10086-.10085l2.9739-.90186A.15126.15126,0,0,0,161.85527,306.23045Z" fill="#fff"/><path d="M459.45733,255.5819,407.6106,240.43224a7.40474,7.40474,0,0,1-5.75527-7.64269,7.28045,7.28045,0,0,1,8.96466-6.55206l35.715,8.42438a7.40484,7.40484,0,0,0,8.6045-4.183,7.28043,7.28043,0,0,0-4.99729-9.91575l-15.27442-3.49974-25.71755-6.196a7.40493,7.40493,0,0,1-5.75536-7.64269,7.28049,7.28049,0,0,1,8.96474-6.5519l5.61225,1.14039a7.40478,7.40478,0,0,0,8.60442-4.183,7.28037,7.28037,0,0,0-4.99721-9.91575l-67.4757-16.04507a7.2803,7.2803,0,0,0,8.96466-6.5519,7.40493,7.40493,0,0,0-5.75536-7.64277L235.948,124.23461a7.405,7.405,0,0,0-8.60458,4.18305,7.28044,7.28044,0,0,0,4.99721,9.91575L124.74351,112.41034a7.40491,7.40491,0,0,0-8.60442,4.18288,7.28045,7.28045,0,0,0,4.99713,9.91592L163.815,136.79163a7.40489,7.40489,0,0,1,5.75535,7.64261,7.28049,7.28049,0,0,1-8.96474,6.55206L95.83419,135.381,84.1669,132.61483a7.40507,7.40507,0,0,0-8.6045,4.183,7.28043,7.28043,0,0,0,4.9972,9.91584l52.51632,12.60783a7.40489,7.40489,0,0,1,5.75536,7.6426,7.28049,7.28049,0,0,1-8.96475,6.55206l-8.96352-2.4018a7.40505,7.40505,0,0,0-8.6045,4.18289,7.28052,7.28052,0,0,0,4.99721,9.91591l14.47527,4.34711a7.40483,7.40483,0,0,1,5.75536,7.6426,7.28048,7.28048,0,0,1-8.96474,6.55206l-81.86535-20.341a7.40493,7.40493,0,0,0-8.6045,4.183,7.28033,7.28033,0,0,0,4.99712,9.91575c-.64223-.15471,1.14478.54418,1.63465.66229l33.63257,8.10293a7.27574,7.27574,0,1,1-3.40826,14.1467l-23.70821-5.71193h-.00008a7.27192,7.27192,0,0,0-1.49422,14.33956l70.02468,16.901a7.27575,7.27575,0,1,1-3.40842,14.14669L24.21334,238.13693a7.27487,7.27487,0,0,0-7.04713,6.70337,7.39838,7.39838,0,0,0,5.742,7.68173l42.251,10.1794,34.60908,8.33834a7.40483,7.40483,0,0,1,5.75544,7.64261,7.28053,7.28053,0,0,1-8.96475,6.55206l-26.18672-6.30911a7.41051,7.41051,0,0,0-8.72813,4.49491q-.09813.26835-.17452.53776a6.98124,6.98124,0,0,0,5.19105,8.57276l48.249,11.62443a7.405,7.405,0,0,1,5.75535,7.64261,7.28039,7.28039,0,0,1-8.96474,6.55206l-3.42571-.82528a7.405,7.405,0,0,0-8.6045,4.18289,7.28049,7.28049,0,0,0,4.99713,9.91584l15.74424,3.79317a7.405,7.405,0,0,1,5.75536,7.64261,7.28043,7.28043,0,0,1-8.96475,6.55206L87.98491,342.5719a7.405,7.405,0,0,0-8.60449,4.18288c-.8196,1.97119-.66343,5.42515,2.03217,7.11447,7.35091,4.6068,9.66271,1.10341,7.77757,1.1345-4.52576.07476-14.06042,2.5972-12.67465,11.4246.49791,3.17164,3.5229,16.94212,4.80752,19.90528,6.45408,14.88731,10.02826,13.47426,24.28178,13.63295,0,0,11.71891.33338,20.65622,1.14973,9.58968.87593,20.67269,4.822,25.90668,7.89026,11.01239,6.45587,17.62062,6.109,15.498-4.70734-.92188-4.69744-2.64078-16.35839-4.69736-22.8917-.412-1.30882-.87592-2.43915-1.24242-3.5107-.63663-1.86136,1.49551-2.23042,1.49551-2.23042l17.73865,4.27369a7.40494,7.40494,0,0,0,8.6045-4.18313,7.28037,7.28037,0,0,0-4.9972-9.91568l-1.37287-.33077a7.405,7.405,0,0,1-5.75543-7.64269,7.28056,7.28056,0,0,1,8.96474-6.552l1.5719.37875,123.97766,29.86959a7.40489,7.40489,0,0,0,8.6045-4.183,7.28025,7.28025,0,0,0-4.99713-9.91567L265.348,355.3678a7.40488,7.40488,0,0,1-5.75535-7.64268,7.28041,7.28041,0,0,1,8.96466-6.552l109.47543,26.37561a7.27146,7.27146,0,0,0,6.38071-6.36463,7.41047,7.41047,0,0,0-5.72337-7.97663l-14.96289-3.605a7.40494,7.40494,0,0,1-5.75535-7.64269,7.28056,7.28056,0,0,1,8.96474-6.552l37.25627,8.9761,15.04316,3.58627a7.405,7.405,0,0,0,8.6045-4.183,7.2805,7.2805,0,0,0-4.99721-9.91584l-29.39522-7.044a7.4049,7.4049,0,0,1-5.75536-7.64269,7.28046,7.28046,0,0,1,8.96475-6.552l56.59319,13.63482a7.40485,7.40485,0,0,0,8.6045-4.183,7.2804,7.2804,0,0,0-4.99721-9.91575l-77.701-18.72034a7.40468,7.40468,0,0,1-5.75536-7.64261,7.28043,7.28043,0,0,1,8.96466-6.55206l66.667,18.72026a7.40483,7.40483,0,0,0,8.6045-4.183,7.28037,7.28037,0,0,0-4.99712-9.91575l-26.95259-6.49353a7.40509,7.40509,0,0,1-5.75535-7.64278,7.28052,7.28052,0,0,1,8.96474-6.552l26.9525,6.49361a7.40479,7.40479,0,0,0,8.6045-4.183A7.28037,7.28037,0,0,0,459.45733,255.5819Z" fill="url(#u)" style="mix-blend-mode:hard-light"/><g opacity="0.85"><rect x="279.80004" y="111.63015" width="63.85039" height="15.26594" rx="7.63296" transform="translate(36.60587 -69.69627) rotate(13.54595)" fill="#447ac7" opacity="0.27" style="mix-blend-mode:hard-light"/></g><path d="M351.45689,422.96561h0a5.62173,5.62173,0,0,1,5.62173,5.62173v0a5.62173,5.62173,0,0,1-5.62173,5.62173h0a5.62173,5.62173,0,0,1-5.62173-5.62173v0a5.62174,5.62174,0,0,1,5.62174-5.62174Z" transform="matrix(0.75698, 0.65344, -0.65344, 0.75698, 365.46845, -125.49996)" fill="url(#v)"/><path d="M494.71606,194.94554h0a5.62173,5.62173,0,0,1,5.62173,5.62173v0a5.62173,5.62173,0,0,1-5.62173,5.62173h0a5.62173,5.62173,0,0,1-5.62173-5.62173v0a5.62174,5.62174,0,0,1,5.62174-5.62174Z" transform="translate(251.28637 -274.52556) rotate(40.80158)" fill="url(#w)"/><path d="M269.53709,433.29752,257.9477,429.783a.58948.58948,0,0,1-.393-.393l-3.51457-11.58939a.58946.58946,0,0,0-1.12819,0l-3.51457,11.58939a.58948.58948,0,0,1-.393.393l-11.58939,3.51457a.58946.58946,0,0,0,0,1.12818l11.58939,3.51458a.58946.58946,0,0,1,.393.393l3.51457,11.5894a.58946.58946,0,0,0,1.12819,0l3.51457-11.5894a.58946.58946,0,0,1,.393-.393l11.58939-3.51458A.58946.58946,0,0,0,269.53709,433.29752Z" fill="url(#x)"/><rect x="17.51495" y="273.88952" width="11.24348" height="11.24348" rx="5.62173" transform="translate(188.26701 52.80919) rotate(40.80158)" fill="url(#y)"/><path d="M33.20267,341.42963l-11.58939-3.51457a.58948.58948,0,0,1-.393-.393l-3.51457-11.58939a.58946.58946,0,0,0-1.12819,0L13.06292,337.522a.58946.58946,0,0,1-.393.393L1.0805,341.42963a.58946.58946,0,0,0,0,1.12819l11.58939,3.51457a.58946.58946,0,0,1,.393.393l3.51457,11.58939a.58946.58946,0,0,0,1.12819,0l3.51457-11.58939a.58948.58948,0,0,1,.393-.393l11.58939-3.51457A.58946.58946,0,0,0,33.20267,341.42963Z" fill="url(#z)"/><rect x="105.90224" y="67.66058" width="11.24348" height="11.24348" rx="5.62173" transform="translate(74.98858 -55.0651) rotate(40.80157)" fill="url(#aa)"/><path d="M211.87542,39.75926,200.286,36.24469a.58944.58944,0,0,1-.393-.393l-3.51458-11.58939a.58946.58946,0,0,0-1.12818,0l-3.51457,11.58939a.58948.58948,0,0,1-.393.393l-11.5894,3.51457a.58946.58946,0,0,0,0,1.12819l11.5894,3.51457a.58948.58948,0,0,1,.393.393l3.51457,11.58939a.58946.58946,0,0,0,1.12818,0L199.893,44.79505a.58944.58944,0,0,1,.393-.393l11.5894-3.51457A.58946.58946,0,0,0,211.87542,39.75926Z" fill="url(#ab)"/><path d="M462.26372,146.64431l-11.58939-3.51457a.58946.58946,0,0,1-.393-.393l-3.51457-11.58939a.58946.58946,0,0,0-1.12819,0L442.124,142.73671a.58946.58946,0,0,1-.393.393l-11.58939,3.51457a.58946.58946,0,0,0,0,1.12819l11.58939,3.51457a.58946.58946,0,0,1,.393.393l3.51457,11.58939a.58946.58946,0,0,0,1.12819,0l3.51457-11.58939a.58946.58946,0,0,1,.393-.393l11.58939-3.51457A.58946.58946,0,0,0,462.26372,146.64431Z" fill="url(#ac)"/><path d="M35.55566,139.65835h96.3626a7.68908,7.68908,0,0,1,7.68908,7.689v50.60735a7.68913,7.68913,0,0,1-7.68908,7.68909h-5.91743v14.86749a1.09645,1.09645,0,0,1-1.98063.64838L112.642,205.64382H35.55566a7.68913,7.68913,0,0,1-7.68908-7.68909V147.34738A7.68908,7.68908,0,0,1,35.55566,139.65835Z" fill="url(#ad)"/><path d="M459.099,338.619H362.73641a7.68909,7.68909,0,0,1-7.68909-7.689V280.32262a7.68913,7.68913,0,0,1,7.68909-7.68909h5.91743V257.766a1.09644,1.09644,0,0,1,1.98063-.64837l11.37823,15.51587H459.099a7.68912,7.68912,0,0,1,7.68909,7.68909V330.93A7.68908,7.68908,0,0,1,459.099,338.619Z" fill="url(#ae)"/><path d="M78.27725,164.729h-4.901a1.85549,1.85549,0,0,1-1.82784-2.15,12.07849,12.07849,0,0,1,3.55555-6.80909A12.70234,12.70234,0,0,1,96.7649,164.729a6.99561,6.99561,0,0,1-1.11,4.0789,21.71707,21.71707,0,0,1-2.60751,3.09829q-2.17347,2.17557-4.10505,4.22132a5.78174,5.78174,0,0,0-1.30063,4.95342.7208.7208,0,0,1-.70864.81937l-6.92369.02094a.72067.72067,0,0,1-.72285-.72067h0a12.73344,12.73344,0,0,1,1.2776-6.15734,20.18017,20.18017,0,0,1,3.67919-4.68595,34.34086,34.34086,0,0,0,2.63365-2.86574,4.76786,4.76786,0,0,0,1.39388-2.76254,4.22522,4.22522,0,0,0-8.24766-1.30238A1.86147,1.86147,0,0,1,78.27725,164.729Zm.47512,24.13019a5.04443,5.04443,0,0,1,5.0894-4.99134,5.15268,5.15268,0,0,1,5.08987,5.08987,5.02273,5.02273,0,0,1-5.08987,4.96659A5.08628,5.08628,0,0,1,78.75237,188.85921Z" fill="#fff"/><path d="M407.96305,323.087a5.61346,5.61346,0,0,1,5.6639-5.55426,5.7338,5.7338,0,0,1,5.6639,5.6639,5.58952,5.58952,0,0,1-5.6639,5.52671A5.66,5.66,0,0,1,407.96305,323.087Zm2.39612-39.86553h6.42841a1.81825,1.81825,0,0,1,1.81645,1.89915l-1.23324,27.69264a1.81826,1.81826,0,0,1-1.81646,1.73736h-3.888a1.82147,1.82147,0,0,1-1.81648-1.76319c-.32143-9.6043-.86584-18.206-1.30733-27.662A1.82008,1.82008,0,0,1,410.35917,283.22149Z" fill="#fff"/></g></svg>