<svg xmlns="http://www.w3.org/2000/svg" xmlns:xlink="http://www.w3.org/1999/xlink" width="501" height="501" viewBox="0 0 501 501"><defs><linearGradient id="a" x1="133.08342" y1="78.61585" x2="371.71488" y2="402.12964" gradientUnits="userSpaceOnUse"><stop offset="0" stop-color="#536269"/><stop offset="0.25102" stop-color="#53626c"/><stop offset="0.47162" stop-color="#536277"/><stop offset="0.68071" stop-color="#536289"/><stop offset="0.88155" stop-color="#5362a2"/><stop offset="1" stop-color="#5362b5"/></linearGradient><linearGradient id="b" x1="-7858.32729" y1="238.31948" x2="-7858.32729" y2="250.62422" gradientTransform="matrix(1, 0, 0, -1, 8079.02091, 488.9437)" gradientUnits="userSpaceOnUse"><stop offset="0" stop-color="#fff"/><stop offset="0.41501" stop-color="#fcfcfc"/><stop offset="0.77382" stop-color="#f1f1f1"/><stop offset="1" stop-color="#e6e6e6"/></linearGradient><linearGradient id="c" x1="400.60443" y1="182.19802" x2="400.60443" y2="190.3729" gradientTransform="matrix(1, 0, 0, 1, 0, 0)" xlink:href="#b"/><linearGradient id="d" x1="-7817.76114" y1="261.70231" x2="-7817.76114" y2="274.00704" gradientTransform="matrix(1, 0, 0, -1, 7997.8886, 535.70935)" xlink:href="#b"/><linearGradient id="e" x1="258.4128" y1="317.03062" x2="258.4128" y2="321.50274" gradientTransform="matrix(1, 0, 0, 1, 0, 0)" xlink:href="#b"/><linearGradient id="f" x1="252.92456" y1="327.61039" x2="252.92456" y2="332.08251" gradientTransform="matrix(1, 0, 0, 1, 0, 0)" xlink:href="#b"/><linearGradient id="g" x1="217.47369" y1="338.19016" x2="217.47369" y2="342.66228" gradientTransform="matrix(1, 0, 0, 1, 0, 0)" xlink:href="#b"/><linearGradient id="h" x1="232.2966" y1="115.53619" x2="364.69168" y2="264.48066" gradientUnits="userSpaceOnUse"><stop offset="0" stop-color="#999"/><stop offset="1" stop-color="#c9e2fc"/></linearGradient><linearGradient id="i" x1="351.83503" y1="295.53099" x2="484.76396" y2="359.59312" gradientUnits="userSpaceOnUse"><stop offset="0" stop-color="#666"/><stop offset="0.06637" stop-color="#7b7b7b"/><stop offset="0.20838" stop-color="#a3a3a3"/><stop offset="0.35473" stop-color="#c5c5c5"/><stop offset="0.50431" stop-color="#dedede"/><stop offset="0.65839" stop-color="#f1f1f1"/><stop offset="0.81969" stop-color="#fbfbfb"/><stop offset="1" stop-color="#fff"/></linearGradient><linearGradient id="j" x1="96.92968" y1="138.48416" x2="96.92968" y2="150.78889" gradientTransform="matrix(1, 0, 0, 1, 0, 0)" xlink:href="#b"/><linearGradient id="k" x1="112.05514" y1="138.48416" x2="112.05514" y2="150.78889" gradientTransform="matrix(1, 0, 0, 1, 0, 0)" xlink:href="#b"/><linearGradient id="l" x1="236.0504" y1="138.48416" x2="236.0504" y2="150.78889" gradientTransform="matrix(1, 0, 0, 1, 0, 0)" xlink:href="#b"/><linearGradient id="m" x1="350.05391" y1="182.19802" x2="350.05391" y2="190.3729" gradientTransform="matrix(1, 0, 0, 1, 0, 0)" xlink:href="#b"/><linearGradient id="n" x1="299.50339" y1="182.19802" x2="299.50339" y2="190.3729" gradientTransform="matrix(1, 0, 0, 1, 0, 0)" xlink:href="#b"/><linearGradient id="o" x1="115.56201" y1="182.09816" x2="115.56201" y2="190.47262" gradientTransform="matrix(1, 0, 0, 1, 0, 0)" xlink:href="#b"/><linearGradient id="p" x1="430.80853" y1="302.61807" x2="296.27804" y2="187.30623" gradientUnits="userSpaceOnUse"><stop offset="0" stop-color="#ffcf00"/><stop offset="0.11366" stop-color="#ffac2b"/><stop offset="0.29741" stop-color="#ff786b"/><stop offset="0.47322" stop-color="#ff4da0"/><stop offset="0.63603" stop-color="#ff2cc9"/><stop offset="0.78308" stop-color="#ff14e7"/><stop offset="0.90926" stop-color="#ff05f9"/><stop offset="1" stop-color="#f0f"/></linearGradient><linearGradient id="q" x1="325.34663" y1="63.71155" x2="434.51919" y2="192.90353" gradientUnits="userSpaceOnUse"><stop offset="0" stop-color="#00c568"/><stop offset="0.10929" stop-color="#26d053"/><stop offset="0.26127" stop-color="#53dd3a"/><stop offset="0.41406" stop-color="#79e825"/><stop offset="0.56529" stop-color="#96f015"/><stop offset="0.71435" stop-color="#abf609"/><stop offset="0.86043" stop-color="#b8fa02"/><stop offset="1" stop-color="#bcfb00"/></linearGradient><linearGradient id="r" x1="27.9206" y1="337.74298" x2="194.34178" y2="509.31122" xlink:href="#q"/><linearGradient id="s" x1="60.11878" y1="272.75009" x2="38.76474" y2="172.38608" gradientUnits="userSpaceOnUse"><stop offset="0" stop-color="#666"/><stop offset="0.18148" stop-color="#9c9c9c"/><stop offset="0.34023" stop-color="#c4c4c4"/><stop offset="0.46568" stop-color="#ddd"/><stop offset="0.54223" stop-color="#e6e6e6"/><stop offset="0.6529" stop-color="#e2e2e2"/><stop offset="0.75454" stop-color="#d7d7d7"/><stop offset="0.85263" stop-color="#c5c5c5"/><stop offset="0.94798" stop-color="#ababab"/><stop offset="1" stop-color="#999"/></linearGradient><linearGradient id="t" x1="23.87606" y1="269.82511" x2="44.07343" y2="244.46718" gradientTransform="translate(-161.76673 79.8813) rotate(-39.85614)" gradientUnits="userSpaceOnUse"><stop offset="0" stop-color="#333"/><stop offset="0.27206" stop-color="#363636"/><stop offset="0.46813" stop-color="#3f3f3f"/><stop offset="0.6404" stop-color="#4f4f4f"/><stop offset="0.79892" stop-color="#656565"/><stop offset="0.9467" stop-color="#828282"/><stop offset="1" stop-color="#8e8e8e"/></linearGradient><linearGradient id="u" x1="359.65722" y1="415.03259" x2="381.36717" y2="429.09067" gradientTransform="translate(-185.4796 343.46319) rotate(-40.80158)" gradientUnits="userSpaceOnUse"><stop offset="0" stop-color="#ff1df0"/><stop offset="0.24098" stop-color="#d849f3"/><stop offset="0.78324" stop-color="#78b8fc"/><stop offset="1" stop-color="#50e6ff"/></linearGradient><linearGradient id="v" x1="-3.56469" y1="380.92379" x2="14.71971" y2="398.14049" gradientTransform="translate(-136.32316 27.16419) rotate(-20.4802)" gradientUnits="userSpaceOnUse"><stop offset="0" stop-color="#ff1df0"/><stop offset="0.11525" stop-color="#f22cf1"/><stop offset="0.33732" stop-color="#cf54f4"/><stop offset="0.64361" stop-color="#9893f9"/><stop offset="1" stop-color="#50e6ff"/></linearGradient><linearGradient id="w" x1="-0.1774" y1="112.21086" x2="25.09155" y2="130.00589" gradientTransform="translate(-82.03262 44.47929) rotate(-44.99998)" gradientUnits="userSpaceOnUse"><stop offset="0" stop-color="#ff1df0"/><stop offset="0.10658" stop-color="#fa23f0"/><stop offset="0.25321" stop-color="#ea35f2"/><stop offset="0.42318" stop-color="#d152f4"/><stop offset="0.61058" stop-color="#ad7bf7"/><stop offset="0.80981" stop-color="#81aefb"/><stop offset="1" stop-color="#50e6ff"/></linearGradient><linearGradient id="x" x1="485.37747" y1="171.33712" x2="502.37173" y2="186.19598" gradientTransform="translate(203.92786 619.18878) rotate(-76.40807)" gradientUnits="userSpaceOnUse"><stop offset="0" stop-color="#ff1df0"/><stop offset="0.10298" stop-color="#f628f1"/><stop offset="0.28178" stop-color="#dd44f3"/><stop offset="0.51494" stop-color="#b572f6"/><stop offset="0.79031" stop-color="#7eb1fb"/><stop offset="1" stop-color="#50e6ff"/></linearGradient><linearGradient id="y" x1="456.25793" y1="396.43032" x2="486.42051" y2="422.58903" gradientUnits="userSpaceOnUse"><stop offset="0" stop-color="#13b9f0"/><stop offset="0.23208" stop-color="#10c4e8"/><stop offset="0.63315" stop-color="#08e0d2"/><stop offset="1" stop-color="#00ffba"/></linearGradient><linearGradient id="z" x1="89.25817" y1="38.13849" x2="114.52712" y2="61.62794" xlink:href="#y"/><linearGradient id="aa" x1="448.15477" y1="86.78933" x2="469.77574" y2="110.5457" xlink:href="#y"/><linearGradient id="ab" x1="131.4233" y1="440.70387" x2="164.65554" y2="461.12367" xlink:href="#y"/><linearGradient id="ac" x1="43.09548" y1="293.89325" x2="7.5054" y2="254.56622" gradientTransform="translate(-168.58962 77.52367) rotate(-39.85614)" gradientUnits="userSpaceOnUse"><stop offset="0" stop-color="#f0f"/><stop offset="0.05345" stop-color="#ff17e0"/><stop offset="0.15393" stop-color="#ff3ead"/><stop offset="0.25902" stop-color="#ff617f"/><stop offset="0.36658" stop-color="#ff7e59"/><stop offset="0.47723" stop-color="#ff9639"/><stop offset="0.59199" stop-color="#ffa921"/><stop offset="0.71254" stop-color="#ffb610"/><stop offset="0.84269" stop-color="#ffbe05"/><stop offset="1" stop-color="#ffc002"/></linearGradient><linearGradient id="ad" x1="-6182.21105" y1="-5485.18124" x2="-6127.35808" y2="-5432.06328" gradientTransform="translate(-8152.3684 601.5785) rotate(135.75143)" xlink:href="#s"/><linearGradient id="ae" x1="122.33" y1="274.86071" x2="31.44184" y2="178.36712" gradientUnits="userSpaceOnUse"><stop offset="0" stop-color="blue"/><stop offset="0.03887" stop-color="#0f16ff"/><stop offset="0.13813" stop-color="#3248fe"/><stop offset="0.24227" stop-color="#5075fe"/><stop offset="0.34928" stop-color="#6a9bfe"/><stop offset="0.45999" stop-color="#7fb9fd"/><stop offset="0.5755" stop-color="#8fd1fd"/><stop offset="0.69794" stop-color="#9be2fd"/><stop offset="0.83206" stop-color="#a2ecfd"/><stop offset="1" stop-color="#a4effd"/></linearGradient></defs><title>web</title><g opacity="0"><rect x="0.5" y="0.5" width="500" height="500" fill="none" stroke="#fff" stroke-miterlimit="10"/></g><rect x="81.77663" y="128.81134" width="353.27233" height="239.42827" rx="4.69101" fill="url(#a)"/><rect x="115.56201" y="238.31948" width="210.26322" height="12.30473" rx="6.15236" transform="translate(441.38723 488.9437) rotate(-180)" fill="url(#b)"/><rect x="382.34101" y="182.19802" width="36.52684" height="8.17488" rx="4.08744" fill="url(#c)"/><rect x="115.56201" y="261.70231" width="129.1309" height="12.30473" rx="6.15236" transform="translate(360.25492 535.70935) rotate(-180)" fill="url(#d)"/><rect x="110.84711" y="317.03062" width="295.13138" height="4.47213" rx="2.23606" fill="url(#e)"/><rect x="110.84711" y="327.61039" width="284.1549" height="4.47213" rx="2.23606" fill="url(#f)"/><rect x="110.84711" y="338.19016" width="213.25315" height="4.47213" rx="1.90074" fill="url(#g)"/><path d="M435.049,158.11511v-24.6128a4.691,4.691,0,0,0-4.691-4.691H86.46764a4.691,4.691,0,0,0-4.691,4.691v24.6128Z" fill="url(#h)"/><circle cx="414.74575" cy="144.63653" r="6.15237" fill="#51db00"/><circle cx="395.6785" cy="144.63653" r="6.15237" fill="#f4ad2f"/><circle cx="376.61125" cy="144.63653" r="6.15237" fill="#ce4141"/><path d="M470.387,328.11728a1.49371,1.49371,0,0,0,.15408-2.74057l-29.8009-14.83486L409.16888,294.8261a.62928.62928,0,0,0-.87885.758l10.90772,33.53718,10.296,31.657a1.49371,1.49371,0,0,0,2.73348.25019l9.8244-18.11274,20.73587,24.04277a5.92669,5.92669,0,0,0,8.35883.6173h0a5.92668,5.92668,0,0,0,.6173-8.35883l-20.73587-24.04277Z" stroke="#444" stroke-miterlimit="10" stroke-width="1.04546" fill="url(#i)"/><path d="M96.20727,144.25708l4.09468-4.09466a.9831.9831,0,0,0,0-1.39031h0a.98311.98311,0,0,0-1.39032,0l-5.485,5.485a.53662.53662,0,0,0,0,.75889l5.485,5.485a.9831.9831,0,0,0,1.39032,0h0a.9831.9831,0,0,0,0-1.39031L96.20727,145.016A.53662.53662,0,0,1,96.20727,144.25708Z" fill="url(#j)"/><path d="M112.77755,145.016l-4.09468,4.09467a.98309.98309,0,0,0,0,1.39031h0a.98309.98309,0,0,0,1.39031,0l5.485-5.485a.5366.5366,0,0,0,0-.75889l-5.485-5.485a.98309.98309,0,0,0-1.39031,0h0a.98309.98309,0,0,0,0,1.39031l4.09468,4.09466A.53662.53662,0,0,1,112.77755,145.016Z" fill="url(#k)"/><rect x="130.25589" y="138.48416" width="211.58901" height="12.30473" rx="6.15236" fill="url(#l)"/><rect x="331.79049" y="182.19802" width="36.52684" height="8.17488" rx="4.08744" fill="url(#m)"/><rect x="281.23997" y="182.19802" width="36.52684" height="8.17488" rx="4.08744" fill="url(#n)"/><rect x="97.29859" y="182.09816" width="36.52684" height="8.37446" rx="4.18722" fill="url(#o)"/><polygon points="408.383 237.82 408.383 274.507 376.611 292.851 344.839 274.507 344.839 237.82 376.611 219.476 408.383 237.82" fill="url(#p)"/><path d="M395.42389,79.69067H328.625a5.18054,5.18054,0,0,0-5.18054,5.1805v41.75967a5.18056,5.18056,0,0,0,5.18054,5.18054h3.98689v10.017a.73873.73873,0,0,0,1.33445.43685l7.66612-10.45387h53.81148a5.18056,5.18056,0,0,0,5.18054-5.18054V84.87117A5.18054,5.18054,0,0,0,395.42389,79.69067Z" fill="url(#q)"/><path d="M40.18557,426.21212h78.12367a7.068,7.068,0,0,0,7.06795-7.0679V362.17044a7.068,7.068,0,0,0-7.06795-7.06795h-10.6667V341.436a1.00787,1.00787,0,0,0-1.82063-.596L95.36283,355.10249H40.18557a7.068,7.068,0,0,0-7.06795,7.06795v56.97378A7.068,7.068,0,0,0,40.18557,426.21212Z" fill="url(#r)"/><path d="M356.51981,120.73648h0a2.62709,2.62709,0,0,1-2.44-3.6008L363.94338,92.419a2.62709,2.62709,0,0,1,2.44-1.65338h0a2.62709,2.62709,0,0,1,2.44,3.6008l-9.86355,24.71672A2.6271,2.6271,0,0,1,356.51981,120.73648Z" fill="#fff"/><path d="M336.93066,104.86886l9.51972-9.51969a2.28561,2.28561,0,0,0,0-3.23234h0a2.28561,2.28561,0,0,0-3.23234,0l-12.75206,12.752a1.24758,1.24758,0,0,0,0,1.76434l12.75206,12.752a2.2856,2.2856,0,0,0,3.23234,0h0a2.28561,2.28561,0,0,0,0-3.23234l-9.51972-9.51969A1.24758,1.24758,0,0,1,336.93066,104.86886Z" fill="#fff"/><path d="M385.9725,106.6332l-9.51972,9.51969a2.28561,2.28561,0,0,0,0,3.23234h0a2.28559,2.28559,0,0,0,3.23233,0l12.75207-12.752a1.24758,1.24758,0,0,0,0-1.76434l-12.75207-12.752a2.2856,2.2856,0,0,0-3.23233,0h0a2.28561,2.28561,0,0,0,0,3.23234l9.51972,9.51969A1.24758,1.24758,0,0,1,385.9725,106.6332Z" fill="#fff"/><circle cx="79.2474" cy="390.8928" r="24.6111" fill="none" stroke="#fff" stroke-miterlimit="10" stroke-width="4.0164"/><path d="M79.22515,366.2817s-18.20654,24.6111,0,49.22221" fill="none" stroke="#fff" stroke-miterlimit="10" stroke-width="4.0164"/><path d="M79.57091,415.50391s18.20654-24.61111,0-49.22221" fill="none" stroke="#fff" stroke-miterlimit="10" stroke-width="4.0164"/><path d="M59.47532,375.57107s20.07334,9.99325,38.55823-.57132" fill="none" stroke="#fff" stroke-miterlimit="10" stroke-width="4.0164"/><path d="M98.52652,405.37806s-20.07333-9.99325-38.55823.57132" fill="none" stroke="#fff" stroke-miterlimit="10" stroke-width="4.0164"/><line x1="103.85851" y1="390.8928" x2="54.6363" y2="390.8928" fill="none" stroke="#fff" stroke-miterlimit="10" stroke-width="4.0164"/><path d="M90.86591,189.51932a35.86481,35.86481,0,0,0-48.90757,52.31673L6.33671,284.5054l6.16634,5.14786,35.62164-42.66935a35.86481,35.86481,0,0,0,42.74122-57.46459Z" fill="url(#s)"/><rect x="23.72036" y="240.70889" width="11.12487" height="44.65603" rx="3.20511" transform="translate(175.3741 42.34883) rotate(39.85614)" fill="url(#t)"/><rect x="363.84543" y="415.92326" width="10.33521" height="10.33521" rx="5.1676" transform="translate(364.8369 -138.79367) rotate(40.80158)" fill="url(#u)"/><rect x="1.85495" y="385.7252" width="10.33521" height="10.33521" rx="5.1676" transform="translate(137.21091 22.25003) rotate(20.4802)" fill="url(#v)"/><rect x="7.50737" y="116.09422" width="10.33521" height="10.33521" rx="5.1676" transform="translate(89.45744 26.55418) rotate(44.99998)" fill="url(#w)"/><rect x="490.1636" y="174.87252" width="10.33521" height="10.33521" rx="5.1676" transform="translate(553.92375 -343.72925) rotate(76.40807)" fill="url(#x)"/><path d="M486.4359,409.28l-10.65318-3.23066a.54185.54185,0,0,1-.36128-.36128l-3.23066-10.65318a.54184.54184,0,0,0-1.03705,0L467.92308,405.688a.54185.54185,0,0,1-.36128.36128L456.90862,409.28a.54184.54184,0,0,0,0,1.037l10.65318,3.23066a.54184.54184,0,0,1,.36128.36127l3.23065,10.65319a.54185.54185,0,0,0,1.03705,0l3.23066-10.65319a.54184.54184,0,0,1,.36128-.36127L486.4359,410.317A.54184.54184,0,0,0,486.4359,409.28Z" fill="url(#y)"/><path d="M117.34094,50.00112l-10.65318-3.23066a.54184.54184,0,0,1-.36128-.36127L103.09582,35.756a.54184.54184,0,0,0-1.03705,0L98.82811,46.40919a.54183.54183,0,0,1-.36127.36127L87.81365,50.00112a.54185.54185,0,0,0,0,1.03705l10.65319,3.23066a.54184.54184,0,0,1,.36127.36128l3.23066,10.65318a.54184.54184,0,0,0,1.03705,0l3.23066-10.65318a.54185.54185,0,0,1,.36128-.36128l10.65318-3.23066A.54184.54184,0,0,0,117.34094,50.00112Z" fill="url(#z)"/><path d="M472.75759,97.08175l-10.65318-3.23066a.54183.54183,0,0,1-.36128-.36128l-3.23066-10.65318a.54184.54184,0,0,0-1.037,0l-3.23066,10.65318a.54183.54183,0,0,1-.36128.36128l-10.65318,3.23066a.54184.54184,0,0,0,0,1.037l10.65318,3.23066a.54185.54185,0,0,1,.36128.36128l3.23066,10.65318a.54184.54184,0,0,0,1.037,0l3.23066-10.65318a.54185.54185,0,0,1,.36128-.36128l10.65318-3.23066A.54184.54184,0,0,0,472.75759,97.08175Z" fill="url(#aa)"/><path d="M162.09769,449.96183l-10.65318-3.23066a.54185.54185,0,0,1-.36128-.36128l-3.23066-10.65318a.54184.54184,0,0,0-1.037,0l-3.23066,10.65318a.54185.54185,0,0,1-.36128.36128l-10.65318,3.23066a.54184.54184,0,0,0,0,1.037l10.65318,3.23066a.54184.54184,0,0,1,.36128.36127l3.23066,10.65318a.54184.54184,0,0,0,1.037,0l3.23066-10.65318a.54184.54184,0,0,1,.36128-.36127l10.65318-3.23066A.54184.54184,0,0,0,162.09769,449.96183Z" fill="url(#ab)"/><rect x="10.94447" y="243.29523" width="23.35085" height="55.945" rx="11.67541" transform="translate(179.10082 48.5312) rotate(39.85614)" fill="url(#ac)"/><circle cx="67.88019" cy="217.05277" r="30.44871" fill="url(#ad)"/><circle cx="67.88019" cy="217.05277" r="30.11129" fill="url(#ae)"/></svg>