<svg xmlns="http://www.w3.org/2000/svg" xmlns:xlink="http://www.w3.org/1999/xlink" viewBox="0 0 1920 3750.14196"><defs><linearGradient id="linear-gradient" x1="313.41044" y1="3927.71617" x2="105.07001" y2="73.4183" gradientUnits="userSpaceOnUse"><stop offset="0" stop-color="#81217e"/><stop offset="0.5" stop-color="#da4154"/><stop offset="1" stop-color="#e66e26"/></linearGradient><linearGradient id="linear-gradient-2" x1="382.37946" y1="3923.98811" x2="174.03903" y2="69.69024" xlink:href="#linear-gradient"/><linearGradient id="linear-gradient-3" x1="622.47135" y1="3911.01017" x2="414.13092" y2="56.7123" xlink:href="#linear-gradient"/><linearGradient id="linear-gradient-4" x1="209.65195" y1="3933.32474" x2="1.31153" y2="79.02686" xlink:href="#linear-gradient"/><linearGradient id="linear-gradient-5" x1="232.59693" y1="3932.08447" x2="24.25651" y2="77.78659" xlink:href="#linear-gradient"/><linearGradient id="linear-gradient-6" x1="345.99901" y1="3925.95463" x2="137.65858" y2="71.65675" xlink:href="#linear-gradient"/><linearGradient id="linear-gradient-7" x1="503.55293" y1="3917.4382" x2="295.2125" y2="63.14032" xlink:href="#linear-gradient"/><linearGradient id="linear-gradient-8" x1="112.7437" y1="3938.56302" x2="-95.59672" y2="84.26515" xlink:href="#linear-gradient"/><linearGradient id="linear-gradient-9" x1="214.33295" y1="3933.07171" x2="5.99253" y2="78.77384" xlink:href="#linear-gradient"/><linearGradient id="linear-gradient-10" x1="354.0453" y1="3925.51969" x2="145.70487" y2="71.22182" xlink:href="#linear-gradient"/><linearGradient id="linear-gradient-11" x1="216.01555" y1="3932.98076" x2="7.67512" y2="78.68289" xlink:href="#linear-gradient"/><linearGradient id="linear-gradient-12" x1="600.65381" y1="3912.1895" x2="392.31338" y2="57.89163" xlink:href="#linear-gradient"/><linearGradient id="linear-gradient-13" x1="390.30562" y1="3923.55967" x2="181.9652" y2="69.2618" xlink:href="#linear-gradient"/><linearGradient id="linear-gradient-14" x1="173.61698" y1="3935.27257" x2="-34.72345" y2="80.9747" xlink:href="#linear-gradient"/><linearGradient id="linear-gradient-15" x1="164.00497" y1="3935.79214" x2="-44.33546" y2="81.49427" xlink:href="#linear-gradient"/><linearGradient id="linear-gradient-16" x1="443.04389" y1="3920.70896" x2="234.70346" y2="66.41108" xlink:href="#linear-gradient"/><linearGradient id="linear-gradient-17" x1="292.42718" y1="3928.8504" x2="84.08675" y2="74.55253" xlink:href="#linear-gradient"/><linearGradient id="linear-gradient-18" x1="304.03857" y1="3928.22276" x2="95.69815" y2="73.92488" xlink:href="#linear-gradient"/><linearGradient id="linear-gradient-19" x1="488.07213" y1="3918.275" x2="279.73171" y2="63.97712" xlink:href="#linear-gradient"/></defs><title>bgleft</title><g id="Export"><g opacity="0"><rect width="1920" height="937" fill="#ff9f9f"/></g><g opacity="0"><rect y="937" width="1920" height="937" fill="#33ffa2"/></g><g opacity="0"><rect y="1874" width="1920" height="937" fill="#ff9f9f"/></g><g opacity="0"><rect y="2811" width="1920" height="937" fill="#33ffa2"/></g></g><g id="Details_1200" data-name="Details 1200"><g id="Left"><polyline points="0.008 466.438 175.547 437.45 241.286 256.756 117.366 107.703 0 127.284" fill="url(#linear-gradient)"/><polygon points="184.647 591.658 143.789 639.272 164.595 698.464 226.259 710.041 267.117 662.427 246.311 603.235 184.647 591.658" fill="url(#linear-gradient-2)"/><polygon points="449.274 183.337 409.096 175.794 382.474 206.818 396.031 245.385 436.209 252.928 462.831 221.904 449.274 183.337" fill="url(#linear-gradient-3)"/><polygon points="153.743 2731.073 171.539 2708.655 161.022 2682.035 132.71 2677.832 114.914 2700.249 125.431 2726.87 153.743 2731.073" fill="url(#linear-gradient-4)"/><polyline points="0.008 2032.664 180.566 2002.847 248.184 1816.987 120.721 1663.673 0 1683.814" fill="url(#linear-gradient-5)"/><polygon points="260.439 2068.674 215.855 2080.051 203.416 2124.35 235.561 2157.272 280.145 2145.895 292.584 2101.596 260.439 2068.674" fill="url(#linear-gradient-6)"/><polygon points="384.832 1624.171 343.691 1644.739 340.933 1690.653 379.316 1715.999 420.458 1695.43 423.216 1649.516 384.832 1624.171" fill="url(#linear-gradient-7)"/><polyline points="0.006 3603.934 131.549 3582.212 180.812 3446.805 87.95 3335.111 0 3349.784" fill="url(#linear-gradient-8)"/><polyline points="255.417 3749.179 258.709 3694.377 206.676 3660.019 150.905 3687.902 147.167 3750.142" fill="url(#linear-gradient-9)"/><polygon points="323.117 3243.792 276.62 3267.037 273.503 3318.927 316.883 3347.572 363.38 3324.326 366.497 3272.436 323.117 3243.792" fill="url(#linear-gradient-10)"/><circle cx="38.45283" cy="648.07052" r="4.92453" fill="url(#linear-gradient-11)"/><circle cx="496.09434" cy="1977.83934" r="7.37171" fill="url(#linear-gradient-12)"/><circle cx="368.39623" cy="3518.23585" r="5.21259" fill="url(#linear-gradient-13)"/><circle cx="129.98113" cy="3128.00943" r="13.24528" fill="url(#linear-gradient-14)"/><circle cx="69.30693" cy="2183.87834" r="5.21259" fill="url(#linear-gradient-15)"/><circle cx="381.99869" cy="2791.3727" r="5.21259" fill="url(#linear-gradient-16)"/><circle cx="217.07219" cy="2534.78312" r="11.43238" fill="url(#linear-gradient-17)"/><circle cx="175.15094" cy="1543.80161" r="7.37171" fill="url(#linear-gradient-18)"/><circle cx="282.15891" cy="108.88032" r="11.38166" fill="url(#linear-gradient-19)"/></g></g></svg>