<?xml version="1.0" encoding="utf-8"?>
<!-- Generator: Adobe Illustrator 21.0.0, SVG Export Plug-In . SVG Version: 6.00 Build 0)  -->
<svg version="1.1" xmlns="http://www.w3.org/2000/svg" xmlns:xlink="http://www.w3.org/1999/xlink" x="0px" y="0px"
	 viewBox="0 0 768 3748" style="enable-background:new 0 0 768 3748;" xml:space="preserve">
<style type="text/css">
	.st0{opacity:0;}
	.st1{fill:#FF9F9F;}
	.st2{fill:#33FFA2;}
	.st3{display:none;}
	.st4{display:inline;fill:url(#SVGID_1_);}
	.st5{display:inline;fill:url(#SVGID_2_);}
	.st6{display:inline;fill:url(#SVGID_3_);}
	.st7{display:inline;fill:url(#SVGID_4_);}
	.st8{display:inline;fill:url(#SVGID_5_);}
	.st9{display:inline;fill:url(#SVGID_6_);}
	.st10{display:inline;fill:url(#SVGID_7_);}
	.st11{display:inline;fill:url(#SVGID_8_);}
	.st12{display:inline;fill:url(#SVGID_9_);}
	.st13{display:inline;fill:url(#SVGID_10_);}
	.st14{fill:url(#SVGID_11_);}
	.st15{fill:url(#SVGID_12_);}
	.st16{fill:url(#SVGID_13_);}
	.st17{fill:url(#SVGID_14_);}
	.st18{fill:url(#SVGID_15_);}
	.st19{fill:url(#SVGID_16_);}
	.st20{fill:url(#SVGID_17_);}
	.st21{fill:url(#SVGID_18_);}
	.st22{fill:url(#SVGID_19_);}
	.st23{fill:url(#SVGID_20_);}
	.st24{fill:url(#SVGID_21_);}
	.st25{fill:url(#SVGID_22_);}
	.st26{fill:url(#SVGID_23_);}
</style>
<g id="Export">
	<g class="st0">
		<rect class="st1" width="768" height="937"/>
	</g>
	<g class="st0">
		<rect y="937" class="st2" width="768" height="937"/>
	</g>
	<g class="st0">
		<rect y="1874" class="st1" width="768" height="937"/>
	</g>
	<g class="st0">
		<rect y="2811" class="st2" width="768" height="937"/>
	</g>
</g>
<g id="Details">
	<g id="right" class="st3">
		<linearGradient id="SVGID_1_" gradientUnits="userSpaceOnUse" x1="705.7441" y1="1179.22" x2="828.0612" y2="860.9881">
			<stop  offset="0" style="stop-color:#B25853"/>
			<stop  offset="0.2188" style="stop-color:#BB6357"/>
			<stop  offset="1" style="stop-color:#D98764"/>
		</linearGradient>
		<polyline class="st4" points="862,724.3 745.9,743.5 672.4,945.6 811,1112.4 862,1103.9 		"/>
		
			<linearGradient id="SVGID_2_" gradientUnits="userSpaceOnUse" x1="-325.4346" y1="-116.4303" x2="-248.7599" y2="-116.4303" gradientTransform="matrix(-0.2121 -0.9772 0.9772 -0.2121 725.2645 777.1332)">
			<stop  offset="0" style="stop-color:#D56F63"/>
			<stop  offset="1" style="stop-color:#DC9B5C"/>
		</linearGradient>
		<polygon class="st5" points="686.7,1118.5 710.8,1088.1 696.5,1052 658.1,1046.3 634,1076.7 648.2,1112.8 		"/>
		
			<linearGradient id="SVGID_3_" gradientUnits="userSpaceOnUse" x1="77.6582" y1="141.7376" x2="127.7918" y2="141.7376" gradientTransform="matrix(0.2206 -0.9754 0.9754 0.2206 483.5688 685.0005)">
			<stop  offset="0" style="stop-color:#D56F63"/>
			<stop  offset="1" style="stop-color:#DC9B5C"/>
		</linearGradient>
		<polygon class="st6" points="643,641.4 665.7,630.1 667.2,604.7 646,590.7 623.3,602.1 621.8,627.4 		"/>
		
			<linearGradient id="SVGID_4_" gradientUnits="userSpaceOnUse" x1="-2140.9736" y1="1193.1749" x2="-1933.9819" y2="1193.1749" gradientTransform="matrix(0.9992 -3.933150e-02 3.933150e-02 0.9992 2702.9797 1513.5319)">
			<stop  offset="0" style="stop-color:#B25853"/>
			<stop  offset="0.2188" style="stop-color:#BB6357"/>
			<stop  offset="1" style="stop-color:#D98764"/>
		</linearGradient>
		<polygon class="st7" points="611.3,2806.9 680.8,2885.4 783.6,2864.4 816.8,2764.9 747.2,2686.4 644.4,2707.4 		"/>
		
			<linearGradient id="SVGID_5_" gradientUnits="userSpaceOnUse" x1="-1692.0604" y1="-310.9073" x2="-1635.5693" y2="-310.9073" gradientTransform="matrix(-0.2121 -0.9772 0.9772 -0.2121 725.2645 777.1332)">
			<stop  offset="0" style="stop-color:#D56F63"/>
			<stop  offset="1" style="stop-color:#DC9B5C"/>
		</linearGradient>
		<polygon class="st8" points="784.9,2495.7 802.7,2473.2 792.2,2446.6 763.9,2442.4 746.1,2464.8 756.6,2491.5 		"/>
		<linearGradient id="SVGID_6_" gradientUnits="userSpaceOnUse" x1="553.4337" y1="856.4778" x2="571.3205" y2="830.8929">
			<stop  offset="0" style="stop-color:#D56F63"/>
			<stop  offset="1" style="stop-color:#E8D061"/>
		</linearGradient>
		<circle class="st9" cx="564.5" cy="840.7" r="7.4"/>
		<linearGradient id="SVGID_7_" gradientUnits="userSpaceOnUse" x1="412.9141" y1="2670.3025" x2="428.6361" y2="2656.467">
			<stop  offset="0" style="stop-color:#D56F63"/>
			<stop  offset="1" style="stop-color:#E8D061"/>
		</linearGradient>
		<circle class="st10" cx="421.9" cy="2662.4" r="5.1"/>
		<linearGradient id="SVGID_8_" gradientUnits="userSpaceOnUse" x1="673.469" y1="2991.5886" x2="694.2992" y2="2960.3435">
			<stop  offset="0" style="stop-color:#D56F63"/>
			<stop  offset="1" style="stop-color:#E8D061"/>
		</linearGradient>
		<circle class="st11" cx="687.1" cy="2971.1" r="8.6"/>
		
			<linearGradient id="SVGID_9_" gradientUnits="userSpaceOnUse" x1="5273.6172" y1="-2125.1321" x2="5338.3618" y2="-2125.1321" gradientTransform="matrix(-0.2206 0.9754 -0.9754 -0.2206 -197.5176 -1896.85)">
			<stop  offset="0" style="stop-color:#D56F63"/>
			<stop  offset="1" style="stop-color:#DC9B5C"/>
		</linearGradient>
		<polyline class="st12" points="737,3771.5 739.2,3736.4 705.8,3714.3 670.1,3732.2 667.7,3772.1 		"/>
	</g>
	<g id="left">
		<linearGradient id="SVGID_10_" gradientUnits="userSpaceOnUse" x1="-77.9564" y1="299.0491" x2="69.6251" y2="233.4573">
			<stop  offset="0" style="stop-color:#B25853"/>
			<stop  offset="0.2188" style="stop-color:#BB6357"/>
			<stop  offset="1" style="stop-color:#D98764"/>
		</linearGradient>
		<polyline style="fill:url(#SVGID_10_);" points="-39.9,405.4 10.4,397.1 60.9,258.3 -34.3,143.9 -39.9,144.8 		"/>
		
			<linearGradient id="SVGID_11_" gradientUnits="userSpaceOnUse" x1="2437.3608" y1="-474.6418" x2="2513.9746" y2="-474.6418" gradientTransform="matrix(0.1747 0.9846 -0.9846 0.1747 -849.2759 -1707.8699)">
			<stop  offset="0" style="stop-color:#D56F63"/>
			<stop  offset="1" style="stop-color:#DC9B5C"/>
		</linearGradient>
		<polygon class="st14" points="37.6,610.2 12.3,639.7 25.2,676.3 63.3,683.5 88.6,654 75.7,617.4 		"/>
		
			<linearGradient id="SVGID_12_" gradientUnits="userSpaceOnUse" x1="1704.5786" y1="-1100.375" x2="1751.347" y2="-1100.375" gradientTransform="matrix(-0.7654 0.6436 -0.6436 -0.7654 745.0479 -1774.9161)">
			<stop  offset="0" style="stop-color:#D56F63"/>
			<stop  offset="1" style="stop-color:#DC9B5C"/>
		</linearGradient>
		<polygon class="st15" points="146.1,161.4 122.8,157 107.4,175 115.2,197.3 138.5,201.7 153.9,183.7 		"/>
		
			<linearGradient id="SVGID_13_" gradientUnits="userSpaceOnUse" x1="-1777.6119" y1="-1026.5222" x2="-1721.1208" y2="-1026.5222" gradientTransform="matrix(-0.2121 -0.9772 0.9772 -0.2121 725.2645 777.1332)">
			<stop  offset="0" style="stop-color:#D56F63"/>
			<stop  offset="1" style="stop-color:#DC9B5C"/>
		</linearGradient>
		<polygon class="st16" points="103.7,2731.1 121.5,2708.7 111,2682 82.7,2677.8 64.9,2700.2 75.4,2726.9 		"/>
		
			<linearGradient id="SVGID_14_" gradientUnits="userSpaceOnUse" x1="157.6078" y1="-2856.5476" x2="252.004" y2="-3102.1377" gradientTransform="matrix(-1 0 0 -1 286.0511 -1211.8496)">
			<stop  offset="0" style="stop-color:#B25853"/>
			<stop  offset="0.2188" style="stop-color:#BB6357"/>
			<stop  offset="1" style="stop-color:#D98764"/>
		</linearGradient>
		<polyline class="st17" points="-0.5,1992.6 105.4,1975.1 160.3,1824.3 56.9,1700 -0.5,1709.6 		"/>
		
			<linearGradient id="SVGID_15_" gradientUnits="userSpaceOnUse" x1="3621.0291" y1="-1233.1708" x2="3673.4636" y2="-1233.1708" gradientTransform="matrix(-0.4225 0.9064 -0.9064 -0.4225 592.2489 -1787.7719)">
			<stop  offset="0" style="stop-color:#D56F63"/>
			<stop  offset="1" style="stop-color:#DC9B5C"/>
		</linearGradient>
		<polygon class="st18" points="176.2,2013.4 150.4,2020 143.3,2045.5 161.8,2064.6 187.6,2058 194.7,2032.4 		"/>
		
			<linearGradient id="SVGID_16_" gradientUnits="userSpaceOnUse" x1="215.7076" y1="-4511.9707" x2="293.4188" y2="-4714.1514" gradientTransform="matrix(-1 0 0 -1 286.0511 -1211.8496)">
			<stop  offset="0" style="stop-color:#B25853"/>
			<stop  offset="0.2188" style="stop-color:#BB6357"/>
			<stop  offset="1" style="stop-color:#D98764"/>
		</linearGradient>
		<polyline class="st19" points="-30.5,3588.5 46.3,3575.9 92.7,3448.4 5.3,3343.3 -30.5,3349.2 		"/>
		<linearGradient id="SVGID_17_" gradientUnits="userSpaceOnUse" x1="422.3175" y1="1976.9248" x2="466.4684" y2="1978.6229">
			<stop  offset="0" style="stop-color:#D56F63"/>
			<stop  offset="1" style="stop-color:#E8D061"/>
		</linearGradient>
		<circle class="st20" cx="446.1" cy="1977.8" r="7.4"/>
		<linearGradient id="SVGID_18_" gradientUnits="userSpaceOnUse" x1="304.6806" y1="3527.7671" x2="331.3976" y2="3509.2009">
			<stop  offset="0" style="stop-color:#D56F63"/>
			<stop  offset="1" style="stop-color:#E8D061"/>
		</linearGradient>
		<circle class="st21" cx="318.4" cy="3518.2" r="5.2"/>
		<linearGradient id="SVGID_19_" gradientUnits="userSpaceOnUse" x1="18.7789" y1="3148.6067" x2="62.4025" y2="3147.3779">
			<stop  offset="0" style="stop-color:#D56F63"/>
			<stop  offset="1" style="stop-color:#E8D061"/>
		</linearGradient>
		<circle class="st22" cx="40" cy="3148" r="6"/>
		<linearGradient id="SVGID_20_" gradientUnits="userSpaceOnUse" x1="14.6795" y1="2190.5435" x2="23.9342" y2="2177.2134">
			<stop  offset="0" style="stop-color:#D56F63"/>
			<stop  offset="1" style="stop-color:#E8D061"/>
		</linearGradient>
		<circle class="st23" cx="19.3" cy="2183.9" r="5.2"/>
		<linearGradient id="SVGID_21_" gradientUnits="userSpaceOnUse" x1="327.3713" y1="2798.0378" x2="336.626" y2="2784.7078">
			<stop  offset="0" style="stop-color:#D56F63"/>
			<stop  offset="1" style="stop-color:#E8D061"/>
		</linearGradient>
		<circle class="st24" cx="332" cy="2791.4" r="5.2"/>
		<linearGradient id="SVGID_22_" gradientUnits="userSpaceOnUse" x1="116.8156" y1="1554.8336" x2="132.2119" y2="1534.4563">
			<stop  offset="0" style="stop-color:#D56F63"/>
			<stop  offset="1" style="stop-color:#E8D061"/>
		</linearGradient>
		<circle class="st25" cx="125.2" cy="1543.8" r="7.4"/>
	</g>
</g>
</svg>
