<svg xmlns="http://www.w3.org/2000/svg" xmlns:xlink="http://www.w3.org/1999/xlink" width="1920" height="3748" viewBox="0 0 1920 3748"><defs><linearGradient id="a" x1="313.41044" y1="3927.71617" x2="105.07001" y2="73.4183" gradientUnits="userSpaceOnUse"><stop offset="0" stop-color="#81217e"/><stop offset="0.5" stop-color="#da4154"/><stop offset="1" stop-color="#e66e26"/></linearGradient><linearGradient id="b" x1="382.37946" y1="3923.98811" x2="174.03903" y2="69.69024" xlink:href="#a"/><linearGradient id="c" x1="622.47135" y1="3911.01017" x2="414.13092" y2="56.7123" xlink:href="#a"/><linearGradient id="d" x1="209.65195" y1="3933.32474" x2="1.31153" y2="79.02686" xlink:href="#a"/><linearGradient id="e" x1="232.59693" y1="3932.08447" x2="24.25651" y2="77.78659" xlink:href="#a"/><linearGradient id="f" x1="345.99901" y1="3925.95463" x2="137.65858" y2="71.65675" xlink:href="#a"/><linearGradient id="g" x1="503.55293" y1="3917.4382" x2="295.2125" y2="63.14032" xlink:href="#a"/><linearGradient id="h" x1="112.7437" y1="3938.56302" x2="-95.59672" y2="84.26515" xlink:href="#a"/><linearGradient id="i" x1="214.33295" y1="3933.07171" x2="5.99253" y2="78.77384" xlink:href="#a"/><linearGradient id="j" x1="354.0453" y1="3925.51969" x2="145.70487" y2="71.22182" xlink:href="#a"/><linearGradient id="k" x1="216.01555" y1="3932.98076" x2="7.67512" y2="78.68289" xlink:href="#a"/><linearGradient id="l" x1="600.65381" y1="3912.1895" x2="392.31338" y2="57.89163" xlink:href="#a"/><linearGradient id="m" x1="390.30562" y1="3923.55967" x2="181.9652" y2="69.2618" xlink:href="#a"/><linearGradient id="n" x1="173.61698" y1="3935.27257" x2="-34.72345" y2="80.9747" xlink:href="#a"/><linearGradient id="o" x1="164.00497" y1="3935.79214" x2="-44.33546" y2="81.49427" xlink:href="#a"/><linearGradient id="p" x1="443.04389" y1="3920.70896" x2="234.70346" y2="66.41108" xlink:href="#a"/><linearGradient id="q" x1="292.42718" y1="3928.8504" x2="84.08675" y2="74.55253" xlink:href="#a"/><linearGradient id="r" x1="304.03857" y1="3928.22276" x2="95.69815" y2="73.92488" xlink:href="#a"/><linearGradient id="s" x1="488.07213" y1="3918.275" x2="279.73171" y2="63.97712" xlink:href="#a"/><linearGradient id="t" x1="-10.36319" y1="281.03903" x2="243.93468" y2="303.2518" gradientUnits="userSpaceOnUse"><stop offset="0" stop-color="#4a4a93"/><stop offset="1" stop-color="#fcee6b"/></linearGradient><linearGradient id="u" x1="138.68486" y1="632.73414" x2="270.42955" y2="668.47882" xlink:href="#t"/><linearGradient id="v" x1="379.71406" y1="203.90779" x2="470.60767" y2="226.03545" xlink:href="#t"/><linearGradient id="w" x1="116.4505" y1="2709.51798" x2="173.13135" y2="2698.79457" xlink:href="#t"/><linearGradient id="x" x1="-7.54453" y1="1860.46511" x2="243.17888" y2="1816.55021" xlink:href="#t"/><linearGradient id="y" x1="201.27552" y1="2126.98175" x2="294.3819" y2="2099.06686" xlink:href="#t"/><linearGradient id="z" x1="334.54362" y1="1688.72956" x2="426.96915" y2="1652.47425" xlink:href="#t"/><linearGradient id="aa" x1="-13.57946" y1="3482.992" x2="178.76097" y2="3441.80051" xlink:href="#t"/><linearGradient id="ab" x1="135.45684" y1="3753.9354" x2="262.43557" y2="3687.55242" xlink:href="#t"/><linearGradient id="ac" x1="270.63238" y1="3305.70745" x2="369.95153" y2="3285.53724" xlink:href="#t"/><linearGradient id="ad" x1="31.69625" y1="645.26085" x2="44.58986" y2="650.62255" xlink:href="#t"/><linearGradient id="ae" x1="487.40132" y1="1979.84542" x2="505.10344" y2="1975.76032" xlink:href="#t"/><linearGradient id="af" x1="361.71724" y1="3519.92673" x2="375.16405" y2="3516.52248" xlink:href="#t"/><linearGradient id="ag" x1="115.51678" y1="3130.91522" x2="144.11253" y2="3125.17054" xlink:href="#t"/><linearGradient id="ah" x1="63.56323" y1="2185.033" x2="75.9462" y2="2182.54364" xlink:href="#t"/><linearGradient id="ai" x1="375.95446" y1="2792.37083" x2="389.86936" y2="2790.07295" xlink:href="#t"/><linearGradient id="aj" x1="204.37563" y1="2537.33552" x2="229.14159" y2="2532.3568" xlink:href="#t"/><linearGradient id="ak" x1="165.89238" y1="1539.64712" x2="185.80728" y2="1548.58329" xlink:href="#t"/><linearGradient id="al" x1="269.69389" y1="109.73857" x2="295.65134" y2="107.95133" xlink:href="#t"/></defs><title>bgleft</title><g style="isolation:isolate"><g opacity="0"><rect width="1920" height="937" fill="#ff9f9f"/></g><g opacity="0"><rect y="937" width="1920" height="937" fill="#33ffa2"/></g><g opacity="0"><rect y="1874" width="1920" height="937" fill="#ff9f9f"/></g><g opacity="0"><rect y="2811" width="1920" height="937" fill="#33ffa2"/></g><polyline points="0.008 466.438 175.547 437.45 241.286 256.756 117.366 107.703 0 127.284" fill="url(#a)"/><polygon points="184.647 591.658 143.789 639.272 164.595 698.464 226.259 710.041 267.117 662.427 246.311 603.235 184.647 591.658" fill="url(#b)"/><polygon points="449.274 183.337 409.096 175.794 382.474 206.818 396.031 245.385 436.209 252.928 462.831 221.904 449.274 183.337" fill="url(#c)"/><polygon points="153.743 2731.073 171.539 2708.655 161.022 2682.035 132.71 2677.832 114.914 2700.249 125.431 2726.87 153.743 2731.073" fill="url(#d)"/><polyline points="0.008 2032.664 180.566 2002.847 248.184 1816.987 120.721 1663.673 0 1683.814" fill="url(#e)"/><polygon points="260.439 2068.674 215.855 2080.051 203.416 2124.35 235.561 2157.272 280.145 2145.895 292.584 2101.596 260.439 2068.674" fill="url(#f)"/><polygon points="384.832 1624.171 343.691 1644.739 340.933 1690.653 379.316 1715.999 420.458 1695.43 423.216 1649.516 384.832 1624.171" fill="url(#g)"/><polyline points="0.006 3603.934 131.549 3582.212 180.812 3446.805 87.95 3335.111 0 3349.784" fill="url(#h)"/><polyline points="255.417 3749.179 258.709 3694.377 206.676 3660.019 150.905 3687.902 147.167 3750.142" fill="url(#i)"/><polygon points="323.117 3243.792 276.62 3267.037 273.503 3318.927 316.883 3347.572 363.38 3324.326 366.497 3272.436 323.117 3243.792" fill="url(#j)"/><circle cx="38.45283" cy="648.07052" r="4.92453" fill="url(#k)"/><circle cx="496.09434" cy="1977.83934" r="7.37171" fill="url(#l)"/><circle cx="368.39623" cy="3518.23585" r="5.21259" fill="url(#m)"/><circle cx="129.98113" cy="3128.00943" r="13.24528" fill="url(#n)"/><circle cx="69.30693" cy="2183.87834" r="5.21259" fill="url(#o)"/><circle cx="381.99869" cy="2791.3727" r="5.21259" fill="url(#p)"/><circle cx="217.07219" cy="2534.78312" r="11.43238" fill="url(#q)"/><circle cx="175.15094" cy="1543.80161" r="7.37171" fill="url(#r)"/><circle cx="282.15891" cy="108.88032" r="11.38166" fill="url(#s)"/><polyline points="0.008 466.438 175.547 437.45 241.286 256.756 117.366 107.703 0 127.284" opacity="0.3" fill="url(#t)" style="mix-blend-mode:hard-light"/><polygon points="184.647 591.658 143.789 639.272 164.595 698.464 226.259 710.041 267.117 662.427 246.311 603.235 184.647 591.658" opacity="0.3" fill="url(#u)" style="mix-blend-mode:hard-light"/><polygon points="449.274 183.337 409.096 175.794 382.474 206.818 396.031 245.385 436.209 252.928 462.831 221.904 449.274 183.337" opacity="0.3" fill="url(#v)" style="mix-blend-mode:hard-light"/><polygon points="153.743 2731.073 171.539 2708.655 161.022 2682.035 132.71 2677.832 114.914 2700.249 125.431 2726.87 153.743 2731.073" opacity="0.3" fill="url(#w)" style="mix-blend-mode:hard-light"/><polyline points="0.008 2032.664 180.566 2002.847 248.184 1816.987 120.721 1663.673 0 1683.814" opacity="0.3" fill="url(#x)" style="mix-blend-mode:hard-light"/><polygon points="260.439 2068.674 215.855 2080.051 203.416 2124.35 235.561 2157.272 280.145 2145.895 292.584 2101.596 260.439 2068.674" opacity="0.3" fill="url(#y)" style="mix-blend-mode:hard-light"/><polygon points="384.832 1624.171 343.691 1644.739 340.933 1690.653 379.316 1715.999 420.458 1695.43 423.216 1649.516 384.832 1624.171" opacity="0.3" fill="url(#z)" style="mix-blend-mode:hard-light"/><polyline points="0.006 3603.934 131.549 3582.212 180.812 3446.805 87.95 3335.111 0 3349.784" opacity="0.3" fill="url(#aa)" style="mix-blend-mode:hard-light"/><polyline points="255.417 3749.179 258.709 3694.377 206.676 3660.019 150.905 3687.902 147.167 3750.142" opacity="0.3" fill="url(#ab)" style="mix-blend-mode:hard-light"/><polygon points="323.117 3243.792 276.62 3267.037 273.503 3318.927 316.883 3347.572 363.38 3324.326 366.497 3272.436 323.117 3243.792" opacity="0.3" fill="url(#ac)" style="mix-blend-mode:hard-light"/><circle cx="38.45283" cy="648.07052" r="4.92453" opacity="0.3" fill="url(#ad)" style="mix-blend-mode:hard-light"/><circle cx="496.09434" cy="1977.83934" r="7.37171" opacity="0.3" fill="url(#ae)" style="mix-blend-mode:hard-light"/><circle cx="368.39623" cy="3518.23585" r="5.21259" opacity="0.3" fill="url(#af)" style="mix-blend-mode:hard-light"/><circle cx="129.98113" cy="3128.00943" r="13.24528" opacity="0.3" fill="url(#ag)" style="mix-blend-mode:hard-light"/><circle cx="69.30693" cy="2183.87834" r="5.21259" opacity="0.3" fill="url(#ah)" style="mix-blend-mode:hard-light"/><circle cx="381.99869" cy="2791.3727" r="5.21259" opacity="0.3" fill="url(#ai)" style="mix-blend-mode:hard-light"/><circle cx="217.07219" cy="2534.78312" r="11.43238" opacity="0.3" fill="url(#aj)" style="mix-blend-mode:hard-light"/><circle cx="175.15094" cy="1543.80161" r="7.37171" opacity="0.3" fill="url(#ak)" style="mix-blend-mode:hard-light"/><circle cx="282.15891" cy="108.88032" r="11.38166" opacity="0.3" fill="url(#al)" style="mix-blend-mode:hard-light"/></g></svg>