<?xml version="1.0" encoding="utf-8"?>
<!-- Generator: Adobe Illustrator 21.0.0, SVG Export Plug-In . SVG Version: 6.00 Build 0)  -->
<svg version="1.1" xmlns="http://www.w3.org/2000/svg" xmlns:xlink="http://www.w3.org/1999/xlink" x="0px" y="0px"
	 viewBox="0 0 992 3748" style="enable-background:new 0 0 992 3748;" xml:space="preserve">
<style type="text/css">
	.st0{opacity:0;}
	.st1{fill:#FF9F9F;}
	.st2{fill:#33FFA2;}
	.st3{display:none;}
	.st4{display:inline;fill:url(#SVGID_1_);}
	.st5{display:inline;fill:url(#SVGID_2_);}
	.st6{display:inline;fill:url(#SVGID_3_);}
	.st7{display:inline;fill:url(#SVGID_4_);}
	.st8{display:inline;fill:url(#SVGID_5_);}
	.st9{display:inline;fill:url(#SVGID_6_);}
	.st10{display:inline;fill:url(#SVGID_7_);}
	.st11{display:inline;fill:url(#SVGID_8_);}
	.st12{display:inline;fill:url(#SVGID_9_);}
	.st13{display:inline;fill:url(#SVGID_10_);}
	.st14{display:inline;fill:url(#SVGID_11_);}
	.st15{fill:url(#SVGID_12_);}
	.st16{fill:url(#SVGID_13_);}
	.st17{fill:url(#SVGID_14_);}
	.st18{fill:url(#SVGID_15_);}
	.st19{fill:url(#SVGID_16_);}
	.st20{fill:url(#SVGID_17_);}
	.st21{fill:url(#SVGID_18_);}
	.st22{fill:url(#SVGID_19_);}
	.st23{fill:url(#SVGID_20_);}
	.st24{fill:url(#SVGID_21_);}
	.st25{fill:url(#SVGID_22_);}
	.st26{fill:url(#SVGID_23_);}
	.st27{fill:url(#SVGID_24_);}
	.st28{fill:url(#SVGID_25_);}
	.st29{fill:url(#SVGID_26_);}
	.st30{fill:url(#SVGID_27_);}
	.st31{fill:url(#SVGID_28_);}
</style>
<g id="Export">
	<g class="st0">
		<rect class="st1" width="992" height="937"/>
	</g>
	<g class="st0">
		<rect y="937" class="st2" width="992" height="937"/>
	</g>
	<g class="st0">
		<rect y="1874" class="st1" width="992" height="937"/>
	</g>
	<g class="st0">
		<rect y="2811" class="st2" width="992" height="937"/>
	</g>
</g>
<g id="Details">
	<g id="right" class="st3">
		<linearGradient id="SVGID_1_" gradientUnits="userSpaceOnUse" x1="835.7441" y1="1179.22" x2="958.0612" y2="860.9881">
			<stop  offset="0" style="stop-color:#B25853"/>
			<stop  offset="0.2188" style="stop-color:#BB6357"/>
			<stop  offset="1" style="stop-color:#D98764"/>
		</linearGradient>
		<polyline class="st4" points="992,724.3 875.9,743.5 802.4,945.6 941,1112.4 992,1103.9 		"/>
		
			<linearGradient id="SVGID_2_" gradientUnits="userSpaceOnUse" x1="-217.2532" y1="-98.8401" x2="-140.5785" y2="-98.8401" gradientTransform="matrix(-0.2121 -0.9772 0.9772 -0.2121 861.0247 886.5839)">
			<stop  offset="0" style="stop-color:#D56F63"/>
			<stop  offset="1" style="stop-color:#DC9B5C"/>
		</linearGradient>
		<polygon class="st5" points="816.7,1118.5 840.8,1088.1 826.5,1052 788.1,1046.3 764,1076.7 778.2,1112.8 		"/>
		
			<linearGradient id="SVGID_3_" gradientUnits="userSpaceOnUse" x1="167.1679" y1="246.2756" x2="217.3016" y2="246.2756" gradientTransform="matrix(0.2206 -0.9754 0.9754 0.2206 570.8585 794.2406)">
			<stop  offset="0" style="stop-color:#D56F63"/>
			<stop  offset="1" style="stop-color:#DC9B5C"/>
		</linearGradient>
		<polygon class="st6" points="852,686.4 874.7,675.1 876.2,649.7 855,635.7 832.3,647.1 830.8,672.4 		"/>
		
			<linearGradient id="SVGID_4_" gradientUnits="userSpaceOnUse" x1="-2093.0427" y1="1242.6643" x2="-1785.8275" y2="1242.6643" gradientTransform="matrix(0.9992 -3.933150e-02 3.933150e-02 0.9992 2703.0664 1517.937)">
			<stop  offset="0" style="stop-color:#B25853"/>
			<stop  offset="0.2188" style="stop-color:#BB6357"/>
			<stop  offset="1" style="stop-color:#D98764"/>
		</linearGradient>
		<polygon class="st7" points="661.5,2867.1 764.8,2983.6 917.3,2952.4 966.5,2804.7 863.2,2688.3 710.7,2719.5 		"/>
		
			<linearGradient id="SVGID_5_" gradientUnits="userSpaceOnUse" x1="-1641.2267" y1="-264.8347" x2="-1584.7356" y2="-264.8347" gradientTransform="matrix(-0.2121 -0.9772 0.9772 -0.2121 861.0247 886.5839)">
			<stop  offset="0" style="stop-color:#D56F63"/>
			<stop  offset="1" style="stop-color:#DC9B5C"/>
		</linearGradient>
		<polygon class="st8" points="954.9,2545.7 972.7,2523.2 962.2,2496.6 933.9,2492.4 916.1,2514.8 926.6,2541.5 		"/>
		
			<linearGradient id="SVGID_6_" gradientUnits="userSpaceOnUse" x1="4542.7173" y1="-1914.2238" x2="4611.0996" y2="-1914.2238" gradientTransform="matrix(0.2121 0.9772 -0.9772 0.2121 -1857.6388 -952.93)">
			<stop  offset="0" style="stop-color:#D56F63"/>
			<stop  offset="1" style="stop-color:#DC9B5C"/>
		</linearGradient>
		<polyline class="st9" points="992,3077.1 991.6,3077.1 966.8,3108.3 981.5,3145.4 992,3147 		"/>
		<linearGradient id="SVGID_7_" gradientUnits="userSpaceOnUse" x1="683.4337" y1="856.4778" x2="701.3205" y2="830.8929">
			<stop  offset="0" style="stop-color:#D56F63"/>
			<stop  offset="1" style="stop-color:#E8D061"/>
		</linearGradient>
		<circle class="st10" cx="694.5" cy="840.7" r="7.4"/>
		<linearGradient id="SVGID_8_" gradientUnits="userSpaceOnUse" x1="936.5941" y1="1265.0157" x2="953.4054" y2="1250.6666">
			<stop  offset="0" style="stop-color:#D56F63"/>
			<stop  offset="1" style="stop-color:#E8D061"/>
		</linearGradient>
		<circle class="st11" cx="944.7" cy="1258.1" r="7.4"/>
		<linearGradient id="SVGID_9_" gradientUnits="userSpaceOnUse" x1="562.9141" y1="2740.3025" x2="578.6362" y2="2726.467">
			<stop  offset="0" style="stop-color:#D56F63"/>
			<stop  offset="1" style="stop-color:#E8D061"/>
		</linearGradient>
		<circle class="st12" cx="571.9" cy="2732.4" r="5.1"/>
		<linearGradient id="SVGID_10_" gradientUnits="userSpaceOnUse" x1="741.469" y1="3159.5886" x2="762.2992" y2="3128.3435">
			<stop  offset="0" style="stop-color:#D56F63"/>
			<stop  offset="1" style="stop-color:#E8D061"/>
		</linearGradient>
		<circle class="st13" cx="755.1" cy="3139.1" r="8.6"/>
		
			<linearGradient id="SVGID_11_" gradientUnits="userSpaceOnUse" x1="5318.4678" y1="-2217.4055" x2="5409.9189" y2="-2217.4055" gradientTransform="matrix(-0.2206 0.9754 -0.9754 -0.2206 -60.8073 -2006.0901)">
			<stop  offset="0" style="stop-color:#D56F63"/>
			<stop  offset="1" style="stop-color:#DC9B5C"/>
		</linearGradient>
		<polyline class="st14" points="964.3,3749.4 967.3,3699.7 920.2,3668.6 869.7,3693.9 866.3,3750.2 		"/>
	</g>
	<g id="left">
		<linearGradient id="SVGID_12_" gradientUnits="userSpaceOnUse" x1="-119.5074" y1="309.7603" x2="72.6546" y2="224.355">
			<stop  offset="0" style="stop-color:#B25853"/>
			<stop  offset="0.2188" style="stop-color:#BB6357"/>
			<stop  offset="1" style="stop-color:#D98764"/>
		</linearGradient>
		<polyline class="st15" points="-70,448.3 -4.5,437.4 61.3,256.8 -62.6,107.7 -70,108.9 		"/>
		
			<linearGradient id="SVGID_13_" gradientUnits="userSpaceOnUse" x1="2505.7634" y1="-339.0489" x2="2629.5942" y2="-339.0489" gradientTransform="matrix(0.1747 0.9846 -0.9846 0.1747 -756.8371 -1818.1484)">
			<stop  offset="0" style="stop-color:#D56F63"/>
			<stop  offset="1" style="stop-color:#DC9B5C"/>
		</linearGradient>
		<polygon class="st16" points="4.6,591.7 -36.2,639.3 -15.4,698.5 46.3,710 87.1,662.4 66.3,603.2 		"/>
		
			<linearGradient id="SVGID_14_" gradientUnits="userSpaceOnUse" x1="1832.932" y1="-1086.182" x2="1896.2911" y2="-1086.182" gradientTransform="matrix(-0.7654 0.6436 -0.6436 -0.7654 942.7714 -1846.9958)">
			<stop  offset="0" style="stop-color:#D56F63"/>
			<stop  offset="1" style="stop-color:#DC9B5C"/>
		</linearGradient>
		<polygon class="st17" points="235.6,160 204,154.1 183.1,178.4 193.7,208.7 225.3,214.6 246.2,190.3 		"/>
		
			<linearGradient id="SVGID_15_" gradientUnits="userSpaceOnUse" x1="-1641.8518" y1="-1135.9729" x2="-1585.3607" y2="-1135.9729" gradientTransform="matrix(-0.2121 -0.9772 0.9772 -0.2121 861.0247 886.5839)">
			<stop  offset="0" style="stop-color:#D56F63"/>
			<stop  offset="1" style="stop-color:#DC9B5C"/>
		</linearGradient>
		<polygon class="st18" points="103.7,2731.1 121.5,2708.7 111,2682 82.7,2677.8 64.9,2700.2 75.4,2726.9 		"/>
		
			<linearGradient id="SVGID_16_" gradientUnits="userSpaceOnUse" x1="361.7505" y1="-2824.8281" x2="470.326" y2="-3107.3086" gradientTransform="matrix(-1 0 0 -1 510.0511 -1211.8496)">
			<stop  offset="0" style="stop-color:#B25853"/>
			<stop  offset="0.2188" style="stop-color:#BB6357"/>
			<stop  offset="1" style="stop-color:#D98764"/>
		</linearGradient>
		<polyline class="st19" points="0,2013.1 121.8,1993 184.9,1819.6 66,1676.6 0,1687.6 		"/>
		
			<linearGradient id="SVGID_17_" gradientUnits="userSpaceOnUse" x1="3837.1943" y1="-1133.9875" x2="3899.543" y2="-1133.9875" gradientTransform="matrix(-0.4225 0.9064 -0.9064 -0.4225 751.5686 -1889.2847)">
			<stop  offset="0" style="stop-color:#D56F63"/>
			<stop  offset="1" style="stop-color:#DC9B5C"/>
		</linearGradient>
		<polygon class="st20" points="153.5,2065.6 122.9,2073.4 114.4,2103.8 136.5,2126.4 167.1,2118.6 175.6,2088.2 		"/>
		
			<linearGradient id="SVGID_18_" gradientUnits="userSpaceOnUse" x1="3477.0303" y1="-1169.8816" x2="3531.8147" y2="-1169.8816" gradientTransform="matrix(-0.2206 0.9754 -0.9754 -0.2206 -60.8073 -2006.0901)">
			<stop  offset="0" style="stop-color:#D56F63"/>
			<stop  offset="1" style="stop-color:#DC9B5C"/>
		</linearGradient>
		<polygon class="st21" points="308.7,1642.4 283.9,1654.8 282.2,1682.5 305.4,1697.8 330.2,1685.4 331.9,1657.7 		"/>
		
			<linearGradient id="SVGID_19_" gradientUnits="userSpaceOnUse" x1="437.7076" y1="-4511.9707" x2="515.4188" y2="-4714.1514" gradientTransform="matrix(-1 0 0 -1 510.0511 -1211.8496)">
			<stop  offset="0" style="stop-color:#B25853"/>
			<stop  offset="0.2188" style="stop-color:#BB6357"/>
			<stop  offset="1" style="stop-color:#D98764"/>
		</linearGradient>
		<polyline class="st22" points="-28.5,3588.5 48.3,3575.9 94.7,3448.4 7.3,3343.3 -28.5,3349.2 		"/>
		
			<linearGradient id="SVGID_20_" gradientUnits="userSpaceOnUse" x1="5138.4092" y1="-1345.3256" x2="5190.0142" y2="-1345.3256" gradientTransform="matrix(-0.2206 0.9754 -0.9754 -0.2206 -60.8073 -2006.0901)">
			<stop  offset="0" style="stop-color:#D56F63"/>
			<stop  offset="1" style="stop-color:#DC9B5C"/>
		</linearGradient>
		<polygon class="st23" points="113.6,3301.6 90.2,3313.3 88.6,3339.4 110.4,3353.8 133.8,3342.1 135.4,3316 		"/>
		<linearGradient id="SVGID_21_" gradientUnits="userSpaceOnUse" x1="422.3175" y1="1976.9248" x2="466.4684" y2="1978.6229">
			<stop  offset="0" style="stop-color:#D56F63"/>
			<stop  offset="1" style="stop-color:#E8D061"/>
		</linearGradient>
		<circle class="st24" cx="446.1" cy="1977.8" r="7.4"/>
		<linearGradient id="SVGID_22_" gradientUnits="userSpaceOnUse" x1="276.6806" y1="3527.7671" x2="303.3976" y2="3509.2009">
			<stop  offset="0" style="stop-color:#D56F63"/>
			<stop  offset="1" style="stop-color:#E8D061"/>
		</linearGradient>
		<circle class="st25" cx="290.4" cy="3518.2" r="5.2"/>
		<linearGradient id="SVGID_23_" gradientUnits="userSpaceOnUse" x1="10.1611" y1="3137.9058" x2="75.6309" y2="3136.0615">
			<stop  offset="0" style="stop-color:#D56F63"/>
			<stop  offset="1" style="stop-color:#E8D061"/>
		</linearGradient>
		<circle class="st26" cx="42" cy="3137" r="9"/>
		<linearGradient id="SVGID_24_" gradientUnits="userSpaceOnUse" x1="14.6795" y1="2190.5435" x2="23.9342" y2="2177.2134">
			<stop  offset="0" style="stop-color:#D56F63"/>
			<stop  offset="1" style="stop-color:#E8D061"/>
		</linearGradient>
		<circle class="st27" cx="19.3" cy="2183.9" r="5.2"/>
		<linearGradient id="SVGID_25_" gradientUnits="userSpaceOnUse" x1="327.3713" y1="2798.0378" x2="336.626" y2="2784.7078">
			<stop  offset="0" style="stop-color:#D56F63"/>
			<stop  offset="1" style="stop-color:#E8D061"/>
		</linearGradient>
		<circle class="st28" cx="332" cy="2791.4" r="5.2"/>
		<linearGradient id="SVGID_26_" gradientUnits="userSpaceOnUse" x1="156.9232" y1="2549.4014" x2="177.2209" y2="2520.1653">
			<stop  offset="0" style="stop-color:#D56F63"/>
			<stop  offset="1" style="stop-color:#E8D061"/>
		</linearGradient>
		<circle class="st29" cx="167.1" cy="2534.8" r="11.4"/>
		<linearGradient id="SVGID_27_" gradientUnits="userSpaceOnUse" x1="116.8156" y1="1554.8336" x2="132.2119" y2="1534.4563">
			<stop  offset="0" style="stop-color:#D56F63"/>
			<stop  offset="1" style="stop-color:#E8D061"/>
		</linearGradient>
		<circle class="st30" cx="125.2" cy="1543.8" r="7.4"/>
		<linearGradient id="SVGID_28_" gradientUnits="userSpaceOnUse" x1="53.6556" y1="97.7908" x2="79.2405" y2="71.3003">
			<stop  offset="0" style="stop-color:#D56F63"/>
			<stop  offset="1" style="stop-color:#E8D061"/>
		</linearGradient>
		<circle class="st31" cx="65.2" cy="85.9" r="11.4"/>
	</g>
</g>
</svg>
