<svg xmlns="http://www.w3.org/2000/svg" xmlns:xlink="http://www.w3.org/1999/xlink" width="1200" height="3748" viewBox="0 0 1200 3748"><defs><linearGradient id="a" x1="109.36278" y1="3828.29693" x2="41.95852" y2="29.14799" gradientUnits="userSpaceOnUse"><stop offset="0" stop-color="#81217e"/><stop offset="0.5" stop-color="#da4154"/><stop offset="1" stop-color="#e66e26"/></linearGradient><linearGradient id="b" x1="144.81595" y1="3827.66792" x2="77.4117" y2="28.51898" xlink:href="#a"/><linearGradient id="c" x1="369.68875" y1="3823.67824" x2="302.28449" y2="24.5293" xlink:href="#a"/><linearGradient id="d" x1="50.18422" y1="3829.34687" x2="-17.22003" y2="30.19793" xlink:href="#a"/><linearGradient id="e" x1="98.04302" y1="3828.49776" x2="30.63876" y2="29.34882" xlink:href="#a"/><linearGradient id="f" x1="125.23301" y1="3828.01536" x2="57.82876" y2="28.86642" xlink:href="#a"/><linearGradient id="g" x1="303.30418" y1="3824.85603" x2="235.89993" y2="25.70709" xlink:href="#a"/><linearGradient id="h" x1="37.47468" y1="3829.57236" x2="-29.92958" y2="30.42342" xlink:href="#a"/><linearGradient id="i" x1="145.16578" y1="3827.66171" x2="77.76152" y2="28.51278" xlink:href="#a"/><linearGradient id="j" x1="411.82983" y1="3822.93058" x2="344.42557" y2="23.78164" xlink:href="#a"/><linearGradient id="k" x1="256.85088" y1="3825.6802" x2="189.44663" y2="26.53127" xlink:href="#a"/><linearGradient id="l" x1="27.43138" y1="3829.75055" x2="-39.97288" y2="30.60161" xlink:href="#a"/><linearGradient id="m" x1="283.34096" y1="3825.21022" x2="215.93671" y2="26.06128" xlink:href="#a"/><linearGradient id="n" x1="123.01733" y1="3828.05467" x2="55.61308" y2="28.90573" xlink:href="#a"/><linearGradient id="o" x1="98.68567" y1="3828.48636" x2="31.28142" y2="29.33742" xlink:href="#a"/><linearGradient id="p" x1="231.11023" y1="3826.13689" x2="163.70598" y2="26.98796" xlink:href="#a"/><linearGradient id="q" x1="-16.17932" y1="279.27327" x2="92.58664" y2="285.40093" gradientUnits="userSpaceOnUse"><stop offset="0" stop-color="#4a4a93"/><stop offset="1" stop-color="#fcee6b"/></linearGradient><linearGradient id="r" x1="44.9457" y1="653.93402" x2="136.17975" y2="647.46593" xlink:href="#q"/><linearGradient id="s" x1="262.36656" y1="208.56374" x2="348.15379" y2="220.0531" xlink:href="#q"/><linearGradient id="t" x1="-4.91802" y1="2701.86811" x2="64.52878" y2="2706.9745" xlink:href="#q"/><linearGradient id="u" x1="-4.37398" y1="1838.122" x2="116.13666" y2="1832.67519" xlink:href="#q"/><linearGradient id="v" x1="55.58395" y1="2134.22466" x2="131.49885" y2="2114.47998" xlink:href="#q"/><linearGradient id="w" x1="211.12438" y1="1672.47678" x2="314.78395" y2="1667.88103" xlink:href="#q"/><linearGradient id="x" x1="-3.26272" y1="3478.04143" x2="66.18409" y2="3465.44568" xlink:href="#q"/><linearGradient id="y" x1="101.96434" y1="3257.88407" x2="168.68774" y2="3251.41599" xlink:href="#q"/><linearGradient id="z" x1="369.83975" y1="1978.19529" x2="387.54188" y2="1977.51444" xlink:href="#q"/><linearGradient id="aa" x1="245.19179" y1="3518.60082" x2="258.21306" y2="3517.83486" xlink:href="#q"/><linearGradient id="ab" x1="-0.84368" y1="3127.52001" x2="32.1776" y2="3128.54128" xlink:href="#q"/><linearGradient id="ac" x1="259.22859" y1="2791.16211" x2="270.88817" y2="2791.58764" xlink:href="#q"/><linearGradient id="ad" x1="87.25926" y1="2534.33911" x2="113.0465" y2="2535.23272" xlink:href="#q"/><linearGradient id="ae" x1="49.56447" y1="1543.61891" x2="67.56447" y2="1544.00189" xlink:href="#q"/><linearGradient id="af" x1="152.22201" y1="104.56802" x2="177.88158" y2="113.12121" xlink:href="#q"/></defs><title>bgleft2</title><g style="isolation:isolate"><g opacity="0"><rect width="1200" height="937" fill="#ff9f9f"/></g><g opacity="0"><rect y="937" width="1200" height="937" fill="#33ffa2"/></g><g opacity="0"><rect y="1874" width="1200" height="937" fill="#ff9f9f"/></g><g opacity="0"><rect y="2811" width="1200" height="937" fill="#33ffa2"/></g><polyline points="0.375 408.673 44.692 401.355 94.453 264.579 0.651 151.754" fill="url(#a)"/><polygon points="74.583 611.39 47.345 643.132 61.215 682.591 102.323 690.309 129.561 658.567 115.691 619.108 74.583 611.39" fill="url(#b)"/><polygon points="332.274 183.337 292.096 175.794 265.474 206.818 279.031 245.385 319.209 252.928 345.831 221.904 332.274 183.337" fill="url(#c)"/><polygon points="40.743 2731.073 58.539 2708.655 48.022 2682.035 19.71 2677.832 1.914 2700.249 12.431 2726.87 40.743 2731.073" fill="url(#d)"/><polyline points="0 2012.849 60.566 2002.847 128.184 1816.987 0 1663" fill="url(#e)"/><polygon points="105.296 2087.304 68.391 2096.721 58.095 2133.391 84.704 2160.642 121.609 2151.225 131.905 2114.555 105.296 2087.304" fill="url(#f)"/><polygon points="267.832 1624.171 226.691 1644.739 223.933 1690.653 262.316 1715.999 303.458 1695.43 306.216 1649.516 267.832 1624.171" fill="url(#g)"/><polyline points="0.001 3584.614 14.549 3582.212 63.812 3446.805 -0.002 3370.049" fill="url(#h)"/><polygon points="136.97 3221.881 107.579 3236.575 105.609 3269.376 133.03 3287.482 162.421 3272.788 164.391 3239.988 136.97 3221.881" fill="url(#i)"/><circle cx="379.09434" cy="1977.83934" r="7.37171" fill="url(#j)"/><circle cx="251.39623" cy="3518.23585" r="5.21259" fill="url(#k)"/><circle cx="14.98113" cy="3128.00943" r="13.24528" fill="url(#l)"/><circle cx="264.99869" cy="2791.3727" r="5.21259" fill="url(#m)"/><circle cx="100.07219" cy="2534.78312" r="11.43238" fill="url(#n)"/><circle cx="58.15094" cy="1543.80161" r="7.37171" fill="url(#o)"/><circle cx="165.15891" cy="108.88032" r="11.38166" fill="url(#p)"/><polyline points="0.375 408.673 44.692 401.355 94.453 264.579 0.651 151.754" opacity="0.3" fill="url(#q)" style="mix-blend-mode:hard-light"/><polygon points="74.583 611.39 47.345 643.132 61.215 682.591 102.323 690.309 129.561 658.567 115.691 619.108 74.583 611.39" opacity="0.3" fill="url(#r)" style="mix-blend-mode:hard-light"/><polygon points="332.274 183.337 292.096 175.794 265.474 206.818 279.031 245.385 319.209 252.928 345.831 221.904 332.274 183.337" opacity="0.3" fill="url(#s)" style="mix-blend-mode:hard-light"/><polygon points="40.743 2731.073 58.539 2708.655 48.022 2682.035 19.71 2677.832 1.914 2700.249 12.431 2726.87 40.743 2731.073" opacity="0.3" fill="url(#t)" style="mix-blend-mode:hard-light"/><polyline points="0 2012.849 60.566 2002.847 128.184 1816.987 0 1663" opacity="0.3" fill="url(#u)" style="mix-blend-mode:hard-light"/><polygon points="105.296 2087.304 68.391 2096.721 58.095 2133.391 84.704 2160.642 121.609 2151.225 131.905 2114.555 105.296 2087.304" opacity="0.3" fill="url(#v)" style="mix-blend-mode:hard-light"/><polygon points="267.832 1624.171 226.691 1644.739 223.933 1690.653 262.316 1715.999 303.458 1695.43 306.216 1649.516 267.832 1624.171" opacity="0.3" fill="url(#w)" style="mix-blend-mode:hard-light"/><polyline points="0.001 3584.614 14.549 3582.212 63.812 3446.805 -0.002 3370.049" opacity="0.3" fill="url(#x)" style="mix-blend-mode:hard-light"/><polygon points="136.97 3221.881 107.579 3236.575 105.609 3269.376 133.03 3287.482 162.421 3272.788 164.391 3239.988 136.97 3221.881" opacity="0.3" fill="url(#y)" style="mix-blend-mode:hard-light"/><circle cx="379.09434" cy="1977.83934" r="7.37171" opacity="0.3" fill="url(#z)" style="mix-blend-mode:hard-light"/><circle cx="251.39623" cy="3518.23585" r="5.21259" opacity="0.3" fill="url(#aa)" style="mix-blend-mode:hard-light"/><circle cx="14.98113" cy="3128.00943" r="13.24528" opacity="0.3" fill="url(#ab)" style="mix-blend-mode:hard-light"/><circle cx="264.99869" cy="2791.3727" r="5.21259" opacity="0.3" fill="url(#ac)" style="mix-blend-mode:hard-light"/><circle cx="100.07219" cy="2534.78312" r="11.43238" opacity="0.3" fill="url(#ad)" style="mix-blend-mode:hard-light"/><circle cx="58.15094" cy="1543.80161" r="7.37171" opacity="0.3" fill="url(#ae)" style="mix-blend-mode:hard-light"/><circle cx="165.15891" cy="108.88032" r="11.38166" opacity="0.3" fill="url(#af)" style="mix-blend-mode:hard-light"/></g></svg>