<svg xmlns="http://www.w3.org/2000/svg" xmlns:xlink="http://www.w3.org/1999/xlink" width="1200" height="3748" viewBox="0 0 1200 3748"><defs><linearGradient id="a" x1="1250.20352" y1="3808.0562" x2="1182.79927" y2="8.90727" gradientUnits="userSpaceOnUse"><stop offset="0" stop-color="#81217e"/><stop offset="0.5" stop-color="#da4154"/><stop offset="1" stop-color="#e66e26"/></linearGradient><linearGradient id="b" x1="1037.28369" y1="3811.83381" x2="969.87944" y2="12.68488" xlink:href="#a"/><linearGradient id="c" x1="1155.89725" y1="3809.72938" x2="1088.493" y2="10.58044" xlink:href="#a"/><linearGradient id="d" x1="1073.4402" y1="3811.19233" x2="1006.03595" y2="12.04339" xlink:href="#a"/><linearGradient id="e" x1="1209.41499" y1="3808.77987" x2="1142.01074" y2="9.63094" xlink:href="#a"/><linearGradient id="f" x1="1007.21437" y1="3812.3673" x2="939.81011" y2="13.21837" xlink:href="#a"/><linearGradient id="g" x1="1249.95572" y1="3808.0606" x2="1182.55146" y2="8.91166" xlink:href="#a"/><linearGradient id="h" x1="1009.18049" y1="3812.33242" x2="941.77624" y2="13.18348" xlink:href="#a"/><linearGradient id="i" x1="1107.44056" y1="3810.5891" x2="1040.0363" y2="11.44016" xlink:href="#a"/><linearGradient id="j" x1="1340.67246" y1="902.86609" x2="1065.69373" y2="935.80226" gradientUnits="userSpaceOnUse"><stop offset="0" stop-color="#4a4a93"/><stop offset="1" stop-color="#fcee6b"/></linearGradient><linearGradient id="k" x1="1064.41015" y1="1103.52814" x2="920.41015" y2="1120.54942" xlink:href="#j"/><linearGradient id="l" x1="1124.32409" y1="678.54756" x2="1080.66451" y2="692.33479" xlink:href="#j"/><linearGradient id="m" x1="1214.10637" y1="2683.84963" x2="895.46807" y2="2747.67941" xlink:href="#j"/><linearGradient id="n" x1="1219.37565" y1="2396.30192" x2="1154.01395" y2="2401.4083" xlink:href="#j"/><linearGradient id="o" x1="965.24442" y1="840.37674" x2="946.01038" y2="840.88738" xlink:href="#j"/><linearGradient id="p" x1="1214.56325" y1="1257.49396" x2="1195.41432" y2="1258.6429" xlink:href="#j"/><linearGradient id="q" x1="1007.68352" y1="3020.13689" x2="986.40692" y2="3018.43477" xlink:href="#j"/><linearGradient id="r" x1="1154.39716" y1="3760.73568" x2="1057.03546" y2="3681.41653" xlink:href="#j"/></defs><title>bgright2</title><g style="isolation:isolate"><g opacity="0"><rect width="1200" height="937" fill="#ff9f9f"/></g><g opacity="0"><rect y="937" width="1200" height="937" fill="#33ffa2"/></g><g opacity="0"><rect y="1874" width="1200" height="937" fill="#ff9f9f"/></g><g opacity="0"><rect y="2811" width="1200" height="937" fill="#33ffa2"/></g><polyline points="1332.301 711.068 1135.92 743.497 1062.375 945.646 1201.009 1112.396 1332.31 1090.49" fill="url(#a)"/><polygon points="1014.38 1175.653 1056.667 1122.383 1031.678 1059.126 964.401 1049.139 922.113 1102.409 947.103 1165.666 1014.38 1175.653" fill="url(#b)"/><polygon points="1099.568 701.214 1113.132 694.434 1114.041 679.297 1101.387 670.942 1087.824 677.722 1086.914 692.859 1099.568 701.214" fill="url(#c)"/><polygon points="901.509 2747.12 1004.778 2863.588 1157.277 2832.389 1206.506 2684.721 1103.238 2568.253 950.739 2599.453 901.509 2747.12" fill="url(#d)"/><polygon points="1194.92 2425.655 1212.716 2403.237 1202.199 2376.616 1173.887 2372.414 1156.091 2394.831 1166.608 2421.452 1194.92 2425.655" fill="url(#e)"/><circle cx="954.49057" cy="840.66224" r="7.37171" fill="url(#f)"/><circle cx="1204.71422" cy="1258.08491" r="7.37171" fill="url(#g)"/><circle cx="995.10756" cy="3019.13082" r="8.57197" fill="url(#h)"/><polyline points="1159 3748 1161.709 3694.377 1109.676 3660.019 1053.905 3687.902 1050 3748" fill="url(#i)"/><polyline points="1332.301 711.068 1135.92 743.497 1062.375 945.646 1201.009 1112.396 1332.31 1090.49" opacity="0.3" fill="url(#j)" style="mix-blend-mode:hard-light"/><polygon points="1014.38 1175.653 1056.667 1122.383 1031.678 1059.126 964.401 1049.139 922.113 1102.409 947.103 1165.666 1014.38 1175.653" opacity="0.3" fill="url(#k)" style="mix-blend-mode:hard-light"/><polygon points="1099.568 701.214 1113.132 694.434 1114.041 679.297 1101.387 670.942 1087.824 677.722 1086.914 692.859 1099.568 701.214" opacity="0.3" fill="url(#l)" style="mix-blend-mode:hard-light"/><polygon points="901.509 2747.12 1004.778 2863.588 1157.277 2832.389 1206.506 2684.721 1103.238 2568.253 950.739 2599.453 901.509 2747.12" opacity="0.3" fill="url(#m)" style="mix-blend-mode:hard-light"/><polygon points="1194.92 2425.655 1212.716 2403.237 1202.199 2376.616 1173.887 2372.414 1156.091 2394.831 1166.608 2421.452 1194.92 2425.655" opacity="0.3" fill="url(#n)" style="mix-blend-mode:hard-light"/><circle cx="954.49057" cy="840.66224" r="7.37171" opacity="0.3" fill="url(#o)" style="mix-blend-mode:hard-light"/><circle cx="1204.71422" cy="1258.08491" r="7.37171" opacity="0.3" fill="url(#p)" style="mix-blend-mode:hard-light"/><circle cx="995.10756" cy="3019.13082" r="8.57197" opacity="0.3" fill="url(#q)" style="mix-blend-mode:hard-light"/><polyline points="1159 3748 1161.709 3694.377 1109.676 3660.019 1053.905 3687.902 1050 3748" opacity="0.3" fill="url(#r)" style="mix-blend-mode:hard-light"/></g></svg>