<svg xmlns="http://www.w3.org/2000/svg" xmlns:xlink="http://www.w3.org/1999/xlink" width="1920" height="3748" viewBox="0 0 1920 3748"><defs><linearGradient id="a" x1="1947.9279" y1="3839.07807" x2="1739.60513" y2="-14.89327" gradientUnits="userSpaceOnUse"><stop offset="0" stop-color="#81217e"/><stop offset="0.5" stop-color="#da4154"/><stop offset="1" stop-color="#e66e26"/></linearGradient><linearGradient id="b" x1="1726.44127" y1="3851.33612" x2="1518.10084" y2="-2.96175" xlink:href="#a"/><linearGradient id="c" x1="1798.14693" y1="3847.46014" x2="1589.80651" y2="-6.83773" xlink:href="#a"/><linearGradient id="d" x1="1704.44604" y1="3852.52506" x2="1496.10561" y2="-1.77282" xlink:href="#a"/><linearGradient id="e" x1="1851.54066" y1="3844.574" x2="1643.20024" y2="-9.72388" xlink:href="#a"/><linearGradient id="f" x1="1901.11655" y1="3841.89422" x2="1692.77612" y2="-12.40365" xlink:href="#a"/><linearGradient id="g" x1="2020.25953" y1="3835.45406" x2="1811.9191" y2="-18.84382" xlink:href="#a"/><linearGradient id="h" x1="1706.28858" y1="3852.42546" x2="1497.94815" y2="-1.87241" xlink:href="#a"/><linearGradient id="i" x1="1933.28559" y1="3840.15535" x2="1724.94517" y2="-14.14252" xlink:href="#a"/><linearGradient id="j" x1="1573.13582" y1="3859.62291" x2="1364.79539" y2="5.32503" xlink:href="#a"/><linearGradient id="k" x1="1933.42733" y1="3840.14769" x2="1725.08691" y2="-14.15018" xlink:href="#a"/><linearGradient id="l" x1="1629.37524" y1="3856.58294" x2="1421.03482" y2="2.28506" xlink:href="#a"/><linearGradient id="m" x1="1947.29174" y1="911.272" x2="1653.93004" y2="912.80391" gradientUnits="userSpaceOnUse"><stop offset="0" stop-color="#4a4a93"/><stop offset="1" stop-color="#fcee6b"/></linearGradient><linearGradient id="n" x1="1645.62997" y1="1101.76978" x2="1514.22572" y2="1122.53574" xlink:href="#m"/><linearGradient id="o" x1="1649.64997" y1="616.90889" x2="1601.39465" y2="615.37697" xlink:href="#m"/><linearGradient id="p" x1="1802.32694" y1="2678.34539" x2="1477.56099" y2="2754.94113" xlink:href="#m"/><linearGradient id="q" x1="1798.69586" y1="2388.5799" x2="1747.63203" y2="2409.68628" xlink:href="#m"/><linearGradient id="r" x1="1895.33843" y1="2985.86318" x2="1818.06184" y2="3001.86318" xlink:href="#m"/><linearGradient id="s" x1="1853.44676" y1="621.26464" x2="1840.25527" y2="618.28592" xlink:href="#m"/><linearGradient id="t" x1="1554.08075" y1="838.57892" x2="1533.31479" y2="842.66403" xlink:href="#m"/><linearGradient id="u" x1="1805.29549" y1="1253.96396" x2="1784.48698" y2="1261.36822" xlink:href="#m"/><linearGradient id="v" x1="1507.36877" y1="2468.72005" x2="1487.62409" y2="2465.99664" xlink:href="#m"/><linearGradient id="w" x1="1888.40162" y1="2770.74084" x2="1863.55055" y2="2780.27276" xlink:href="#m"/><linearGradient id="x" x1="1594.0901" y1="3018.18907" x2="1573.79222" y2="3020.10396" xlink:href="#m"/></defs><title>bgright</title><g style="isolation:isolate"><g opacity="0"><rect width="1920" height="937" fill="#ff9f9f"/></g><g opacity="0"><rect y="937" width="1920" height="937" fill="#33ffa2"/></g><g opacity="0"><rect y="1874" width="1920" height="937" fill="#ff9f9f"/></g><g opacity="0"><rect y="2811" width="1920" height="937" fill="#33ffa2"/></g><polyline points="1920 711.117 1723.92 743.497 1650.375 945.646 1789.009 1112.396 1920 1090.542" fill="url(#a)"/><polygon points="1603.38 1175.653 1645.667 1122.383 1620.678 1059.126 1553.401 1049.139 1511.113 1102.409 1536.103 1165.666 1603.38 1175.653" fill="url(#b)"/><polygon points="1621.955 641.434 1644.675 630.075 1646.198 604.719 1625.001 590.722 1602.281 602.081 1600.757 627.437 1621.955 641.434" fill="url(#c)"/><polygon points="1490.509 2747.12 1593.778 2863.588 1746.277 2832.389 1795.506 2684.721 1692.238 2568.253 1539.739 2599.453 1490.509 2747.12" fill="url(#d)"/><polygon points="1783.92 2425.655 1801.716 2403.237 1791.199 2376.616 1762.887 2372.414 1745.091 2394.831 1755.608 2421.452 1783.92 2425.655" fill="url(#e)"/><polygon points="1840.638 2957.058 1815.839 2988.298 1830.494 3025.394 1869.948 3031.251 1894.747 3000.011 1880.092 2962.915 1840.638 2957.058" fill="url(#f)"/><circle cx="1846.43396" cy="619.68111" r="4.92453" fill="url(#g)"/><circle cx="1543.49057" cy="840.66224" r="7.37171" fill="url(#h)"/><circle cx="1793.71422" cy="1258.08491" r="7.37171" fill="url(#i)"/><circle cx="1497.88114" cy="2467.41141" r="7.37171" fill="url(#j)"/><circle cx="1875.88114" cy="2775.54321" r="12.12259" fill="url(#k)"/><circle cx="1584.10756" cy="3019.13082" r="8.57197" fill="url(#l)"/><polyline points="1920 711.117 1723.92 743.497 1650.375 945.646 1789.009 1112.396 1920 1090.542" opacity="0.3" fill="url(#m)" style="mix-blend-mode:hard-light"/><polygon points="1603.38 1175.653 1645.667 1122.383 1620.678 1059.126 1553.401 1049.139 1511.113 1102.409 1536.103 1165.666 1603.38 1175.653" opacity="0.3" fill="url(#n)" style="mix-blend-mode:hard-light"/><polygon points="1621.955 641.434 1644.675 630.075 1646.198 604.719 1625.001 590.722 1602.281 602.081 1600.757 627.437 1621.955 641.434" opacity="0.3" fill="url(#o)" style="mix-blend-mode:hard-light"/><polygon points="1490.509 2747.12 1593.778 2863.588 1746.277 2832.389 1795.506 2684.721 1692.238 2568.253 1539.739 2599.453 1490.509 2747.12" opacity="0.3" fill="url(#p)" style="mix-blend-mode:hard-light"/><polygon points="1783.92 2425.655 1801.716 2403.237 1791.199 2376.616 1762.887 2372.414 1745.091 2394.831 1755.608 2421.452 1783.92 2425.655" opacity="0.3" fill="url(#q)" style="mix-blend-mode:hard-light"/><polygon points="1840.638 2957.058 1815.839 2988.298 1830.494 3025.394 1869.948 3031.251 1894.747 3000.011 1880.092 2962.915 1840.638 2957.058" opacity="0.3" fill="url(#r)" style="mix-blend-mode:hard-light"/><circle cx="1846.43396" cy="619.68111" r="4.92453" opacity="0.3" fill="url(#s)" style="mix-blend-mode:hard-light"/><circle cx="1543.49057" cy="840.66224" r="7.37171" opacity="0.3" fill="url(#t)" style="mix-blend-mode:hard-light"/><circle cx="1793.71422" cy="1258.08491" r="7.37171" opacity="0.3" fill="url(#u)" style="mix-blend-mode:hard-light"/><circle cx="1497.88114" cy="2467.41141" r="7.37171" opacity="0.3" fill="url(#v)" style="mix-blend-mode:hard-light"/><circle cx="1875.88114" cy="2775.54321" r="12.12259" opacity="0.3" fill="url(#w)" style="mix-blend-mode:hard-light"/><circle cx="1584.10756" cy="3019.13082" r="8.57197" opacity="0.3" fill="url(#x)" style="mix-blend-mode:hard-light"/></g></svg>