<?xml version="1.0" encoding="utf-8"?>
<!-- Generator: Adobe Illustrator 21.0.0, SVG Export Plug-In . SVG Version: 6.00 Build 0)  -->
<svg version="1.1" xmlns="http://www.w3.org/2000/svg" xmlns:xlink="http://www.w3.org/1999/xlink" x="0px" y="0px"
	 viewBox="0 0 1200 3748" style="enable-background:new 0 0 1200 3748;" xml:space="preserve">
<style type="text/css">
	.st0{opacity:0;}
	.st1{fill:#FF9F9F;}
	.st2{fill:#33FFA2;}
	.st3{fill:url(#SVGID_1_);}
	.st4{fill:url(#SVGID_2_);}
	.st5{fill:url(#SVGID_3_);}
	.st6{fill:url(#SVGID_4_);}
	.st7{fill:url(#SVGID_5_);}
	.st8{fill:url(#SVGID_6_);}
	.st9{fill:url(#SVGID_7_);}
	.st10{fill:url(#SVGID_8_);}
	.st11{fill:url(#SVGID_9_);}
	.st12{fill:url(#SVGID_10_);}
	.st13{fill:url(#SVGID_11_);}
	.st14{fill:url(#SVGID_12_);}
	.st15{display:none;}
	.st16{display:inline;fill:url(#SVGID_13_);}
	.st17{display:inline;fill:url(#SVGID_14_);}
	.st18{display:inline;fill:url(#SVGID_15_);}
	.st19{display:inline;fill:url(#SVGID_16_);}
	.st20{display:inline;fill:url(#SVGID_17_);}
	.st21{display:inline;fill:url(#SVGID_18_);}
	.st22{display:inline;fill:url(#SVGID_19_);}
	.st23{display:inline;fill:url(#SVGID_20_);}
	.st24{display:inline;fill:url(#SVGID_21_);}
	.st25{display:inline;fill:url(#SVGID_22_);}
	.st26{display:inline;fill:url(#SVGID_23_);}
	.st27{display:inline;fill:url(#SVGID_24_);}
	.st28{display:inline;fill:url(#SVGID_25_);}
	.st29{display:inline;fill:url(#SVGID_26_);}
	.st30{display:inline;fill:url(#SVGID_27_);}
	.st31{display:inline;fill:url(#SVGID_28_);}
</style>
<g id="Export">
	<g class="st0">
		<rect class="st1" width="1200" height="937"/>
	</g>
	<g class="st0">
		<rect y="937" class="st2" width="1200" height="937"/>
	</g>
	<g class="st0">
		<rect y="1874" class="st1" width="1200" height="937"/>
	</g>
	<g class="st0">
		<rect y="2811" class="st2" width="1200" height="937"/>
	</g>
</g>
<g id="Details_1200">
	<g id="right_1_">
		<linearGradient id="SVGID_1_" gradientUnits="userSpaceOnUse" x1="1124.5981" y1="1201.9227" x2="1260.1547" y2="849.2459">
			<stop  offset="0" style="stop-color:#B25853"/>
			<stop  offset="0.2188" style="stop-color:#BB6357"/>
			<stop  offset="1" style="stop-color:#D98764"/>
		</linearGradient>
		<polyline class="st3" points="1332.3,711.1 1135.9,743.5 1062.4,945.6 1201,1112.4 1332.3,1090.5 		"/>
		
			<linearGradient id="SVGID_2_" gradientUnits="userSpaceOnUse" x1="-188.9596" y1="-24.0936" x2="-54.7224" y2="-24.0936" gradientTransform="matrix(-0.2121 -0.9772 0.9772 -0.2121 987.0877 988.2167)">
			<stop  offset="0" style="stop-color:#D56F63"/>
			<stop  offset="1" style="stop-color:#DC9B5C"/>
		</linearGradient>
		<polygon class="st4" points="1014.4,1175.7 1056.7,1122.4 1031.7,1059.1 964.4,1049.1 922.1,1102.4 947.1,1165.7 		"/>
		
			<linearGradient id="SVGID_3_" gradientUnits="userSpaceOnUse" x1="288.4364" y1="391.2675" x2="318.3646" y2="391.2675" gradientTransform="matrix(0.2206 -0.9754 0.9754 0.2206 651.9132 895.6779)">
			<stop  offset="0" style="stop-color:#D56F63"/>
			<stop  offset="1" style="stop-color:#DC9B5C"/>
		</linearGradient>
		<polygon class="st5" points="1099.6,701.2 1113.1,694.4 1114,679.3 1101.4,670.9 1087.8,677.7 1086.9,692.9 		"/>
		
			<linearGradient id="SVGID_4_" gradientUnits="userSpaceOnUse" x1="-1848.4282" y1="1128.1062" x2="-1541.2129" y2="1128.1062" gradientTransform="matrix(0.9992 -3.933150e-02 3.933150e-02 0.9992 2703.147 1522.0275)">
			<stop  offset="0" style="stop-color:#B25853"/>
			<stop  offset="0.2188" style="stop-color:#BB6357"/>
			<stop  offset="1" style="stop-color:#D98764"/>
		</linearGradient>
		<polygon class="st6" points="901.5,2747.1 1004.8,2863.6 1157.3,2832.4 1206.5,2684.7 1103.2,2568.3 950.7,2599.5 		"/>
		
			<linearGradient id="SVGID_5_" gradientUnits="userSpaceOnUse" x1="-1448.8098" y1="-106.473" x2="-1392.3187" y2="-106.473" gradientTransform="matrix(-0.2121 -0.9772 0.9772 -0.2121 987.0877 988.2167)">
			<stop  offset="0" style="stop-color:#D56F63"/>
			<stop  offset="1" style="stop-color:#DC9B5C"/>
		</linearGradient>
		<polygon class="st7" points="1194.9,2425.7 1212.7,2403.2 1202.2,2376.6 1173.9,2372.4 1156.1,2394.8 1166.6,2421.5 		"/>
		<linearGradient id="SVGID_6_" gradientUnits="userSpaceOnUse" x1="943.4337" y1="856.4778" x2="961.3205" y2="830.8929">
			<stop  offset="0" style="stop-color:#D56F63"/>
			<stop  offset="1" style="stop-color:#E8D061"/>
		</linearGradient>
		<circle class="st8" cx="954.5" cy="840.7" r="7.4"/>
		<linearGradient id="SVGID_7_" gradientUnits="userSpaceOnUse" x1="1196.5941" y1="1265.0157" x2="1213.4054" y2="1250.6666">
			<stop  offset="0" style="stop-color:#D56F63"/>
			<stop  offset="1" style="stop-color:#E8D061"/>
		</linearGradient>
		<circle class="st9" cx="1204.7" cy="1258.1" r="7.4"/>
		<linearGradient id="SVGID_8_" gradientUnits="userSpaceOnUse" x1="981.469" y1="3039.5886" x2="1002.2992" y2="3008.3435">
			<stop  offset="0" style="stop-color:#D56F63"/>
			<stop  offset="1" style="stop-color:#E8D061"/>
		</linearGradient>
		<circle class="st10" cx="995.1" cy="3019.1" r="8.6"/>
		
			<linearGradient id="SVGID_9_" gradientUnits="userSpaceOnUse" x1="5395.1904" y1="-2299.9399" x2="5494.1694" y2="-2299.9399" gradientTransform="matrix(-0.2206 0.9754 -0.9754 -0.2206 66.1379 -2107.5273)">
			<stop  offset="0" style="stop-color:#D56F63"/>
			<stop  offset="1" style="stop-color:#DC9B5C"/>
		</linearGradient>
		<polyline class="st11" points="1159,3748 1161.7,3694.4 1109.7,3660 1053.9,3687.9 1050,3748 		"/>
	</g>
	<g id="left_2_" class="st15">
		<linearGradient id="SVGID_10_" gradientUnits="userSpaceOnUse" x1="-37.6264" y1="303.3536" x2="102.7799" y2="240.9508">
			<stop  offset="0" style="stop-color:#B25853"/>
			<stop  offset="0.2188" style="stop-color:#BB6357"/>
			<stop  offset="1" style="stop-color:#D98764"/>
		</linearGradient>
		<polyline style="display:inline;fill:url(#SVGID_10_);" points="0.4,408.7 44.7,401.4 94.5,264.6 0.7,151.8 		"/>
		
			<linearGradient id="SVGID_11_" gradientUnits="userSpaceOnUse" x1="2623.2429" y1="-298.6791" x2="2705.793" y2="-298.6791" gradientTransform="matrix(0.1747 0.9846 -0.9846 0.1747 -671.001 -1920.5499)">
			<stop  offset="0" style="stop-color:#D56F63"/>
			<stop  offset="1" style="stop-color:#DC9B5C"/>
		</linearGradient>
		<polygon style="display:inline;fill:url(#SVGID_11_);" points="74.6,611.4 47.3,643.1 61.2,682.6 102.3,690.3 129.6,658.6 
			115.7,619.1 		"/>
		
			<linearGradient id="SVGID_12_" gradientUnits="userSpaceOnUse" x1="1957.5267" y1="-1100.7772" x2="2038.2106" y2="-1100.7772" gradientTransform="matrix(-0.7654 0.6436 -0.6436 -0.7654 1126.3717 -1913.927)">
			<stop  offset="0" style="stop-color:#D56F63"/>
			<stop  offset="1" style="stop-color:#DC9B5C"/>
		</linearGradient>
		<polygon style="display:inline;fill:url(#SVGID_12_);" points="332.3,183.3 292.1,175.8 265.5,206.8 279,245.4 319.2,252.9 
			345.8,221.9 		"/>
		
			<linearGradient id="SVGID_13_" gradientUnits="userSpaceOnUse" x1="-1502.4236" y1="-1299.1716" x2="-1445.9325" y2="-1299.1716" gradientTransform="matrix(-0.2121 -0.9772 0.9772 -0.2121 987.0877 988.2167)">
			<stop  offset="0" style="stop-color:#D56F63"/>
			<stop  offset="1" style="stop-color:#DC9B5C"/>
		</linearGradient>
		<polygon class="st16" points="40.7,2731.1 58.5,2708.7 48,2682 19.7,2677.8 1.9,2700.2 12.4,2726.9 		"/>
		
			<linearGradient id="SVGID_14_" gradientUnits="userSpaceOnUse" x1="603.9279" y1="-2826.646" x2="708.8971" y2="-3099.7439" gradientTransform="matrix(-1 0 0 -1 718.0511 -1211.8496)">
			<stop  offset="0" style="stop-color:#B25853"/>
			<stop  offset="0.2188" style="stop-color:#BB6357"/>
			<stop  offset="1" style="stop-color:#D98764"/>
		</linearGradient>
		<polyline class="st17" points="0,2012.8 60.6,2002.8 128.2,1817 0,1663 		"/>
		
			<linearGradient id="SVGID_15_" gradientUnits="userSpaceOnUse" x1="4025.2253" y1="-1006.2374" x2="4100.3975" y2="-1006.2374" gradientTransform="matrix(-0.4225 0.9064 -0.9064 -0.4225 899.5083 -1983.5466)">
			<stop  offset="0" style="stop-color:#D56F63"/>
			<stop  offset="1" style="stop-color:#DC9B5C"/>
		</linearGradient>
		<polygon class="st18" points="105.3,2087.3 68.4,2096.7 58.1,2133.4 84.7,2160.6 121.6,2151.2 131.9,2114.6 		"/>
		
			<linearGradient id="SVGID_16_" gradientUnits="userSpaceOnUse" x1="3595.2429" y1="-1027.4794" x2="3686.0251" y2="-1027.4794" gradientTransform="matrix(-0.2206 0.9754 -0.9754 -0.2206 66.1379 -2107.5273)">
			<stop  offset="0" style="stop-color:#D56F63"/>
			<stop  offset="1" style="stop-color:#DC9B5C"/>
		</linearGradient>
		<polygon class="st19" points="267.8,1624.2 226.7,1644.7 223.9,1690.7 262.3,1716 303.5,1695.4 306.2,1649.5 		"/>
		
			<linearGradient id="SVGID_17_" gradientUnits="userSpaceOnUse" x1="657.2791" y1="-4548.7925" x2="721.6572" y2="-4716.2847" gradientTransform="matrix(-1 0 0 -1 718.0511 -1211.8496)">
			<stop  offset="0" style="stop-color:#B25853"/>
			<stop  offset="0.2188" style="stop-color:#BB6357"/>
			<stop  offset="1" style="stop-color:#D98764"/>
		</linearGradient>
		<polyline class="st20" points="0,3584.6 14.5,3582.2 63.8,3446.8 0,3370 		"/>
		
			<linearGradient id="SVGID_18_" gradientUnits="userSpaceOnUse" x1="5182.4541" y1="-1250.2158" x2="5247.3086" y2="-1250.2158" gradientTransform="matrix(-0.2206 0.9754 -0.9754 -0.2206 66.1379 -2107.5273)">
			<stop  offset="0" style="stop-color:#D56F63"/>
			<stop  offset="1" style="stop-color:#DC9B5C"/>
		</linearGradient>
		<polygon class="st21" points="137,3221.9 107.6,3236.6 105.6,3269.4 133,3287.5 162.4,3272.8 164.4,3240 		"/>
		<linearGradient id="SVGID_19_" gradientUnits="userSpaceOnUse" x1="355.3175" y1="1976.9248" x2="399.4684" y2="1978.6229">
			<stop  offset="0" style="stop-color:#D56F63"/>
			<stop  offset="1" style="stop-color:#E8D061"/>
		</linearGradient>
		<circle class="st22" cx="379.1" cy="1977.8" r="7.4"/>
		<linearGradient id="SVGID_20_" gradientUnits="userSpaceOnUse" x1="237.6806" y1="3527.7671" x2="264.3976" y2="3509.2009">
			<stop  offset="0" style="stop-color:#D56F63"/>
			<stop  offset="1" style="stop-color:#E8D061"/>
		</linearGradient>
		<circle class="st23" cx="251.4" cy="3518.2" r="5.2"/>
		<linearGradient id="SVGID_21_" gradientUnits="userSpaceOnUse" x1="-31.8974" y1="3129.3301" x2="64.5554" y2="3126.613">
			<stop  offset="0" style="stop-color:#D56F63"/>
			<stop  offset="1" style="stop-color:#E8D061"/>
		</linearGradient>
		<circle class="st24" cx="15" cy="3128" r="13.2"/>
		<linearGradient id="SVGID_22_" gradientUnits="userSpaceOnUse" x1="260.3713" y1="2798.0378" x2="269.626" y2="2784.7078">
			<stop  offset="0" style="stop-color:#D56F63"/>
			<stop  offset="1" style="stop-color:#E8D061"/>
		</linearGradient>
		<circle class="st25" cx="265" cy="2791.4" r="5.2"/>
		<linearGradient id="SVGID_23_" gradientUnits="userSpaceOnUse" x1="89.9232" y1="2549.4014" x2="110.2209" y2="2520.1653">
			<stop  offset="0" style="stop-color:#D56F63"/>
			<stop  offset="1" style="stop-color:#E8D061"/>
		</linearGradient>
		<circle class="st26" cx="100.1" cy="2534.8" r="11.4"/>
		<linearGradient id="SVGID_24_" gradientUnits="userSpaceOnUse" x1="49.8156" y1="1554.8336" x2="65.2118" y2="1534.4563">
			<stop  offset="0" style="stop-color:#D56F63"/>
			<stop  offset="1" style="stop-color:#E8D061"/>
		</linearGradient>
		<circle class="st27" cx="58.2" cy="1543.8" r="7.4"/>
		<linearGradient id="SVGID_25_" gradientUnits="userSpaceOnUse" x1="153.6556" y1="120.7908" x2="179.2405" y2="94.3003">
			<stop  offset="0" style="stop-color:#D56F63"/>
			<stop  offset="1" style="stop-color:#E8D061"/>
		</linearGradient>
		<circle class="st28" cx="165.2" cy="108.9" r="11.4"/>
	</g>
</g>
</svg>
