<?xml version="1.0" encoding="utf-8"?>
<!-- Generator: Adobe Illustrator 23.0.1, SVG Export Plug-In . SVG Version: 6.00 Build 0)  -->
<svg version="1.1" xmlns="http://www.w3.org/2000/svg" xmlns:xlink="http://www.w3.org/1999/xlink" x="0px" y="0px"
	 viewBox="0 0 1920 3748" style="enable-background:new 0 0 1920 3748;" xml:space="preserve">
<style type="text/css">
	.st0{opacity:0;}
	.st1{fill:#FF9F9F;}
	.st2{fill:#00FF9D;}
	.st3{display:none;}
	.st4{display:inline;opacity:0.1;}
	.st5{fill:none;stroke:#002713;stroke-width:3.989;stroke-linecap:round;stroke-miterlimit:10;}
	.st6{fill:none;stroke:#002713;stroke-width:3.989;stroke-linecap:round;stroke-miterlimit:10;stroke-dasharray:0,79.5436;}
	.st7{fill:url(#SVGID_1_);}
	.st8{fill:url(#SVGID_2_);}
	.st9{fill:url(#SVGID_3_);}
	.st10{fill:url(#SVGID_4_);}
	.st11{fill:url(#SVGID_5_);}
	.st12{fill:url(#SVGID_6_);}
	.st13{fill:url(#SVGID_7_);}
	.st14{fill:url(#SVGID_8_);}
	.st15{fill:url(#SVGID_9_);}
	.st16{fill:url(#SVGID_10_);}
	.st17{fill:url(#SVGID_11_);}
	.st18{fill:url(#SVGID_12_);}
	.st19{display:inline;fill:url(#SVGID_13_);}
	.st20{display:inline;fill:url(#SVGID_14_);}
	.st21{display:inline;fill:url(#SVGID_15_);}
	.st22{display:inline;fill:url(#SVGID_16_);}
	.st23{display:inline;fill:url(#SVGID_17_);}
	.st24{display:inline;fill:url(#SVGID_18_);}
	.st25{display:inline;fill:url(#SVGID_19_);}
	.st26{display:inline;fill:url(#SVGID_20_);}
	.st27{display:inline;fill:url(#SVGID_21_);}
	.st28{display:inline;fill:url(#SVGID_22_);}
	.st29{display:inline;fill:url(#SVGID_23_);}
	.st30{display:inline;fill:url(#SVGID_24_);}
	.st31{display:inline;fill:url(#SVGID_25_);}
	.st32{display:inline;fill:url(#SVGID_26_);}
	.st33{display:inline;fill:url(#SVGID_27_);}
	.st34{display:inline;fill:url(#SVGID_28_);}
	.st35{display:inline;fill:url(#SVGID_29_);}
	.st36{display:inline;fill:url(#SVGID_30_);}
	.st37{display:inline;fill:url(#SVGID_31_);}
</style>
<g id="Camada_1">
	<g class="st0">
		<rect class="st1" width="1920" height="937"/>
	</g>
	<g class="st0">
		<rect y="937" class="st2" width="1920" height="937"/>
	</g>
	<g class="st0">
		<rect y="1874" class="st1" width="1920" height="937"/>
	</g>
	<g class="st0">
		<rect y="2811" class="st2" width="1920" height="937"/>
	</g>
</g>
<g id="Bolinhas" class="st3">
	<g class="st4">
		<g>
			<g>
				<line class="st5" x1="5.8" y1="5.7" x2="5.8" y2="5.7"/>
				<line class="st6" x1="85.3" y1="5.7" x2="1875" y2="5.7"/>
				<line class="st5" x1="1914.8" y1="5.7" x2="1914.8" y2="5.7"/>
			</g>
		</g>
		<g>
			<g>
				<line class="st5" x1="5.8" y1="85.7" x2="5.8" y2="85.7"/>
				<line class="st6" x1="85.3" y1="85.7" x2="1875" y2="85.7"/>
				<line class="st5" x1="1914.8" y1="85.7" x2="1914.8" y2="85.7"/>
			</g>
		</g>
		<g>
			<g>
				<line class="st5" x1="5.8" y1="165.7" x2="5.8" y2="165.7"/>
				<line class="st6" x1="85.3" y1="165.7" x2="1875" y2="165.7"/>
				<line class="st5" x1="1914.8" y1="165.7" x2="1914.8" y2="165.7"/>
			</g>
		</g>
		<g>
			<g>
				<line class="st5" x1="5.8" y1="245.7" x2="5.8" y2="245.7"/>
				<line class="st6" x1="85.3" y1="245.7" x2="1875" y2="245.7"/>
				<line class="st5" x1="1914.8" y1="245.7" x2="1914.8" y2="245.7"/>
			</g>
		</g>
		<g>
			<g>
				<line class="st5" x1="5.8" y1="325.7" x2="5.8" y2="325.7"/>
				<line class="st6" x1="85.3" y1="325.7" x2="1875" y2="325.7"/>
				<line class="st5" x1="1914.8" y1="325.7" x2="1914.8" y2="325.7"/>
			</g>
		</g>
		<g>
			<g>
				<line class="st5" x1="5.8" y1="405.7" x2="5.8" y2="405.7"/>
				<line class="st6" x1="85.3" y1="405.7" x2="1875" y2="405.7"/>
				<line class="st5" x1="1914.8" y1="405.7" x2="1914.8" y2="405.7"/>
			</g>
		</g>
		<g>
			<g>
				<line class="st5" x1="5.8" y1="485.7" x2="5.8" y2="485.7"/>
				<line class="st6" x1="85.3" y1="485.7" x2="1875" y2="485.7"/>
				<line class="st5" x1="1914.8" y1="485.7" x2="1914.8" y2="485.7"/>
			</g>
		</g>
		<g>
			<g>
				<line class="st5" x1="5.8" y1="565.7" x2="5.8" y2="565.7"/>
				<line class="st6" x1="85.3" y1="565.7" x2="1875" y2="565.7"/>
				<line class="st5" x1="1914.8" y1="565.7" x2="1914.8" y2="565.7"/>
			</g>
		</g>
		<g>
			<g>
				<line class="st5" x1="5.8" y1="645.7" x2="5.8" y2="645.7"/>
				<line class="st6" x1="85.3" y1="645.7" x2="1875" y2="645.7"/>
				<line class="st5" x1="1914.8" y1="645.7" x2="1914.8" y2="645.7"/>
			</g>
		</g>
		<g>
			<g>
				<line class="st5" x1="5.8" y1="725.7" x2="5.8" y2="725.7"/>
				<line class="st6" x1="85.3" y1="725.7" x2="1875" y2="725.7"/>
				<line class="st5" x1="1914.8" y1="725.7" x2="1914.8" y2="725.7"/>
			</g>
		</g>
		<g>
			<g>
				<line class="st5" x1="5.8" y1="805.7" x2="5.8" y2="805.7"/>
				<line class="st6" x1="85.3" y1="805.7" x2="1875" y2="805.7"/>
				<line class="st5" x1="1914.8" y1="805.7" x2="1914.8" y2="805.7"/>
			</g>
		</g>
		<g>
			<g>
				<line class="st5" x1="5.8" y1="885.7" x2="5.8" y2="885.7"/>
				<line class="st6" x1="85.3" y1="885.7" x2="1875" y2="885.7"/>
				<line class="st5" x1="1914.8" y1="885.7" x2="1914.8" y2="885.7"/>
			</g>
		</g>
		<g>
			<g>
				<line class="st5" x1="5.8" y1="965.7" x2="5.8" y2="965.7"/>
				<line class="st6" x1="85.3" y1="965.7" x2="1875" y2="965.7"/>
				<line class="st5" x1="1914.8" y1="965.7" x2="1914.8" y2="965.7"/>
			</g>
		</g>
		<g>
			<g>
				<line class="st5" x1="5.8" y1="1045.7" x2="5.8" y2="1045.7"/>
				<line class="st6" x1="85.3" y1="1045.7" x2="1875" y2="1045.7"/>
				<line class="st5" x1="1914.8" y1="1045.7" x2="1914.8" y2="1045.7"/>
			</g>
		</g>
		<g>
			<g>
				<line class="st5" x1="5.8" y1="1125.7" x2="5.8" y2="1125.7"/>
				<line class="st6" x1="85.3" y1="1125.7" x2="1875" y2="1125.7"/>
				<line class="st5" x1="1914.8" y1="1125.7" x2="1914.8" y2="1125.7"/>
			</g>
		</g>
		<g>
			<g>
				<line class="st5" x1="5.8" y1="1205.7" x2="5.8" y2="1205.7"/>
				<line class="st6" x1="85.3" y1="1205.7" x2="1875" y2="1205.7"/>
				<line class="st5" x1="1914.8" y1="1205.7" x2="1914.8" y2="1205.7"/>
			</g>
		</g>
		<g>
			<g>
				<line class="st5" x1="5.8" y1="1285.7" x2="5.8" y2="1285.7"/>
				<line class="st6" x1="85.3" y1="1285.7" x2="1875" y2="1285.7"/>
				<line class="st5" x1="1914.8" y1="1285.7" x2="1914.8" y2="1285.7"/>
			</g>
		</g>
		<g>
			<g>
				<line class="st5" x1="5.8" y1="1365.7" x2="5.8" y2="1365.7"/>
				<line class="st6" x1="85.3" y1="1365.7" x2="1875" y2="1365.7"/>
				<line class="st5" x1="1914.8" y1="1365.7" x2="1914.8" y2="1365.7"/>
			</g>
		</g>
		<g>
			<g>
				<line class="st5" x1="5.8" y1="1445.7" x2="5.8" y2="1445.7"/>
				<line class="st6" x1="85.3" y1="1445.7" x2="1875" y2="1445.7"/>
				<line class="st5" x1="1914.8" y1="1445.7" x2="1914.8" y2="1445.7"/>
			</g>
		</g>
		<g>
			<g>
				<line class="st5" x1="5.8" y1="1525.7" x2="5.8" y2="1525.7"/>
				<line class="st6" x1="85.3" y1="1525.7" x2="1875" y2="1525.7"/>
				<line class="st5" x1="1914.8" y1="1525.7" x2="1914.8" y2="1525.7"/>
			</g>
		</g>
		<g>
			<g>
				<line class="st5" x1="5.8" y1="1605.7" x2="5.8" y2="1605.7"/>
				<line class="st6" x1="85.3" y1="1605.7" x2="1875" y2="1605.7"/>
				<line class="st5" x1="1914.8" y1="1605.7" x2="1914.8" y2="1605.7"/>
			</g>
		</g>
		<g>
			<g>
				<line class="st5" x1="5.8" y1="1685.7" x2="5.8" y2="1685.7"/>
				<line class="st6" x1="85.3" y1="1685.7" x2="1875" y2="1685.7"/>
				<line class="st5" x1="1914.8" y1="1685.7" x2="1914.8" y2="1685.7"/>
			</g>
		</g>
		<g>
			<g>
				<line class="st5" x1="5.8" y1="1765.7" x2="5.8" y2="1765.7"/>
				<line class="st6" x1="85.3" y1="1765.7" x2="1875" y2="1765.7"/>
				<line class="st5" x1="1914.8" y1="1765.7" x2="1914.8" y2="1765.7"/>
			</g>
		</g>
		<g>
			<g>
				<line class="st5" x1="5.8" y1="1845.7" x2="5.8" y2="1845.7"/>
				<line class="st6" x1="85.3" y1="1845.7" x2="1875" y2="1845.7"/>
				<line class="st5" x1="1914.8" y1="1845.7" x2="1914.8" y2="1845.7"/>
			</g>
		</g>
		<g>
			<g>
				<line class="st5" x1="5.8" y1="1925.7" x2="5.8" y2="1925.7"/>
				<line class="st6" x1="85.3" y1="1925.7" x2="1875" y2="1925.7"/>
				<line class="st5" x1="1914.8" y1="1925.7" x2="1914.8" y2="1925.7"/>
			</g>
		</g>
		<g>
			<g>
				<line class="st5" x1="5.8" y1="2005.7" x2="5.8" y2="2005.7"/>
				<line class="st6" x1="85.3" y1="2005.7" x2="1875" y2="2005.7"/>
				<line class="st5" x1="1914.8" y1="2005.7" x2="1914.8" y2="2005.7"/>
			</g>
		</g>
		<g>
			<g>
				<line class="st5" x1="5.8" y1="2085.7" x2="5.8" y2="2085.7"/>
				<line class="st6" x1="85.3" y1="2085.7" x2="1875" y2="2085.7"/>
				<line class="st5" x1="1914.8" y1="2085.7" x2="1914.8" y2="2085.7"/>
			</g>
		</g>
		<g>
			<g>
				<line class="st5" x1="5.8" y1="2165.7" x2="5.8" y2="2165.7"/>
				<line class="st6" x1="85.3" y1="2165.7" x2="1875" y2="2165.7"/>
				<line class="st5" x1="1914.8" y1="2165.7" x2="1914.8" y2="2165.7"/>
			</g>
		</g>
		<g>
			<g>
				<line class="st5" x1="5.8" y1="2245.7" x2="5.8" y2="2245.7"/>
				<line class="st6" x1="85.3" y1="2245.7" x2="1875" y2="2245.7"/>
				<line class="st5" x1="1914.8" y1="2245.7" x2="1914.8" y2="2245.7"/>
			</g>
		</g>
		<g>
			<g>
				<line class="st5" x1="5.8" y1="2325.7" x2="5.8" y2="2325.7"/>
				<line class="st6" x1="85.3" y1="2325.7" x2="1875" y2="2325.7"/>
				<line class="st5" x1="1914.8" y1="2325.7" x2="1914.8" y2="2325.7"/>
			</g>
		</g>
		<g>
			<g>
				<line class="st5" x1="5.8" y1="2405.7" x2="5.8" y2="2405.7"/>
				<line class="st6" x1="85.3" y1="2405.7" x2="1875" y2="2405.7"/>
				<line class="st5" x1="1914.8" y1="2405.7" x2="1914.8" y2="2405.7"/>
			</g>
		</g>
		<g>
			<g>
				<line class="st5" x1="5.8" y1="2485.7" x2="5.8" y2="2485.7"/>
				<line class="st6" x1="85.3" y1="2485.7" x2="1875" y2="2485.7"/>
				<line class="st5" x1="1914.8" y1="2485.7" x2="1914.8" y2="2485.7"/>
			</g>
		</g>
		<g>
			<g>
				<line class="st5" x1="5.8" y1="2565.7" x2="5.8" y2="2565.7"/>
				<line class="st6" x1="85.3" y1="2565.7" x2="1875" y2="2565.7"/>
				<line class="st5" x1="1914.8" y1="2565.7" x2="1914.8" y2="2565.7"/>
			</g>
		</g>
		<g>
			<g>
				<line class="st5" x1="5.8" y1="2645.7" x2="5.8" y2="2645.7"/>
				<line class="st6" x1="85.3" y1="2645.7" x2="1875" y2="2645.7"/>
				<line class="st5" x1="1914.8" y1="2645.7" x2="1914.8" y2="2645.7"/>
			</g>
		</g>
		<g>
			<g>
				<line class="st5" x1="5.8" y1="2725.7" x2="5.8" y2="2725.7"/>
				<line class="st6" x1="85.3" y1="2725.7" x2="1875" y2="2725.7"/>
				<line class="st5" x1="1914.8" y1="2725.7" x2="1914.8" y2="2725.7"/>
			</g>
		</g>
		<g>
			<g>
				<line class="st5" x1="5.8" y1="2805.7" x2="5.8" y2="2805.7"/>
				<line class="st6" x1="85.3" y1="2805.7" x2="1875" y2="2805.7"/>
				<line class="st5" x1="1914.8" y1="2805.7" x2="1914.8" y2="2805.7"/>
			</g>
		</g>
		<g>
			<g>
				<line class="st5" x1="5.8" y1="2885.7" x2="5.8" y2="2885.7"/>
				<line class="st6" x1="85.3" y1="2885.7" x2="1875" y2="2885.7"/>
				<line class="st5" x1="1914.8" y1="2885.7" x2="1914.8" y2="2885.7"/>
			</g>
		</g>
		<g>
			<g>
				<line class="st5" x1="5.8" y1="2965.7" x2="5.8" y2="2965.7"/>
				<line class="st6" x1="85.3" y1="2965.7" x2="1875" y2="2965.7"/>
				<line class="st5" x1="1914.8" y1="2965.7" x2="1914.8" y2="2965.7"/>
			</g>
		</g>
		<g>
			<g>
				<line class="st5" x1="5.8" y1="3045.7" x2="5.8" y2="3045.7"/>
				<line class="st6" x1="85.3" y1="3045.7" x2="1875" y2="3045.7"/>
				<line class="st5" x1="1914.8" y1="3045.7" x2="1914.8" y2="3045.7"/>
			</g>
		</g>
		<g>
			<g>
				<line class="st5" x1="5.8" y1="3125.7" x2="5.8" y2="3125.7"/>
				<line class="st6" x1="85.3" y1="3125.7" x2="1875" y2="3125.7"/>
				<line class="st5" x1="1914.8" y1="3125.7" x2="1914.8" y2="3125.7"/>
			</g>
		</g>
		<g>
			<g>
				<line class="st5" x1="5.8" y1="3205.7" x2="5.8" y2="3205.7"/>
				<line class="st6" x1="85.3" y1="3205.7" x2="1875" y2="3205.7"/>
				<line class="st5" x1="1914.8" y1="3205.7" x2="1914.8" y2="3205.7"/>
			</g>
		</g>
		<g>
			<g>
				<line class="st5" x1="5.8" y1="3285.7" x2="5.8" y2="3285.7"/>
				<line class="st6" x1="85.3" y1="3285.7" x2="1875" y2="3285.7"/>
				<line class="st5" x1="1914.8" y1="3285.7" x2="1914.8" y2="3285.7"/>
			</g>
		</g>
		<g>
			<g>
				<line class="st5" x1="5.8" y1="3365.7" x2="5.8" y2="3365.7"/>
				<line class="st6" x1="85.3" y1="3365.7" x2="1875" y2="3365.7"/>
				<line class="st5" x1="1914.8" y1="3365.7" x2="1914.8" y2="3365.7"/>
			</g>
		</g>
		<g>
			<g>
				<line class="st5" x1="5.8" y1="3445.7" x2="5.8" y2="3445.7"/>
				<line class="st6" x1="85.3" y1="3445.7" x2="1875" y2="3445.7"/>
				<line class="st5" x1="1914.8" y1="3445.7" x2="1914.8" y2="3445.7"/>
			</g>
		</g>
		<g>
			<g>
				<line class="st5" x1="5.8" y1="3525.7" x2="5.8" y2="3525.7"/>
				<line class="st6" x1="85.3" y1="3525.7" x2="1875" y2="3525.7"/>
				<line class="st5" x1="1914.8" y1="3525.7" x2="1914.8" y2="3525.7"/>
			</g>
		</g>
		<g>
			<g>
				<line class="st5" x1="5.8" y1="3605.7" x2="5.8" y2="3605.7"/>
				<line class="st6" x1="85.3" y1="3605.7" x2="1875" y2="3605.7"/>
				<line class="st5" x1="1914.8" y1="3605.7" x2="1914.8" y2="3605.7"/>
			</g>
		</g>
		<g>
			<g>
				<line class="st5" x1="5.8" y1="3685.7" x2="5.8" y2="3685.7"/>
				<line class="st6" x1="85.3" y1="3685.7" x2="1875" y2="3685.7"/>
				<line class="st5" x1="1914.8" y1="3685.7" x2="1914.8" y2="3685.7"/>
			</g>
		</g>
		<g>
			<g>
				<line class="st5" x1="5.8" y1="3765.7" x2="5.8" y2="3765.7"/>
				<line class="st6" x1="85.3" y1="3765.7" x2="1875" y2="3765.7"/>
				<line class="st5" x1="1914.8" y1="3765.7" x2="1914.8" y2="3765.7"/>
			</g>
		</g>
	</g>
</g>
<g id="Details">
	<g>
		<linearGradient id="SVGID_1_" gradientUnits="userSpaceOnUse" x1="1713.5981" y1="1201.9227" x2="1849.1547" y2="849.2459">
			<stop  offset="0" style="stop-color:#CA5752"/>
			<stop  offset="0.234" style="stop-color:#D36356"/>
			<stop  offset="1" style="stop-color:#F08762"/>
		</linearGradient>
		<polyline class="st7" points="1921.3,711.1 1724.9,743.5 1651.4,945.6 1790,1112.4 1921.3,1090.5 		"/>
		
			<linearGradient id="SVGID_2_" gradientUnits="userSpaceOnUse" x1="122.4592" y1="199.694" x2="256.6965" y2="199.694" gradientTransform="matrix(-0.2121 -0.9772 0.9772 -0.2121 1423.4598 1340.0225)">
			<stop  offset="0" style="stop-color:#F07062"/>
			<stop  offset="1" style="stop-color:#F09B58"/>
		</linearGradient>
		<polygon class="st8" points="1603.4,1175.7 1645.7,1122.4 1620.7,1059.1 1553.4,1049.1 1511.1,1102.4 1536.1,1165.7 		"/>
		
			<linearGradient id="SVGID_3_" gradientUnits="userSpaceOnUse" x1="742.571" y1="534.8069" x2="792.7047" y2="534.8069" gradientTransform="matrix(0.2206 -0.9754 0.9754 0.2206 932.4874 1246.8068)">
			<stop  offset="0" style="stop-color:#F07062"/>
			<stop  offset="1" style="stop-color:#F09B58"/>
		</linearGradient>
		<polygon class="st9" points="1622,641.4 1644.7,630.1 1646.2,604.7 1625,590.7 1602.3,602.1 1600.8,627.4 		"/>
		
			<linearGradient id="SVGID_4_" gradientUnits="userSpaceOnUse" x1="-1259.6053" y1="1137.1132" x2="-952.3901" y2="1137.1132" gradientTransform="matrix(0.9992 -3.933150e-02 3.933150e-02 0.9992 2703.4255 1536.1868)">
			<stop  offset="0" style="stop-color:#CA5752"/>
			<stop  offset="0.234" style="stop-color:#D36356"/>
			<stop  offset="1" style="stop-color:#F08762"/>
		</linearGradient>
		<polygon class="st10" points="1490.5,2747.1 1593.8,2863.6 1746.3,2832.4 1795.5,2684.7 1692.2,2568.3 1539.7,2599.5 		"/>
		
			<linearGradient id="SVGID_5_" gradientUnits="userSpaceOnUse" x1="-1137.3909" y1="117.3146" x2="-1080.8998" y2="117.3146" gradientTransform="matrix(-0.2121 -0.9772 0.9772 -0.2121 1423.4598 1340.0225)">
			<stop  offset="0" style="stop-color:#F07062"/>
			<stop  offset="1" style="stop-color:#F09B58"/>
		</linearGradient>
		<polygon class="st11" points="1783.9,2425.7 1801.7,2403.2 1791.2,2376.6 1762.9,2372.4 1745.1,2394.8 1755.6,2421.5 		"/>
		
			<linearGradient id="SVGID_6_" gradientUnits="userSpaceOnUse" x1="4971.1245" y1="-2337.6274" x2="5049.8467" y2="-2337.6274" gradientTransform="matrix(0.2121 0.9772 -0.9772 0.2121 -1492.074 -1406.3685)">
			<stop  offset="0" style="stop-color:#F07062"/>
			<stop  offset="1" style="stop-color:#F09B58"/>
		</linearGradient>
		<polygon class="st12" points="1840.6,2957.1 1815.8,2988.3 1830.5,3025.4 1869.9,3031.3 1894.7,3000 1880.1,2962.9 		"/>
		<linearGradient id="SVGID_7_" gradientUnits="userSpaceOnUse" x1="1834.4243" y1="634.8668" x2="1854.9716" y2="608.8857">
			<stop  offset="0" style="stop-color:#F07062"/>
			<stop  offset="1" style="stop-color:#F0D058"/>
		</linearGradient>
		<circle class="st13" cx="1846.4" cy="619.7" r="4.9"/>
		<linearGradient id="SVGID_8_" gradientUnits="userSpaceOnUse" x1="1532.4337" y1="856.4778" x2="1550.3204" y2="830.8929">
			<stop  offset="0" style="stop-color:#F07062"/>
			<stop  offset="1" style="stop-color:#F0D058"/>
		</linearGradient>
		<circle class="st14" cx="1543.5" cy="840.7" r="7.4"/>
		<linearGradient id="SVGID_9_" gradientUnits="userSpaceOnUse" x1="1785.5941" y1="1265.0157" x2="1802.4054" y2="1250.6666">
			<stop  offset="0" style="stop-color:#F07062"/>
			<stop  offset="1" style="stop-color:#F0D058"/>
		</linearGradient>
		<circle class="st15" cx="1793.7" cy="1258.1" r="7.4"/>
		<linearGradient id="SVGID_10_" gradientUnits="userSpaceOnUse" x1="1484.9675" y1="2478.7754" x2="1507.6091" y2="2458.8508">
			<stop  offset="0" style="stop-color:#F07062"/>
			<stop  offset="1" style="stop-color:#F0D058"/>
		</linearGradient>
		<circle class="st16" cx="1497.9" cy="2467.4" r="7.4"/>
		<linearGradient id="SVGID_11_" gradientUnits="userSpaceOnUse" x1="1860.7443" y1="2800.9514" x2="1886.1028" y2="2758.3855">
			<stop  offset="0" style="stop-color:#F07062"/>
			<stop  offset="1" style="stop-color:#F0D058"/>
		</linearGradient>
		<circle class="st17" cx="1875.9" cy="2775.5" r="12.1"/>
		<linearGradient id="SVGID_12_" gradientUnits="userSpaceOnUse" x1="1570.469" y1="3039.5886" x2="1591.2992" y2="3008.3435">
			<stop  offset="0" style="stop-color:#F07062"/>
			<stop  offset="1" style="stop-color:#F0D058"/>
		</linearGradient>
		<circle class="st18" cx="1584.1" cy="3019.1" r="8.6"/>
	</g>
	<g class="st3">
		<linearGradient id="SVGID_13_" gradientUnits="userSpaceOnUse" x1="-227.2616" y1="286.0742" x2="357.5686" y2="288.1119">
			<stop  offset="0" style="stop-color:#CA5752"/>
			<stop  offset="0.234" style="stop-color:#D36356"/>
			<stop  offset="1" style="stop-color:#F08762"/>
		</linearGradient>
		<polyline class="st19" points="0,466.4 175.5,437.4 241.3,256.8 117.4,107.7 0,127.3 		"/>
		
			<linearGradient id="SVGID_14_" gradientUnits="userSpaceOnUse" x1="2920.1619" y1="-59.414" x2="3043.9929" y2="-59.414" gradientTransform="matrix(0.1747 0.9846 -0.9846 0.1747 -373.876 -2275.0168)">
			<stop  offset="0" style="stop-color:#F07062"/>
			<stop  offset="1" style="stop-color:#F09B58"/>
		</linearGradient>
		<polygon class="st20" points="184.6,591.7 143.8,639.3 164.6,698.5 226.3,710 267.1,662.4 246.3,603.2 		"/>
		
			<linearGradient id="SVGID_15_" gradientUnits="userSpaceOnUse" x1="2503.5161" y1="-944.39" x2="2584.2" y2="-944.39" gradientTransform="matrix(-0.7654 0.6436 -0.6436 -0.7654 1761.9115 -2145.6118)">
			<stop  offset="0" style="stop-color:#F07062"/>
			<stop  offset="1" style="stop-color:#F09B58"/>
		</linearGradient>
		<polygon class="st21" points="449.3,183.3 409.1,175.8 382.5,206.8 396,245.4 436.2,252.9 462.8,221.9 		"/>
		
			<linearGradient id="SVGID_16_" gradientUnits="userSpaceOnUse" x1="-1090.0239" y1="-1540.5496" x2="-1033.5328" y2="-1540.5496" gradientTransform="matrix(-0.2121 -0.9772 0.9772 -0.2121 1423.4598 1340.0225)">
			<stop  offset="0" style="stop-color:#F07062"/>
			<stop  offset="1" style="stop-color:#F09B58"/>
		</linearGradient>
		<polygon class="st22" points="153.7,2731.1 171.5,2708.7 161,2682 132.7,2677.8 114.9,2700.2 125.4,2726.9 		"/>
		
			<linearGradient id="SVGID_17_" gradientUnits="userSpaceOnUse" x1="1247.076" y1="-2793.2095" x2="1371.71" y2="-3117.469" gradientTransform="matrix(-1 0 0 -1 1438.0511 -1211.8496)">
			<stop  offset="0" style="stop-color:#CA5752"/>
			<stop  offset="0.234" style="stop-color:#D36356"/>
			<stop  offset="1" style="stop-color:#F08762"/>
		</linearGradient>
		<polyline class="st23" points="0,2032.7 180.6,2002.8 248.2,1817 120.7,1663.7 0,1683.8 		"/>
		
			<linearGradient id="SVGID_18_" gradientUnits="userSpaceOnUse" x1="4487.3262" y1="-921.4804" x2="4633.7036" y2="-921.4804" gradientTransform="matrix(-0.4225 0.9064 -0.9064 -0.4225 1411.6072 -2309.8376)">
			<stop  offset="0" style="stop-color:#F07062"/>
			<stop  offset="1" style="stop-color:#F09B58"/>
		</linearGradient>
		<polygon class="st24" points="340,2141.6 268.2,2159.9 248.1,2231.3 300,2284.4 371.8,2266 391.9,2194.6 		"/>
		
			<linearGradient id="SVGID_19_" gradientUnits="userSpaceOnUse" x1="4008.8555" y1="-790.4673" x2="4099.6377" y2="-790.4673" gradientTransform="matrix(-0.2206 0.9754 -0.9754 -0.2206 505.5638 -2458.6563)">
			<stop  offset="0" style="stop-color:#F07062"/>
			<stop  offset="1" style="stop-color:#F09B58"/>
		</linearGradient>
		<polygon class="st25" points="384.8,1624.2 343.7,1644.7 340.9,1690.7 379.3,1716 420.5,1695.4 423.2,1649.5 		"/>
		
			<linearGradient id="SVGID_20_" gradientUnits="userSpaceOnUse" x1="1298.9186" y1="-4486.9917" x2="1389.7191" y2="-4723.2271" gradientTransform="matrix(-1 0 0 -1 1438.0511 -1211.8496)">
			<stop  offset="0" style="stop-color:#CA5752"/>
			<stop  offset="0.234" style="stop-color:#D36356"/>
			<stop  offset="1" style="stop-color:#F08762"/>
		</linearGradient>
		<polyline class="st26" points="0,3603.9 131.5,3582.2 180.8,3446.8 87.9,3335.1 0,3349.8 		"/>
		
			<linearGradient id="SVGID_21_" gradientUnits="userSpaceOnUse" x1="6033.8428" y1="-1067.9083" x2="6134.8745" y2="-1067.9083" gradientTransform="matrix(-0.2206 0.9754 -0.9754 -0.2206 505.5638 -2458.6563)">
			<stop  offset="0" style="stop-color:#F07062"/>
			<stop  offset="1" style="stop-color:#F09B58"/>
		</linearGradient>
		<polyline class="st27" points="255.4,3749.2 258.7,3694.4 206.7,3660 150.9,3687.9 147.2,3750.1 		"/>
		
			<linearGradient id="SVGID_22_" gradientUnits="userSpaceOnUse" x1="5602.1821" y1="-1088.5739" x2="5704.7798" y2="-1088.5739" gradientTransform="matrix(-0.2206 0.9754 -0.9754 -0.2206 505.5638 -2458.6563)">
			<stop  offset="0" style="stop-color:#F07062"/>
			<stop  offset="1" style="stop-color:#F09B58"/>
		</linearGradient>
		<polygon class="st28" points="323.1,3243.8 276.6,3267 273.5,3318.9 316.9,3347.6 363.4,3324.3 366.5,3272.4 		"/>
		<linearGradient id="SVGID_23_" gradientUnits="userSpaceOnUse" x1="26.0265" y1="652.4493" x2="49.8001" y2="644.072">
			<stop  offset="0" style="stop-color:#F07062"/>
			<stop  offset="1" style="stop-color:#F0D058"/>
		</linearGradient>
		<circle class="st29" cx="38.5" cy="648.1" r="4.9"/>
		<linearGradient id="SVGID_24_" gradientUnits="userSpaceOnUse" x1="472.3175" y1="1976.9248" x2="516.4684" y2="1978.6229">
			<stop  offset="0" style="stop-color:#F07062"/>
			<stop  offset="1" style="stop-color:#F0D058"/>
		</linearGradient>
		<circle class="st30" cx="496.1" cy="1977.8" r="7.4"/>
		<linearGradient id="SVGID_25_" gradientUnits="userSpaceOnUse" x1="354.6806" y1="3527.7671" x2="381.3976" y2="3509.2009">
			<stop  offset="0" style="stop-color:#F07062"/>
			<stop  offset="1" style="stop-color:#F0D058"/>
		</linearGradient>
		<circle class="st31" cx="368.4" cy="3518.2" r="5.2"/>
		<linearGradient id="SVGID_26_" gradientUnits="userSpaceOnUse" x1="83.1026" y1="3129.3301" x2="179.5554" y2="3126.613">
			<stop  offset="0" style="stop-color:#F07062"/>
			<stop  offset="1" style="stop-color:#F0D058"/>
		</linearGradient>
		<circle class="st32" cx="130" cy="3128" r="13.2"/>
		<linearGradient id="SVGID_27_" gradientUnits="userSpaceOnUse" x1="64.6795" y1="2190.5435" x2="73.9342" y2="2177.2134">
			<stop  offset="0" style="stop-color:#F07062"/>
			<stop  offset="1" style="stop-color:#F0D058"/>
		</linearGradient>
		<circle class="st33" cx="69.3" cy="2183.9" r="5.2"/>
		<linearGradient id="SVGID_28_" gradientUnits="userSpaceOnUse" x1="377.3713" y1="2798.0378" x2="386.626" y2="2784.7078">
			<stop  offset="0" style="stop-color:#F07062"/>
			<stop  offset="1" style="stop-color:#F0D058"/>
		</linearGradient>
		<circle class="st34" cx="382" cy="2791.4" r="5.2"/>
		<linearGradient id="SVGID_29_" gradientUnits="userSpaceOnUse" x1="206.9232" y1="2549.4014" x2="227.2209" y2="2520.1653">
			<stop  offset="0" style="stop-color:#F07062"/>
			<stop  offset="1" style="stop-color:#F0D058"/>
		</linearGradient>
		<circle class="st35" cx="217.1" cy="2534.8" r="11.4"/>
		<linearGradient id="SVGID_30_" gradientUnits="userSpaceOnUse" x1="166.8156" y1="1554.8336" x2="182.2119" y2="1534.4563">
			<stop  offset="0" style="stop-color:#F07062"/>
			<stop  offset="1" style="stop-color:#F0D058"/>
		</linearGradient>
		<circle class="st36" cx="175.2" cy="1543.8" r="7.4"/>
		<linearGradient id="SVGID_31_" gradientUnits="userSpaceOnUse" x1="270.6556" y1="120.7908" x2="296.2405" y2="94.3003">
			<stop  offset="0" style="stop-color:#F07062"/>
			<stop  offset="1" style="stop-color:#F0D058"/>
		</linearGradient>
		<circle class="st37" cx="282.2" cy="108.9" r="11.4"/>
	</g>
</g>
</svg>
