<svg xmlns="http://www.w3.org/2000/svg" xmlns:xlink="http://www.w3.org/1999/xlink" viewBox="0 0 1920 3748"><defs><linearGradient id="linear-gradient" x1="1947.9279" y1="3839.07807" x2="1739.60513" y2="-14.89327" gradientUnits="userSpaceOnUse"><stop offset="0" stop-color="#81217e"/><stop offset="0.5" stop-color="#da4154"/><stop offset="1" stop-color="#e66e26"/></linearGradient><linearGradient id="linear-gradient-2" x1="1726.44127" y1="3851.33612" x2="1518.10084" y2="-2.96175" xlink:href="#linear-gradient"/><linearGradient id="linear-gradient-3" x1="1798.14693" y1="3847.46014" x2="1589.80651" y2="-6.83773" xlink:href="#linear-gradient"/><linearGradient id="linear-gradient-4" x1="1704.44604" y1="3852.52506" x2="1496.10561" y2="-1.77282" xlink:href="#linear-gradient"/><linearGradient id="linear-gradient-5" x1="1851.54066" y1="3844.574" x2="1643.20024" y2="-9.72388" xlink:href="#linear-gradient"/><linearGradient id="linear-gradient-6" x1="1901.11655" y1="3841.89422" x2="1692.77612" y2="-12.40365" xlink:href="#linear-gradient"/><linearGradient id="linear-gradient-7" x1="2020.25953" y1="3835.45406" x2="1811.9191" y2="-18.84382" xlink:href="#linear-gradient"/><linearGradient id="linear-gradient-8" x1="1706.28858" y1="3852.42546" x2="1497.94815" y2="-1.87241" xlink:href="#linear-gradient"/><linearGradient id="linear-gradient-9" x1="1933.28559" y1="3840.15535" x2="1724.94517" y2="-14.14252" xlink:href="#linear-gradient"/><linearGradient id="linear-gradient-10" x1="1573.13582" y1="3859.62291" x2="1364.79539" y2="5.32503" xlink:href="#linear-gradient"/><linearGradient id="linear-gradient-11" x1="1933.42733" y1="3840.14769" x2="1725.08691" y2="-14.15018" xlink:href="#linear-gradient"/><linearGradient id="linear-gradient-12" x1="1629.37524" y1="3856.58294" x2="1421.03482" y2="2.28506" xlink:href="#linear-gradient"/></defs><title>bgright</title><g id="Export"><g opacity="0"><rect width="1920" height="937" fill="#ff9f9f"/></g><g opacity="0"><rect y="937" width="1920" height="937" fill="#33ffa2"/></g><g opacity="0"><rect y="1874" width="1920" height="937" fill="#ff9f9f"/></g><g opacity="0"><rect y="2811" width="1920" height="937" fill="#33ffa2"/></g></g><g id="Details_1200" data-name="Details 1200"><g id="Right"><polyline points="1920 711.117 1723.92 743.497 1650.375 945.646 1789.009 1112.396 1920 1090.542" fill="url(#linear-gradient)"/><polygon points="1603.38 1175.653 1645.667 1122.383 1620.678 1059.126 1553.401 1049.139 1511.113 1102.409 1536.103 1165.666 1603.38 1175.653" fill="url(#linear-gradient-2)"/><polygon points="1621.955 641.434 1644.675 630.075 1646.198 604.719 1625.001 590.722 1602.281 602.081 1600.757 627.437 1621.955 641.434" fill="url(#linear-gradient-3)"/><polygon points="1490.509 2747.12 1593.778 2863.588 1746.277 2832.389 1795.506 2684.721 1692.238 2568.253 1539.739 2599.453 1490.509 2747.12" fill="url(#linear-gradient-4)"/><polygon points="1783.92 2425.655 1801.716 2403.237 1791.199 2376.616 1762.887 2372.414 1745.091 2394.831 1755.608 2421.452 1783.92 2425.655" fill="url(#linear-gradient-5)"/><polygon points="1840.638 2957.058 1815.839 2988.298 1830.494 3025.394 1869.948 3031.251 1894.747 3000.011 1880.092 2962.915 1840.638 2957.058" fill="url(#linear-gradient-6)"/><circle cx="1846.43396" cy="619.68111" r="4.92453" fill="url(#linear-gradient-7)"/><circle cx="1543.49057" cy="840.66224" r="7.37171" fill="url(#linear-gradient-8)"/><circle cx="1793.71422" cy="1258.08491" r="7.37171" fill="url(#linear-gradient-9)"/><circle cx="1497.88114" cy="2467.41141" r="7.37171" fill="url(#linear-gradient-10)"/><circle cx="1875.88114" cy="2775.54321" r="12.12259" fill="url(#linear-gradient-11)"/><circle cx="1584.10756" cy="3019.13082" r="8.57197" fill="url(#linear-gradient-12)"/></g></g></svg>