<svg xmlns="http://www.w3.org/2000/svg" viewBox="0 0 179.68 66.43"><defs><style>.cls-1,.cls-2{fill:#32333f;}.cls-1{stroke:#32333f;stroke-miterlimit:10;stroke-width:0.45px;}.cls-3{fill:#d56f63;}.cls-4{fill:#b25853;}</style></defs><title>hkplogo_1</title><g id="Camada_2" data-name="Camada 2"><g id="Site"><g id="Header"><g id="hokup"><path class="cls-1" d="M85.41,28.09a7.19,7.19,0,0,1,2.93,3,9.81,9.81,0,0,1,1.06,4.71v8.37a1.74,1.74,0,1,1-3.47,0V35.78a5,5,0,0,0-5.41-5.58,5.81,5.81,0,0,0-2.6.58,4.63,4.63,0,0,0-1.84,1.57,3.88,3.88,0,0,0-.66,2.21v9.59a1.72,1.72,0,0,1-.48,1.24,1.74,1.74,0,0,1-3-1.24V21a1.67,1.67,0,0,1,.49-1.26,1.73,1.73,0,0,1,3,1.26v8.34A7.55,7.55,0,0,1,78,27.67a9.08,9.08,0,0,1,7.42.43Z"/><path class="cls-1" d="M108.43,28.31a8.69,8.69,0,0,1,3.33,3.35,10.54,10.54,0,0,1,0,9.77,8.56,8.56,0,0,1-3.32,3.35,10.37,10.37,0,0,1-9.71,0,8.53,8.53,0,0,1-3.33-3.35,10.61,10.61,0,0,1,0-9.77,8.53,8.53,0,0,1,3.33-3.35,9.74,9.74,0,0,1,4.87-1.21A9.58,9.58,0,0,1,108.43,28.31ZM100.5,31a5.73,5.73,0,0,0-2.16,2.28,6.88,6.88,0,0,0-.78,3.3,6.78,6.78,0,0,0,.78,3.28,5.76,5.76,0,0,0,2.16,2.26,6.34,6.34,0,0,0,6.23,0,5.64,5.64,0,0,0,2.14-2.26,6.91,6.91,0,0,0,.77-3.28,7,7,0,0,0-.77-3.3A5.62,5.62,0,0,0,106.73,31a6.35,6.35,0,0,0-6.23,0Z"/><path class="cls-1" d="M132.57,44.43a1.58,1.58,0,0,1-.61,1.26,1.71,1.71,0,0,1-1.09.41,1.49,1.49,0,0,1-1.23-.61l-6.46-8-1.7,1.5v5.21a1.67,1.67,0,1,1-3.33,0V20.95a1.67,1.67,0,1,1,3.33,0V34.8l8.27-7.38A1.44,1.44,0,0,1,130.8,27a1.42,1.42,0,0,1,1.16.54,1.44,1.44,0,0,1,.44,1.06,1.42,1.42,0,0,1-.54,1.16l-6.26,5.58,6.6,8.1A1.45,1.45,0,0,1,132.57,44.43Z"/><path class="cls-1" d="M154.11,27.69a1.7,1.7,0,0,1,.48,1.26V44.12a1.72,1.72,0,0,1-.48,1.24,1.74,1.74,0,0,1-3-1.24v-.37a7.55,7.55,0,0,1-2.59,1.68,8.56,8.56,0,0,1-3.2.6,8.66,8.66,0,0,1-4.22-1,7.18,7.18,0,0,1-2.93-3,9.81,9.81,0,0,1-1.06-4.71V28.94a1.74,1.74,0,1,1,3.47,0v8.37A5,5,0,0,0,146,42.89a5.8,5.8,0,0,0,2.6-.58,4.62,4.62,0,0,0,1.84-1.57,3.88,3.88,0,0,0,.66-2.21V28.94a1.67,1.67,0,0,1,.49-1.26,1.88,1.88,0,0,1,2.5,0Z"/><path class="cls-1" d="M174.85,28.35a9,9,0,0,1,3.39,3.4,9.58,9.58,0,0,1,1.23,4.81,10.17,10.17,0,0,1-1.14,4.81,8.59,8.59,0,0,1-3.13,3.39,8.49,8.49,0,0,1-11-1.87v9.19a1.77,1.77,0,0,1-3,1.26,1.67,1.67,0,0,1-.49-1.26V36.57A9.48,9.48,0,0,1,162,31.75a9.18,9.18,0,0,1,8.11-4.64A9.43,9.43,0,0,1,174.85,28.35Zm-1.7,13.75a6,6,0,0,0,2.18-2.28,6.61,6.61,0,0,0,.8-3.25,6.71,6.71,0,0,0-.8-3.27,6,6,0,0,0-2.18-2.3,5.93,5.93,0,0,0-8.32,2.3,6.81,6.81,0,0,0-.78,3.27,6.71,6.71,0,0,0,.78,3.25,6,6,0,0,0,8.32,2.28Z"/></g><g id="Logo"><polygon id="back" class="cls-2" points="57.53 49.82 57.53 16.61 28.77 0 0 16.61 0 49.82 28.77 66.43 57.53 49.82"/><polygon id="right" class="cls-3" points="28.77 3.87 28.77 17.93 28.77 17.93 42.29 25.41 42.29 41.06 54.46 48.09 54.46 18.38 28.77 3.87"/><polygon id="left" class="cls-4" points="28.77 3.87 28.77 17.93 28.77 17.93 15.24 25.41 15.24 41.06 3.07 48.09 3.07 18.38 28.77 3.87"/></g></g></g></g></svg>